<svg xmlns="http://www.w3.org/2000/svg" viewBox="0 0 720 220" role="img" aria-label="starsight wordmark" preserveAspectRatio="xMidYMid meet">
  <title>starsight</title>
  <g transform="translate(10,30) scale(1.6)">
    <defs>
      <radialGradient id="wm-corona" cx="50%" cy="50%" r="50%" gradientUnits="objectBoundingBox">
        <stop offset="32%" stop-color="#fdc78a" stop-opacity="0"/>
        <stop offset="36%" stop-color="#fdc78a" stop-opacity="0.85"/>
        <stop offset="50%" stop-color="#fdc78a" stop-opacity="0.25"/>
        <stop offset="100%" stop-color="#fdc78a" stop-opacity="0"/>
      </radialGradient>
    </defs>
    <circle cx="50" cy="50" r="50" fill="url(#wm-corona)"/>
    <g stroke="#fdc78a" stroke-width="0.4" stroke-linecap="round" opacity="0.45" fill="none">
    <line x1="67.20" y1="50.00" x2="92.00" y2="50.00"/>
    <line x1="68.62" y1="51.47" x2="95.55" y2="53.58"/>
    <line x1="67.08" y1="52.70" x2="91.71" y2="56.61"/>
    <line x1="67.59" y1="54.22" x2="93.01" y2="60.33"/>
    <line x1="66.93" y1="55.50" x2="91.37" y2="63.44"/>
    <line x1="66.56" y1="56.86" x2="90.48" y2="66.77"/>
    <line x1="66.22" y1="58.26" x2="89.65" y2="70.20"/>
    <line x1="64.89" y1="59.13" x2="86.38" y2="72.29"/>
    <line x1="64.34" y1="60.42" x2="85.04" y2="75.46"/>
    <line x1="63.74" y1="61.73" x2="83.58" y2="78.68"/>
    <line x1="63.26" y1="63.26" x2="82.45" y2="82.45"/>
    <line x1="62.02" y1="64.08" x2="79.41" y2="84.43"/>
    <line x1="60.28" y1="64.15" x2="75.11" y2="84.56"/>
    <line x1="59.82" y1="66.02" x2="74.02" y2="89.20"/>
    <line x1="58.40" y1="66.49" x2="70.55" y2="90.33"/>
    <line x1="56.85" y1="66.54" x2="66.75" y2="90.44"/>
    <line x1="55.77" y1="67.77" x2="64.12" y2="93.47"/>
    <line x1="54.18" y1="67.40" x2="60.21" y2="92.53"/>
    <line x1="52.85" y1="68.01" x2="56.97" y2="94.03"/>
    <line x1="51.39" y1="67.66" x2="53.40" y2="93.16"/>
    <line x1="50.00" y1="68.42" x2="50.00" y2="95.04"/>
    <line x1="48.58" y1="68.03" x2="46.53" y2="94.09"/>
    <line x1="47.14" y1="68.03" x2="43.02" y2="94.09"/>
    <line x1="45.83" y1="67.38" x2="39.80" y2="92.47"/>
    <line x1="44.62" y1="66.56" x2="36.85" y2="90.46"/>
    <line x1="43.22" y1="66.38" x2="33.42" y2="90.02"/>
    <line x1="41.83" y1="66.03" x2="30.03" y2="89.19"/>
    <line x1="41.01" y1="64.67" x2="28.05" y2="85.81"/>
    <line x1="39.74" y1="64.12" x2="24.93" y2="84.50"/>
    <line x1="38.39" y1="63.59" x2="21.63" y2="83.22"/>
    <line x1="36.72" y1="63.28" x2="17.52" y2="82.48"/>
    <line x1="36.04" y1="61.92" x2="15.86" y2="79.16"/>
    <line x1="35.72" y1="60.38" x2="15.10" y2="75.36"/>
    <line x1="34.76" y1="59.34" x2="12.76" y2="72.82"/>
    <line x1="34.39" y1="57.95" x2="11.86" y2="69.43"/>
    <line x1="33.26" y1="56.93" x2="9.07" y2="66.95"/>
    <line x1="32.15" y1="55.80" x2="6.32" y2="64.19"/>
    <line x1="31.84" y1="54.36" x2="5.58" y2="60.66"/>
    <line x1="32.27" y1="52.81" x2="6.66" y2="56.86"/>
    <line x1="31.63" y1="51.45" x2="5.07" y2="53.54"/>
    <line x1="31.85" y1="50.00" x2="5.61" y2="50.00"/>
    <line x1="31.36" y1="48.53" x2="4.40" y2="46.41"/>
    <line x1="32.30" y1="47.20" x2="6.73" y2="43.15"/>
    <line x1="32.94" y1="45.90" x2="8.32" y2="39.99"/>
    <line x1="32.58" y1="44.34" x2="7.41" y2="36.16"/>
    <line x1="32.93" y1="42.93" x2="8.26" y2="32.71"/>
    <line x1="34.27" y1="41.99" x2="11.57" y2="30.42"/>
    <line x1="34.63" y1="40.58" x2="12.44" y2="26.98"/>
    <line x1="35.90" y1="39.76" x2="15.56" y2="24.98"/>
    <line x1="36.78" y1="38.71" x2="17.72" y2="22.43"/>
    <line x1="37.50" y1="37.50" x2="19.45" y2="19.45"/>
    <line x1="38.71" y1="36.78" x2="22.42" y2="17.71"/>
    <line x1="39.13" y1="35.03" x2="23.40" y2="13.39"/>
    <line x1="40.55" y1="34.58" x2="26.90" y2="12.30"/>
    <line x1="41.90" y1="34.10" x2="30.20" y2="11.14"/>
    <line x1="42.88" y1="32.82" x2="32.59" y2="7.97"/>
    <line x1="44.45" y1="32.92" x2="36.43" y2="8.25"/>
    <line x1="45.90" y1="32.93" x2="39.99" y2="8.29"/>
    <line x1="47.23" y1="32.52" x2="43.24" y2="7.29"/>
    <line x1="48.63" y1="32.57" x2="46.65" y2="7.43"/>
    <line x1="50.00" y1="32.53" x2="50.00" y2="7.32"/>
    <line x1="51.36" y1="32.72" x2="53.32" y2="7.80"/>
    <line x1="52.89" y1="31.73" x2="57.08" y2="5.31"/>
    <line x1="54.02" y1="33.25" x2="59.82" y2="9.10"/>
    <line x1="55.36" y1="33.51" x2="63.09" y2="9.72"/>
    <line x1="56.63" y1="33.99" x2="66.19" y2="10.91"/>
    <line x1="58.24" y1="33.82" x2="70.15" y2="10.45"/>
    <line x1="59.19" y1="35.01" x2="72.45" y2="13.37"/>
    <line x1="60.47" y1="35.58" x2="75.60" y2="14.77"/>
    <line x1="61.51" y1="36.52" x2="78.13" y2="17.06"/>
    <line x1="62.58" y1="37.42" x2="80.74" y2="19.26"/>
    <line x1="63.70" y1="38.30" x2="83.48" y2="21.41"/>
    <line x1="64.14" y1="39.73" x2="84.54" y2="24.91"/>
    <line x1="64.70" y1="40.99" x2="85.91" y2="27.99"/>
    <line x1="65.60" y1="42.05" x2="88.10" y2="30.59"/>
    <line x1="66.77" y1="43.05" x2="91.00" y2="33.02"/>
    <line x1="66.59" y1="44.61" x2="90.53" y2="36.83"/>
    <line x1="67.80" y1="45.73" x2="93.53" y2="39.55"/>
    <line x1="67.28" y1="47.26" x2="92.21" y2="43.31"/>
    <line x1="67.22" y1="48.64" x2="92.05" y2="46.69"/>
    </g>
    <circle cx="50" cy="50" r="18" fill="#1a1a1a"/>
  </g>
  <text x="200" y="138" font-family='-apple-system, BlinkMacSystemFont, &quot;Segoe UI&quot;, Roboto, Helvetica, Arial, sans-serif' font-weight="700" font-size="104" fill="#2d2d2d" letter-spacing="-3">starsight</text>
  <g font-family='ui-monospace, SFMono-Regular, Menlo, Consolas, monospace' font-size="14" fill="#586172">
    <text x="200" y="180">v0.3.0</text>
    <text x="278" y="180" fill="#8a8fa3">·</text>
    <text x="290" y="180">rust 2024</text>
    <text x="380" y="180" fill="#8a8fa3">·</text>
    <text x="392" y="180">msrv 1.89</text>
    <text x="478" y="180" fill="#8a8fa3">·</text>
    <text x="490" y="180">gpl-3.0</text>
  </g>
</svg>
