<svg xmlns="http://www.w3.org/2000/svg" width="900" height="500" viewBox="0 0 900 500"><path fill="#1e1e1e" d="M54.6 48h828.2v407H54.6z" shape-rendering="crispEdges"/><text x="377.5" y="32" fill="#fff" font-family="sans-serif" font-size="16">
Twelve-session OHLC
</text><text x="443.5" y="490" fill="#ddd" font-family="sans-serif" font-size="12">
session
</text><text x="22" y="269.5" fill="#ddd" font-family="sans-serif" font-size="12" transform="rotate(-90 22 269.5)">
price
</text><path fill="none" stroke="#3a3a3a" d="M92.245 455V48m107.559 407V48m107.558 407V48M414.92 455V48m107.56 407V48m107.558 407V48m107.558 407V48m107.559 407V48M54.6 436.5h828.2M54.6 344h828.2M54.6 251.5h828.2M54.6 159h828.2M54.6 66.5h828.2" shape-rendering="crispEdges"/><path fill="#26a69a" d="M180.981 297.75h37.645V344h-37.645z" shape-rendering="crispEdges"/><path fill="none" stroke="#26a69a" d="M199.804 297.75V251.5m0 92.5v46.25" shape-rendering="crispEdges"/><path fill="#26a69a" d="M234.76 233h37.645v64.75H234.76z" shape-rendering="crispEdges"/><path fill="none" stroke="#26a69a" d="M253.583 233v-27.75m0 92.5V344" shape-rendering="crispEdges"/><path fill="#ef5350" d="M288.54 233h37.645v74H288.54z" shape-rendering="crispEdges"/><path fill="none" stroke="#ef5350" d="M307.362 233v-55.5m0 129.5v18.5" shape-rendering="crispEdges"/><path fill="#ef5350" d="M342.319 307h37.645v64.75h-37.645z" shape-rendering="crispEdges"/><path fill="none" stroke="#ef5350" d="M361.142 307v-46.25m0 111v18.5" shape-rendering="crispEdges"/><path fill="#26a69a" d="M396.098 325.5h37.645v46.25h-37.645z" shape-rendering="crispEdges"/><path fill="none" stroke="#26a69a" d="M414.92 325.5v-27.75m0 74V418" shape-rendering="crispEdges"/><path fill="#26a69a" d="M449.877 242.25h37.645v83.25h-37.645z" shape-rendering="crispEdges"/><path fill="none" stroke="#26a69a" d="M468.7 242.25v-18.5m0 101.75V344" shape-rendering="crispEdges"/><path fill="#26a69a" d="M503.657 177.5h37.645v64.75h-37.645z" shape-rendering="crispEdges"/><path fill="none" stroke="#26a69a" d="M522.48 177.5V159m0 83.25V270" shape-rendering="crispEdges"/><path fill="#ef5350" d="M557.436 177.5h37.646v46.25h-37.646z" shape-rendering="crispEdges"/><path fill="none" stroke="#ef5350" d="M576.258 177.5v-37m0 83.25v27.75" shape-rendering="crispEdges"/><path fill="#ef5350" d="M611.215 223.75h37.646V270h-37.646z" shape-rendering="crispEdges"/><path fill="none" stroke="#ef5350" d="M630.038 223.75V196m0 74v27.75" shape-rendering="crispEdges"/><path fill="#26a69a" d="M664.994 214.5h37.646V270h-37.646z" shape-rendering="crispEdges"/><path fill="none" stroke="#26a69a" d="M683.817 214.5v-9.25m0 64.75v27.75" shape-rendering="crispEdges"/><path fill="#26a69a" d="M718.773 168.25h37.646v46.25h-37.646z" shape-rendering="crispEdges"/><path fill="none" stroke="#26a69a" d="M737.596 168.25v-18.5m0 64.75V233" shape-rendering="crispEdges"/><path fill="#26a69a" d="M772.553 122h37.646v46.25h-37.646z" shape-rendering="crispEdges"/><path fill="none" stroke="#26a69a" d="M791.375 122v-9.25m0 55.5v37" shape-rendering="crispEdges"/><path fill="none" stroke="#ccc" d="M92.245 455v5" shape-rendering="crispEdges"/><text x="85.045" y="472" fill="#ccc" font-family="sans-serif" font-size="12">
-2
</text><path fill="none" stroke="#ccc" d="M199.804 455v5" shape-rendering="crispEdges"/><text x="196.204" y="472" fill="#ccc" font-family="sans-serif" font-size="12">
0
</text><path fill="none" stroke="#ccc" d="M307.362 455v5" shape-rendering="crispEdges"/><text x="303.762" y="472" fill="#ccc" font-family="sans-serif" font-size="12">
2
</text><path fill="none" stroke="#ccc" d="M414.92 455v5" shape-rendering="crispEdges"/><text x="411.321" y="472" fill="#ccc" font-family="sans-serif" font-size="12">
4
</text><path fill="none" stroke="#ccc" d="M522.48 455v5" shape-rendering="crispEdges"/><text x="518.879" y="472" fill="#ccc" font-family="sans-serif" font-size="12">
6
</text><path fill="none" stroke="#ccc" d="M630.038 455v5" shape-rendering="crispEdges"/><text x="626.438" y="472" fill="#ccc" font-family="sans-serif" font-size="12">
8
</text><path fill="none" stroke="#ccc" d="M737.596 455v5" shape-rendering="crispEdges"/><text x="730.396" y="472" fill="#ccc" font-family="sans-serif" font-size="12">
10
</text><path fill="none" stroke="#ccc" d="M845.155 455v5" shape-rendering="crispEdges"/><text x="837.955" y="472" fill="#ccc" font-family="sans-serif" font-size="12">
12
</text><path fill="none" stroke="#ccc" d="M54.6 436.5h-5" shape-rendering="crispEdges"/><text x="31" y="441.3" fill="#ccc" font-family="sans-serif" font-size="12">
90
</text><path fill="none" stroke="#ccc" d="M54.6 344h-5" shape-rendering="crispEdges"/><text x="24" y="348.8" fill="#ccc" font-family="sans-serif" font-size="12">
100
</text><path fill="none" stroke="#ccc" d="M54.6 251.5h-5" shape-rendering="crispEdges"/><text x="24" y="256.3" fill="#ccc" font-family="sans-serif" font-size="12">
110
</text><path fill="none" stroke="#ccc" d="M54.6 159h-5" shape-rendering="crispEdges"/><text x="24" y="163.8" fill="#ccc" font-family="sans-serif" font-size="12">
120
</text><path fill="none" stroke="#ccc" d="M54.6 66.5h-5" shape-rendering="crispEdges"/><text x="24" y="71.3" fill="#ccc" font-family="sans-serif" font-size="12">
130
</text><path fill="none" stroke="#000" d="M54.6 455h828.2M54.6 48v407" shape-rendering="crispEdges"/></svg>