<svg height="600" viewBox="0 0 800 600" width="800" xmlns="http://www.w3.org/2000/svg">
<rect fill="#1e1e1e" height="552" shape-rendering="crispEdges" width="784" x="8" y="40"/>
<text fill="#ffffff" font-family="sans-serif" font-size="16" x="304" y="32">
Battery — 78 / 100
</text>
<path d="M209.59029,506.40973 C104.4299,401.24933,104.4299,230.75067,209.59029,125.59029 C314.75067,20.429901,485.24933,20.429901,590.4097,125.59029 C695.57007,230.75067,695.57007,401.24933,590.4097,506.40973 L584.80945,500.80942 C686.87683,398.742,686.87683,233.258,584.80945,131.19058 C482.742,29.123138,317.258,29.123138,215.19058,131.19058 C113.12314,233.258,113.12314,398.742,215.19058,500.80942 z" fill="#8b8b8b" stroke="#000000" stroke-width="0"/>
<path d="M215.19058,500.80942 C113.12314,398.742,113.12314,233.258,215.19058,131.19058 C317.258,29.123138,482.742,29.123138,584.80945,131.19058 C686.87683,233.258,686.87683,398.742,584.80945,500.80942 L526.9398,442.93982 C597.04675,372.8329,597.04675,259.1671,526.9398,189.06018 C456.8329,118.95326,343.1671,118.95326,273.06018,189.06018 C202.95326,259.1671,202.95326,372.8329,273.06018,442.93982 z" fill="#c8c8c8" stroke="#000000" stroke-width="0"/>
<path d="M215.19058,500.80942 C113.12314,398.742,113.12314,233.258,215.19058,131.19058 C317.258,29.123138,482.742,29.123138,584.80945,131.19058 C686.87683,233.258,686.87683,398.742,584.80945,500.80942 L526.9398,442.93982 C597.04675,372.8329,597.04675,259.1671,526.9398,189.06018 C456.8329,118.95326,343.1671,118.95326,273.06018,189.06018 C202.95326,259.1671,202.95326,372.8329,273.06018,442.93982 z" fill="none" stroke="#ffffff" stroke-width="0.5"/>
<path d="M215.19058,500.80942 C137.26053,422.87936,116.589386,304.4391,163.51442,204.71832 C210.43945,104.99756,314.87552,45.428284,424.59616,55.799927 C534.3168,66.1716,625.74084,144.25511,653.14886,251.00241 L573.88007,271.3552 C555.0543,198.03381,492.258,144.40068,416.89432,137.27672 C341.53064,130.15274,269.79678,171.06902,237.56544,239.5641 C205.3341,308.05917,219.53247,389.41208,273.06018,442.93982 z" fill="#4caf50" stroke="#000000" stroke-width="0"/>
<path d="M215.19058,500.80942 C137.26053,422.87936,116.589386,304.4391,163.51442,204.71832 C210.43945,104.99756,314.87552,45.428284,424.59616,55.799927 C534.3168,66.1716,625.74084,144.25511,653.14886,251.00241 L573.88007,271.3552 C555.0543,198.03381,492.258,144.40068,416.89432,137.27672 C341.53064,130.15274,269.79678,171.06902,237.56544,239.5641 C205.3341,308.05917,219.53247,389.41208,273.06018,442.93982 z" fill="none" stroke="#ffffff" stroke-width="1"/>
</svg>