<svg xmlns="http://www.w3.org/2000/svg" width="1200" height="1200" viewBox="0 0 1200 1200"><path fill="#fff" d="M61.8 48h1113.8v1107H61.8z" shape-rendering="crispEdges"/><text x="450.7" y="32" fill="#111" font-family="sans-serif" font-size="16">
Kruskal–Szekeres Diagram  (M = 1)
</text><text x="539.5" y="1190" fill="#333" font-family="sans-serif" font-size="12">
u  (spacelike Kruskal)
</text><text x="22" y="677.1" fill="#333" font-family="sans-serif" font-size="12" transform="rotate(-90 22 677.1)">
v  (timelike Kruskal)
</text><path fill="none" stroke="#ddd" d="M112.427 1155V48m253.137 1107V48M618.7 1155V48m253.136 1107V48m253.137 1107V48M61.8 1104.682h1113.8M61.8 853.09h1113.8M61.8 601.5h1113.8M61.8 349.91h1113.8M61.8 98.318h1113.8" shape-rendering="crispEdges"/><path fill="none" stroke="#1f4fa8" stroke-width=".9" d="m1072.38 1042.502-7.333-7.455-7.209-7.334-7.086-7.215-6.967-7.1-6.848-6.984-6.732-6.872-6.618-6.761-6.506-6.653-6.395-6.546-6.285-6.441-6.18-6.338-6.073-6.236-5.97-6.137-5.867-6.038-5.767-5.943-5.668-5.847-5.571-5.754-5.475-5.663-5.381-5.573-5.289-5.485-5.197-5.398-5.107-5.312-5.019-5.229-4.932-5.146-4.846-5.065-4.762-4.985-4.68-4.908-4.597-4.83-4.517-4.755-4.438-4.681-4.36-4.608-4.283-4.537-4.208-4.466-4.134-4.397-4.06-4.329-3.989-4.262-3.917-4.197-3.848-4.133-3.779-4.07-3.71-4.007-3.645-3.947-3.58-3.886-3.513-3.828-3.45-3.77-3.388-3.714-3.326-3.658-3.265-3.604-3.205-3.55-3.146-3.497-3.088-3.446-3.03-3.395-2.974-3.345-2.918-3.297-2.863-3.248-2.81-3.202-2.755-3.155-2.704-3.11-2.651-3.067-2.6-3.022-2.551-2.98-2.5-2.938-2.452-2.897-2.404-2.856-2.355-2.818-2.31-2.779-2.262-2.74-2.217-2.704-2.172-2.667-2.128-2.632-2.083-2.597-2.04-2.563-1.998-2.529-1.956-2.497-1.914-2.464-1.873-2.433-1.832-2.403-1.793-2.372-1.753-2.343-1.713-2.314-1.676-2.287-1.637-2.259-1.6-2.232-1.561-2.205-1.526-2.18-1.489-2.156-1.453-2.13-1.418-2.108-1.382-2.084-1.348-2.061-1.313-2.04-1.28-2.018-1.245-1.996-1.213-1.977-1.18-1.957-1.146-1.937-1.114-1.919-1.083-1.9-1.05-1.884-1.02-1.865-.988-1.85-.957-1.832-.927-1.818-.896-1.802-.866-1.788-.837-1.774-.806-1.76-.777-1.746-.749-1.735-.719-1.722-.69-1.71-.662-1.7-.633-1.688-.605-1.678-.577-1.669-.55-1.659-.52-1.65-.495-1.642-.466-1.634-.439-1.626-.412-1.62-.384-1.613-.358-1.606-.33-1.601-.305-1.596-.277-1.59-.25-1.587-.225-1.583-.197-1.579-.172-1.576-.144-1.573-.119-1.571-.092-1.57-.065-1.568-.04-1.567-.013-1.567.013-1.567.04-1.567.065-1.568.092-1.57.119-1.571.144-1.573.172-1.576.197-1.58.224-1.582.25-1.586.278-1.591.304-1.596.33-1.6.359-1.607.384-1.613.412-1.62.44-1.626.465-1.634.494-1.642.522-1.65.549-1.66.577-1.668.605-1.678.633-1.688.662-1.7.69-1.71.72-1.722.748-1.735.777-1.746.807-1.76.836-1.774.866-1.788.896-1.802.927-1.818.957-1.833.988-1.849 1.02-1.865 1.05-1.883L733.98 536l1.114-1.919 1.147-1.937 1.18-1.957 1.212-1.977 1.245-1.996 1.28-2.018 1.313-2.04 1.348-2.061 1.382-2.084 1.418-2.107 1.453-2.131 1.49-2.155 1.525-2.18 1.562-2.206 1.6-2.232 1.636-2.26 1.676-2.286 1.713-2.314 1.753-2.343 1.793-2.372 1.832-2.403 1.873-2.433 1.914-2.464 1.956-2.497 1.997-2.53 2.04-2.562 2.084-2.597 2.128-2.632 2.172-2.667 2.217-2.704 2.263-2.74 2.309-2.78 2.355-2.817 2.404-2.856 2.451-2.897 2.501-2.938 2.55-2.98 2.6-3.022 2.652-3.066 2.704-3.11 2.756-3.156 2.809-3.202 2.863-3.248 2.918-3.297 2.974-3.345 3.03-3.395 3.088-3.446 3.146-3.497 3.205-3.55 3.265-3.604 3.326-3.658 3.387-3.713 3.45-3.77 3.515-3.829 3.579-3.886 3.644-3.947 3.711-4.007 3.78-4.07 3.847-4.133 3.917-4.197 3.989-4.262 4.06-4.33 4.134-4.396 4.208-4.466 4.283-4.537 4.36-4.608 4.438-4.68 4.517-4.756 4.598-4.83 4.679-4.908 4.762-4.985 4.846-5.065 4.932-5.146 5.02-5.229 5.106-5.312 5.197-5.398 5.289-5.485 5.38-5.573 5.476-5.663 5.571-5.754 5.668-5.847 5.767-5.942 5.868-6.039 5.97-6.137 6.073-6.236 6.179-6.338 6.285-6.44 6.395-6.547 6.506-6.653 6.618-6.761 6.732-6.872 6.848-6.985 6.967-7.099 7.086-7.215 7.209-7.334 7.332-7.454m-907.36 882.004 7.333-7.455 7.209-7.334 7.086-7.215 6.967-7.1 6.848-6.984 6.732-6.872 6.618-6.761 6.506-6.653 6.394-6.546L233 973.14l6.18-6.338 6.072-6.236 5.97-6.137 5.868-6.038 5.767-5.943 5.668-5.847 5.57-5.754 5.476-5.663 5.381-5.573 5.288-5.485 5.198-5.398 5.107-5.312 5.019-5.229 4.932-5.146 4.846-5.065 4.762-4.985 4.68-4.908 4.597-4.83 4.517-4.755 4.438-4.681 4.36-4.608 4.283-4.537 4.208-4.466 4.134-4.397 4.06-4.329 3.989-4.262 3.917-4.197 3.848-4.133 3.779-4.07 3.71-4.007 3.645-3.947 3.579-3.886 3.514-3.828 3.45-3.77 3.388-3.714 3.326-3.658 3.265-3.604 3.205-3.55 3.146-3.497 3.088-3.446 3.03-3.395 2.974-3.345 2.918-3.297 2.863-3.248 2.81-3.202 2.755-3.155 2.704-3.11 2.651-3.067 2.6-3.022 2.55-2.98 2.502-2.938 2.451-2.897 2.404-2.856 2.355-2.818 2.31-2.779 2.262-2.74 2.217-2.704 2.172-2.667 2.127-2.632 2.084-2.597 2.04-2.563 1.998-2.529 1.956-2.497 1.914-2.464 1.873-2.433 1.832-2.403 1.793-2.372 1.753-2.343 1.713-2.314 1.676-2.287 1.637-2.259 1.6-2.232 1.561-2.205 1.526-2.18 1.489-2.156 1.453-2.13 1.418-2.108 1.382-2.084 1.348-2.061 1.313-2.04 1.28-2.018 1.245-1.996 1.213-1.977 1.18-1.957 1.146-1.937 1.114-1.919 1.083-1.9 1.05-1.884 1.02-1.865.988-1.85.957-1.832.927-1.818.896-1.802.866-1.788.836-1.774.807-1.76.777-1.746.748-1.735.72-1.722.69-1.71.662-1.7.633-1.688.605-1.678.577-1.669.55-1.659.52-1.65.494-1.642.467-1.634.439-1.626.412-1.62.384-1.613.358-1.606.33-1.601.305-1.596.277-1.59.25-1.587.225-1.583.197-1.579.171-1.576.145-1.573.118-1.571.092-1.57.066-1.568.04-1.567.013-1.567-.013-1.567-.04-1.567-.066-1.568-.091-1.57-.119-1.571-.145-1.573-.17-1.576-.198-1.58-.224-1.582-.25-1.586-.278-1.591-.304-1.596-.331-1.6-.358-1.607-.384-1.613-.412-1.62-.44-1.626-.466-1.634-.493-1.642-.522-1.65-.549-1.66-.577-1.668-.605-1.678-.633-1.688-.662-1.7-.69-1.71-.72-1.722-.748-1.735-.777-1.746-.807-1.76-.836-1.774-.866-1.788-.896-1.802-.927-1.818-.957-1.833-.988-1.849-1.02-1.865-1.05-1.883L503.42 536l-1.114-1.919-1.147-1.937-1.18-1.957-1.212-1.977-1.245-1.996-1.28-2.018-1.313-2.04-1.348-2.061-1.382-2.084-1.418-2.107-1.453-2.131-1.49-2.155-1.525-2.18-1.562-2.206-1.6-2.232-1.636-2.26-1.676-2.286-1.713-2.314-1.753-2.343-1.793-2.372-1.832-2.403-1.873-2.433-1.914-2.464-1.956-2.497-1.997-2.53-2.04-2.562-2.084-2.597-2.128-2.632-2.172-2.667-2.217-2.704-2.263-2.74-2.309-2.78-2.355-2.817-2.404-2.856-2.451-2.897-2.501-2.938-2.55-2.98-2.6-3.022-2.652-3.066-2.704-3.11-2.756-3.156-2.809-3.202-2.863-3.248-2.918-3.297-2.974-3.345-3.03-3.395-3.088-3.446-3.146-3.497-3.205-3.55-3.265-3.604-3.326-3.658-3.387-3.713-3.45-3.77-3.515-3.829-3.579-3.886-3.644-3.947-3.711-4.007-3.78-4.07-3.847-4.133-3.917-4.197-3.989-4.262-4.06-4.33-4.134-4.396-4.208-4.466-4.283-4.537-4.36-4.608-4.438-4.68-4.517-4.756-4.598-4.83-4.679-4.908-4.762-4.985-4.846-5.065-4.932-5.146-5.02-5.229-5.106-5.312-5.197-5.398-5.289-5.485-5.38-5.573-5.476-5.663-5.571-5.754-5.668-5.847-5.767-5.942-5.868-6.039-5.97-6.137-6.073-6.236L233 229.86l-6.286-6.44-6.394-6.547-6.506-6.653-6.618-6.761-6.732-6.872-6.848-6.985-6.967-7.099-7.086-7.215-7.209-7.334-7.332-7.454"/><path fill="none" stroke="#1f4fa8" stroke-width=".9" d="m1067.99 1021.868-6.988-7.385-6.864-7.27-6.743-7.156-6.624-7.046-6.507-6.938-6.392-6.83-6.278-6.726-6.166-6.623-6.055-6.522-5.947-6.422-5.84-6.324-5.736-6.229-5.631-6.134-5.53-6.042-5.428-5.951-5.33-5.862-5.232-5.775-5.136-5.689-5.042-5.604-4.948-5.522-4.856-5.44-4.766-5.361-4.676-5.283-4.588-5.206-4.502-5.13-4.416-5.057-4.333-4.985-4.249-4.913-4.167-4.843-4.087-4.776-4.007-4.708-3.929-4.642-3.851-4.578-3.776-4.515-3.7-4.453-3.626-4.392-3.553-4.333-3.48-4.274-3.41-4.218-3.339-4.161-3.27-4.107-3.2-4.053-3.135-4-3.067-3.95-3.002-3.9-2.936-3.85-2.872-3.801-2.81-3.755-2.745-3.709-2.685-3.663-2.624-3.62-2.563-3.577-2.503-3.535-2.445-3.494-2.386-3.454-2.329-3.415-2.272-3.376-2.215-3.34-2.16-3.303-2.105-3.268-2.05-3.234-1.996-3.2-1.943-3.168-1.89-3.135-1.838-3.105-1.785-3.075-1.735-3.046-1.684-3.017-1.633-2.99-1.584-2.963-1.534-2.938-1.484-2.912-1.437-2.888-1.388-2.865-1.34-2.843-1.293-2.82-1.245-2.8-1.2-2.779-1.152-2.76-1.106-2.74-1.06-2.723-1.015-2.706-.97-2.69-.925-2.673-.88-2.66-.835-2.644-.791-2.63-.748-2.62-.703-2.606-.66-2.595-.617-2.584-.573-2.575-.53-2.565-.487-2.557-.444-2.55-.402-2.542-.36-2.536-.316-2.53-.274-2.526-.232-2.522-.19-2.517-.147-2.516-.105-2.512-.063-2.512-.022-2.511.021-2.51.064-2.513.105-2.512.147-2.516.19-2.517.232-2.522.274-2.525.317-2.53.359-2.537.402-2.542.444-2.55.487-2.557.53-2.565.573-2.575.617-2.584.66-2.595.703-2.607.748-2.618.79-2.631.836-2.645.88-2.659.925-2.673.97-2.69 1.015-2.706 1.06-2.723 1.106-2.74 1.153-2.76 1.199-2.78 1.245-2.799 1.293-2.82 1.34-2.843 1.388-2.865 1.437-2.888 1.484-2.912 1.534-2.938 1.584-2.963 1.633-2.99 1.684-3.017 1.735-3.046 1.785-3.075 1.838-3.105 1.89-3.135 1.943-3.168 1.996-3.2 2.05-3.234 2.105-3.268 2.16-3.303 2.215-3.34 2.272-3.376 2.329-3.415 2.386-3.454 2.445-3.494 2.503-3.535 2.563-3.577 2.624-3.62 2.685-3.663 2.746-3.71 2.809-3.754 2.872-3.802 2.936-3.85 3.002-3.899 3.067-3.95 3.134-4 3.201-4.053 3.27-4.107 3.34-4.161 3.409-4.218 3.48-4.274 3.553-4.333 3.626-4.392 3.7-4.453 3.775-4.515 3.852-4.578 3.929-4.642 4.007-4.708 4.087-4.776 4.167-4.843 4.25-4.913 4.332-4.985 4.416-5.056 4.502-5.131 4.588-5.206 4.676-5.283 4.766-5.36 4.856-5.441 4.948-5.522 5.042-5.604 5.136-5.689 5.232-5.775 5.33-5.862 5.428-5.951 5.53-6.042 5.631-6.134 5.735-6.229 5.84-6.324 5.948-6.422 6.055-6.522 6.166-6.623 6.278-6.725 6.392-6.831 6.507-6.938 6.624-7.046 6.743-7.157 6.864-7.27 6.987-7.384M169.41 1021.868l6.988-7.385 6.864-7.27 6.743-7.156 6.624-7.046 6.507-6.938 6.392-6.83 6.278-6.726 6.166-6.623 6.055-6.522 5.947-6.422 5.84-6.324 5.736-6.229 5.631-6.134 5.53-6.042 5.428-5.951 5.33-5.862 5.232-5.775 5.136-5.689 5.042-5.604 4.948-5.522 4.856-5.44 4.766-5.361 4.676-5.283 4.588-5.206 4.502-5.13 4.416-5.057 4.333-4.985 4.249-4.913 4.167-4.843 4.087-4.776 4.007-4.708 3.929-4.642 3.851-4.578 3.776-4.515 3.7-4.453 3.626-4.392 3.552-4.333 3.481-4.274 3.41-4.218 3.339-4.161 3.27-4.107 3.2-4.053 3.135-4 3.067-3.95 3.001-3.9 2.937-3.85 2.872-3.801 2.81-3.755 2.745-3.709 2.685-3.663 2.624-3.62 2.563-3.577 2.503-3.535 2.445-3.494 2.386-3.454 2.329-3.415 2.272-3.376 2.215-3.34 2.16-3.303 2.105-3.268 2.05-3.234 1.996-3.2 1.943-3.168 1.89-3.135 1.838-3.105 1.785-3.075 1.735-3.046 1.684-3.017 1.633-2.99 1.583-2.963 1.534-2.938 1.485-2.912 1.437-2.888 1.388-2.865 1.34-2.843 1.293-2.82 1.245-2.8 1.199-2.779 1.152-2.76 1.107-2.74 1.06-2.723 1.015-2.706.97-2.69.924-2.673.88-2.66.836-2.644.791-2.63.748-2.62.703-2.606.66-2.595.617-2.584.573-2.575.53-2.565.487-2.557.444-2.55.402-2.542.36-2.536.316-2.53.274-2.526.232-2.522.19-2.517.147-2.516.105-2.512.063-2.512.021-2.511-.02-2.51-.064-2.513-.105-2.512-.147-2.516-.19-2.517-.232-2.522-.274-2.525-.317-2.53-.359-2.537-.402-2.542-.444-2.55-.487-2.557-.53-2.565-.573-2.575-.617-2.584-.66-2.595-.703-2.607-.748-2.618-.79-2.631-.836-2.645-.88-2.659-.925-2.673-.97-2.69-1.015-2.706-1.06-2.723-1.107-2.74-1.152-2.76-1.199-2.78-1.245-2.799-1.293-2.82-1.34-2.843-1.388-2.865-1.437-2.888-1.485-2.912-1.534-2.938-1.583-2.963-1.633-2.99-1.684-3.017-1.735-3.046-1.785-3.075-1.838-3.105-1.89-3.135-1.943-3.168-1.996-3.2-2.05-3.234-2.105-3.268-2.16-3.303-2.215-3.34-2.272-3.376-2.329-3.415-2.386-3.454-2.445-3.494-2.503-3.535-2.563-3.577-2.624-3.62-2.685-3.663-2.746-3.71-2.809-3.754-2.872-3.802-2.937-3.85-3.001-3.899-3.067-3.95-3.134-4-3.202-4.053-3.27-4.107-3.339-4.161-3.409-4.218-3.48-4.274-3.553-4.333-3.626-4.392-3.7-4.453-3.776-4.515-3.851-4.578-3.929-4.642-4.007-4.708-4.087-4.776-4.167-4.843-4.25-4.913-4.332-4.985-4.416-5.056-4.502-5.131-4.588-5.206-4.676-5.283-4.766-5.36-4.856-5.441-4.948-5.522-5.042-5.604-5.136-5.689-5.232-5.775-5.33-5.862-5.428-5.951-5.53-6.042-5.631-6.134-5.735-6.229-5.84-6.324-5.948-6.422-6.055-6.522-6.166-6.623-6.278-6.725-6.392-6.831-6.507-6.938-6.624-7.046-6.743-7.157-6.864-7.27-6.987-7.384"/><path fill="none" stroke="#1f4fa8" stroke-width=".9" d="m1071.877 959.32-5.938-7.457-5.813-7.36-5.691-7.265-5.57-7.172-5.45-7.08-5.332-6.991-5.216-6.904-5.1-6.818-4.988-6.735-4.875-6.653-4.764-6.573-4.654-6.495-4.546-6.42-4.44-6.344-4.333-6.272-4.228-6.2-4.126-6.133-4.023-6.064-3.922-5.998-3.822-5.935-3.722-5.872-3.625-5.81-3.528-5.752-3.432-5.695-3.337-5.638-3.243-5.583-3.15-5.53-3.058-5.48-2.966-5.43-2.875-5.38-2.785-5.334-2.697-5.289-2.608-5.245-2.52-5.202-2.434-5.161-2.348-5.122-2.261-5.083-2.177-5.047-2.093-5.011-2.009-4.978-1.925-4.944-1.843-4.914-1.761-4.884-1.68-4.855-1.598-4.828-1.517-4.802-1.437-4.778-1.357-4.755-1.277-4.733-1.199-4.712-1.119-4.693-1.04-4.675-.963-4.659-.885-4.643-.807-4.63-.73-4.616-.651-4.605-.575-4.595-.498-4.587-.421-4.578-.345-4.572-.267-4.567-.192-4.564-.114-4.56-.039-4.56.039-4.56.114-4.56.192-4.564.267-4.567.345-4.572.42-4.578.499-4.587.575-4.595.652-4.605.729-4.616.807-4.63.885-4.643.962-4.659 1.041-4.675 1.12-4.693 1.198-4.712 1.277-4.733 1.357-4.755 1.437-4.778 1.517-4.802 1.599-4.828 1.679-4.855 1.76-4.884 1.844-4.914 1.925-4.944 2.01-4.978 2.092-5.011 2.177-5.047 2.261-5.083 2.348-5.122 2.434-5.161 2.52-5.202 2.608-5.245 2.697-5.289 2.785-5.334 2.875-5.38 2.966-5.43 3.058-5.48 3.15-5.53 3.243-5.583 3.337-5.638 3.432-5.695 3.528-5.751 3.625-5.811 3.723-5.872 3.821-5.935 3.922-5.998 4.023-6.065 4.126-6.131 4.228-6.201 4.334-6.272 4.439-6.345 4.546-6.419 4.654-6.495 4.764-6.573 4.875-6.653 4.987-6.735 5.101-6.818 5.216-6.904 5.332-6.99 5.45-7.081 5.57-7.172 5.69-7.265 5.814-7.36 5.938-7.457M165.523 959.32l5.938-7.457 5.813-7.36 5.691-7.265 5.57-7.172 5.45-7.08 5.332-6.991 5.216-6.904 5.1-6.818 4.988-6.735 4.875-6.653 4.764-6.573 4.654-6.495 4.546-6.42 4.44-6.344 4.332-6.272 4.23-6.2 4.125-6.133 4.023-6.064 3.922-5.998 3.821-5.935 3.723-5.872 3.625-5.81 3.528-5.752 3.432-5.695 3.337-5.638 3.243-5.583 3.15-5.53 3.057-5.48 2.966-5.43 2.876-5.38 2.785-5.334 2.697-5.289 2.608-5.245 2.52-5.202 2.434-5.161 2.347-5.122 2.262-5.083 2.177-5.047 2.093-5.011 2.009-4.978 1.925-4.944 1.843-4.914 1.761-4.884 1.68-4.855 1.597-4.828 1.518-4.802 1.437-4.778 1.357-4.755 1.277-4.733 1.198-4.712 1.12-4.693 1.04-4.675.963-4.659.885-4.643.807-4.63.73-4.616.651-4.605.575-4.595.498-4.587.421-4.578.345-4.572.267-4.567.192-4.564.114-4.56.039-4.56-.039-4.56-.114-4.56-.192-4.564-.267-4.567-.345-4.572-.42-4.578-.499-4.587-.575-4.595-.652-4.605-.729-4.616-.807-4.63-.885-4.643-.962-4.659-1.041-4.675-1.12-4.693-1.198-4.712-1.277-4.733-1.357-4.755-1.437-4.778-1.518-4.802-1.598-4.828-1.679-4.855-1.76-4.884-1.844-4.914-1.925-4.944-2.01-4.978-2.092-5.011-2.177-5.047-2.262-5.083-2.347-5.122-2.434-5.161-2.52-5.202-2.608-5.245-2.697-5.289-2.785-5.334-2.876-5.38-2.966-5.43-3.057-5.48-3.15-5.53-3.243-5.583-3.337-5.638-3.432-5.695-3.528-5.751-3.625-5.811-3.723-5.872-3.821-5.935-3.922-5.998-4.023-6.065-4.126-6.131-4.229-6.201-4.333-6.272-4.439-6.345-4.546-6.419-4.654-6.495-4.764-6.573-4.875-6.653-4.987-6.735-5.101-6.818-5.216-6.904-5.332-6.99-5.45-7.081-5.57-7.172-5.69-7.265-5.814-7.36-5.938-7.457"/><path fill="none" stroke="#1f4fa8" stroke-width=".9" d="m1073.425 740.018-2.26-7.514-2.134-7.477-2.009-7.443-1.884-7.41-1.76-7.381-1.638-7.352-1.513-7.327-1.392-7.302-1.269-7.28-1.147-7.26-1.025-7.242-.904-7.226-.783-7.212-.662-7.2-.542-7.19-.421-7.183-.3-7.176-.181-7.173-.06-7.17.06-7.17.18-7.173.301-7.176.421-7.182.542-7.19.662-7.2.783-7.213.904-7.226 1.025-7.242 1.147-7.26 1.27-7.28 1.39-7.302 1.514-7.327 1.637-7.352 1.76-7.38 1.885-7.411 2.01-7.443 2.133-7.477 2.26-7.514m-909.45 277.036 2.26-7.514 2.134-7.477 2.009-7.443 1.884-7.41 1.76-7.381 1.638-7.352 1.513-7.327 1.392-7.302 1.269-7.28 1.147-7.26 1.025-7.242.904-7.226.783-7.212.662-7.2.542-7.19.421-7.183.3-7.176.181-7.173.06-7.17-.06-7.17-.18-7.173-.301-7.176-.421-7.182-.542-7.19-.662-7.2-.783-7.213-.904-7.226-1.025-7.242-1.147-7.26-1.27-7.28-1.39-7.302-1.514-7.327-1.637-7.352-1.76-7.38-1.885-7.411-2.01-7.443-2.133-7.477-2.26-7.514m12.958-311.842 7.49 7.255 7.371 7.133 7.252 7.011 7.135 6.893 7.021 6.775 6.908 6.66 6.798 6.546 6.688 6.434 6.582 6.325 6.476 6.216 6.373 6.11 6.272 6.005 6.171 5.902 6.074 5.801 5.977 5.701 5.882 5.603 5.79 5.506 5.697 5.41 5.608 5.318 5.519 5.225 5.432 5.135 5.347 5.045 5.264 4.957 5.18 4.871 5.1 4.786 5.02 4.702 4.943 4.619 4.865 4.538 4.79 4.458 4.716 4.38 4.643 4.301 4.572 4.226 4.5 4.15 4.433 4.077 4.365 4.003 4.298 3.932 4.233 3.861 4.168 3.792 4.106 3.723 4.044 3.656 3.983 3.589 3.923 3.523 3.865 3.46 3.807 3.395 3.75 3.333 3.696 3.271 3.642 3.21 3.587 3.151 3.536 3.092 3.484 3.034 3.434 2.976 3.384 2.92 3.336 2.864 3.288 2.809 3.242 2.755 3.196 2.702 3.15 2.65 3.108 2.596 3.064 2.547 3.021 2.496 2.98 2.446 2.94 2.397 2.9 2.349 2.86 2.301 2.823 2.254 2.785 2.208 2.749 2.161 2.713 2.117 2.677 2.072 2.643 2.028 2.61 1.984 2.577 1.941 2.544 1.9 2.513 1.856 2.482 1.816 2.452 1.775 2.423 1.734 2.394 1.695 2.366 1.655 2.338 1.616 2.312 1.578 2.285 1.54 2.26 1.501 2.235 1.465 2.21 1.428 2.188 1.391 2.164 1.356 2.142 1.32 2.12 1.284 2.099 1.25 2.077 1.215 2.058 1.18 2.039 1.147 2.02 1.113 2 1.08 1.984 1.047 1.966 1.014 1.949.982 1.933.95 1.917.917 1.902.886 1.888.855 1.874.823 1.86.793 1.846.761 1.835.732 1.822.7 1.811.672 1.8.641 1.79.611 1.78.582 1.77.553 1.76.523 1.753.494 1.744.465 1.737.436 1.73.408 1.723.379 1.717.35 1.71.322 1.707.294 1.702.266 1.697.237 1.693.21 1.69.18 1.688.154 1.685.125 1.684.098 1.682.07 1.68.041 1.68.014 1.681-.014 1.681-.042 1.682-.07 1.683-.097 1.686-.125 1.687-.153 1.69-.182 1.694-.21 1.697-.236 1.702-.266 1.706-.294 1.711-.322 1.717-.35 1.723-.38 1.73-.407 1.737-.436 1.744-.465 1.753-.494 1.76-.523 1.77-.553 1.78-.582 1.79-.611 1.8-.641 1.81-.671 1.823-.701 1.834-.732 1.847-.761 1.86-.793 1.874-.823 1.888-.855 1.902-.886 1.917-.918 1.933-.95 1.95-.981 1.965-1.014 1.984-1.047 2-1.08 2.02-1.113 2.038-1.147 2.058-1.18 2.078-1.215 2.099-1.25 2.12-1.284 2.142-1.32 2.164-1.356 2.187-1.391 2.21-1.428 2.236-1.465 2.26-1.502 2.285-1.54 2.312-1.577 2.338-1.616 2.366-1.655 2.394-1.695 2.423-1.734 2.452-1.775 2.482-1.816 2.513-1.857 2.544-1.899 2.577-1.941 2.61-1.984 2.643-2.028 2.677-2.072 2.713-2.117 2.748-2.161 2.786-2.208 2.822-2.254 2.861-2.301 2.9-2.349 2.94-2.397 2.98-2.446 3.021-2.496 3.064-2.546 3.107-2.598 3.151-2.65 3.196-2.701 3.242-2.755 3.288-2.81 3.336-2.863 3.384-2.92 3.434-2.976 3.484-3.034 3.536-3.092 3.587-3.15 3.642-3.21 3.695-3.272 3.751-3.333 3.807-3.396 3.865-3.459 3.923-3.523 3.983-3.59 4.044-3.655 4.106-3.723 4.168-3.792 4.233-3.86 4.298-3.933 4.365-4.003 4.432-4.077 4.501-4.15 4.572-4.226 4.643-4.301 4.716-4.38 4.79-4.458 4.865-4.538 4.942-4.62 5.02-4.701 5.1-4.786 5.181-4.87 5.264-4.958 5.347-5.045 5.432-5.135 5.52-5.225 5.607-5.317 5.698-5.411 5.789-5.506 5.882-5.603 5.977-5.7 6.074-5.802 6.171-5.902 6.272-6.005 6.373-6.11 6.476-6.216 6.582-6.325 6.688-6.435 6.798-6.546 6.908-6.66 7.02-6.774 7.136-6.893 7.252-7.011 7.37-7.133 7.491-7.255m-883.534 900.72 7.49-7.255 7.371-7.133 7.252-7.011 7.135-6.893 7.021-6.775 6.908-6.66 6.798-6.546 6.688-6.434 6.582-6.325 6.476-6.216 6.373-6.11 6.272-6.005 6.171-5.902 6.074-5.801 5.977-5.701 5.882-5.603 5.79-5.506 5.697-5.41 5.608-5.318 5.519-5.225 5.432-5.135 5.347-5.045 5.264-4.957 5.18-4.871 5.1-4.786 5.02-4.702 4.943-4.619 4.865-4.538 4.79-4.458 4.716-4.38 4.643-4.301 4.572-4.226 4.5-4.15 4.433-4.077 4.365-4.003 4.298-3.932 4.233-3.861 4.168-3.792 4.106-3.723 4.044-3.656 3.983-3.589 3.923-3.523 3.865-3.46 3.807-3.395 3.75-3.333 3.696-3.271 3.642-3.21 3.587-3.151 3.536-3.092 3.484-3.034 3.434-2.976 3.384-2.92 3.336-2.864 3.288-2.809 3.242-2.755 3.196-2.702 3.15-2.65 3.108-2.597 3.064-2.546 3.021-2.496 2.98-2.446 2.94-2.397 2.9-2.349 2.86-2.301 2.823-2.254 2.785-2.208 2.749-2.161 2.713-2.117 2.677-2.072 2.643-2.028 2.61-1.984 2.577-1.941 2.544-1.9 2.513-1.856 2.482-1.816 2.452-1.775 2.423-1.734 2.394-1.695 2.366-1.655 2.338-1.616 2.312-1.578 2.285-1.54 2.26-1.501 2.235-1.465 2.21-1.428 2.188-1.391 2.164-1.356 2.142-1.32 2.12-1.284 2.099-1.25 2.077-1.214 2.058-1.181 2.039-1.147 2.02-1.113 2-1.08 1.984-1.047 1.966-1.014 1.949-.982 1.933-.95 1.917-.917 1.902-.886 1.888-.854 1.874-.824 1.86-.793 1.846-.761 1.835-.732 1.822-.7 1.811-.672 1.8-.641 1.79-.611 1.78-.582 1.77-.553 1.76-.523 1.753-.494 1.744-.465 1.737-.436 1.73-.408 1.723-.379 1.717-.35 1.71-.322 1.707-.294 1.702-.266 1.697-.237 1.693-.21 1.69-.18 1.688-.154 1.685-.125 1.684-.098 1.682-.07 1.68-.041 1.68-.014 1.681.014 1.681.042 1.682.07 1.683.097 1.686.125 1.687.154 1.69.18 1.694.21 1.697.237 1.702.266 1.706.294 1.711.322 1.717.35 1.723.38 1.73.407 1.737.436 1.744.465 1.753.494 1.76.523 1.77.553 1.78.582 1.79.611 1.8.641 1.81.671 1.823.701 1.834.732 1.847.761 1.86.793 1.874.824 1.888.854 1.902.886 1.917.918 1.933.95 1.95.981 1.965 1.014 1.984 1.047 2 1.08 2.02 1.113 2.038 1.147 2.058 1.18 2.078 1.215 2.099 1.25 2.12 1.284 2.142 1.32 2.164 1.356 2.187 1.391 2.21 1.428 2.236 1.465 2.26 1.502 2.285 1.54 2.312 1.577 2.338 1.616 2.366 1.655 2.394 1.695 2.423 1.734 2.452 1.775 2.482 1.816 2.513 1.857 2.544 1.899 2.577 1.941 2.61 1.984 2.643 2.028 2.677 2.072 2.713 2.117 2.748 2.161 2.786 2.208 2.822 2.254 2.861 2.301 2.9 2.349 2.94 2.397 2.98 2.446 3.021 2.496 3.064 2.546 3.107 2.598 3.151 2.65 3.196 2.701 3.242 2.755 3.288 2.81 3.336 2.864 3.384 2.92 3.434 2.975 3.484 3.034 3.536 3.092 3.587 3.15 3.642 3.21 3.695 3.272 3.751 3.333 3.807 3.396 3.865 3.459 3.923 3.523 3.983 3.59 4.044 3.655 4.106 3.723 4.168 3.792 4.233 3.86 4.298 3.933 4.365 4.003 4.432 4.077 4.501 4.15 4.572 4.226 4.643 4.301 4.716 4.38 4.79 4.458 4.865 4.538 4.942 4.62 5.02 4.701 5.1 4.786 5.181 4.87 5.264 4.958 5.347 5.045 5.432 5.135 5.52 5.225 5.607 5.317 5.698 5.411 5.789 5.506 5.882 5.603 5.977 5.7 6.074 5.802 6.171 5.902 6.272 6.005 6.373 6.11 6.476 6.216 6.582 6.325 6.688 6.434 6.798 6.547 6.908 6.66 7.02 6.774 7.136 6.893 7.252 7.011 7.37 7.133 7.491 7.255"/><path fill="none" stroke="#1f4fa8" stroke-width=".9" d="m175.821 150.382 7.504 7.274 7.383 7.151 7.263 7.03 7.147 6.91 7.032 6.792 6.92 6.677 6.808 6.563 6.699 6.452 6.591 6.34 6.487 6.234 6.382 6.126 6.281 6.022 6.18 5.918 6.083 5.817 5.986 5.717 5.89 5.619 5.798 5.521 5.705 5.427 5.615 5.332 5.527 5.24 5.44 5.15 5.353 5.06 5.27 4.973 5.187 4.885 5.106 4.8 5.026 4.717 4.947 4.634 4.871 4.552 4.795 4.473 4.72 4.393 4.648 4.316 4.576 4.24 4.506 4.164 4.436 4.09 4.368 4.018 4.301 3.946 4.236 3.875 4.172 3.805 4.108 3.737 4.046 3.669 3.986 3.603 3.925 3.537 3.866 3.472 3.81 3.41 3.752 3.346 3.696 3.284 3.642 3.224 3.589 3.165 3.536 3.105 3.484 3.046 3.434 2.99 3.384 2.933 3.335 2.878 3.288 2.822 3.24 2.769 3.195 2.715 3.15 2.663 3.105 2.61 3.062 2.56 3.02 2.51 2.978 2.46 2.937 2.41 2.897 2.363 2.858 2.315 2.82 2.268 2.78 2.221 2.746 2.176 2.709 2.13 2.673 2.086 2.639 2.042 2.605 1.999 2.571 1.955 2.54 1.914 2.507 1.871 2.477 1.83 2.446 1.79 2.417 1.749 2.388 1.71 2.359 1.67 2.331 1.63 2.305 1.593 2.278 1.555 2.252 1.517 2.228 1.48 2.202 1.444 2.18 1.407 2.155 1.372 2.133 1.335 2.11 1.301 2.09 1.266 2.068 1.231 2.048 1.198 2.028 1.163 2.009 1.13 1.99 1.098 1.972 1.064 1.955 1.031 1.937 1 1.921.967 1.905.936 1.89.905 1.875.873 1.86.842 1.846.812 1.833.78 1.82.752 1.809.72 1.796.691 1.784.662 1.774.632 1.764.602 1.754.573 1.744.545 1.735.515 1.727.487 1.72.459 1.711.43 1.705.401 1.698.374 1.692.345 1.687.318 1.681.29 1.677.26 1.673.235 1.67.206 1.665.179 1.663.15 1.66.124 1.66.096 1.657.07 1.657.04 1.656.014 1.656-.014 1.657-.04 1.657-.07 1.66-.096 1.66-.123 1.663-.151 1.666-.179 1.669-.206 1.673-.234 1.677-.262 1.681-.29 1.687-.317 1.692-.345 1.698-.374 1.705-.401 1.711-.43 1.72-.459 1.726-.487 1.736-.515 1.744-.545 1.754-.573 1.764-.602 1.774-.632 1.784-.662 1.796-.69 1.808-.721 1.82-.751 1.834-.781 1.846-.812 1.86-.842 1.875-.873 1.89-.905 1.905-.936 1.92-.967 1.938-1 1.955-1.031 1.972-1.064 1.99-1.097 2.01-1.13 2.027-1.164 2.048-1.198 2.068-1.231 2.09-1.266 2.11-1.3 2.133-1.336 2.156-1.372 2.179-1.407 2.202-1.443 2.228-1.48 2.252-1.518 2.278-1.555 2.305-1.593 2.331-1.63 2.36-1.67 2.387-1.71 2.417-1.75 2.446-1.789 2.476-1.83 2.508-1.871 2.54-1.914 2.571-1.955 2.605-1.999 2.639-2.042 2.673-2.085 2.71-2.13 2.744-2.177 2.782-2.221 2.82-2.268 2.857-2.315 2.897-2.362 2.937-2.411 2.978-2.46 3.02-2.51 3.062-2.56 3.105-2.61 3.15-2.663 3.194-2.715 3.241-2.769 3.288-2.822 3.335-2.878 3.384-2.933 3.434-2.99 3.484-3.046 3.536-3.106 3.589-3.164 3.642-3.224 3.696-3.284 3.753-3.347 3.808-3.409 3.867-3.472 3.925-3.537 3.986-3.603 4.046-3.67 4.108-3.736 4.172-3.805 4.235-3.875 4.302-3.946 4.368-4.017 4.436-4.09 4.506-4.165 4.576-4.24 4.647-4.316 4.72-4.393 4.796-4.473 4.87-4.552 4.948-4.634 5.026-4.717 5.106-4.8 5.187-4.885 5.27-4.973 5.354-5.06 5.44-5.15 5.526-5.24 5.615-5.332 5.705-5.427 5.797-5.522 5.891-5.618 5.986-5.717 6.082-5.817 6.18-5.918 6.282-6.022 6.382-6.126 6.486-6.233 6.592-6.341 6.7-6.452 6.807-6.563 6.92-6.677 7.032-6.793 7.147-6.91 7.263-7.029 7.383-7.15 7.504-7.275m-885.758 902.236 7.504-7.274 7.383-7.151 7.263-7.03 7.147-6.91 7.032-6.792 6.92-6.677 6.808-6.563 6.699-6.452 6.591-6.34 6.487-6.234 6.382-6.126 6.281-6.022 6.18-5.918 6.083-5.817 5.986-5.717 5.89-5.619 5.798-5.521 5.705-5.427 5.615-5.332 5.527-5.24 5.44-5.15 5.353-5.06 5.27-4.972 5.187-4.886 5.106-4.8 5.026-4.717 4.947-4.634 4.871-4.552 4.795-4.473 4.72-4.393 4.648-4.316 4.576-4.24 4.506-4.164 4.436-4.09 4.368-4.018 4.301-3.946 4.236-3.875 4.172-3.805 4.108-3.737 4.046-3.669 3.986-3.603 3.925-3.537 3.866-3.472 3.81-3.41 3.752-3.346 3.696-3.284 3.642-3.225 3.589-3.164 3.536-3.105 3.484-3.047 3.434-2.99 3.384-2.932 3.335-2.878 3.288-2.822 3.24-2.769 3.195-2.715 3.15-2.663 3.105-2.61 3.062-2.56 3.02-2.51 2.978-2.46 2.937-2.41 2.897-2.363 2.858-2.315 2.82-2.268 2.78-2.221 2.746-2.176 2.709-2.13 2.673-2.086 2.639-2.042 2.605-1.999 2.571-1.955 2.54-1.914 2.507-1.871 2.477-1.83 2.446-1.79 2.417-1.749 2.388-1.71 2.359-1.67 2.331-1.63 2.305-1.593 2.278-1.555 2.252-1.517 2.228-1.48 2.202-1.444 2.18-1.407 2.155-1.372 2.133-1.335 2.11-1.301 2.09-1.266 2.068-1.231 2.048-1.198 2.028-1.163 2.009-1.13 1.99-1.098 1.972-1.064 1.955-1.031 1.937-1 1.921-.967 1.905-.936 1.89-.905 1.875-.873 1.86-.842 1.846-.812 1.833-.78 1.82-.752 1.809-.72 1.796-.691 1.784-.662 1.774-.631 1.764-.603 1.754-.573 1.744-.545 1.735-.515 1.727-.487 1.72-.459 1.711-.43 1.705-.401 1.698-.374 1.692-.345 1.687-.318 1.681-.29 1.677-.26 1.673-.235 1.67-.206 1.665-.179 1.663-.15 1.66-.124 1.66-.096 1.657-.07 1.657-.04 1.656-.014 1.656.014 1.657.04 1.657.07 1.66.096 1.66.123 1.663.151 1.666.179 1.669.206 1.673.234 1.677.262 1.681.29 1.687.317 1.692.345 1.698.374 1.705.401 1.711.43 1.72.459 1.726.487 1.736.515 1.744.545 1.754.573 1.764.602 1.774.632 1.784.662 1.796.69 1.808.721 1.82.751 1.834.781 1.846.812 1.86.842 1.875.873 1.89.905 1.905.936 1.92.967 1.938 1 1.955 1.031 1.972 1.064 1.99 1.097 2.01 1.13 2.027 1.164 2.048 1.198 2.068 1.231 2.09 1.266 2.11 1.3 2.133 1.336 2.156 1.372 2.179 1.407 2.202 1.443 2.228 1.48 2.252 1.518 2.278 1.555 2.305 1.593 2.331 1.63 2.36 1.67 2.387 1.71 2.417 1.75 2.446 1.789 2.476 1.83 2.508 1.871 2.54 1.914 2.571 1.955 2.605 1.999 2.639 2.042 2.673 2.085 2.71 2.13 2.744 2.177 2.782 2.221 2.82 2.268 2.857 2.315 2.897 2.362 2.937 2.41 2.978 2.46 3.02 2.51 3.062 2.56 3.105 2.611 3.15 2.663 3.194 2.715 3.241 2.769 3.288 2.822 3.335 2.878 3.384 2.933 3.434 2.99 3.484 3.046 3.536 3.105 3.589 3.164 3.642 3.225 3.696 3.284 3.753 3.347 3.808 3.409 3.867 3.472 3.925 3.537 3.986 3.603 4.046 3.67 4.108 3.736 4.172 3.805 4.235 3.875 4.302 3.946 4.368 4.017 4.436 4.09 4.506 4.165 4.576 4.24 4.647 4.316 4.72 4.393 4.796 4.473 4.87 4.552 4.948 4.634 5.026 4.717 5.106 4.8 5.187 4.885 5.27 4.973 5.354 5.06 5.44 5.15 5.526 5.24 5.615 5.332 5.705 5.427 5.797 5.521 5.891 5.619 5.986 5.717 6.082 5.817 6.18 5.918 6.282 6.022 6.382 6.126 6.486 6.233 6.592 6.341 6.7 6.452 6.807 6.563 6.92 6.677 7.032 6.793 7.147 6.91 7.263 7.029 7.383 7.15 7.504 7.275"/><path fill="none" stroke="#1f4fa8" stroke-width=".9" d="m172.484 148.693 7.531 7.33 7.41 7.205 7.29 7.083 7.172 6.964 7.056 6.846 6.943 6.73 6.83 6.615 6.72 6.504 6.613 6.393 6.507 6.285 6.401 6.177 6.3 6.073 6.197 5.969 6.099 5.867 6.001 5.767 5.905 5.668 5.812 5.571 5.718 5.476 5.627 5.382 5.538 5.29 5.45 5.197 5.364 5.11 5.279 5.02 5.195 4.934 5.113 4.848 5.033 4.764 4.953 4.682 4.876 4.6 4.799 4.52 4.724 4.442 4.65 4.364 4.578 4.287 4.506 4.212 4.437 4.138 4.367 4.065 4.3 3.993 4.234 3.923 4.168 3.853 4.105 3.784 4.041 3.717 3.98 3.65 3.92 3.586 3.859 3.52 3.8 3.458 3.744 3.395 3.687 3.333 3.632 3.272 3.578 3.213 3.524 3.154 3.471 3.097 3.42 3.039 3.37 2.982 3.32 2.928 3.272 2.873 3.223 2.819 3.177 2.766 3.131 2.714 3.086 2.662 3.042 2.611 2.998 2.562 2.956 2.512 2.914 2.464 2.873 2.415 2.833 2.369 2.794 2.322 2.755 2.275 2.718 2.231 2.68 2.186 2.644 2.141 2.609 2.099 2.573 2.055 2.54 2.013 2.506 1.971 2.474 1.93 2.441 1.89 2.41 1.848 2.38 1.81 2.35 1.77 2.32 1.731 2.29 1.693 2.264 1.656 2.236 1.618 2.209 1.582 2.183 1.545 2.157 1.51 2.132 1.473 2.108 1.438 2.084 1.404 2.06 1.37 2.038 1.335 2.016 1.302 1.995 1.27 1.973 1.235 1.953 1.203 1.933 1.172 1.913 1.139 1.895 1.108 1.877 1.076 1.858 1.046 1.842 1.015 1.824.985 1.809.954 1.792.925 1.778.895 1.762.866 1.748.837 1.735.807 1.721.78 1.708.75 1.697.723 1.684.695 1.672.667 1.662.64 1.651.611 1.642.585 1.631.557 1.623.53 1.614.504 1.605.477 1.598.45 1.59.425 1.584.398 1.578.371 1.57.346 1.567.32 1.56.293 1.556.268 1.551.242 1.548.216 1.544.191 1.541.166 1.539.14 1.537.114 1.534.089 1.534.063 1.533.038 1.532.013 1.532-.013 1.533-.038 1.534-.063 1.534-.09 1.537-.114 1.539-.14 1.54-.165 1.545-.19 1.548-.217 1.551-.242 1.556-.268 1.56-.294 1.566-.32 1.571-.345 1.577-.371 1.584-.398 1.59-.424 1.599-.45 1.605-.478 1.614-.503 1.623-.531 1.631-.557 1.642-.585 1.65-.612 1.663-.64 1.672-.666 1.684-.695 1.696-.722 1.709-.751 1.721-.78 1.735-.807 1.748-.837 1.762-.866 1.778-.895 1.792-.925 1.809-.954 1.824-.985 1.842-1.015 1.858-1.046 1.877-1.076 1.894-1.108 1.914-1.14 1.933-1.17 1.953-1.204 1.973-1.236 1.995-1.269 2.016-1.302 2.038-1.335 2.06-1.37 2.084-1.404 2.108-1.438 2.132-1.474 2.157-1.509 2.183-1.545 2.21-1.582 2.235-1.618 2.263-1.656 2.292-1.693 2.32-1.731 2.35-1.77 2.379-1.81 2.41-1.849 2.441-1.889 2.474-1.93 2.506-1.971 2.54-2.013 2.573-2.055 2.609-2.099 2.644-2.141 2.68-2.186 2.718-2.23 2.755-2.276 2.794-2.322 2.833-2.369 2.873-2.415 2.914-2.464 2.956-2.512 2.998-2.562 3.042-2.611 3.086-2.662 3.13-2.714 3.178-2.766 3.223-2.82 3.272-2.872 3.32-2.928 3.37-2.982 3.42-3.04 3.471-3.096 3.524-3.154 3.578-3.213 3.632-3.272 3.687-3.333 3.743-3.395 3.801-3.457 3.86-3.521 3.919-3.585 3.98-3.65 4.041-3.718 4.105-3.784 4.168-3.853 4.234-3.923 4.3-3.993 4.367-4.065 4.437-4.138 4.506-4.212 4.578-4.287 4.65-4.364 4.724-4.441 4.799-4.52 4.876-4.6 4.953-4.683 5.033-4.764 5.113-4.848 5.195-4.934 5.279-5.02 5.363-5.11 5.45-5.198 5.538-5.29 5.628-5.38 5.718-5.477 5.812-5.57 5.905-5.67 6.001-5.766 6.099-5.867 6.198-5.97 6.299-6.072 6.401-6.177 6.507-6.285 6.612-6.393 6.72-6.504 6.831-6.615 6.943-6.73 7.056-6.846 7.172-6.964 7.29-7.083 7.41-7.206 7.531-7.329m-892.432 905.614 7.531-7.33 7.41-7.205 7.29-7.083 7.172-6.964 7.056-6.846 6.943-6.73 6.83-6.615 6.72-6.504 6.613-6.393 6.507-6.285 6.401-6.177 6.3-6.073 6.197-5.969 6.099-5.867 6.001-5.767 5.905-5.668 5.812-5.571 5.718-5.476 5.627-5.382 5.538-5.29 5.45-5.197 5.364-5.11 5.279-5.02 5.195-4.934 5.113-4.848 5.033-4.764 4.953-4.682 4.876-4.6 4.799-4.52 4.724-4.442 4.65-4.364 4.578-4.287 4.506-4.212 4.437-4.138 4.367-4.065 4.3-3.993 4.234-3.923 4.168-3.853 4.105-3.784 4.041-3.717 3.98-3.65 3.92-3.586 3.859-3.52 3.8-3.458 3.744-3.395 3.687-3.333 3.632-3.272 3.578-3.213 3.524-3.154 3.471-3.097 3.42-3.039 3.37-2.982 3.32-2.928 3.272-2.873 3.223-2.819 3.177-2.766 3.131-2.714 3.086-2.662 3.042-2.611 2.998-2.562 2.956-2.512 2.914-2.464 2.873-2.415 2.833-2.369 2.794-2.322 2.755-2.275 2.718-2.231 2.68-2.186 2.644-2.141 2.609-2.099 2.573-2.055 2.54-2.013 2.506-1.971 2.474-1.93 2.441-1.89 2.41-1.848 2.38-1.81 2.35-1.77 2.32-1.731 2.29-1.694 2.264-1.655 2.236-1.618 2.209-1.582 2.183-1.545 2.157-1.51 2.132-1.473 2.108-1.438 2.084-1.404 2.06-1.37 2.038-1.335 2.016-1.302 1.995-1.27 1.973-1.235 1.953-1.203 1.933-1.172 1.913-1.139 1.895-1.108 1.877-1.076 1.858-1.046 1.842-1.015 1.824-.985 1.809-.954 1.792-.925 1.778-.895 1.762-.866 1.748-.837 1.735-.807 1.721-.78 1.708-.75 1.697-.723 1.684-.695 1.672-.667 1.662-.64 1.651-.611 1.642-.585 1.631-.557 1.623-.53 1.614-.504 1.605-.477 1.598-.45 1.59-.425 1.584-.398 1.578-.371 1.57-.346 1.567-.32 1.56-.293 1.556-.268 1.551-.242 1.548-.216 1.544-.191 1.541-.166 1.539-.14 1.537-.114 1.534-.089 1.534-.063 1.533-.038 1.532-.013 1.532.013 1.533.038 1.534.063 1.534.09 1.537.113 1.539.14 1.54.166 1.545.19 1.548.217 1.551.242 1.556.268 1.56.294 1.566.32 1.571.345 1.577.371 1.584.398 1.59.424 1.599.45 1.605.478 1.614.504 1.623.53 1.631.557 1.642.585 1.65.612 1.663.64 1.672.666 1.684.695 1.696.722 1.709.751 1.721.78 1.735.807 1.748.837 1.762.866 1.778.895 1.792.925 1.809.954 1.824.985 1.842 1.015 1.858 1.046 1.877 1.076 1.894 1.108 1.914 1.14 1.933 1.17 1.953 1.204 1.973 1.236 1.995 1.269 2.016 1.302 2.038 1.335 2.06 1.37 2.084 1.404 2.108 1.438 2.132 1.474 2.157 1.509 2.183 1.545 2.21 1.582 2.235 1.618 2.263 1.655 2.292 1.694 2.32 1.731 2.35 1.77 2.379 1.81 2.41 1.849 2.441 1.889 2.474 1.93 2.506 1.971 2.54 2.013 2.573 2.055 2.609 2.099 2.644 2.141 2.68 2.186 2.718 2.23 2.755 2.276 2.794 2.322 2.833 2.369 2.873 2.415 2.914 2.464 2.956 2.512 2.998 2.562 3.042 2.611 3.086 2.662 3.13 2.714 3.178 2.766 3.223 2.82 3.272 2.872 3.32 2.928 3.37 2.982 3.42 3.04 3.471 3.096 3.524 3.154 3.578 3.213 3.632 3.272 3.687 3.333 3.743 3.395 3.801 3.457 3.86 3.521 3.919 3.585 3.98 3.65 4.041 3.718 4.105 3.784 4.168 3.853 4.234 3.923 4.3 3.993 4.367 4.065 4.437 4.138 4.506 4.212 4.578 4.287 4.65 4.364 4.724 4.441 4.799 4.52 4.876 4.6 4.953 4.683 5.033 4.764 5.113 4.848 5.195 4.934 5.279 5.02 5.363 5.11 5.45 5.198 5.538 5.29 5.628 5.38 5.718 5.477 5.812 5.57 5.905 5.67 6.001 5.766 6.099 5.867 6.198 5.97 6.299 6.072 6.401 6.177 6.507 6.285 6.612 6.393 6.72 6.504 6.831 6.615 6.943 6.73 7.056 6.846 7.172 6.964 7.29 7.083 7.41 7.206 7.531 7.329"/><path fill="none" stroke="#1f4fa8" stroke-width=".9" d="m173.028 152.54 7.467 7.32 7.346 7.198 7.225 7.077 7.108 6.958 6.993 6.842 6.878 6.727 6.767 6.614 6.657 6.502 6.548 6.393 6.442 6.286 6.338 6.18 6.235 6.075 6.134 5.974 6.035 5.872 5.937 5.773 5.841 5.676 5.747 5.58 5.654 5.485 5.562 5.392 5.473 5.301 5.385 5.211 5.298 5.123 5.214 5.036 5.129 4.95 5.047 4.865 4.966 4.783 4.887 4.7 4.808 4.621 4.732 4.542 4.656 4.464 4.582 4.388 4.51 4.312 4.437 4.238 4.367 4.165 4.297 4.093 4.23 4.023 4.162 3.954 4.097 3.884 4.033 3.818 3.969 3.751 3.906 3.686 3.846 3.622 3.785 3.559 3.726 3.496 3.668 3.435 3.61 3.375 3.555 3.316 3.5 3.257 3.445 3.2 3.392 3.142 3.34 3.088 3.29 3.032 3.237 2.978 3.19 2.925 3.14 2.873 3.092 2.82 3.046 2.771 3 2.72 2.953 2.671 2.91 2.622 2.867 2.575 2.824 2.527 2.781 2.48 2.74 2.436 2.7 2.39 2.66 2.345 2.622 2.302 2.583 2.259 2.546 2.216 2.508 2.175 2.473 2.133 2.437 2.092 2.403 2.053 2.368 2.013 2.335 1.974 2.302 1.935 2.27 1.898 2.239 1.86 2.207 1.824 2.178 1.787 2.147 1.751 2.119 1.717 2.09 1.68 2.062 1.648 2.035 1.612 2.008 1.58 1.982 1.546 1.956 1.514 1.931 1.481 1.907 1.45 1.883 1.419 1.859 1.387 1.836 1.357 1.813 1.326 1.791 1.297 1.77 1.267 1.75 1.238 1.728 1.21 1.708 1.18 1.69 1.153 1.669 1.125 1.651 1.097 1.633 1.07 1.615 1.043 1.598 1.017 1.581.99 1.565.964 1.549.939 1.533.913 1.518.887 1.504.863 1.49.838 1.475.813 1.462.79 1.449.764 1.436.74 1.424.718 1.412.694 1.401.67 1.39.648 1.379.624 1.369.602 1.359.579 1.35.556 1.34.535 1.331.512 1.323.49 1.315.469 1.308.446 1.3.425 1.293.404 1.286.382 1.28.361 1.275.34 1.269.319 1.264.297 1.259.277 1.254.256 1.25.236 1.247.214 1.243.194 1.24.174 1.238.153 1.235.132 1.232.112 1.231.092 1.23.07 1.23.052 1.227.03 1.228.01 1.228-.01 1.228-.03 1.229-.051 1.23-.071 1.23-.092 1.233-.112 1.235-.132 1.238-.153 1.24-.174 1.243-.194 1.246-.214 1.25-.236 1.255-.256 1.26-.277 1.263-.297 1.269-.32 1.274-.339 1.28-.36 1.287-.383 1.293-.404 1.3-.425 1.308-.446 1.315-.469 1.323-.49 1.331-.512 1.34-.535 1.35-.556 1.359-.58 1.369-.601 1.379-.624 1.39-.648 1.4-.67 1.413-.694 1.424-.717 1.436-.741 1.45-.765 1.461-.789 1.476-.813 1.489-.838 1.503-.863 1.519-.887 1.533-.913 1.549-.939 1.564-.964 1.582-.99 1.598-1.017 1.615-1.043 1.633-1.07 1.651-1.097 1.67-1.125 1.689-1.153 1.708-1.18 1.729-1.21 1.749-1.238 1.77-1.267 1.79-1.297 1.814-1.326 1.836-1.357 1.86-1.387 1.882-1.419 1.906-1.45 1.932-1.481 1.956-1.514 1.982-1.546 2.008-1.58 2.035-1.612 2.062-1.647 2.09-1.681 2.119-1.717 2.147-1.75 2.178-1.788 2.207-1.824 2.239-1.86 2.27-1.898 2.302-1.935 2.335-1.974 2.368-2.013 2.403-2.053 2.437-2.092 2.472-2.133 2.51-2.175 2.545-2.216 2.583-2.259 2.621-2.302 2.66-2.345 2.7-2.39 2.74-2.435 2.782-2.481 2.824-2.527 2.866-2.575 2.91-2.622 2.955-2.67 3-2.72 3.045-2.771 3.092-2.821 3.14-2.873 3.19-2.925 3.238-2.978 3.288-3.032 3.34-3.088 3.393-3.142 3.445-3.2 3.5-3.257 3.554-3.316 3.611-3.375 3.668-3.435 3.726-3.496 3.785-3.559 3.845-3.622 3.907-3.686 3.969-3.751 4.033-3.818 4.096-3.885 4.163-3.953 4.23-4.023 4.297-4.093 4.367-4.165 4.438-4.238 4.509-4.312 4.582-4.388 4.656-4.464 4.731-4.542 4.809-4.62 4.887-4.701 4.966-4.783 5.047-4.866 5.13-4.95 5.212-5.035 5.299-5.123 5.385-5.21 5.473-5.302 5.562-5.392 5.654-5.485 5.747-5.58 5.841-5.676 5.937-5.773 6.035-5.872 6.134-5.974 6.235-6.075 6.337-6.18 6.443-6.286 6.548-6.393 6.657-6.502 6.767-6.614 6.878-6.727 6.993-6.842 7.107-6.958 7.226-7.077 7.346-7.198 7.467-7.32m-891.344 897.92 7.467-7.32 7.346-7.198 7.225-7.077 7.108-6.958 6.993-6.842 6.878-6.727 6.767-6.614 6.657-6.502 6.548-6.393 6.442-6.286 6.338-6.18 6.235-6.075 6.134-5.974 6.035-5.872 5.937-5.773 5.841-5.676 5.747-5.58 5.654-5.485 5.562-5.392 5.473-5.301 5.385-5.211 5.298-5.123 5.214-5.035 5.129-4.95 5.047-4.866 4.966-4.783 4.887-4.7 4.808-4.621 4.732-4.542 4.656-4.464 4.582-4.388 4.51-4.312 4.437-4.238 4.367-4.165 4.297-4.093 4.23-4.023 4.162-3.954 4.097-3.884 4.033-3.818 3.969-3.751 3.906-3.686 3.846-3.622 3.785-3.559 3.726-3.496 3.668-3.435 3.61-3.375 3.555-3.316 3.5-3.257 3.445-3.2 3.392-3.143 3.34-3.087 3.29-3.032 3.237-2.978 3.19-2.925 3.14-2.873 3.092-2.82 3.046-2.771 3-2.72 2.953-2.671 2.91-2.622 2.867-2.574 2.824-2.528 2.781-2.48 2.74-2.436 2.7-2.39 2.66-2.345 2.622-2.302 2.583-2.259 2.546-2.216 2.508-2.175 2.473-2.133 2.437-2.092 2.403-2.053 2.368-2.013 2.335-1.974 2.302-1.935 2.27-1.898 2.239-1.86 2.207-1.824 2.178-1.787 2.147-1.751 2.119-1.717 2.09-1.68 2.062-1.648 2.035-1.612 2.008-1.58 1.982-1.546 1.956-1.514 1.931-1.481 1.907-1.45 1.883-1.419 1.859-1.387 1.836-1.357 1.813-1.326 1.791-1.297 1.77-1.267 1.75-1.238 1.728-1.21 1.708-1.18 1.69-1.153 1.669-1.125 1.651-1.097 1.633-1.07 1.615-1.043 1.598-1.017 1.581-.99 1.565-.965 1.549-.938 1.533-.913 1.518-.887 1.504-.863 1.49-.838 1.475-.813 1.462-.79 1.449-.764 1.436-.74 1.424-.718 1.412-.694 1.401-.67 1.39-.648 1.379-.624 1.369-.602 1.359-.579 1.35-.556 1.34-.535 1.331-.512 1.323-.49 1.315-.469 1.308-.446 1.3-.425 1.293-.404 1.286-.382 1.28-.361 1.275-.34 1.269-.319 1.264-.297 1.259-.277 1.254-.256 1.25-.236 1.247-.214 1.243-.194 1.24-.174 1.238-.153 1.235-.132 1.232-.112 1.231-.092 1.23-.07 1.23-.052 1.227-.03 1.228-.01 1.228.01 1.228.03 1.229.051 1.23.071 1.23.092 1.233.112 1.235.132 1.238.153 1.24.174 1.243.194 1.246.214 1.25.236 1.255.256 1.26.277 1.263.297 1.269.32 1.274.339 1.28.36 1.287.383 1.293.404 1.3.425 1.308.446 1.315.469 1.323.49 1.331.512 1.34.535 1.35.556 1.359.58 1.369.601 1.379.624 1.39.648 1.4.67 1.413.694 1.424.717 1.436.741 1.45.765 1.461.789 1.476.813 1.489.838 1.503.863 1.519.887 1.533.913 1.549.938 1.564.965 1.582.99 1.598 1.017 1.615 1.043 1.633 1.07 1.651 1.097 1.67 1.125 1.689 1.153 1.708 1.18 1.729 1.21 1.749 1.238 1.77 1.267 1.79 1.297 1.814 1.326 1.836 1.357 1.86 1.387 1.882 1.419 1.906 1.45 1.932 1.481 1.956 1.514 1.982 1.546 2.008 1.58 2.035 1.612 2.062 1.647 2.09 1.681 2.119 1.716 2.147 1.752 2.178 1.787 2.207 1.824 2.239 1.86 2.27 1.898 2.302 1.935 2.335 1.974 2.368 2.013 2.403 2.053 2.437 2.092 2.472 2.133 2.51 2.175 2.545 2.216 2.583 2.259 2.621 2.302 2.66 2.345 2.7 2.39 2.74 2.435 2.782 2.481 2.824 2.528 2.866 2.574 2.91 2.622 2.955 2.67 3 2.72 3.045 2.771 3.092 2.821 3.14 2.873 3.19 2.925 3.238 2.978 3.288 3.032 3.34 3.087 3.393 3.143 3.445 3.2 3.5 3.257 3.554 3.316 3.611 3.375 3.668 3.435 3.726 3.496 3.785 3.559 3.845 3.622 3.907 3.686 3.969 3.751 4.033 3.818 4.096 3.884 4.163 3.954 4.23 4.023 4.297 4.093 4.367 4.165 4.438 4.238 4.509 4.312 4.582 4.388 4.656 4.464 4.731 4.542 4.809 4.62 4.887 4.701 4.966 4.783 5.047 4.866 5.13 4.95 5.212 5.035 5.299 5.123 5.385 5.21 5.473 5.302 5.562 5.392 5.654 5.485 5.747 5.58 5.841 5.676 5.937 5.773 6.035 5.872 6.134 5.974 6.235 6.075 6.337 6.18 6.443 6.286 6.548 6.393 6.657 6.502 6.767 6.614 6.878 6.727 6.993 6.841 7.107 6.959 7.226 7.077 7.346 7.198 7.467 7.32"/><path fill="none" stroke="#1f4fa8" stroke-width=".9" d="m165.342 149.459 7.517 7.447 7.394 7.324 7.272 7.203 7.153 7.083 7.034 6.965 6.919 6.85 6.804 6.736 6.693 6.625 6.583 6.514 6.474 6.407 6.368 6.3 6.263 6.195 6.16 6.093 6.058 5.99 5.959 5.893 5.86 5.794 5.766 5.697 5.67 5.603 5.576 5.51 5.485 5.418 5.395 5.328 5.307 5.24 5.219 5.152 5.133 5.066 5.05 4.982 4.966 4.9 4.885 4.817 4.805 4.737 4.726 4.659 4.649 4.58 4.572 4.505 4.498 4.429 4.424 4.355 4.351 4.283 4.28 4.211 4.21 4.141 4.142 4.072 4.074 4.004 4.007 3.936 3.942 3.871 3.877 3.806 3.814 3.743 3.752 3.68 3.69 3.618 3.63 3.557 3.572 3.498 3.513 3.44 3.456 3.38 3.4 3.325 3.344 3.27 3.29 3.213 3.237 3.16 3.184 3.106 3.132 3.055 3.082 3.003 3.032 2.952 2.982 2.902 2.935 2.854 2.887 2.805 2.84 2.758 2.794 2.71 2.75 2.666 2.705 2.62 2.661 2.575 2.619 2.532 2.577 2.49 2.535 2.446 2.494 2.404 2.455 2.364 2.415 2.324 2.377 2.284 2.338 2.244 2.302 2.207 2.264 2.168 2.229 2.131 2.193 2.095 2.158 2.059 2.124 2.023 2.09 1.988 2.058 1.954 2.025 1.92 1.993 1.887 1.962 1.854 1.93 1.822 1.901 1.79 1.87 1.759 1.842 1.728 1.813 1.698 1.785 1.668 1.757 1.638 1.73 1.61 1.702 1.582 1.677 1.553 1.65 1.526 1.626 1.499 1.6 1.471 1.577 1.446 1.552 1.42 1.528 1.394 1.506 1.37 1.482 1.344 1.46 1.32 1.438 1.296 1.417 1.272 1.396 1.25 1.375 1.225 1.354 1.204 1.334 1.181 1.315 1.16 1.296 1.137 1.277 1.117 1.258 1.095 1.24 1.075 1.222 1.054 1.204 1.034 1.188 1.015 1.17.995 1.154.975 1.138.957 1.122.938 1.106.92 1.092.9 1.076.884 1.061.865 1.047.849 1.033.83 1.02.815 1.005.797.993.78.98.765.966.748.955.732.942.716.93.702.92.685.907.67.896.656.885.641.875.627.865.612.854.597.844.584.835.57.825.555.816.543.807.529.799.515.79.503.781.49.773.476.766.464.758.45.75.44.743.426.736.414.73.402.722.39.716.378.71.366.704.355.698.342.692.332.687.32.682.308.676.298.672.286.667.275.662.264.659.253.654.243.65.231.646.22.642.21.64.2.635.19.633.178.63.168.627.157.625.147.622.137.62.127.618.116.616.106.614.096.613.086.612.075.61.066.61.055.608.045.608.036.607.025.607.015.607.005.607-.005.607-.015.607-.025.608-.036.608-.045.61-.055.61-.066.612-.075.613-.086.614-.096.616-.106.618-.116.62-.127.622-.137.625-.147.627-.157.63-.168.633-.179.636-.189.639-.2.642-.21.646-.22.65-.231.654-.243.659-.253.662-.264.667-.275.671-.286.677-.298.682-.308.687-.32.692-.332.698-.342.704-.355.71-.366.716-.378.722-.39.73-.402.736-.414.743-.427.75-.438.758-.451.765-.464.774-.477.781-.49.79-.502.798-.515.808-.53.816-.542.825-.556.835-.57.844-.583.854-.597.865-.612.875-.627.885-.64.896-.656.908-.67.919-.687.93-.7.942-.717.955-.732.967-.748.98-.765.992-.78 1.005-.798 1.02-.813 1.033-.831 1.047-.849 1.061-.865 1.076-.883 1.091-.902 1.107-.92 1.122-.937 1.138-.957 1.154-.976 1.17-.994 1.188-1.015 1.204-1.034 1.222-1.054 1.24-1.075 1.258-1.095 1.277-1.117 1.296-1.138 1.314-1.159 1.335-1.181 1.354-1.204 1.375-1.226 1.396-1.249 1.416-1.272 1.439-1.296 1.46-1.32 1.482-1.345 1.506-1.369 1.528-1.394 1.552-1.42 1.576-1.446 1.6-1.471 1.626-1.5 1.651-1.525 1.677-1.553 1.702-1.582 1.73-1.61 1.757-1.638 1.785-1.668 1.813-1.698 1.841-1.728 1.87-1.76 1.901-1.79 1.931-1.821 1.962-1.854 1.993-1.887 2.025-1.92 2.057-1.954 2.09-1.988 2.125-2.023 2.158-2.059 2.193-2.095 2.229-2.13 2.264-2.17 2.302-2.206 2.338-2.245 2.377-2.283 2.415-2.324 2.455-2.364 2.494-2.404 2.535-2.447 2.577-2.489 2.619-2.531 2.661-2.576 2.705-2.62 2.75-2.665 2.794-2.711 2.84-2.758 2.887-2.805 2.934-2.854 2.983-2.902 3.032-2.952 3.081-3.003 3.133-3.055 3.184-3.106 3.237-3.16 3.29-3.214 3.344-3.269 3.4-3.324 3.456-3.382 3.513-3.439 3.571-3.498 3.63-3.557 3.691-3.619 3.752-3.68 3.814-3.742 3.877-3.806 3.942-3.87 4.007-3.937 4.074-4.004 4.141-4.072 4.21-4.14 4.28-4.212 4.352-4.283 4.424-4.355 4.498-4.43 4.572-4.504 4.649-4.58 4.726-4.659 4.805-4.737 4.885-4.818 4.966-4.899 5.05-4.982 5.133-5.066 5.22-5.153 5.306-5.239 5.395-5.328 5.485-5.418 5.577-5.51 5.67-5.603 5.764-5.697 5.861-5.794 5.959-5.892 6.058-5.991 6.16-6.093 6.263-6.195 6.368-6.3 6.474-6.407 6.583-6.514 6.692-6.625 6.805-6.736 6.919-6.85 7.034-6.965 7.153-7.083 7.272-7.203 7.394-7.324 7.517-7.447m-906.716 904.082 7.517-7.447 7.394-7.324 7.272-7.203 7.153-7.083 7.034-6.965 6.919-6.85 6.804-6.736 6.693-6.625 6.583-6.514 6.474-6.407 6.368-6.3 6.263-6.195 6.16-6.093 6.058-5.99 5.959-5.893 5.86-5.794 5.766-5.697 5.67-5.603 5.576-5.51 5.485-5.418 5.395-5.328 5.307-5.24 5.219-5.152 5.133-5.066 5.05-4.982 4.966-4.9 4.885-4.817 4.805-4.737 4.726-4.659 4.649-4.58 4.572-4.505 4.498-4.429 4.424-4.355 4.351-4.283 4.28-4.211 4.21-4.141 4.142-4.072 4.074-4.003 4.007-3.937 3.942-3.871 3.877-3.806 3.814-3.743 3.752-3.68 3.69-3.618 3.63-3.557 3.572-3.498 3.513-3.44 3.456-3.38 3.4-3.325 3.344-3.27 3.29-3.213 3.237-3.16 3.184-3.106 3.132-3.055 3.082-3.003 3.032-2.952 2.982-2.902 2.935-2.854 2.887-2.805 2.84-2.758 2.794-2.71 2.75-2.666 2.705-2.62 2.661-2.576 2.619-2.531 2.577-2.49 2.535-2.446 2.494-2.404 2.455-2.364 2.415-2.324 2.377-2.284 2.338-2.244 2.302-2.207 2.264-2.168 2.229-2.131 2.193-2.095 2.158-2.059 2.124-2.023 2.09-1.988 2.058-1.954 2.025-1.92 1.993-1.887 1.962-1.854 1.93-1.822 1.901-1.79 1.87-1.759 1.842-1.728 1.813-1.698 1.785-1.668 1.757-1.638 1.73-1.61 1.702-1.582 1.677-1.553 1.65-1.526 1.626-1.498 1.6-1.472 1.577-1.446 1.552-1.42 1.528-1.394 1.506-1.37 1.482-1.344 1.46-1.32 1.438-1.296 1.417-1.272 1.396-1.25 1.375-1.225 1.354-1.204 1.334-1.181 1.315-1.16 1.296-1.137 1.277-1.117 1.258-1.095 1.24-1.075 1.222-1.054 1.204-1.034 1.188-1.015 1.17-.995 1.154-.975 1.138-.957 1.122-.938 1.106-.92 1.092-.9 1.076-.884 1.061-.865 1.047-.849 1.033-.83 1.02-.815 1.005-.797.993-.78.98-.765.966-.748.955-.732.942-.716.93-.702.92-.685.907-.67.896-.656.885-.641.875-.627.865-.612.854-.597.844-.584.835-.57.825-.555.816-.543.807-.529.799-.515.79-.503.781-.49.773-.476.766-.464.758-.45.75-.44.743-.426.736-.414.73-.402.722-.39.716-.378.71-.366.704-.355.698-.342.692-.332.687-.32.682-.308.676-.298.672-.286.667-.275.662-.264.659-.253.654-.243.65-.231.646-.22.642-.21.64-.2.635-.19.633-.178.63-.168.627-.157.625-.147.622-.137.62-.127.618-.116.616-.106.614-.096.613-.086.612-.075.61-.066.61-.055.608-.045.608-.036.607-.025.607-.015.607-.005.607.005.607.015.607.025.608.036.608.045.61.055.61.066.612.075.613.086.614.096.616.106.618.116.62.127.622.137.625.147.627.157.63.168.633.179.636.189.639.2.642.21.646.22.65.231.654.243.659.253.662.264.667.275.671.286.677.298.682.308.687.32.692.332.698.342.704.355.71.366.716.378.722.39.73.402.736.414.743.427.75.438.758.451.765.464.774.477.781.49.79.502.798.515.808.53.816.542.825.556.835.57.844.583.854.597.865.612.875.627.885.64.896.656.908.67.919.687.93.7.942.717.955.732.967.748.98.765.992.78 1.005.798 1.02.813 1.033.831 1.047.849 1.061.865 1.076.883 1.091.902 1.107.92 1.122.937 1.138.957 1.154.976 1.17.994 1.188 1.015 1.204 1.034 1.222 1.054 1.24 1.075 1.258 1.095 1.277 1.117 1.296 1.138 1.314 1.159 1.335 1.181 1.354 1.204 1.375 1.226 1.396 1.249 1.416 1.272 1.439 1.296 1.46 1.32 1.482 1.345 1.506 1.369 1.528 1.394 1.552 1.42 1.576 1.446 1.6 1.472 1.626 1.498 1.651 1.526 1.677 1.553 1.702 1.582 1.73 1.61 1.757 1.638 1.785 1.668 1.813 1.698 1.841 1.728 1.87 1.76 1.901 1.79 1.931 1.821 1.962 1.854 1.993 1.887 2.025 1.92 2.057 1.954 2.09 1.988 2.125 2.023 2.158 2.059 2.193 2.095 2.229 2.13 2.264 2.17 2.302 2.206 2.338 2.245 2.377 2.283 2.415 2.324 2.455 2.364 2.494 2.404 2.535 2.447 2.577 2.489 2.619 2.531 2.661 2.576 2.705 2.62 2.75 2.665 2.794 2.711 2.84 2.758 2.887 2.805 2.934 2.854 2.983 2.902 3.032 2.952 3.081 3.003 3.133 3.055 3.184 3.106 3.237 3.16 3.29 3.214 3.344 3.269 3.4 3.324 3.456 3.382 3.513 3.44 3.571 3.497 3.63 3.557 3.691 3.619 3.752 3.68 3.814 3.742 3.877 3.806 3.942 3.87 4.007 3.938 4.074 4.003 4.141 4.072 4.21 4.14 4.28 4.212 4.352 4.283 4.424 4.355 4.498 4.43 4.572 4.504 4.649 4.58 4.726 4.659 4.805 4.737 4.885 4.818 4.966 4.899 5.05 4.982 5.133 5.066 5.22 5.153 5.306 5.239 5.395 5.328 5.485 5.418 5.577 5.51 5.67 5.603 5.764 5.697 5.861 5.794 5.959 5.892 6.058 5.991 6.16 6.093 6.263 6.195 6.368 6.3 6.474 6.407 6.583 6.514 6.692 6.625 6.805 6.736 6.919 6.85 7.034 6.965 7.153 7.083 7.272 7.203 7.394 7.323 7.517 7.448"/><path fill="none" stroke="#c02828" stroke-width=".8" d="m631.596 611.262 24.367 18.444 14.265 10.798 11.458 8.673 9.994 7.565 9.075 6.87 8.44 6.388 7.975 6.037 7.622 5.769 7.345 5.56 7.125 5.393 6.948 5.26 6.804 5.15 6.687 5.06 6.59 4.989 6.51 4.928 6.447 4.88 6.395 4.84 6.354 4.81 6.322 4.786 6.298 4.767 6.283 4.755 6.271 4.748 6.268 4.744 6.267 4.744 6.274 4.748 6.282 4.756 6.296 4.765 6.312 4.779 6.333 4.793 6.356 4.811 6.381 4.83 6.41 4.853 6.442 4.876 6.475 4.901 6.51 4.928 6.549 4.957 6.588 4.987 6.63 5.019 6.674 5.051 6.72 5.086 6.766 5.122 6.815 5.159 6.866 5.197 6.917 5.236 6.971 5.277 7.026 5.318 7.083 5.361 7.14 5.405 7.2 5.45 7.26 5.495 7.321 5.542 7.385 5.59 7.45 5.639 7.515 5.689 7.583 5.739 7.65 5.791 7.72 5.844 7.791 5.897 7.863 5.952M605.804 611.262l-24.367 18.444-14.265 10.798-11.458 8.673-9.994 7.565-9.075 6.87-8.44 6.388-7.975 6.037-7.622 5.769-7.345 5.56-7.125 5.393-6.948 5.26-6.805 5.15-6.686 5.06-6.59 4.989-6.51 4.928-6.447 4.88-6.395 4.84-6.354 4.81-6.322 4.786-6.299 4.767-6.281 4.755-6.272 4.748-6.268 4.744-6.268 4.744-6.273 4.748-6.282 4.756-6.296 4.765-6.312 4.779-6.333 4.793-6.356 4.811-6.381 4.83-6.41 4.853-6.442 4.876-6.475 4.901-6.51 4.928-6.55 4.957-6.587 4.987-6.63 5.019-6.674 5.051-6.72 5.086-6.766 5.122-6.815 5.159-6.866 5.197-6.917 5.236-6.971 5.277-7.026 5.318-7.083 5.361-7.14 5.405-7.2 5.45-7.26 5.495-7.321 5.542-7.385 5.59-7.45 5.639-7.515 5.689-7.583 5.739-7.65 5.791-7.72 5.844-7.791 5.897-7.863 5.952M629.52 608.33l20.445 12.906 11.968 7.556 9.614 6.069 8.385 5.293 7.615 4.807 7.08 4.47 6.692 4.224 6.394 4.037 6.163 3.89 5.979 3.774 5.83 3.68 5.708 3.604 5.61 3.541 5.529 3.49 5.463 3.45 5.409 3.414 5.365 3.387 5.331 3.365 5.305 3.349 5.284 3.336 5.271 3.327 5.262 3.322 5.259 3.32 5.259 3.32 5.263 3.322 5.271 3.327 5.282 3.335 5.297 3.343 5.313 3.354 5.333 3.367 5.354 3.38 5.378 3.395 5.405 3.412 5.433 3.43 5.462 3.447 5.494 3.469 5.528 3.49 5.563 3.511 5.6 3.535 5.637 3.559 5.677 3.583 5.719 3.61 5.76 3.637 5.804 3.663 5.849 3.693 5.895 3.721 5.942 3.751 5.99 3.782 6.041 3.813 6.092 3.846 6.143 3.878 6.196 3.911 6.25 3.946 6.306 3.98 6.362 4.016 6.419 4.052 6.477 4.09 6.537 4.126 6.597 4.165 6.659 4.203 6.72 4.243 6.785 4.283 6.85 4.323 6.913 4.365 6.981 4.406 7.048 4.45 7.116 4.492 7.186 4.536 7.257 4.58M607.88 608.33l-20.445 12.906-11.968 7.556-9.614 6.069-8.385 5.293-7.615 4.807-7.08 4.47-6.692 4.224-6.395 4.037-6.162 3.89-5.979 3.774-5.83 3.68-5.708 3.604-5.61 3.541-5.53 3.49-5.462 3.45-5.409 3.414-5.365 3.387-5.331 3.365-5.305 3.349-5.284 3.336-5.271 3.327-5.262 3.322-5.259 3.32-5.259 3.32-5.263 3.322-5.271 3.327-5.282 3.335-5.297 3.343-5.313 3.354-5.333 3.367-5.354 3.38-5.378 3.395-5.405 3.412-5.433 3.43-5.462 3.447-5.495 3.469-5.527 3.49-5.563 3.511-5.6 3.535-5.637 3.559-5.677 3.583-5.719 3.61-5.76 3.637-5.804 3.663-5.849 3.693-5.895 3.721-5.942 3.751-5.99 3.782-6.041 3.813-6.092 3.846-6.143 3.878-6.196 3.911-6.25 3.946-6.306 3.98-6.362 4.016-6.419 4.052-6.477 4.09-6.537 4.126-6.597 4.165-6.659 4.203-6.721 4.243-6.784 4.283-6.85 4.323-6.913 4.365-6.981 4.406-7.048 4.45-7.117 4.492-7.185 4.536-7.257 4.58m458.648-279.253 17.806 8.179 10.425 4.788 8.373 3.845 7.303 3.355 6.632 3.046 6.168 2.833 5.827 2.676 5.57 2.558 5.367 2.466 5.207 2.391 5.078 2.332 4.972 2.284 4.886 2.244 4.816 2.212 4.757 2.185 4.711 2.164 4.674 2.146 4.643 2.133 4.62 2.122 4.603 2.114 4.59 2.108 4.583 2.105 4.58 2.104 4.58 2.103 4.585 2.106 4.59 2.108 4.601 2.114 4.613 2.118 4.628 2.126 4.645 2.133 4.663 2.142 4.684 2.151 4.708 2.162 4.731 2.174 4.758 2.185 4.785 2.198 4.815 2.211 4.845 2.225 4.877 2.24 4.91 2.256 4.945 2.27 4.98 2.288 5.017 2.304 5.055 2.322 5.094 2.34 5.135 2.358 5.175 2.377 5.218 2.397 5.261 2.416 5.306 2.437 5.35 2.457 5.397 2.479 5.444 2.5 5.492 2.523 5.54 2.545 5.591 2.568 5.642 2.59 5.693 2.616 5.746 2.639 5.8 2.663 5.853 2.689 5.91 2.714 5.964 2.74 6.022 2.765 6.08 2.793 6.139 2.82 6.198 2.846 6.259 2.875 6.32 2.902 6.382 2.932 6.445 2.96 6.509 2.99 6.573 3.019 6.64 3.05 6.706 3.08 6.773 3.11 6.841 3.142 6.911 3.174M609.276 605.828l-17.806 8.179-10.425 4.788-8.373 3.845-7.303 3.355-6.632 3.046-6.168 2.833-5.827 2.676-5.57 2.558-5.367 2.466-5.207 2.391-5.078 2.332-4.972 2.284-4.886 2.244-4.816 2.212-4.758 2.185-4.71 2.164-4.674 2.146-4.643 2.133-4.62 2.122-4.603 2.114-4.59 2.108-4.583 2.105-4.58 2.104-4.58 2.103-4.585 2.106-4.59 2.108-4.601 2.114-4.613 2.118-4.628 2.126-4.645 2.133-4.663 2.142-4.685 2.151-4.707 2.162-4.731 2.174-4.758 2.185-4.785 2.198-4.815 2.211-4.845 2.225-4.877 2.24-4.91 2.256-4.945 2.27-4.98 2.288-5.017 2.304-5.055 2.322-5.094 2.34-5.135 2.358-5.175 2.377-5.218 2.397-5.261 2.416-5.306 2.437-5.35 2.457-5.397 2.479-5.444 2.5-5.492 2.523-5.54 2.545-5.591 2.568-5.642 2.59-5.693 2.616-5.746 2.639-5.8 2.663-5.853 2.689-5.91 2.714-5.964 2.74-6.023 2.765-6.08 2.793-6.138 2.82-6.198 2.846-6.259 2.875-6.32 2.902-6.382 2.932-6.445 2.96-6.509 2.99-6.574 3.019-6.639 3.05-6.706 3.08-6.773 3.11-6.842 3.142-6.91 3.174M627.32 603.598l16.287 3.965 9.535 2.32 7.659 1.865 6.68 1.626 6.066 1.477 5.641 1.373 5.33 1.298 5.095 1.24 4.91 1.195 4.762 1.16 4.644 1.13 4.548 1.107 4.47 1.088 4.404 1.072 4.352 1.06 4.31 1.048 4.274 1.04 4.247 1.035 4.225 1.028 4.21 1.025 4.2 1.022 4.192 1.02 4.189 1.02 4.19 1.02 4.192 1.02 4.2 1.023 4.208 1.024 4.219 1.028 4.233 1.03 4.248 1.034 4.266 1.038 4.284 1.043 4.306 1.048 4.328 1.054 4.351 1.06 4.378 1.065 4.403 1.072 4.432 1.078 4.46 1.086 4.492 1.094 4.523 1.1 4.555 1.11 4.59 1.117 4.623 1.125 4.66 1.134 4.696 1.144 4.734 1.152 4.772 1.162 4.813 1.171 4.852 1.181 4.894 1.192 4.936 1.201 4.98 1.212 5.023 1.223 5.068 1.234 5.114 1.245 5.16 1.256 5.208 1.267 5.256 1.28 5.304 1.291 5.354 1.303 5.405 1.316 5.456 1.328 5.509 1.341 5.56 1.354 5.616 1.366 5.669 1.38 5.724 1.394 5.781 1.407 5.838 1.421 5.895 1.435 5.953 1.45 6.013 1.463 6.073 1.478 6.134 1.493 6.195 1.509 6.258 1.523 6.321 1.539 6.385 1.554 6.45 1.57 6.515 1.586 6.582 1.602 6.65 1.619 6.717 1.635M610.08 603.598l-16.287 3.965-9.535 2.32-7.659 1.865-6.68 1.626-6.066 1.477-5.641 1.373-5.33 1.298-5.095 1.24-4.91 1.195-4.762 1.16-4.644 1.13-4.548 1.107-4.47 1.088-4.404 1.072-4.352 1.06-4.31 1.048-4.274 1.04-4.247 1.035-4.225 1.028-4.21 1.025-4.2 1.022-4.192 1.02-4.189 1.02-4.19 1.02-4.192 1.02-4.2 1.023-4.208 1.024-4.219 1.028-4.233 1.03-4.248 1.034-4.266 1.038-4.284 1.043-4.306 1.048-4.328 1.054-4.352 1.06-4.377 1.065-4.403 1.072-4.432 1.078-4.46 1.086-4.492 1.094-4.523 1.1-4.555 1.11-4.59 1.117-4.623 1.125-4.66 1.134-4.696 1.144-4.734 1.152-4.772 1.162-4.813 1.171-4.852 1.181-4.894 1.192-4.936 1.201-4.98 1.212-5.023 1.223-5.068 1.234-5.114 1.245-5.16 1.256-5.208 1.267-5.256 1.28-5.304 1.291-5.354 1.303-5.405 1.316-5.456 1.328-5.509 1.341-5.56 1.354-5.616 1.366-5.669 1.38-5.725 1.394-5.78 1.407-5.838 1.421-5.895 1.435-5.954 1.45-6.012 1.463-6.073 1.478-6.134 1.493-6.195 1.509-6.258 1.523-6.321 1.539-6.385 1.554-6.45 1.57-6.516 1.586-6.582 1.602-6.649 1.619-6.717 1.635"/><path fill="none" stroke="#c02828" stroke-width=".8" d="M627.057 601.5h442.963m-459.677 0H167.38" shape-rendering="crispEdges"/><path fill="none" stroke="#c02828" stroke-width=".8" d="m627.32 599.402 16.287-3.965 9.535-2.32 7.659-1.865 6.68-1.626 6.066-1.477 5.641-1.373 5.33-1.298 5.095-1.24 4.91-1.195 4.762-1.16 4.644-1.13 4.548-1.107 4.47-1.088 4.404-1.072 4.352-1.06 4.31-1.048 4.274-1.04 4.247-1.035 4.225-1.028 4.21-1.025 4.2-1.022 4.192-1.02 4.189-1.02 4.19-1.02 4.192-1.02 4.2-1.023 4.208-1.024 4.219-1.028 4.233-1.03 4.248-1.034 4.266-1.038 4.284-1.043 4.306-1.048 4.328-1.054 4.351-1.06 4.378-1.065 4.403-1.072 4.432-1.078 4.46-1.086 4.492-1.094 4.523-1.1 4.555-1.11 4.59-1.117 4.623-1.125 4.66-1.134 4.696-1.144 4.734-1.152 4.772-1.162 4.813-1.171 4.852-1.181 4.894-1.192 4.936-1.201 4.98-1.212 5.023-1.223 5.068-1.234 5.114-1.245 5.16-1.256 5.208-1.267 5.256-1.28 5.304-1.291 5.354-1.303 5.405-1.316 5.456-1.328 5.509-1.341 5.56-1.354 5.616-1.366 5.669-1.38 5.724-1.394 5.781-1.407 5.838-1.421 5.895-1.435 5.953-1.45 6.013-1.463 6.073-1.478 6.134-1.493 6.195-1.509 6.258-1.523 6.321-1.539 6.385-1.554 6.45-1.57 6.515-1.586 6.582-1.602 6.65-1.619 6.717-1.635M610.08 599.402l-16.287-3.965-9.535-2.32-7.659-1.865-6.68-1.626-6.066-1.477-5.641-1.373-5.33-1.298-5.095-1.24-4.91-1.195-4.762-1.16-4.644-1.13-4.548-1.107-4.47-1.088-4.404-1.072-4.352-1.06-4.31-1.048-4.274-1.04-4.247-1.035-4.225-1.028-4.21-1.025-4.2-1.022-4.192-1.02-4.189-1.02-4.19-1.02-4.192-1.02-4.2-1.023-4.208-1.024-4.219-1.028-4.233-1.03-4.248-1.034-4.266-1.038-4.284-1.043-4.306-1.048-4.328-1.054-4.352-1.06-4.377-1.065-4.403-1.072-4.432-1.078-4.46-1.086-4.492-1.094-4.523-1.1-4.555-1.11-4.59-1.117-4.623-1.125-4.66-1.134-4.696-1.144-4.734-1.152-4.772-1.162-4.813-1.171-4.852-1.181-4.894-1.192-4.936-1.201-4.98-1.212-5.023-1.223-5.068-1.234-5.114-1.245-5.16-1.256-5.208-1.267-5.256-1.28-5.304-1.291-5.354-1.303-5.405-1.316-5.456-1.328-5.509-1.341-5.56-1.354-5.616-1.366-5.669-1.38-5.725-1.394-5.78-1.407-5.838-1.421-5.895-1.435-5.954-1.45-6.012-1.463-6.073-1.478-6.134-1.493-6.195-1.509-6.258-1.523-6.321-1.539-6.385-1.554-6.45-1.57-6.516-1.586-6.582-1.602-6.649-1.619-6.717-1.635m461.278 105.664 17.806-8.179 10.425-4.788 8.373-3.845 7.303-3.355 6.632-3.046 6.168-2.833 5.827-2.676 5.57-2.558 5.367-2.466 5.207-2.391 5.078-2.332 4.972-2.284 4.886-2.244 4.816-2.212 4.757-2.185 4.711-2.164 4.674-2.146 4.643-2.133 4.62-2.122 4.603-2.114 4.59-2.108 4.583-2.105 4.58-2.104 4.58-2.103 4.585-2.106 4.59-2.108 4.601-2.114 4.613-2.118 4.628-2.126 4.645-2.133 4.663-2.142 4.684-2.151 4.708-2.162 4.731-2.174 4.758-2.185 4.785-2.198 4.815-2.211 4.845-2.225 4.877-2.24 4.91-2.256 4.945-2.27 4.98-2.288 5.017-2.304 5.055-2.322 5.094-2.34 5.135-2.358 5.175-2.377 5.218-2.397 5.261-2.416 5.306-2.437 5.35-2.457 5.397-2.479 5.444-2.5 5.492-2.523 5.54-2.545 5.591-2.567 5.642-2.592 5.693-2.615 5.746-2.639 5.8-2.663 5.853-2.689 5.91-2.714 5.964-2.74 6.022-2.766 6.08-2.792 6.139-2.82 6.198-2.846 6.259-2.875 6.32-2.903 6.382-2.93 6.445-2.961 6.509-2.99 6.573-3.019 6.64-3.05 6.706-3.08 6.773-3.11 6.841-3.142 6.911-3.174M609.276 597.172l-17.806-8.179-10.425-4.788-8.373-3.845-7.303-3.355-6.632-3.046-6.168-2.833-5.827-2.676-5.57-2.558-5.367-2.466-5.207-2.391-5.078-2.332-4.972-2.284-4.886-2.244-4.816-2.212-4.758-2.185-4.71-2.164-4.674-2.146-4.643-2.133-4.62-2.122-4.603-2.114-4.59-2.108-4.583-2.105-4.58-2.104-4.58-2.103-4.585-2.106-4.59-2.108-4.601-2.114-4.613-2.118-4.628-2.126-4.645-2.133-4.663-2.142-4.685-2.151-4.707-2.162-4.731-2.174-4.758-2.185-4.785-2.198-4.815-2.211-4.845-2.225-4.877-2.24-4.91-2.256-4.945-2.27-4.98-2.288-5.017-2.304-5.055-2.322-5.094-2.34-5.135-2.358-5.175-2.377-5.218-2.397-5.261-2.416-5.306-2.437-5.35-2.457-5.397-2.479-5.444-2.5-5.492-2.523-5.54-2.545-5.591-2.567-5.642-2.592-5.693-2.615-5.746-2.639-5.8-2.663-5.853-2.689-5.91-2.714-5.964-2.74-6.023-2.766-6.08-2.792-6.138-2.82-6.198-2.846-6.259-2.875-6.32-2.903-6.382-2.93-6.445-2.961-6.509-2.99-6.574-3.019-6.639-3.05-6.706-3.08-6.773-3.11-6.842-3.142-6.91-3.174M629.52 594.67l20.445-12.906 11.968-7.556 9.614-6.069 8.385-5.293 7.615-4.807 7.08-4.47 6.692-4.224 6.394-4.037 6.163-3.89 5.979-3.774 5.83-3.68 5.708-3.604 5.61-3.541 5.529-3.49 5.463-3.45 5.409-3.414 5.365-3.387 5.331-3.365 5.305-3.349 5.284-3.336 5.271-3.327 5.262-3.322 5.259-3.32 5.259-3.32 5.263-3.322 5.271-3.327 5.282-3.335 5.297-3.343 5.313-3.354 5.333-3.367 5.354-3.38 5.378-3.395 5.405-3.412 5.433-3.43 5.462-3.447 5.494-3.469 5.528-3.49 5.563-3.511 5.6-3.535 5.637-3.559 5.677-3.584 5.719-3.61 5.76-3.636 5.804-3.663 5.849-3.693 5.895-3.721 5.942-3.751 5.99-3.782 6.041-3.813 6.092-3.846 6.143-3.878 6.196-3.911 6.25-3.946 6.306-3.98 6.362-4.016 6.419-4.053 6.477-4.089 6.537-4.126 6.597-4.165 6.659-4.203 6.72-4.243 6.785-4.283 6.85-4.323 6.913-4.365 6.981-4.406 7.048-4.45 7.116-4.492 7.186-4.536 7.257-4.58M607.88 594.67l-20.445-12.906-11.968-7.556-9.614-6.069-8.385-5.293-7.615-4.807-7.08-4.47-6.692-4.224-6.395-4.037-6.162-3.89-5.979-3.774-5.83-3.68-5.708-3.604-5.61-3.541-5.53-3.49-5.462-3.45-5.409-3.414-5.365-3.387-5.331-3.365-5.305-3.349-5.284-3.336-5.271-3.327-5.262-3.322-5.259-3.32-5.259-3.32-5.263-3.322-5.271-3.327-5.282-3.335-5.297-3.343-5.313-3.354-5.333-3.367-5.354-3.38-5.378-3.395-5.405-3.412-5.433-3.43-5.462-3.447-5.495-3.469-5.527-3.49-5.563-3.511-5.6-3.535-5.637-3.559-5.677-3.584-5.719-3.61-5.76-3.636-5.804-3.663-5.849-3.693-5.895-3.721-5.942-3.751-5.99-3.782-6.041-3.813-6.092-3.846-6.143-3.878-6.196-3.911-6.25-3.946-6.306-3.98-6.362-4.016-6.419-4.053-6.477-4.089-6.537-4.126-6.597-4.165-6.659-4.203-6.721-4.243-6.784-4.283-6.85-4.323-6.913-4.365-6.981-4.406-7.048-4.45-7.117-4.492-7.185-4.536-7.257-4.58m462.12 273.819 24.367-18.444 14.265-10.798 11.458-8.673 9.994-7.565 9.075-6.87 8.44-6.388 7.975-6.037 7.622-5.769 7.345-5.56 7.125-5.393 6.948-5.26 6.804-5.15 6.687-5.06 6.59-4.989 6.51-4.928 6.447-4.88 6.395-4.84 6.354-4.81 6.322-4.786 6.298-4.767 6.283-4.755 6.271-4.748 6.268-4.744 6.267-4.744 6.274-4.749 6.282-4.755 6.296-4.766 6.312-4.778 6.333-4.793 6.356-4.811 6.381-4.83 6.41-4.853 6.442-4.876 6.475-4.901 6.51-4.928 6.549-4.957 6.588-4.987 6.63-5.019 6.674-5.051 6.72-5.086 6.766-5.122 6.815-5.159 6.866-5.197 6.917-5.236 6.971-5.277 7.026-5.318 7.083-5.361 7.14-5.405 7.2-5.45 7.26-5.495 7.321-5.542 7.385-5.59 7.45-5.639 7.515-5.689 7.583-5.739 7.65-5.791 7.72-5.844 7.791-5.897 7.863-5.952M605.804 591.738l-24.367-18.444-14.265-10.798-11.458-8.673-9.994-7.565-9.075-6.87-8.44-6.388-7.975-6.037-7.622-5.769-7.345-5.56-7.125-5.393-6.948-5.26-6.805-5.15-6.686-5.06-6.59-4.989-6.51-4.928-6.447-4.88-6.395-4.84-6.354-4.81-6.322-4.786-6.299-4.767-6.281-4.755-6.272-4.748-6.268-4.744-6.268-4.744-6.273-4.749-6.282-4.755-6.296-4.766-6.312-4.778-6.333-4.793-6.356-4.811-6.381-4.83-6.41-4.853-6.442-4.876-6.475-4.901-6.51-4.928-6.55-4.957-6.587-4.987-6.63-5.019-6.674-5.051-6.72-5.086-6.766-5.122-6.815-5.159-6.866-5.197-6.917-5.236-6.971-5.277-7.026-5.318-7.083-5.361-7.14-5.405-7.2-5.45-7.26-5.495-7.321-5.542-7.385-5.59-7.45-5.639-7.515-5.689-7.583-5.739-7.65-5.791-7.72-5.844-7.791-5.897-7.863-5.952"/><path fill="none" stroke="#333" stroke-width="2.5" d="m163.055 1054.364 3.037-3.02 3.038-3.019 3.037-3.019 3.038-3.019 3.038-3.019 3.037-3.019 3.038-3.019 3.038-3.02 3.037-3.018 3.038-3.02 3.038-3.018 3.037-3.02 3.038-3.019 3.037-3.019 3.038-3.019 3.038-3.019 3.037-3.019 3.038-3.019 3.038-3.02 3.037-3.018 3.038-3.02 3.038-3.018 3.037-3.02 3.038-3.019 3.037-3.019 3.038-3.019 3.038-3.019 3.037-3.019 3.038-3.019 3.038-3.02 3.037-3.018 3.038-3.02 3.038-3.018 3.037-3.02 3.038-3.019 3.037-3.019 3.038-3.019 3.038-3.019 3.037-3.019 3.038-3.019 3.038-3.02 3.037-3.018 3.038-3.02 3.038-3.018 3.037-3.02 3.038-3.019 3.037-3.019 3.038-3.019 3.038-3.019 3.037-3.019 3.038-3.019 3.038-3.02 3.037-3.018 3.038-3.02 3.038-3.018 3.037-3.02 3.038-3.019 3.037-3.019 3.038-3.019 3.038-3.019 3.037-3.019 3.038-3.019 3.038-3.02 3.037-3.018 3.038-3.02 3.038-3.018 3.037-3.02 3.038-3.019 3.037-3.019 3.038-3.019 3.038-3.019 3.037-3.019 3.038-3.019 3.038-3.02 3.037-3.018 3.038-3.02 3.037-3.018 3.038-3.02 3.038-3.019 3.037-3.019 3.038-3.019 3.038-3.019 3.037-3.019 3.038-3.019 3.038-3.02 3.037-3.018 3.038-3.02 3.038-3.018 3.037-3.02 3.038-3.019 3.037-3.019 3.038-3.019 3.038-3.019 3.037-3.019 3.038-3.019 3.038-3.02 3.037-3.018 3.038-3.02 3.038-3.018 3.037-3.02 3.038-3.019 3.037-3.019 3.038-3.019 3.038-3.019 3.037-3.019 3.038-3.019 3.038-3.02 3.037-3.018 3.038-3.02 3.038-3.018 3.037-3.02 3.038-3.019 3.037-3.019 3.038-3.019 3.038-3.019 3.037-3.019 3.038-3.019 3.038-3.02 3.037-3.018 3.038-3.02 3.038-3.018 3.037-3.02 3.038-3.019 3.037-3.019 3.038-3.019 3.038-3.019 3.037-3.019 3.038-3.019 3.038-3.02 3.037-3.018 3.038-3.02 3.038-3.018 3.037-3.02 3.038-3.018 3.037-3.02 3.038-3.019 3.038-3.019 3.037-3.019 3.038-3.019 3.038-3.02 3.037-3.018 3.038-3.02 3.038-3.018 3.037-3.02 3.038-3.019 3.037-3.019 3.038-3.019 3.038-3.019 3.037-3.019 3.038-3.019 3.038-3.02 3.037-3.018 3.038-3.02 3.038-3.018 3.037-3.02 3.038-3.019 3.037-3.019 3.038-3.019 3.038-3.019 3.037-3.019 3.038-3.019 3.038-3.02 3.037-3.018 3.038-3.02 3.038-3.018 3.037-3.02 3.038-3.018 3.037-3.02 3.038-3.019 3.038-3.019 3.037-3.019 3.038-3.019 3.038-3.02 3.037-3.018 3.038-3.02 3.038-3.018 3.037-3.02 3.038-3.019 3.037-3.019 3.038-3.019 3.038-3.019 3.037-3.019 3.038-3.019 3.038-3.02 3.037-3.018 3.038-3.02 3.038-3.018 3.037-3.02 3.038-3.019 3.037-3.019 3.038-3.019 3.038-3.019 3.037-3.019 3.038-3.019 3.038-3.02 3.037-3.018 3.038-3.02 3.038-3.018 3.037-3.02 3.038-3.019 3.037-3.019 3.038-3.019 3.038-3.019 3.037-3.019 3.038-3.019 3.038-3.02 3.037-3.018 3.038-3.02 3.037-3.018 3.038-3.02 3.038-3.019 3.037-3.019 3.038-3.019 3.038-3.019 3.037-3.019 3.038-3.019 3.038-3.02 3.037-3.018 3.038-3.02 3.038-3.018 3.037-3.02 3.038-3.019 3.037-3.019 3.038-3.019 3.038-3.019 3.037-3.019 3.038-3.019 3.038-3.02 3.037-3.018 3.038-3.02 3.038-3.018 3.037-3.02 3.038-3.019 3.037-3.019 3.038-3.019 3.038-3.019 3.037-3.019 3.038-3.019 3.038-3.02 3.037-3.018 3.038-3.02 3.038-3.018 3.037-3.02 3.038-3.019 3.037-3.019 3.038-3.019 3.038-3.019 3.037-3.019 3.038-3.019 3.038-3.02 3.037-3.018 3.038-3.02 3.038-3.018 3.037-3.02 3.038-3.019 3.037-3.019 3.038-3.019 3.038-3.019 3.037-3.019 3.038-3.019 3.038-3.02 3.037-3.018 3.038-3.02 3.038-3.018 3.037-3.02 3.038-3.019 3.037-3.019 3.038-3.019 3.038-3.019 3.037-3.019 3.038-3.019 3.038-3.02 3.037-3.018 3.038-3.02 3.038-3.018 3.037-3.02 3.038-3.019 3.037-3.019 3.038-3.019 3.038-3.019 3.037-3.019 3.038-3.019 3.038-3.02 3.037-3.018 3.038-3.02 3.038-3.018 3.037-3.02 3.038-3.019 3.037-3.019 3.038-3.019 3.038-3.019 3.037-3.019 3.038-3.019 3.038-3.02 3.037-3.018 3.038-3.02 3.037-3.018 3.038-3.02 3.038-3.019 3.037-3.019"/><path fill="none" stroke="#333" stroke-width="2.5" d="m1074.345 1054.364-3.037-3.02-3.038-3.019-3.038-3.019-3.037-3.019-3.038-3.019-3.037-3.019-3.038-3.019-3.038-3.02-3.037-3.018-3.038-3.02-3.038-3.018-3.037-3.02-3.038-3.019-3.037-3.019-3.038-3.019-3.038-3.019-3.037-3.019-3.038-3.019-3.038-3.02-3.037-3.018-3.038-3.02-3.038-3.018-3.037-3.02-3.038-3.019-3.038-3.019-3.037-3.019-3.038-3.019-3.037-3.019-3.038-3.019-3.038-3.02-3.037-3.018-3.038-3.02-3.038-3.018-3.037-3.02-3.038-3.019-3.038-3.019-3.037-3.019-3.038-3.019-3.037-3.019-3.038-3.019-3.038-3.02-3.037-3.018-3.038-3.02-3.038-3.018-3.037-3.02-3.038-3.019-3.038-3.019-3.037-3.019-3.038-3.019-3.037-3.019-3.038-3.019-3.038-3.02-3.037-3.018-3.038-3.02-3.038-3.018-3.037-3.02-3.038-3.019-3.038-3.019-3.037-3.019-3.038-3.019-3.037-3.019-3.038-3.019-3.038-3.02-3.037-3.018-3.038-3.02-3.038-3.018-3.037-3.02-3.038-3.019-3.037-3.019-3.038-3.019-3.038-3.019-3.037-3.019-3.038-3.019-3.038-3.02-3.037-3.018-3.038-3.02-3.038-3.018-3.037-3.02-3.038-3.019-3.037-3.019-3.038-3.019-3.038-3.019-3.037-3.019-3.038-3.019-3.038-3.02-3.037-3.018-3.038-3.02-3.038-3.018-3.037-3.02-3.038-3.019-3.038-3.019-3.037-3.019-3.038-3.019-3.037-3.019-3.038-3.019-3.038-3.02-3.037-3.018-3.038-3.02-3.038-3.018-3.037-3.02-3.038-3.019-3.037-3.019-3.038-3.019-3.038-3.019-3.037-3.019-3.038-3.019-3.038-3.02-3.037-3.018-3.038-3.02-3.038-3.018-3.037-3.02-3.038-3.019-3.038-3.019-3.037-3.019-3.038-3.019-3.037-3.019-3.038-3.019-3.038-3.02-3.037-3.018-3.038-3.02-3.038-3.018-3.037-3.02-3.038-3.019-3.038-3.019-3.037-3.019-3.038-3.019-3.037-3.019-3.038-3.019-3.038-3.02-3.037-3.018-3.038-3.02-3.038-3.018-3.037-3.02-3.038-3.018-3.038-3.02-3.037-3.019-3.038-3.019-3.037-3.019-3.038-3.019-3.038-3.02-3.037-3.018-3.038-3.02-3.038-3.018-3.037-3.02-3.038-3.019-3.038-3.019-3.037-3.019-3.038-3.019-3.037-3.019-3.038-3.019-3.038-3.02-3.037-3.018-3.038-3.02-3.038-3.018-3.037-3.02-3.038-3.019-3.038-3.019-3.037-3.019-3.038-3.019-3.037-3.019-3.038-3.019-3.038-3.02-3.037-3.018-3.038-3.02-3.038-3.018-3.037-3.02-3.038-3.018-3.037-3.02-3.038-3.019-3.038-3.019-3.037-3.019-3.038-3.019-3.038-3.02-3.037-3.018-3.038-3.02-3.038-3.018-3.037-3.02-3.038-3.019-3.037-3.019-3.038-3.019-3.038-3.019-3.037-3.019-3.038-3.019-3.038-3.02-3.037-3.018-3.038-3.02-3.038-3.018-3.037-3.02-3.038-3.019-3.037-3.019-3.038-3.019-3.038-3.019-3.037-3.019-3.038-3.019-3.038-3.02-3.037-3.018-3.038-3.02-3.038-3.018-3.037-3.02-3.038-3.019-3.037-3.019-3.038-3.019-3.038-3.019-3.037-3.019-3.038-3.019-3.038-3.02-3.037-3.018-3.038-3.02-3.038-3.018-3.037-3.02-3.038-3.019-3.037-3.019-3.038-3.019-3.038-3.019-3.037-3.019-3.038-3.019-3.038-3.02-3.037-3.018-3.038-3.02-3.038-3.018-3.037-3.02-3.038-3.019-3.038-3.019-3.037-3.019-3.038-3.019-3.037-3.019-3.038-3.019-3.038-3.02-3.037-3.018-3.038-3.02-3.038-3.018-3.037-3.02-3.038-3.019-3.037-3.019-3.038-3.019-3.038-3.019-3.037-3.019-3.038-3.019-3.038-3.02-3.037-3.018-3.038-3.02-3.038-3.018-3.037-3.02-3.038-3.019-3.037-3.019-3.038-3.019-3.038-3.019-3.037-3.019-3.038-3.019-3.038-3.02-3.037-3.018-3.038-3.02-3.038-3.018-3.037-3.02-3.038-3.019-3.037-3.019-3.038-3.019-3.038-3.019-3.037-3.019-3.038-3.019-3.038-3.02-3.037-3.018-3.038-3.02-3.038-3.018-3.037-3.02-3.038-3.019-3.037-3.019-3.038-3.019-3.038-3.019-3.037-3.019-3.038-3.019-3.038-3.02-3.037-3.018-3.038-3.02-3.038-3.018-3.037-3.02-3.038-3.019-3.037-3.019-3.038-3.019-3.038-3.019L220.77 206l-3.038-3.019-3.038-3.02-3.037-3.018-3.038-3.02-3.038-3.018-3.037-3.02-3.038-3.019-3.037-3.019-3.038-3.019-3.038-3.019-3.037-3.019-3.038-3.019-3.038-3.02-3.037-3.018-3.038-3.02-3.038-3.018-3.037-3.02-3.038-3.019-3.037-3.019"/><path fill="none" stroke="#333" stroke-width="3.5" d="m174.447 148.636 2.222 2.153 2.221 2.151 2.221 2.151 2.222 2.151 2.22 2.15 2.222 2.15 2.221 2.148 2.222 2.149 2.22 2.147 2.222 2.147 2.221 2.147 2.222 2.146 2.22 2.145 2.222 2.145 2.221 2.143 2.222 2.144 2.22 2.142 2.222 2.142 2.221 2.141 2.222 2.14 2.221 2.14 2.221 2.14 2.222 2.138 2.22 2.138 2.222 2.136 2.221 2.136 2.222 2.136 2.22 2.134 2.222 2.134 2.221 2.133 2.222 2.131 2.22 2.132 2.222 2.13 2.221 2.13 2.222 2.128 2.22 2.127 2.222 2.127 2.221 2.125 2.222 2.125 2.221 2.124 2.221 2.122 2.221 2.122 2.222 2.12 2.221 2.12 2.221 2.119 2.222 2.117 2.22 2.117 2.222 2.115 2.221 2.114 2.222 2.113 2.22 2.112 2.222 2.11 2.221 2.11 2.222 2.107 2.22 2.107 2.222 2.106 2.221 2.104 2.222 2.102 2.221 2.102 2.221 2.1 2.221 2.098 2.222 2.097 2.221 2.096 2.221 2.094 2.222 2.092 2.22 2.091 2.222 2.09 2.221 2.087 2.222 2.086 2.22 2.084 2.222 2.083 2.221 2.08 2.222 2.08 2.22 2.076 2.222 2.075 2.221 2.073 2.222 2.071 2.221 2.07 2.221 2.067 2.221 2.064 2.222 2.063 2.221 2.06 2.221 2.059 2.222 2.056 2.22 2.053 2.222 2.051 2.221 2.05 2.222 2.045 2.22 2.044 2.222 2.04 2.221 2.039 2.222 2.035 2.22 2.033 2.222 2.03 2.221 2.026 2.222 2.023 2.22 2.02 2.222 2.018 2.221 2.014 2.222 2.01 2.221 2.008 2.221 2.003 2.222 2 2.22 1.996 2.222 1.993 2.221 1.988 2.222 1.984 2.22 1.98 2.222 1.977 2.221 1.972 2.222 1.967 2.22 1.962 2.222 1.958 2.221 1.953 2.222 1.949 2.22 1.943 2.222 1.937 2.221 1.933 2.222 1.926 2.221 1.922 2.221 1.915 2.221 1.909 2.222 1.903 2.221 1.896 2.221 1.89 2.222 1.883 2.22 1.877 2.222 1.869 2.221 1.861 2.222 1.854 2.22 1.846 2.222 1.838 2.221 1.83 2.222 1.82 2.22 1.813 2.222 1.802 2.221 1.794 2.222 1.784 2.221 1.773 2.221 1.763 2.221 1.753 2.222 1.741 2.221 1.73 2.221 1.718 2.222 1.706 2.22 1.694 2.222 1.68 2.221 1.667 2.222 1.653 2.22 1.64 2.222 1.623 2.221 1.609 2.222 1.593 2.22 1.576 2.222 1.56 2.221 1.542 2.222 1.524 2.22 1.506 2.222 1.486 2.221 1.466 2.222 1.446 2.221 1.424 2.221 1.403 2.221 1.38 2.222 1.356 2.221 1.332 2.221 1.308 2.222 1.281 2.22 1.255 2.222 1.228 2.221 1.2 2.222 1.17 2.22 1.14 2.222 1.11 2.221 1.077 2.222 1.046 2.22 1.011 2.222.977 2.221.942 2.222.905 2.221.869 2.221.83 2.221.791 2.222.751 2.221.711 2.221.67 2.222.626 2.22.584 2.222.54 2.221.496 2.222.45 2.22.405 2.222.358 2.221.312 2.222.264 2.22.217 2.222.169 2.221.12 2.222.073 2.22.025 2.222-.025 2.221-.072 2.222-.121 2.221-.17 2.221-.216 2.221-.264 2.222-.312 2.221-.358 2.221-.405 2.222-.45 2.22-.496 2.222-.54 2.221-.584 2.222-.627 2.22-.669 2.222-.71 2.221-.752 2.222-.791 2.22-.83 2.222-.869 2.221-.905 2.222-.942 2.221-.977 2.221-1.011 2.221-1.046 2.222-1.077 2.221-1.11 2.221-1.14 2.222-1.17 2.22-1.2 2.222-1.228 2.221-1.255 2.222-1.281 2.22-1.308 2.222-1.332 2.221-1.356 2.222-1.38 2.22-1.403 2.222-1.424 2.222-1.446 2.22-1.466 2.222-1.486 2.221-1.506 2.221-1.524 2.222-1.542 2.221-1.56 2.221-1.576 2.222-1.593 2.22-1.609 2.222-1.624 2.221-1.639 2.222-1.653 2.22-1.667 2.222-1.68 2.221-1.694 2.222-1.706 2.221-1.718 2.221-1.73 2.221-1.741 2.222-1.753 2.221-1.763 2.221-1.774 2.221-1.783 2.222-1.794 2.221-1.802 2.221-1.813 2.222-1.82 2.22-1.83 2.222-1.838 2.221-1.846 2.222-1.854 2.22-1.861 2.222-1.87 2.221-1.876 2.222-1.883 2.22-1.89 2.222-1.896 2.221-1.903 2.222-1.91 2.22-1.914 2.222-1.922 2.221-1.926 2.222-1.933 2.221-1.937 2.221-1.943 2.222-1.949 2.22-1.953 2.222-1.958 2.221-1.962 2.222-1.967 2.22-1.972 2.222-1.976 2.221-1.98 2.222-1.985 2.22-1.988 2.222-1.993 2.221-1.996 2.222-2 2.22-2.003 2.222-2.007 2.221-2.011 2.222-2.014 2.221-2.017 2.221-2.02 2.221-2.024 2.222-2.027 2.221-2.03 2.221-2.032 2.222-2.035 2.22-2.038 2.222-2.041 2.221-2.044 2.222-2.046 2.22-2.049 2.222-2.05 2.221-2.054 2.222-2.056 2.221-2.058 2.221-2.06 2.221-2.064 2.222-2.064 2.221-2.067 2.221-2.07 2.222-2.07 2.22-2.074 2.222-2.075 2.221-2.077 2.222-2.079 2.22-2.08 2.222-2.083 2.221-2.084 2.222-2.086 2.22-2.088 2.222-2.089 2.221-2.09 2.222-2.093 2.22-2.094 2.222-2.096 2.221-2.097 2.222-2.098 2.221-2.1 2.221-2.102 2.221-2.102 2.222-2.104 2.221-2.106 2.221-2.107 2.221-2.107 2.222-2.11 2.221-2.11 2.221-2.112 2.222-2.113 2.22-2.114 2.222-2.115 2.221-2.117 2.222-2.117 2.22-2.119 2.222-2.12 2.221-2.12 2.222-2.122 2.22-2.122 2.222-2.124 2.221-2.125 2.222-2.125 2.221-2.127 2.221-2.127 2.221-2.129 2.222-2.13 2.221-2.13 2.221-2.13 2.222-2.132 2.22-2.133 2.222-2.134 2.221-2.134 2.222-2.136 2.22-2.136 2.222-2.136 2.221-2.138 2.222-2.138 2.221-2.14 2.221-2.14 2.221-2.14 2.222-2.14 2.221-2.143 2.221-2.142 2.221-2.144 2.222-2.143 2.221-2.145 2.221-2.145 2.222-2.146 2.22-2.147 2.222-2.147 2.221-2.147 2.222-2.149 2.22-2.148 2.222-2.15 2.221-2.15 2.222-2.15 2.22-2.152 2.222-2.151 2.221-2.153m-888.505 905.728 2.222-2.153 2.221-2.151 2.221-2.151 2.222-2.151 2.22-2.15 2.222-2.15 2.221-2.148 2.222-2.149 2.22-2.147 2.222-2.147 2.221-2.147 2.222-2.146 2.22-2.145 2.222-2.145 2.221-2.144 2.222-2.143 2.22-2.142 2.222-2.142 2.221-2.141 2.222-2.14 2.221-2.14 2.221-2.14 2.222-2.138 2.22-2.138 2.222-2.136 2.221-2.136 2.222-2.136 2.22-2.134 2.222-2.134 2.221-2.133 2.222-2.131 2.22-2.132 2.222-2.13 2.221-2.13 2.222-2.128 2.22-2.127 2.222-2.127 2.221-2.125 2.222-2.125 2.221-2.124 2.221-2.123 2.221-2.121 2.222-2.12 2.221-2.12 2.221-2.119 2.222-2.117 2.22-2.117 2.222-2.115 2.221-2.114 2.222-2.113 2.22-2.112 2.222-2.11 2.221-2.11 2.222-2.108 2.22-2.106 2.222-2.106 2.221-2.104 2.222-2.102 2.221-2.102 2.221-2.1 2.221-2.098 2.222-2.097 2.221-2.096 2.221-2.094 2.222-2.092 2.22-2.091 2.222-2.09 2.221-2.087 2.222-2.086 2.22-2.084 2.222-2.083 2.221-2.08 2.222-2.08 2.22-2.076 2.222-2.075 2.221-2.073 2.222-2.071 2.221-2.07 2.221-2.066 2.221-2.065 2.222-2.063 2.221-2.06 2.221-2.059 2.222-2.056 2.22-2.053 2.222-2.052 2.221-2.048 2.222-2.046 2.22-2.044 2.222-2.04 2.221-2.039 2.222-2.035 2.22-2.033 2.222-2.03 2.221-2.026 2.222-2.023 2.22-2.02 2.222-2.018 2.221-2.014 2.222-2.01 2.221-2.008 2.221-2.003 2.222-2 2.22-1.996 2.222-1.993 2.221-1.988 2.222-1.985 2.22-1.98 2.222-1.976 2.221-1.972 2.222-1.967 2.22-1.962 2.222-1.958 2.221-1.953 2.222-1.949 2.22-1.943 2.222-1.937 2.221-1.933 2.222-1.926 2.221-1.922 2.221-1.915 2.221-1.909 2.222-1.903 2.221-1.896 2.221-1.89 2.222-1.883 2.22-1.877 2.222-1.868 2.221-1.862 2.222-1.854 2.22-1.846 2.222-1.838 2.221-1.83 2.222-1.82 2.22-1.812 2.222-1.803 2.221-1.794 2.222-1.784 2.221-1.773 2.221-1.763 2.221-1.753 2.222-1.741 2.221-1.73 2.221-1.718 2.222-1.706 2.22-1.694 2.222-1.68 2.221-1.667 2.222-1.653 2.22-1.64 2.222-1.623 2.221-1.609 2.222-1.593 2.22-1.576 2.222-1.56 2.221-1.542 2.222-1.524 2.22-1.506 2.222-1.486 2.221-1.466 2.222-1.446 2.221-1.424 2.221-1.403 2.221-1.38 2.222-1.356 2.221-1.332 2.221-1.308 2.222-1.281 2.22-1.255 2.222-1.228 2.221-1.2 2.222-1.17 2.22-1.14 2.222-1.11 2.221-1.077 2.222-1.046 2.22-1.011 2.222-.977 2.221-.942 2.222-.905 2.221-.869 2.221-.83 2.221-.791 2.222-.751 2.221-.711 2.221-.67 2.222-.626 2.22-.584 2.222-.54 2.221-.495 2.222-.45 2.22-.406 2.222-.358 2.221-.312 2.222-.264 2.22-.217 2.222-.169 2.221-.12 2.222-.073 2.22-.025 2.222.025 2.221.072 2.222.121 2.221.17 2.221.216 2.221.264 2.222.312 2.221.358 2.221.405 2.222.45 2.22.496 2.222.54 2.221.584 2.222.627 2.22.669 2.222.71 2.221.752 2.222.791 2.22.83 2.222.869 2.221.905 2.222.942 2.221.977 2.221 1.011 2.221 1.046 2.222 1.077 2.221 1.11 2.221 1.14 2.222 1.17 2.22 1.2 2.222 1.228 2.221 1.255 2.222 1.281 2.22 1.308 2.222 1.332 2.221 1.356 2.222 1.38 2.22 1.403 2.222 1.424 2.222 1.446 2.22 1.466 2.222 1.486 2.221 1.506 2.221 1.524 2.222 1.542 2.221 1.56 2.221 1.576 2.222 1.593 2.22 1.609 2.222 1.624 2.221 1.639 2.222 1.653 2.22 1.667 2.222 1.68 2.221 1.694 2.222 1.706 2.221 1.718 2.221 1.73 2.221 1.741 2.222 1.753 2.221 1.763 2.221 1.773 2.221 1.784 2.222 1.794 2.221 1.802 2.221 1.813 2.222 1.82 2.22 1.83 2.222 1.838 2.221 1.846 2.222 1.854 2.22 1.861 2.222 1.87 2.221 1.876 2.222 1.883 2.22 1.89 2.222 1.896 2.221 1.903 2.222 1.91 2.22 1.914 2.222 1.922 2.221 1.926 2.222 1.933 2.221 1.937 2.221 1.943 2.222 1.949 2.22 1.953 2.222 1.958 2.221 1.962 2.222 1.967 2.22 1.972 2.222 1.976 2.221 1.98 2.222 1.985 2.22 1.988 2.222 1.993 2.221 1.996 2.222 2 2.22 2.003 2.222 2.007 2.221 2.011 2.222 2.014 2.221 2.017 2.221 2.02 2.221 2.024 2.222 2.027 2.221 2.03 2.221 2.032 2.222 2.035 2.22 2.038 2.222 2.041 2.221 2.044 2.222 2.046 2.22 2.048 2.222 2.052 2.221 2.053 2.222 2.056 2.221 2.058 2.221 2.06 2.221 2.064 2.222 2.065 2.221 2.067 2.221 2.069 2.222 2.07 2.22 2.074 2.222 2.075 2.221 2.077 2.222 2.079 2.22 2.08 2.222 2.083 2.221 2.084 2.222 2.086 2.22 2.087 2.222 2.09 2.221 2.09 2.222 2.093 2.22 2.094 2.222 2.096 2.221 2.097 2.222 2.098 2.221 2.1 2.221 2.101 2.221 2.103 2.222 2.104 2.221 2.106 2.221 2.106 2.221 2.109 2.222 2.109 2.221 2.11 2.221 2.112 2.222 2.113 2.22 2.114 2.222 2.115 2.221 2.117 2.222 2.117 2.22 2.119 2.222 2.12 2.221 2.12 2.222 2.121 2.22 2.123 2.222 2.124 2.221 2.125 2.222 2.125 2.221 2.127 2.221 2.127 2.221 2.129 2.222 2.13 2.221 2.13 2.221 2.13 2.222 2.133 2.22 2.132 2.222 2.134 2.221 2.134 2.222 2.136 2.22 2.136 2.222 2.136 2.221 2.138 2.222 2.138 2.221 2.14 2.221 2.14 2.221 2.14 2.222 2.14 2.221 2.143 2.221 2.142 2.221 2.144 2.222 2.143 2.221 2.145 2.221 2.145 2.222 2.146 2.22 2.147 2.222 2.147 2.221 2.147 2.222 2.149 2.22 2.149 2.222 2.149 2.221 2.15 2.222 2.15 2.22 2.152 2.222 2.151 2.221 2.153"/><path fill="none" stroke="#444" d="M112.427 1155v5" shape-rendering="crispEdges"/><text x="105.227" y="1172" fill="#444" font-family="sans-serif" font-size="12">
-5
</text><path fill="none" stroke="#444" d="M365.564 1155v5" shape-rendering="crispEdges"/><text x="351.164" y="1172" fill="#444" font-family="sans-serif" font-size="12">
-2.5
</text><path fill="none" stroke="#444" d="M618.7 1155v5" shape-rendering="crispEdges"/><text x="615.1" y="1172" fill="#444" font-family="sans-serif" font-size="12">
0
</text><path fill="none" stroke="#444" d="M871.836 1155v5" shape-rendering="crispEdges"/><text x="861.036" y="1172" fill="#444" font-family="sans-serif" font-size="12">
2.5
</text><path fill="none" stroke="#444" d="M1124.973 1155v5" shape-rendering="crispEdges"/><text x="1121.373" y="1172" fill="#444" font-family="sans-serif" font-size="12">
5
</text><path fill="none" stroke="#444" d="M61.8 1104.682h-5" shape-rendering="crispEdges"/><text x="38" y="1109.482" fill="#444" font-family="sans-serif" font-size="12">
-5
</text><path fill="none" stroke="#444" d="M61.8 853.09h-5" shape-rendering="crispEdges"/><text x="24" y="857.891" fill="#444" font-family="sans-serif" font-size="12">
-2.5
</text><path fill="none" stroke="#444" d="M61.8 601.5h-5" shape-rendering="crispEdges"/><text x="45" y="606.3" fill="#444" font-family="sans-serif" font-size="12">
0
</text><path fill="none" stroke="#444" d="M61.8 349.91h-5" shape-rendering="crispEdges"/><text x="31" y="354.709" fill="#444" font-family="sans-serif" font-size="12">
2.5
</text><path fill="none" stroke="#444" d="M61.8 98.318h-5" shape-rendering="crispEdges"/><text x="45" y="103.118" fill="#444" font-family="sans-serif" font-size="12">
5
</text><path fill="none" stroke="#000" d="M61.8 1155h1113.8M61.8 48v1107" shape-rendering="crispEdges"/></svg>