<svg xmlns="http://www.w3.org/2000/svg" width="900" height="900" viewBox="0 0 900 900"><path fill="#1e1e1e" d="M8 40h679.2v852H8z" shape-rendering="crispEdges"/><text x="150.8" y="32" fill="#fff" font-family="sans-serif" font-size="16">
Mortality by month — Nightingale&apos;s rose
</text><path fill="#c25757" d="M347.6 466V286.566a179.43 179.43 0 0 1 89.717 24.04z"/><path fill="none" stroke="#fff" stroke-width=".8" d="M347.6 466V286.566a179.43 179.43 0 0 1 89.717 24.04z"/><path fill="#c25757" d="m347.6 466 101.855-176.418a203.7 203.7 0 0 1 74.563 74.563z"/><path fill="none" stroke="#fff" stroke-width=".8" d="m347.6 466 101.855-176.418a203.7 203.7 0 0 1 74.563 74.563z"/><path fill="#c25757" d="m347.6 466 196.56-113.484A226.97 226.97 0 0 1 574.568 466z"/><path fill="none" stroke="#fff" stroke-width=".8" d="m347.6 466 196.56-113.484A226.97 226.97 0 0 1 574.568 466z"/><path fill="#c25757" d="M347.6 466h250.923a250.9 250.9 0 0 1-33.618 125.461z"/><path fill="none" stroke="#fff" stroke-width=".8" d="M347.6 466h250.923a250.9 250.9 0 0 1-33.618 125.461z"/><path fill="#c25757" d="m347.6 466 236.236 136.39a272.8 272.8 0 0 1-99.845 99.846z"/><path fill="none" stroke="#fff" stroke-width=".8" d="m347.6 466 236.236 136.39a272.8 272.8 0 0 1-99.845 99.846z"/><path fill="#c25757" d="m347.6 466 146.507 253.758A293 293 0 0 1 347.6 759.014z"/><path fill="none" stroke="#fff" stroke-width=".8" d="m347.6 466 146.507 253.758A293 293 0 0 1 347.6 759.014z"/><path fill="#c25757" d="M347.6 466v260.711a260.7 260.7 0 0 1-130.356-34.928z"/><path fill="none" stroke="#fff" stroke-width=".8" d="M347.6 466v260.711a260.7 260.7 0 0 1-130.356-34.928z"/><path fill="#c25757" d="M347.6 466 242.291 648.4a210.6 210.6 0 0 1-77.091-77.091z"/><path fill="none" stroke="#fff" stroke-width=".8" d="M347.6 466 242.291 648.4a210.6 210.6 0 0 1-77.091-77.091z"/><path fill="#c25757" d="m347.6 466-150.125 86.675A173.35 173.35 0 0 1 174.25 466z"/><path fill="none" stroke="#fff" stroke-width=".8" d="m347.6 466-150.125 86.675A173.35 173.35 0 0 1 174.25 466z"/><path fill="#c25757" d="M347.6 466H198.671c0-26.142 6.882-51.824 19.953-74.464z"/><path fill="none" stroke="#fff" stroke-width=".8" d="M347.6 466H198.671c0-26.142 6.882-51.824 19.953-74.464z"/><path fill="#c25757" d="m347.6 466-113.484-65.52a131.04 131.04 0 0 1 47.964-47.964z"/><path fill="none" stroke="#fff" stroke-width=".8" d="m347.6 466-113.484-65.52a131.04 131.04 0 0 1 47.964-47.964z"/><path fill="#c25757" d="m347.6 466-56.742-98.28a113.5 113.5 0 0 1 56.742-15.204z"/><path fill="none" stroke="#fff" stroke-width=".8" d="m347.6 466-56.742-98.28a113.5 113.5 0 0 1 56.742-15.204z"/><path fill="#2e4d77" d="M347.6 271.269c34.183 0 67.763 8.997 97.366 26.089l-7.649 13.248a179.43 179.43 0 0 0-89.717-24.04z"/><path fill="none" stroke="#fff" stroke-width=".8" d="M347.6 271.269c34.183 0 67.763 8.997 97.366 26.089l-7.649 13.248a179.43 179.43 0 0 0-89.717-24.04z"/><path fill="#2e4d77" d="M457.073 276.388a218.95 218.95 0 0 1 80.14 80.14l-13.195 7.617a203.7 203.7 0 0 0-74.563-74.563z"/><path fill="none" stroke="#fff" stroke-width=".8" d="M457.073 276.388a218.95 218.95 0 0 1 80.14 80.14l-13.195 7.617a203.7 203.7 0 0 0-74.563-74.563z"/><path fill="#2e4d77" d="M558.642 344.155A243.7 243.7 0 0 1 591.29 466h-16.722c0-39.841-10.487-78.98-30.408-113.484z"/><path fill="none" stroke="#fff" stroke-width=".8" d="M558.642 344.155A243.7 243.7 0 0 1 591.29 466h-16.722c0-39.841-10.487-78.98-30.408-113.484z"/><path fill="#2e4d77" d="M616.418 466a268.8 268.8 0 0 1-36.014 134.41l-15.499-8.949A250.9 250.9 0 0 0 598.523 466z"/><path fill="none" stroke="#fff" stroke-width=".8" d="M616.418 466a268.8 268.8 0 0 1-36.014 134.41l-15.499-8.949A250.9 250.9 0 0 0 598.523 466z"/><path fill="#2e4d77" d="M599.767 611.589a291.2 291.2 0 0 1-106.578 106.578l-9.198-15.931a272.8 272.8 0 0 0 99.845-99.845z"/><path fill="none" stroke="#fff" stroke-width=".8" d="M599.767 611.589a291.2 291.2 0 0 1-106.578 106.578l-9.198-15.931a272.8 272.8 0 0 0 99.845-99.845z"/><path fill="#2e4d77" d="M503.569 736.146A311.94 311.94 0 0 1 347.6 777.938v-18.924a293 293 0 0 0 146.507-39.256z"/><path fill="none" stroke="#fff" stroke-width=".8" d="M503.569 736.146A311.94 311.94 0 0 1 347.6 777.938v-18.924a293 293 0 0 0 146.507-39.256z"/><path fill="#2e4d77" d="M347.6 745.262a279.26 279.26 0 0 1-139.63-37.414l9.274-16.065A260.7 260.7 0 0 0 347.6 726.71z"/><path fill="none" stroke="#fff" stroke-width=".8" d="M347.6 745.262a279.26 279.26 0 0 1-139.63-37.414l9.274-16.065A260.7 260.7 0 0 0 347.6 726.71z"/><path fill="#2e4d77" d="M233.33 663.92a228.54 228.54 0 0 1-83.65-83.65l15.52-8.961a210.6 210.6 0 0 0 77.091 77.091z"/><path fill="none" stroke="#fff" stroke-width=".8" d="M233.33 663.92a228.54 228.54 0 0 1-83.65-83.65l15.52-8.961a210.6 210.6 0 0 0 77.091 77.091z"/><path fill="#2e4d77" d="M181.361 561.978A191.96 191.96 0 0 1 155.644 466h18.606c0 30.43 8.01 60.322 23.225 86.675z"/><path fill="none" stroke="#fff" stroke-width=".8" d="M181.361 561.978A191.96 191.96 0 0 1 155.644 466h18.606c0 30.43 8.01 60.322 23.225 86.675z"/><path fill="#2e4d77" d="M179.489 466c0-29.51 7.768-58.5 22.522-84.056l16.613 9.592A148.93 148.93 0 0 0 198.67 466z"/><path fill="none" stroke="#fff" stroke-width=".8" d="M179.489 466c0-29.51 7.768-58.5 22.522-84.056l16.613 9.592A148.93 148.93 0 0 0 198.67 466z"/><path fill="#2e4d77" d="M216.56 390.344a151.3 151.3 0 0 1 55.384-55.384l10.136 17.556a131.04 131.04 0 0 0-47.964 47.964z"/><path fill="none" stroke="#fff" stroke-width=".8" d="M216.56 390.344a151.3 151.3 0 0 1 55.384-55.384l10.136 17.556a131.04 131.04 0 0 0-47.964 47.964z"/><path fill="#2e4d77" d="M280.064 349.023a135.1 135.1 0 0 1 67.536-18.096v21.589a113.5 113.5 0 0 0-56.742 15.204z"/><path fill="none" stroke="#fff" stroke-width=".8" d="M280.064 349.023a135.1 135.1 0 0 1 67.536-18.096v21.589a113.5 113.5 0 0 0-56.742 15.204z"/><path fill="#c2a35f" d="M347.6 262.29a203.7 203.7 0 0 1 101.855 27.292l-4.49 7.776a194.73 194.73 0 0 0-97.365-26.09z"/><path fill="none" stroke="#fff" stroke-width=".8" d="M347.6 262.29a203.7 203.7 0 0 1 101.855 27.292l-4.49 7.776a194.73 194.73 0 0 0-97.365-26.09z"/><path fill="#c2a35f" d="M461.477 268.759a227.75 227.75 0 0 1 83.364 83.364l-7.629 4.404a218.95 218.95 0 0 0-80.14-80.14z"/><path fill="none" stroke="#fff" stroke-width=".8" d="M461.477 268.759a227.75 227.75 0 0 1 83.364 83.364l-7.629 4.404a218.95 218.95 0 0 0-80.14-80.14z"/><path fill="#c2a35f" d="M566.137 339.828A252.35 252.35 0 0 1 599.944 466h-8.654c0-42.776-11.26-84.8-32.648-121.845z"/><path fill="none" stroke="#fff" stroke-width=".8" d="M566.137 339.828A252.35 252.35 0 0 1 599.944 466h-8.654c0-42.776-11.26-84.8-32.648-121.845z"/><path fill="#c2a35f" d="M625.578 466a278 278 0 0 1-37.242 138.989l-7.932-4.58A268.8 268.8 0 0 0 616.418 466z"/><path fill="none" stroke="#fff" stroke-width=".8" d="M625.578 466a278 278 0 0 1-37.242 138.989l-7.932-4.58A268.8 268.8 0 0 0 616.418 466z"/><path fill="#c2a35f" d="M608.14 616.423A300.85 300.85 0 0 1 498.023 726.54l-4.834-8.373a291.2 291.2 0 0 0 106.578-106.578z"/><path fill="none" stroke="#fff" stroke-width=".8" d="M608.14 616.423A300.85 300.85 0 0 1 498.023 726.54l-4.834-8.373a291.2 291.2 0 0 0 106.578-106.578z"/><path fill="#c2a35f" d="M508.369 744.46A321.54 321.54 0 0 1 347.6 787.538v-9.6a311.94 311.94 0 0 0 155.969-41.792z"/><path fill="none" stroke="#fff" stroke-width=".8" d="M508.369 744.46A321.54 321.54 0 0 1 347.6 787.538v-9.6a311.94 311.94 0 0 0 155.969-41.792z"/><path fill="#c2a35f" d="M347.6 754.71a288.7 288.7 0 0 1-144.355-38.68l4.724-8.182A279.26 279.26 0 0 0 347.6 745.262z"/><path fill="none" stroke="#fff" stroke-width=".8" d="M347.6 754.71a288.7 288.7 0 0 1-144.355-38.68l4.724-8.182A279.26 279.26 0 0 0 347.6 745.262z"/><path fill="#c2a35f" d="M228.352 672.544a238.5 238.5 0 0 1-87.296-87.296l8.624-4.979a228.54 228.54 0 0 0 83.65 83.651z"/><path fill="none" stroke="#fff" stroke-width=".8" d="M228.352 672.544a238.5 238.5 0 0 1-87.296-87.296l8.624-4.979a228.54 228.54 0 0 0 83.65 83.651z"/><path fill="#c2a35f" d="M172.71 566.973A201.95 201.95 0 0 1 145.653 466h9.99c0 33.695 8.87 66.797 25.717 95.978z"/><path fill="none" stroke="#fff" stroke-width=".8" d="M172.71 566.973A201.95 201.95 0 0 1 145.653 466h9.99c0 33.695 8.87 66.797 25.717 95.978z"/><path fill="#c2a35f" d="M169.166 466a178.44 178.44 0 0 1 23.905-89.217l8.94 5.161A168.1 168.1 0 0 0 179.49 466z"/><path fill="none" stroke="#fff" stroke-width=".8" d="M169.166 466a178.44 178.44 0 0 1 23.905-89.217l8.94 5.161A168.1 168.1 0 0 0 179.49 466z"/><path fill="#c2a35f" d="M207.65 385.2a161.6 161.6 0 0 1 59.15-59.15l5.144 8.91a151.3 151.3 0 0 0-55.384 55.384z"/><path fill="none" stroke="#fff" stroke-width=".8" d="M207.65 385.2a161.6 161.6 0 0 1 59.15-59.15l5.144 8.91a151.3 151.3 0 0 0-55.384 55.384z"/><path fill="#c2a35f" d="M274.96 340.183a145.3 145.3 0 0 1 72.64-19.464v10.208c-23.71 0-47.003 6.241-67.536 18.096z"/><path fill="none" stroke="#fff" stroke-width=".8" d="M274.96 340.183a145.3 145.3 0 0 1 72.64-19.464v10.208c-23.71 0-47.003 6.241-67.536 18.096z"/><path fill="#1e1e1e" d="M703.2 56h163v76h-163z" shape-rendering="crispEdges"/><path fill="none" stroke="#ccc" d="M703.2 56h163v76h-163z" shape-rendering="crispEdges"/><path fill="#c25757" d="M711.2 64h12v12h-12z" shape-rendering="crispEdges"/><text x="729.2" y="74" fill="#ddd" font-family="sans-serif" font-size="12">
preventable disease
</text><path fill="#2e4d77" d="M711.2 84h12v12h-12z" shape-rendering="crispEdges"/><text x="729.2" y="94" fill="#ddd" font-family="sans-serif" font-size="12">
wounds in battle
</text><path fill="#c2a35f" d="M711.2 104h12v12h-12z" shape-rendering="crispEdges"/><text x="729.2" y="114" fill="#ddd" font-family="sans-serif" font-size="12">
other causes
</text></svg>