<svg height="900" viewBox="0 0 900 900" width="900" xmlns="http://www.w3.org/2000/svg">
<rect fill="#ffffff" height="852" shape-rendering="crispEdges" width="884" x="8" y="40"/>
<text fill="#111111" font-family="sans-serif" font-size="16" x="253.2" y="32">
Mortality by month — Nightingale's rose
</text>
<path d="M450,466 L450,239.24286 C489.8042,239.24286,528.9071,249.72046,563.37854,269.62256 z" fill="#c25757" stroke="#000000" stroke-width="0"/>
<path d="M450,466 L450,239.24286 C489.8042,239.24286,528.9071,249.72046,563.37854,269.62256 z" fill="none" stroke="#ffffff" stroke-width="0.8"/>
<path d="M450,466 L578.71783,243.05417 C617.853,265.64886,650.35114,298.147,672.9458,337.28217 z" fill="#c25757" stroke="#000000" stroke-width="0"/>
<path d="M450,466 L578.71783,243.05417 C617.853,265.64886,650.35114,298.147,672.9458,337.28217 z" fill="none" stroke="#ffffff" stroke-width="0.8"/>
<path d="M450,466 L698.4,322.58618 C723.57434,366.1895,736.82764,415.65125,736.82764,466 z" fill="#c25757" stroke="#000000" stroke-width="0"/>
<path d="M450,466 L698.4,322.58618 C723.57434,366.1895,736.82764,415.65125,736.82764,466 z" fill="none" stroke="#ffffff" stroke-width="0.8"/>
<path d="M450,466 L767.09985,466 C767.09985,521.66266,752.4479,576.34467,724.6165,624.5499 z" fill="#c25757" stroke="#000000" stroke-width="0"/>
<path d="M450,466 L767.09985,466 C767.09985,521.66266,752.4479,576.34467,724.6165,624.5499 z" fill="none" stroke="#ffffff" stroke-width="0.8"/>
<path d="M450,466 L748.5397,638.36194 C718.2838,690.7666,674.7666,734.2838,622.36194,764.5397 z" fill="#c25757" stroke="#000000" stroke-width="0"/>
<path d="M450,466 L748.5397,638.36194 C718.2838,690.7666,674.7666,734.2838,622.36194,764.5397 z" fill="none" stroke="#ffffff" stroke-width="0.8"/>
<path d="M450,466 L635.1464,786.683 C578.8548,819.183,515,836.29285,450,836.29285 z" fill="#c25757" stroke="#000000" stroke-width="0"/>
<path d="M450,466 L635.1464,786.683 C578.8548,819.183,515,836.29285,450,836.29285 z" fill="none" stroke="#ffffff" stroke-width="0.8"/>
<path d="M450,466 L450,795.47046 C392.16586,795.47046,335.3506,780.2469,285.26477,751.32983 z" fill="#c25757" stroke="#000000" stroke-width="0"/>
<path d="M450,466 L450,795.47046 C392.16586,795.47046,335.3506,780.2469,285.26477,751.32983 z" fill="none" stroke="#ffffff" stroke-width="0.8"/>
<path d="M450,466 L316.9176,696.50543 C276.45544,673.1446,242.8554,639.54456,219.49455,599.0824 z" fill="#c25757" stroke="#000000" stroke-width="0"/>
<path d="M450,466 L316.9176,696.50543 C276.45544,673.1446,242.8554,639.54456,219.49455,599.0824 z" fill="none" stroke="#ffffff" stroke-width="0.8"/>
<path d="M450,466 L260.28137,575.5341 C241.05411,542.2315,230.9318,504.4545,230.9318,466 z" fill="#c25757" stroke="#000000" stroke-width="0"/>
<path d="M450,466 L260.28137,575.5341 C241.05411,542.2315,230.9318,504.4545,230.9318,466 z" fill="none" stroke="#ffffff" stroke-width="0.8"/>
<path d="M450,466 L261.7931,466 C261.7931,432.9628,270.48944,400.5076,287.00806,371.89655 z" fill="#c25757" stroke="#000000" stroke-width="0"/>
<path d="M450,466 L261.7931,466 C261.7931,432.9628,270.48944,400.5076,287.00806,371.89655 z" fill="none" stroke="#ffffff" stroke-width="0.8"/>
<path d="M450,466 L306.58618,383.2 C321.1206,358.02563,342.02563,337.1206,367.2,322.58618 z" fill="#c25757" stroke="#000000" stroke-width="0"/>
<path d="M450,466 L306.58618,383.2 C321.1206,358.02563,342.02563,337.1206,367.2,322.58618 z" fill="none" stroke="#ffffff" stroke-width="0.8"/>
<path d="M450,466 L378.2931,341.8 C400.09476,329.21283,424.82562,322.58618,450,322.58618 z" fill="#c25757" stroke="#000000" stroke-width="0"/>
<path d="M450,466 L378.2931,341.8 C400.09476,329.21283,424.82562,322.58618,450,322.58618 z" fill="none" stroke="#ffffff" stroke-width="0.8"/>
<path d="M450,219.91075 C493.1977,219.91075,535.63434,231.28162,573.0446,252.88046 L563.37854,269.62256 C528.9071,249.72046,489.8042,239.24286,450,239.24286 z" fill="#2e4d77" stroke="#000000" stroke-width="0"/>
<path d="M450,219.91075 C493.1977,219.91075,535.63434,231.28162,573.0446,252.88046 L563.37854,269.62256 C528.9071,249.72046,489.8042,239.24286,450,239.24286 z" fill="none" stroke="#ffffff" stroke-width="0.8"/>
<path d="M588.3446,226.38017 C630.4066,250.66472,665.33527,285.59338,689.6198,327.65543 L672.9458,337.28217 C650.35114,298.147,617.853,265.64886,578.71783,243.05417 z" fill="#2e4d77" stroke="#000000" stroke-width="0"/>
<path d="M588.3446,226.38017 C630.4066,250.66472,665.33527,285.59338,689.6198,327.65543 L672.9458,337.28217 C650.35114,298.147,617.853,265.64886,578.71783,243.05417 z" fill="none" stroke="#ffffff" stroke-width="0.8"/>
<path d="M716.7008,312.0202 C743.73,358.83597,757.9596,411.9418,757.9596,466 L736.82764,466 C736.82764,415.65125,723.57434,366.1895,698.4,322.58618 z" fill="#2e4d77" stroke="#000000" stroke-width="0"/>
<path d="M716.7008,312.0202 C743.73,358.83597,757.9596,411.9418,757.9596,466 L736.82764,466 C736.82764,415.65125,723.57434,366.1895,698.4,322.58618 z" fill="none" stroke="#ffffff" stroke-width="0.8"/>
<path d="M789.7155,466 C789.7155,525.6325,774.01855,584.2145,744.2023,635.8578 L724.6165,624.5499 C752.4479,576.34467,767.09985,521.66266,767.09985,466 z" fill="#2e4d77" stroke="#000000" stroke-width="0"/>
<path d="M789.7155,466 C789.7155,525.6325,774.01855,584.2145,744.2023,635.8578 L724.6165,624.5499 C752.4479,576.34467,767.09985,521.66266,767.09985,466 z" fill="none" stroke="#ffffff" stroke-width="0.8"/>
<path d="M768.6725,649.9856 C736.3762,705.9243,689.9243,752.3762,633.9856,784.6725 L622.36194,764.5397 C674.7666,734.2838,718.2838,690.7666,748.5397,638.36194 z" fill="#2e4d77" stroke="#000000" stroke-width="0"/>
<path d="M768.6725,649.9856 C736.3762,705.9243,689.9243,752.3762,633.9856,784.6725 L622.36194,764.5397 C674.7666,734.2838,718.2838,690.7666,748.5397,638.36194 z" fill="none" stroke="#ffffff" stroke-width="0.8"/>
<path d="M647.1034,807.3931 C587.1764,841.99207,519.19775,860.20685,450,860.20685 L450,836.29285 C515,836.29285,578.8548,819.183,635.1464,786.683 z" fill="#2e4d77" stroke="#000000" stroke-width="0"/>
<path d="M647.1034,807.3931 C587.1764,841.99207,519.19775,860.20685,450,860.20685 L450,836.29285 C515,836.29285,578.8548,819.183,635.1464,786.683 z" fill="none" stroke="#ffffff" stroke-width="0.8"/>
<path d="M450,818.9132 C388.05078,818.9132,327.19296,802.60645,273.5434,771.63184 L285.26477,751.32983 C335.3506,780.2469,392.16586,795.47046,450,795.47046 z" fill="#2e4d77" stroke="#000000" stroke-width="0"/>
<path d="M450,818.9132 C388.05078,818.9132,327.19296,802.60645,273.5434,771.63184 L285.26477,751.32983 C335.3506,780.2469,392.16586,795.47046,450,795.47046 z" fill="none" stroke="#ffffff" stroke-width="0.8"/>
<path d="M305.5937,716.119 C261.68866,690.77045,225.22955,654.31134,199.88097,610.4063 L219.49455,599.0824 C242.8554,639.54456,276.45544,673.1446,316.9176,696.50543 z" fill="#2e4d77" stroke="#000000" stroke-width="0"/>
<path d="M305.5937,716.119 C261.68866,690.77045,225.22955,654.31134,199.88097,610.4063 L219.49455,599.0824 C242.8554,639.54456,276.45544,673.1446,316.9176,696.50543 z" fill="none" stroke="#ffffff" stroke-width="0.8"/>
<path d="M239.91795,587.29095 C218.62694,550.4138,207.41814,508.582,207.41814,466 L230.9318,466 C230.9318,504.4545,241.05411,542.2315,260.28137,575.5341 z" fill="#2e4d77" stroke="#000000" stroke-width="0"/>
<path d="M239.91795,587.29095 C218.62694,550.4138,207.41814,508.582,207.41814,466 L230.9318,466 C230.9318,504.4545,241.05411,542.2315,260.28137,575.5341 z" fill="none" stroke="#ffffff" stroke-width="0.8"/>
<path d="M237.5517,466 C237.5517,428.70752,247.36813,392.07208,266.01437,359.77585 L287.00806,371.89655 C270.48944,400.5076,261.7931,432.9628,261.7931,466 z" fill="#2e4d77" stroke="#000000" stroke-width="0"/>
<path d="M237.5517,466 C237.5517,428.70752,247.36813,392.07208,266.01437,359.77585 L287.00806,371.89655 C270.48944,400.5076,261.7931,432.9628,261.7931,466 z" fill="none" stroke="#ffffff" stroke-width="0.8"/>
<path d="M284.4,370.3908 C301.18292,341.32193,325.32193,317.18292,354.3908,300.4 L367.2,322.58618 C342.02563,337.1206,321.1206,358.02563,306.58618,383.2 z" fill="#2e4d77" stroke="#000000" stroke-width="0"/>
<path d="M284.4,370.3908 C301.18292,341.32193,325.32193,317.18292,354.3908,300.4 L367.2,322.58618 C342.02563,337.1206,321.1206,358.02563,306.58618,383.2 z" fill="none" stroke="#ffffff" stroke-width="0.8"/>
<path d="M364.6517,318.17242 C390.60086,303.19067,420.0365,295.3034,450,295.3034 L450,322.58618 C424.82562,322.58618,400.09476,329.21283,378.2931,341.8 z" fill="#2e4d77" stroke="#000000" stroke-width="0"/>
<path d="M364.6517,318.17242 C390.60086,303.19067,420.0365,295.3034,450,295.3034 L450,322.58618 C424.82562,322.58618,400.09476,329.21283,378.2931,341.8 z" fill="none" stroke="#ffffff" stroke-width="0.8"/>
<path d="M450,208.56433 C495.1894,208.56433,539.58264,220.45946,578.71783,243.05417 L573.0446,252.88046 C535.63434,231.28162,493.1977,219.91075,450,219.91075 z" fill="#c2a35f" stroke="#000000" stroke-width="0"/>
<path d="M450,208.56433 C495.1894,208.56433,539.58264,220.45946,578.71783,243.05417 L573.0446,252.88046 C535.63434,231.28162,493.1977,219.91075,450,219.91075 z" fill="none" stroke="#ffffff" stroke-width="0.8"/>
<path d="M593.9109,216.73901 C637.66534,242.00064,673.9994,278.33466,699.261,322.0891 L689.6198,327.65543 C665.33527,285.59338,630.4066,250.66472,588.3446,226.38017 z" fill="#c2a35f" stroke="#000000" stroke-width="0"/>
<path d="M593.9109,216.73901 C637.66534,242.00064,673.9994,278.33466,699.261,322.0891 L689.6198,327.65543 C665.33527,285.59338,630.4066,250.66472,588.3446,226.38017 z" fill="none" stroke="#ffffff" stroke-width="0.8"/>
<path d="M726.1725,306.55176 C754.1615,355.03015,768.8965,410.02197,768.8965,466 L757.9596,466 C757.9596,411.9418,743.73,358.83597,716.7008,312.0202 z" fill="#c2a35f" stroke="#000000" stroke-width="0"/>
<path d="M726.1725,306.55176 C754.1615,355.03015,768.8965,410.02197,768.8965,466 L757.9596,466 C757.9596,411.9418,743.73,358.83597,716.7008,312.0202 z" fill="none" stroke="#ffffff" stroke-width="0.8"/>
<path d="M801.29065,466 C801.29065,527.66437,785.05884,588.24243,754.2266,641.6453 L744.2023,635.8578 C774.01855,584.2145,789.7155,525.6325,789.7155,466 z" fill="#c2a35f" stroke="#000000" stroke-width="0"/>
<path d="M801.29065,466 C801.29065,527.66437,785.05884,588.24243,754.2266,641.6453 L744.2023,635.8578 C774.01855,584.2145,789.7155,525.6325,789.7155,466 z" fill="none" stroke="#ffffff" stroke-width="0.8"/>
<path d="M779.25366,656.09467 C745.8851,713.89075,697.89075,761.8851,640.09467,795.25366 L633.9856,784.6725 C689.9243,752.3762,736.3762,705.9243,768.6725,649.9856 z" fill="#c2a35f" stroke="#000000" stroke-width="0"/>
<path d="M779.25366,656.09467 C745.8851,713.89075,697.89075,761.8851,640.09467,795.25366 L633.9856,784.6725 C689.9243,752.3762,736.3762,705.9243,768.6725,649.9856 z" fill="none" stroke="#ffffff" stroke-width="0.8"/>
<path d="M653.16956,817.9 C591.3982,853.5637,521.3274,872.3391,450,872.3391 L450,860.20685 C519.19775,860.20685,587.1764,841.99207,647.1034,807.3931 z" fill="#c2a35f" stroke="#000000" stroke-width="0"/>
<path d="M653.16956,817.9 C591.3982,853.5637,521.3274,872.3391,450,872.3391 L450,860.20685 C519.19775,860.20685,587.1764,841.99207,647.1034,807.3931 z" fill="none" stroke="#ffffff" stroke-width="0.8"/>
<path d="M450,830.8528 C385.95496,830.8528,323.03824,813.9943,267.5736,781.9718 L273.5434,771.63184 C327.19296,802.60645,388.05078,818.9132,450,818.9132 z" fill="#c2a35f" stroke="#000000" stroke-width="0"/>
<path d="M450,830.8528 C385.95496,830.8528,323.03824,813.9943,267.5736,781.9718 L273.5434,771.63184 C327.19296,802.60645,388.05078,818.9132,450,818.9132 z" fill="none" stroke="#ffffff" stroke-width="0.8"/>
<path d="M299.30173,727.0171 C253.48366,700.56396,215.436,662.51636,188.98294,616.69824 L199.88097,610.4063 C225.22955,654.31134,261.68866,690.77045,305.5937,716.119 z" fill="#c2a35f" stroke="#000000" stroke-width="0"/>
<path d="M299.30173,727.0171 C253.48366,700.56396,215.436,662.51636,188.98294,616.69824 L199.88097,610.4063 C225.22955,654.31134,261.68866,690.77045,305.5937,716.119 z" fill="none" stroke="#ffffff" stroke-width="0.8"/>
<path d="M228.98448,593.6034 C206.5854,554.80707,194.79326,510.79816,194.79326,466 L207.41814,466 C207.41814,508.582,218.62694,550.4138,239.91795,587.29095 z" fill="#c2a35f" stroke="#000000" stroke-width="0"/>
<path d="M228.98448,593.6034 C206.5854,554.80707,194.79326,510.79816,194.79326,466 L207.41814,466 C207.41814,508.582,218.62694,550.4138,239.91795,587.29095 z" fill="none" stroke="#ffffff" stroke-width="0.8"/>
<path d="M224.50615,466 C224.50615,426.41757,234.92537,387.53247,254.7166,353.25308 L266.01437,359.77585 C247.36813,392.07208,237.5517,428.70752,237.5517,466 z" fill="#c2a35f" stroke="#000000" stroke-width="0"/>
<path d="M224.50615,466 C224.50615,426.41757,234.92537,387.53247,254.7166,353.25308 L266.01437,359.77585 C247.36813,392.07208,237.5517,428.70752,237.5517,466 z" fill="none" stroke="#ffffff" stroke-width="0.8"/>
<path d="M273.13913,363.88934 C291.0633,332.84375,316.84375,307.0633,347.88934,289.13913 L354.3908,300.4 C325.32193,317.18292,301.18292,341.32193,284.4,370.3908 z" fill="#c2a35f" stroke="#000000" stroke-width="0"/>
<path d="M273.13913,363.88934 C291.0633,332.84375,316.84375,307.0633,347.88934,289.13913 L354.3908,300.4 C325.32193,317.18292,301.18292,341.32193,284.4,370.3908 z" fill="none" stroke="#ffffff" stroke-width="0.8"/>
<path d="M358.20148,307.0003 C386.11176,290.88626,417.77197,282.40295,450,282.40295 L450,295.3034 C420.0365,295.3034,390.60086,303.19067,364.6517,318.17242 z" fill="#c2a35f" stroke="#000000" stroke-width="0"/>
<path d="M358.20148,307.0003 C386.11176,290.88626,417.77197,282.40295,450,282.40295 L450,295.3034 C420.0365,295.3034,390.60086,303.19067,364.6517,318.17242 z" fill="none" stroke="#ffffff" stroke-width="0.8"/>
<rect fill="#ffffff" height="76" shape-rendering="crispEdges" width="163" x="713" y="56"/>
<path d="M713,56 L876,56 L876,132 L713,132 z" fill="none" shape-rendering="crispEdges" stroke="#444444" stroke-width="1"/>
<rect fill="#c25757" height="12" shape-rendering="crispEdges" width="12" x="721" y="64"/>
<text fill="#333333" font-family="sans-serif" font-size="12" x="739" y="74">
preventable disease
</text>
<rect fill="#2e4d77" height="12" shape-rendering="crispEdges" width="12" x="721" y="84"/>
<text fill="#333333" font-family="sans-serif" font-size="12" x="739" y="94">
wounds in battle
</text>
<rect fill="#c2a35f" height="12" shape-rendering="crispEdges" width="12" x="721" y="104"/>
<text fill="#333333" font-family="sans-serif" font-size="12" x="739" y="114">
other causes
</text>
</svg>