<svg xmlns="http://www.w3.org/2000/svg" width="900" height="900" viewBox="0 0 900 900"><path fill="#1e1e1e" d="M8 40h884v852H8z" shape-rendering="crispEdges"/><text x="253.2" y="32" fill="#fff" font-family="sans-serif" font-size="16">
Mortality by month — Nightingale&apos;s rose
</text><path fill="#c25757" d="M450 466V239.243a226.76 226.76 0 0 1 113.379 30.38z"/><path fill="none" stroke="#fff" stroke-width=".8" d="M450 466V239.243a226.76 226.76 0 0 1 113.379 30.38z"/><path fill="#c25757" d="m450 466 128.718-222.946a257.44 257.44 0 0 1 94.228 94.228z"/><path fill="none" stroke="#fff" stroke-width=".8" d="m450 466 128.718-222.946a257.44 257.44 0 0 1 94.228 94.228z"/><path fill="#c25757" d="m450 466 248.4-143.414A286.8 286.8 0 0 1 736.828 466z"/><path fill="none" stroke="#fff" stroke-width=".8" d="m450 466 248.4-143.414A286.8 286.8 0 0 1 736.828 466z"/><path fill="#c25757" d="M450 466h317.1a317.1 317.1 0 0 1-42.484 158.55z"/><path fill="none" stroke="#fff" stroke-width=".8" d="M450 466h317.1a317.1 317.1 0 0 1-42.484 158.55z"/><path fill="#c25757" d="m450 466 298.54 172.362A344.7 344.7 0 0 1 622.362 764.54z"/><path fill="none" stroke="#fff" stroke-width=".8" d="m450 466 298.54 172.362A344.7 344.7 0 0 1 622.362 764.54z"/><path fill="#c25757" d="m450 466 185.146 320.683A370.3 370.3 0 0 1 450 836.293z"/><path fill="none" stroke="#fff" stroke-width=".8" d="m450 466 185.146 320.683A370.3 370.3 0 0 1 450 836.293z"/><path fill="#c25757" d="M450 466v329.47a329.47 329.47 0 0 1-164.735-44.14z"/><path fill="none" stroke="#fff" stroke-width=".8" d="M450 466v329.47a329.47 329.47 0 0 1-164.735-44.14z"/><path fill="#c25757" d="M450 466 316.918 696.505a266.17 266.17 0 0 1-97.423-97.423z"/><path fill="none" stroke="#fff" stroke-width=".8" d="M450 466 316.918 696.505a266.17 266.17 0 0 1-97.423-97.423z"/><path fill="#c25757" d="M450 466 260.281 575.534A219.07 219.07 0 0 1 230.931 466z"/><path fill="none" stroke="#fff" stroke-width=".8" d="M450 466 260.281 575.534A219.07 219.07 0 0 1 230.931 466z"/><path fill="#c25757" d="M450 466H261.793c0-33.037 8.696-65.492 25.215-94.103z"/><path fill="none" stroke="#fff" stroke-width=".8" d="M450 466H261.793c0-33.037 8.696-65.492 25.215-94.103z"/><path fill="#c25757" d="m450 466-143.414-82.8a165.6 165.6 0 0 1 60.614-60.614z"/><path fill="none" stroke="#fff" stroke-width=".8" d="m450 466-143.414-82.8a165.6 165.6 0 0 1 60.614-60.614z"/><path fill="#c25757" d="m450 466-71.707-124.2A143.4 143.4 0 0 1 450 322.586z"/><path fill="none" stroke="#fff" stroke-width=".8" d="m450 466-71.707-124.2A143.4 143.4 0 0 1 450 322.586z"/><path fill="#2e4d77" d="M450 219.91a246.1 246.1 0 0 1 123.045 32.97l-9.666 16.743A226.76 226.76 0 0 0 450 239.243z"/><path fill="none" stroke="#fff" stroke-width=".8" d="M450 219.91a246.1 246.1 0 0 1 123.045 32.97l-9.666 16.743A226.76 226.76 0 0 0 450 239.243z"/><path fill="#2e4d77" d="M588.345 226.38A276.7 276.7 0 0 1 689.62 327.655l-16.674 9.627a257.44 257.44 0 0 0-94.228-94.228z"/><path fill="none" stroke="#fff" stroke-width=".8" d="M588.345 226.38A276.7 276.7 0 0 1 689.62 327.655l-16.674 9.627a257.44 257.44 0 0 0-94.228-94.228z"/><path fill="#2e4d77" d="M716.7 312.02A307.96 307.96 0 0 1 757.96 466h-21.132c0-50.349-13.254-99.81-38.428-143.414z"/><path fill="none" stroke="#fff" stroke-width=".8" d="M716.7 312.02A307.96 307.96 0 0 1 757.96 466h-21.132c0-50.349-13.254-99.81-38.428-143.414z"/><path fill="#2e4d77" d="M789.716 466a339.7 339.7 0 0 1-45.514 169.858l-19.586-11.308A317.1 317.1 0 0 0 767.1 466z"/><path fill="none" stroke="#fff" stroke-width=".8" d="M789.716 466a339.7 339.7 0 0 1-45.514 169.858l-19.586-11.308A317.1 317.1 0 0 0 767.1 466z"/><path fill="#2e4d77" d="M768.673 649.986a368 368 0 0 1-134.687 134.687l-11.624-20.133A344.7 344.7 0 0 0 748.54 638.362z"/><path fill="none" stroke="#fff" stroke-width=".8" d="M768.673 649.986a368 368 0 0 1-134.687 134.687l-11.624-20.133A344.7 344.7 0 0 0 748.54 638.362z"/><path fill="#2e4d77" d="M647.103 807.393A394.2 394.2 0 0 1 450 860.207v-23.914c65 0 128.855-17.11 185.146-49.61z"/><path fill="none" stroke="#fff" stroke-width=".8" d="M647.103 807.393A394.2 394.2 0 0 1 450 860.207v-23.914c65 0 128.855-17.11 185.146-49.61z"/><path fill="#2e4d77" d="M450 818.913a352.9 352.9 0 0 1-176.457-47.281l11.722-20.302A329.47 329.47 0 0 0 450 795.47z"/><path fill="none" stroke="#fff" stroke-width=".8" d="M450 818.913a352.9 352.9 0 0 1-176.457-47.281l11.722-20.302A329.47 329.47 0 0 0 450 795.47z"/><path fill="#2e4d77" d="M305.594 716.119A288.8 288.8 0 0 1 199.88 610.406l19.614-11.324a266.17 266.17 0 0 0 97.423 97.423z"/><path fill="none" stroke="#fff" stroke-width=".8" d="M305.594 716.119A288.8 288.8 0 0 1 199.88 610.406l19.614-11.324a266.17 266.17 0 0 0 97.423 97.423z"/><path fill="#2e4d77" d="M239.918 587.29a242.6 242.6 0 0 1-32.5-121.29h23.514a219.07 219.07 0 0 0 29.35 109.534z"/><path fill="none" stroke="#fff" stroke-width=".8" d="M239.918 587.29a242.6 242.6 0 0 1-32.5-121.29h23.514a219.07 219.07 0 0 0 29.35 109.534z"/><path fill="#2e4d77" d="M237.552 466a212.45 212.45 0 0 1 28.462-106.224l20.994 12.12A188.2 188.2 0 0 0 261.793 466z"/><path fill="none" stroke="#fff" stroke-width=".8" d="M237.552 466a212.45 212.45 0 0 1 28.462-106.224l20.994 12.12A188.2 188.2 0 0 0 261.793 466z"/><path fill="#2e4d77" d="M284.4 370.39a191.2 191.2 0 0 1 69.99-69.99l12.81 22.186a165.6 165.6 0 0 0-60.614 60.614z"/><path fill="none" stroke="#fff" stroke-width=".8" d="M284.4 370.39a191.2 191.2 0 0 1 69.99-69.99l12.81 22.186a165.6 165.6 0 0 0-60.614 60.614z"/><path fill="#2e4d77" d="M364.652 318.172A170.7 170.7 0 0 1 450 295.303v27.283a143.4 143.4 0 0 0-71.707 19.214z"/><path fill="none" stroke="#fff" stroke-width=".8" d="M364.652 318.172A170.7 170.7 0 0 1 450 295.303v27.283a143.4 143.4 0 0 0-71.707 19.214z"/><path fill="#c2a35f" d="M450 208.564c45.19 0 89.583 11.895 128.718 34.49l-5.673 9.826A246.1 246.1 0 0 0 450 219.91z"/><path fill="none" stroke="#fff" stroke-width=".8" d="M450 208.564c45.19 0 89.583 11.895 128.718 34.49l-5.673 9.826A246.1 246.1 0 0 0 450 219.91z"/><path fill="#c2a35f" d="M593.91 216.739a287.8 287.8 0 0 1 105.351 105.35l-9.641 5.566A276.7 276.7 0 0 0 588.345 226.38z"/><path fill="none" stroke="#fff" stroke-width=".8" d="M593.91 216.739a287.8 287.8 0 0 1 105.351 105.35l-9.641 5.566A276.7 276.7 0 0 0 588.345 226.38z"/><path fill="#c2a35f" d="M726.173 306.552A318.9 318.9 0 0 1 768.896 466H757.96a307.96 307.96 0 0 0-41.26-153.98z"/><path fill="none" stroke="#fff" stroke-width=".8" d="M726.173 306.552A318.9 318.9 0 0 1 768.896 466H757.96a307.96 307.96 0 0 0-41.26-153.98z"/><path fill="#c2a35f" d="M801.29 466a351.3 351.3 0 0 1-47.063 175.645l-10.025-5.787A339.7 339.7 0 0 0 789.716 466z"/><path fill="none" stroke="#fff" stroke-width=".8" d="M801.29 466a351.3 351.3 0 0 1-47.063 175.645l-10.025-5.787A339.7 339.7 0 0 0 789.716 466z"/><path fill="#c2a35f" d="M779.254 656.095a380.2 380.2 0 0 1-139.16 139.159l-6.108-10.582a368 368 0 0 0 134.687-134.686z"/><path fill="none" stroke="#fff" stroke-width=".8" d="M779.254 656.095a380.2 380.2 0 0 1-139.16 139.159l-6.108-10.582a368 368 0 0 0 134.687-134.686z"/><path fill="#c2a35f" d="M653.17 817.9A406.34 406.34 0 0 1 450 872.34v-12.133a394.2 394.2 0 0 0 197.103-52.814z"/><path fill="none" stroke="#fff" stroke-width=".8" d="M653.17 817.9A406.34 406.34 0 0 1 450 872.34v-12.133a394.2 394.2 0 0 0 197.103-52.814z"/><path fill="#c2a35f" d="M450 830.853a364.85 364.85 0 0 1-182.426-48.881l5.97-10.34A352.9 352.9 0 0 0 450 818.913z"/><path fill="none" stroke="#fff" stroke-width=".8" d="M450 830.853a364.85 364.85 0 0 1-182.426-48.881l5.97-10.34A352.9 352.9 0 0 0 450 818.913z"/><path fill="#c2a35f" d="M299.302 727.017a301.4 301.4 0 0 1-110.32-110.319l10.899-6.292A288.8 288.8 0 0 0 305.594 716.12z"/><path fill="none" stroke="#fff" stroke-width=".8" d="M299.302 727.017a301.4 301.4 0 0 1-110.32-110.319l10.899-6.292A288.8 288.8 0 0 0 305.594 716.12z"/><path fill="#c2a35f" d="M228.984 593.603A255.2 255.2 0 0 1 194.794 466h12.624a242.6 242.6 0 0 0 32.5 121.29z"/><path fill="none" stroke="#fff" stroke-width=".8" d="M228.984 593.603A255.2 255.2 0 0 1 194.794 466h12.624a242.6 242.6 0 0 0 32.5 121.29z"/><path fill="#c2a35f" d="M224.506 466c0-39.582 10.42-78.468 30.21-112.747l11.298 6.523A212.45 212.45 0 0 0 237.552 466z"/><path fill="none" stroke="#fff" stroke-width=".8" d="M224.506 466c0-39.582 10.42-78.468 30.21-112.747l11.298 6.523A212.45 212.45 0 0 0 237.552 466z"/><path fill="#c2a35f" d="M273.14 363.89a204.2 204.2 0 0 1 74.75-74.75l6.5 11.26a191.2 191.2 0 0 0-69.99 69.99z"/><path fill="none" stroke="#fff" stroke-width=".8" d="M273.14 363.89a204.2 204.2 0 0 1 74.75-74.75l6.5 11.26a191.2 191.2 0 0 0-69.99 69.99z"/><path fill="#c2a35f" d="M358.201 307A183.6 183.6 0 0 1 450 282.403v12.9a170.7 170.7 0 0 0-85.348 22.87z"/><path fill="none" stroke="#fff" stroke-width=".8" d="M358.201 307A183.6 183.6 0 0 1 450 282.403v12.9a170.7 170.7 0 0 0-85.348 22.87z"/><path fill="#1e1e1e" d="M713 56h163v76H713z" shape-rendering="crispEdges"/><path fill="none" stroke="#ccc" d="M713 56h163v76H713z" shape-rendering="crispEdges"/><path fill="#c25757" d="M721 64h12v12h-12z" shape-rendering="crispEdges"/><text x="739" y="74" fill="#ddd" font-family="sans-serif" font-size="12">
preventable disease
</text><path fill="#2e4d77" d="M721 84h12v12h-12z" shape-rendering="crispEdges"/><text x="739" y="94" fill="#ddd" font-family="sans-serif" font-size="12">
wounds in battle
</text><path fill="#c2a35f" d="M721 104h12v12h-12z" shape-rendering="crispEdges"/><text x="739" y="114" fill="#ddd" font-family="sans-serif" font-size="12">
other causes
</text></svg>