<svg xmlns="http://www.w3.org/2000/svg" width="800" height="800" viewBox="0 0 800 800"><path fill="#1e1e1e" d="M8 40h784v752H8z" shape-rendering="crispEdges"/><text x="246.4" y="32" fill="#fff" font-family="sans-serif" font-size="16">
Player profiles — 8 dimensions
</text><path fill="none" stroke="#3a3a3a" d="M491 416c0 50.258-40.742 91-91 91s-91-40.742-91-91 40.742-91 91-91 91 40.742 91 91z"/><path fill="none" stroke="#3a3a3a" d="M582 416c0 100.516-81.484 182-182 182s-182-81.484-182-182 81.484-182 182-182 182 81.484 182 182z"/><path fill="none" stroke="#3a3a3a" d="M673 416c0 150.774-122.226 273-273 273S127 566.774 127 416s122.226-273 273-273 273 122.226 273 273z"/><path fill="none" stroke="#3a3a3a" d="M764 416c0 201.032-162.968 364-364 364S36 617.032 36 416 198.968 52 400 52s364 162.968 364 364zm-364 0 257.387-257.387"/><path fill="none" stroke="#3a3a3a" d="M400 416h364" shape-rendering="crispEdges"/><path fill="none" stroke="#3a3a3a" d="m400 416 257.387 257.387"/><path fill="none" stroke="#3a3a3a" d="M400 416v364" shape-rendering="crispEdges"/><path fill="none" stroke="#3a3a3a" d="M400 416 142.613 673.387"/><path fill="none" stroke="#3a3a3a" d="M400 416H36" shape-rendering="crispEdges"/><path fill="none" stroke="#3a3a3a" d="M400 416 142.613 158.613"/><path fill="none" stroke="#3a3a3a" d="M400 416V52" shape-rendering="crispEdges"/><path fill="#4c72b0" fill-opacity=".098" d="m518.402 130.152 117.002 188.34 67.259 222.875-233.015 42.78-181.085 100.887-150.87-160.382L90.61 287.847l204.916-124.066z" opacity=".098"/><path fill="none" stroke="#4c72b0" stroke-width="2" d="m518.402 130.152 117.002 188.34 67.259 222.875-233.015 42.78-181.085 100.887-150.87-160.382L90.61 287.847l204.916-124.066 222.875-33.63"/><path fill="#c44e52" fill-opacity=".098" d="m483.578 214.225 235.9 69.443-67.259 236.805-175.606 80.488-195.015 100.887-177.535-163.267 60.532-220.089 165.757-70.638z" opacity=".098"/><path fill="none" stroke="#c44e52" stroke-width="2" d="m483.578 214.225 235.9 69.443-67.259 236.805-175.606 80.488-195.015 100.887-177.535-163.267 60.532-220.089 165.757-70.638 153.226-33.63"/><path fill="#55a868" fill-opacity=".098" d="M497.508 180.595 618.59 325.457l16.814 188.05-107.25 211.883-232.626-57.17L181.41 506.543l-50.444-201.98 146.453-184.5z" opacity=".098"/><path fill="none" stroke="#55a868" stroke-width="2" d="M497.508 180.595 618.59 325.457l16.814 188.05-107.25 211.883-232.626-57.17L181.41 506.543l-50.444-201.98 146.453-184.5 220.089 60.532"/><path fill="#1e1e1e" d="M690 56h86v76h-86z" shape-rendering="crispEdges"/><path fill="none" stroke="#ccc" d="M690 56h86v76h-86z" shape-rendering="crispEdges"/><path fill="none" stroke="#4c72b0" stroke-width="2" d="M698 70h12" shape-rendering="crispEdges"/><text x="716" y="74" fill="#ddd" font-family="sans-serif" font-size="12">
Player A
</text><path fill="none" stroke="#c44e52" stroke-width="2" d="M698 90h12" shape-rendering="crispEdges"/><text x="716" y="94" fill="#ddd" font-family="sans-serif" font-size="12">
Player B
</text><path fill="none" stroke="#55a868" stroke-width="2" d="M698 110h12" shape-rendering="crispEdges"/><text x="716" y="114" fill="#ddd" font-family="sans-serif" font-size="12">
Player C
</text></svg>