<svg xmlns="http://www.w3.org/2000/svg" width="800" height="800" viewBox="0 0 800 800"><path fill="#1e1e1e" d="M8 40h658.4v752H8z" shape-rendering="crispEdges"/><text x="183.6" y="32" fill="#fff" font-family="sans-serif" font-size="16">
Player profiles — 8 dimensions
</text><path fill="none" stroke="#3a3a3a" d="M416.5 416c0 43.796-35.504 79.3-79.3 79.3s-79.3-35.504-79.3-79.3 35.504-79.3 79.3-79.3 79.3 35.504 79.3 79.3z"/><path fill="none" stroke="#3a3a3a" d="M495.8 416c0 87.592-71.008 158.6-158.6 158.6S178.6 503.592 178.6 416s71.008-158.6 158.6-158.6S495.8 328.408 495.8 416z"/><path fill="none" stroke="#3a3a3a" d="M575.1 416c0 131.389-106.511 237.9-237.9 237.9S99.3 547.389 99.3 416s106.511-237.9 237.9-237.9S575.1 284.611 575.1 416z"/><path fill="none" stroke="#3a3a3a" d="M654.4 416c0 175.185-142.015 317.2-317.2 317.2S20 591.185 20 416 162.015 98.8 337.2 98.8 654.4 240.815 654.4 416zm-317.2 0 224.294-224.294"/><path fill="none" stroke="#3a3a3a" d="M337.2 416h317.2" shape-rendering="crispEdges"/><path fill="none" stroke="#3a3a3a" d="m337.2 416 224.294 224.294"/><path fill="none" stroke="#3a3a3a" d="M337.2 416v317.2" shape-rendering="crispEdges"/><path fill="none" stroke="#3a3a3a" d="M337.2 416 112.906 640.294"/><path fill="none" stroke="#3a3a3a" d="M337.2 416H20" shape-rendering="crispEdges"/><path fill="none" stroke="#3a3a3a" d="M337.2 416 112.906 191.706"/><path fill="none" stroke="#3a3a3a" d="M337.2 416V98.8" shape-rendering="crispEdges"/><path fill="#4c72b0" fill-opacity=".098" d="m440.38 166.904 101.958 164.125 58.611 194.22-203.055 37.278-157.804 87.917-131.473-139.762L67.59 304.324l178.57-108.115z"/><path fill="none" stroke="#4c72b0" stroke-width="2" d="m440.38 166.904 101.958 164.125 58.611 194.22-203.055 37.278-157.804 87.917-131.473-139.762L67.59 304.324l178.57-108.115 194.22-29.305"/><path fill="#c44e52" fill-opacity=".098" d="m410.032 240.167 205.57 60.515L556.99 507.04l-153.028 70.14-169.942 87.916L79.312 522.821l52.75-191.792 144.444-61.556z"/><path fill="none" stroke="#c44e52" stroke-width="2" d="m410.032 240.167 205.57 60.515L556.99 507.04l-153.028 70.14-169.942 87.916L79.312 522.821l52.75-191.792 144.444-61.556 133.526-29.306"/><path fill="#55a868" fill-opacity=".098" d="m422.171 210.862 105.515 126.236 14.652 163.873-93.462 184.64-202.716-49.82-99.445-140.89-43.959-176.01L230.38 158.11z"/><path fill="none" stroke="#55a868" stroke-width="2" d="m422.171 210.862 105.515 126.236 14.652 163.873-93.462 184.64-202.716-49.82-99.445-140.89-43.959-176.01L230.38 158.11l191.792 52.75"/><path fill="#1e1e1e" d="M682.4 56h86v76h-86z" shape-rendering="crispEdges"/><path fill="none" stroke="#ccc" d="M682.4 56h86v76h-86z" shape-rendering="crispEdges"/><path fill="none" stroke="#4c72b0" stroke-width="2" d="M690.4 70h12" shape-rendering="crispEdges"/><text x="708.4" y="74" fill="#ddd" font-family="sans-serif" font-size="12">
Player A
</text><path fill="none" stroke="#c44e52" stroke-width="2" d="M690.4 90h12" shape-rendering="crispEdges"/><text x="708.4" y="94" fill="#ddd" font-family="sans-serif" font-size="12">
Player B
</text><path fill="none" stroke="#55a868" stroke-width="2" d="M690.4 110h12" shape-rendering="crispEdges"/><text x="708.4" y="114" fill="#ddd" font-family="sans-serif" font-size="12">
Player C
</text></svg>