<svg height="800" viewBox="0 0 800 800" width="800" xmlns="http://www.w3.org/2000/svg">
<rect fill="#1e1e1e" height="752" shape-rendering="crispEdges" width="784" x="8" y="40"/>
<text fill="#ffffff" font-family="sans-serif" font-size="16" x="183.99998" y="32">
Wind rose — frequency × direction × speed
</text>
<path d="M491,416 C491,466.2579,450.2579,507,400,507 C349.7421,507,309,466.2579,309,416 C309,365.7421,349.7421,325,400,325 C450.2579,325,491,365.7421,491,416 z" fill="none" stroke="#3a3a3a" stroke-width="1"/>
<path d="M582,416 C582,516.5158,500.51584,598,400,598 C299.48416,598,218,516.5158,218,416 C218,315.48416,299.48416,234,400,234 C500.51584,234,582,315.48416,582,416 z" fill="none" stroke="#3a3a3a" stroke-width="1"/>
<path d="M673,416 C673,566.77374,550.77374,689,400,689 C249.22626,689,127,566.77374,127,416 C127,265.22626,249.22626,143,400,143 C550.77374,143,673,265.22626,673,416 z" fill="none" stroke="#3a3a3a" stroke-width="1"/>
<path d="M764,416 C764,617.0317,601.0317,780,400,780 C198.96834,780,36,617.0317,36,416 C36,214.96834,198.96834,52,400,52 C601.0317,52,764,214.96834,764,416 z" fill="none" stroke="#3a3a3a" stroke-width="1"/>
<path d="M400,416 L539.29675,79.707855" fill="none" stroke="#3a3a3a" stroke-width="1"/>
<path d="M400,416 L657.38684,158.61313" fill="none" stroke="#3a3a3a" stroke-width="1"/>
<path d="M400,416 L736.2921,276.70325" fill="none" stroke="#3a3a3a" stroke-width="1"/>
<path d="M400,416 L764,416" fill="none" shape-rendering="crispEdges" stroke="#3a3a3a" stroke-width="1"/>
<path d="M400,416 L736.2921,555.29675" fill="none" stroke="#3a3a3a" stroke-width="1"/>
<path d="M400,416 L657.38684,673.38684" fill="none" stroke="#3a3a3a" stroke-width="1"/>
<path d="M400,416 L539.29675,752.2921" fill="none" stroke="#3a3a3a" stroke-width="1"/>
<path d="M400,416 L400,780" fill="none" shape-rendering="crispEdges" stroke="#3a3a3a" stroke-width="1"/>
<path d="M400,416 L260.70325,752.2921" fill="none" stroke="#3a3a3a" stroke-width="1"/>
<path d="M400,416 L142.61313,673.38684" fill="none" stroke="#3a3a3a" stroke-width="1"/>
<path d="M400,416 L63.707855,555.29675" fill="none" stroke="#3a3a3a" stroke-width="1"/>
<path d="M400,416 L36,416" fill="none" shape-rendering="crispEdges" stroke="#3a3a3a" stroke-width="1"/>
<path d="M400,416 L63.707855,276.70325" fill="none" stroke="#3a3a3a" stroke-width="1"/>
<path d="M400,416 L142.61313,158.61313" fill="none" stroke="#3a3a3a" stroke-width="1"/>
<path d="M400,416 L260.70325,79.707855" fill="none" stroke="#3a3a3a" stroke-width="1"/>
<path d="M400,416 L400,52" fill="none" shape-rendering="crispEdges" stroke="#3a3a3a" stroke-width="1"/>
<path d="M400,416 L400,364 C406.82874,364,413.5906,365.34503,419.89954,367.95825 z" fill="#b5d8e8" stroke="#000000" stroke-width="0"/>
<path d="M400,416 L400,364 C406.82874,364,413.5906,365.34503,419.89954,367.95825 z" fill="none" stroke="#ffffff" stroke-width="0.6"/>
<path d="M400,416 L417.90958,372.76245 C423.58762,375.11435,428.74683,378.5616,433.0926,382.9074 z" fill="#b5d8e8" stroke="#000000" stroke-width="0"/>
<path d="M400,416 L417.90958,372.76245 C423.58762,375.11435,428.74683,378.5616,433.0926,382.9074 z" fill="none" stroke="#ffffff" stroke-width="0.6"/>
<path d="M400,416 L429.41565,386.58435 C433.27856,390.44727,436.34277,395.03323,438.43338,400.08038 z" fill="#b5d8e8" stroke="#000000" stroke-width="0"/>
<path d="M400,416 L429.41565,386.58435 C433.27856,390.44727,436.34277,395.03323,438.43338,400.08038 z" fill="none" stroke="#ffffff" stroke-width="0.6"/>
<path d="M400,416 L433.6292,402.0703 C435.4585,406.48657,436.4,411.21988,436.4,416 z" fill="#b5d8e8" stroke="#000000" stroke-width="0"/>
<path d="M400,416 L433.6292,402.0703 C435.4585,406.48657,436.4,411.21988,436.4,416 z" fill="none" stroke="#ffffff" stroke-width="0.6"/>
<path d="M400,416 L431.2,416 C431.2,420.09723,430.393,424.15436,428.82504,427.93973 z" fill="#b5d8e8" stroke="#000000" stroke-width="0"/>
<path d="M400,416 L431.2,416 C431.2,420.09723,430.393,424.15436,428.82504,427.93973 z" fill="none" stroke="#ffffff" stroke-width="0.6"/>
<path d="M400,416 L424.02087,425.94977 C422.71423,429.10425,420.7991,431.97046,418.38477,434.38477 z" fill="#b5d8e8" stroke="#000000" stroke-width="0"/>
<path d="M400,416 L424.02087,425.94977 C422.71423,429.10425,420.7991,431.97046,418.38477,434.38477 z" fill="none" stroke="#ffffff" stroke-width="0.6"/>
<path d="M400,416 L422.06174,438.06174 C419.16455,440.95892,415.72507,443.25708,411.93973,444.82504 z" fill="#b5d8e8" stroke="#000000" stroke-width="0"/>
<path d="M400,416 L422.06174,438.06174 C419.16455,440.95892,415.72507,443.25708,411.93973,444.82504 z" fill="none" stroke="#ffffff" stroke-width="0.6"/>
<path d="M400,416 L413.9297,449.6292 C409.51343,451.4585,404.78012,452.4,400,452.4 z" fill="#b5d8e8" stroke="#000000" stroke-width="0"/>
<path d="M400,416 L413.9297,449.6292 C409.51343,451.4585,404.78012,452.4,400,452.4 z" fill="none" stroke="#ffffff" stroke-width="0.6"/>
<path d="M400,416 L400,457.6 C394.53702,457.6,389.1275,456.524,384.08038,454.43338 z" fill="#b5d8e8" stroke="#000000" stroke-width="0"/>
<path d="M400,416 L400,457.6 C394.53702,457.6,389.1275,456.524,384.08038,454.43338 z" fill="none" stroke="#ffffff" stroke-width="0.6"/>
<path d="M400,416 L382.09042,459.23755 C376.41238,456.88565,371.25317,453.4384,366.9074,449.0926 z" fill="#b5d8e8" stroke="#000000" stroke-width="0"/>
<path d="M400,416 L382.09042,459.23755 C376.41238,456.88565,371.25317,453.4384,366.9074,449.0926 z" fill="none" stroke="#ffffff" stroke-width="0.6"/>
<path d="M400,416 L363.23044,452.76956 C358.4018,447.94092,354.5715,442.20847,351.95825,435.89954 z" fill="#b5d8e8" stroke="#000000" stroke-width="0"/>
<path d="M400,416 L363.23044,452.76956 C358.4018,447.94092,354.5715,442.20847,351.95825,435.89954 z" fill="none" stroke="#ffffff" stroke-width="0.6"/>
<path d="M400,416 L315.92697,450.8242 C311.3538,439.78357,309,427.9503,309,416 z" fill="#b5d8e8" stroke="#000000" stroke-width="0"/>
<path d="M400,416 L315.92697,450.8242 C311.3538,439.78357,309,427.9503,309,416 z" fill="none" stroke="#ffffff" stroke-width="0.6"/>
<path d="M400,416 L322,416 C322,405.7569,324.01752,395.61407,327.9374,386.1507 z" fill="#b5d8e8" stroke="#000000" stroke-width="0"/>
<path d="M400,416 L322,416 C322,405.7569,324.01752,395.61407,327.9374,386.1507 z" fill="none" stroke="#ffffff" stroke-width="0.6"/>
<path d="M400,416 L339.94785,391.12558 C343.2144,383.2394,348.00226,376.07385,354.03806,370.03806 z" fill="#b5d8e8" stroke="#000000" stroke-width="0"/>
<path d="M400,416 L339.94785,391.12558 C343.2144,383.2394,348.00226,376.07385,354.03806,370.03806 z" fill="none" stroke="#ffffff" stroke-width="0.6"/>
<path d="M400,416 L359.5535,375.5535 C364.865,370.24197,371.1707,366.02866,378.1105,363.15408 z" fill="#b5d8e8" stroke="#000000" stroke-width="0"/>
<path d="M400,416 L359.5535,375.5535 C364.865,370.24197,371.1707,366.02866,378.1105,363.15408 z" fill="none" stroke="#ffffff" stroke-width="0.6"/>
<path d="M400,416 L380.10046,367.95825 C386.4094,365.34503,393.17126,364,400,364 z" fill="#b5d8e8" stroke="#000000" stroke-width="0"/>
<path d="M400,416 L380.10046,367.95825 C386.4094,365.34503,393.17126,364,400,364 z" fill="none" stroke="#ffffff" stroke-width="0.6"/>
<path d="M400,325 C411.9503,325,423.78357,327.3538,434.8242,331.92697 L419.89954,367.95825 C413.5906,365.34503,406.82874,364,400,364 z" fill="#76b7b2" stroke="#000000" stroke-width="0"/>
<path d="M400,325 C411.9503,325,423.78357,327.3538,434.8242,331.92697 L419.89954,367.95825 C413.5906,365.34503,406.82874,364,400,364 z" fill="none" stroke="#ffffff" stroke-width="0.6"/>
<path d="M431.83926,339.13324 C441.93353,343.31442,451.10544,349.44287,458.83127,357.16873 L433.0926,382.9074 C428.74683,378.5616,423.58762,375.11435,417.90958,372.76245 z" fill="#76b7b2" stroke="#000000" stroke-width="0"/>
<path d="M431.83926,339.13324 C441.93353,343.31442,451.10544,349.44287,458.83127,357.16873 L433.0926,382.9074 C428.74683,378.5616,423.58762,375.11435,417.90958,372.76245 z" fill="none" stroke="#ffffff" stroke-width="0.6"/>
<path d="M453.31586,362.68414 C460.31738,369.68567,465.8713,377.9977,469.66052,387.14566 L438.43338,400.08038 C436.34277,395.03323,433.27856,390.44727,429.41565,386.58435 z" fill="#76b7b2" stroke="#000000" stroke-width="0"/>
<path d="M453.31586,362.68414 C460.31738,369.68567,465.8713,377.9977,469.66052,387.14566 L438.43338,400.08038 C436.34277,395.03323,433.27856,390.44727,429.41565,386.58435 z" fill="none" stroke="#ffffff" stroke-width="0.6"/>
<path d="M462.45425,390.1306 C465.85147,398.3322,467.6,407.12265,467.6,416 L436.4,416 C436.4,411.21988,435.4585,406.48657,433.6292,402.0703 z" fill="#76b7b2" stroke="#000000" stroke-width="0"/>
<path d="M462.45425,390.1306 C465.85147,398.3322,467.6,407.12265,467.6,416 L436.4,416 C436.4,411.21988,435.4585,406.48657,433.6292,402.0703 z" fill="none" stroke="#ffffff" stroke-width="0.6"/>
<path d="M459.8,416 C459.8,423.85306,458.25323,431.6292,455.248,438.88446 L428.82504,427.93973 C430.393,424.15436,431.2,420.09723,431.2,416 z" fill="#76b7b2" stroke="#000000" stroke-width="0"/>
<path d="M459.8,416 C459.8,423.85306,458.25323,431.6292,455.248,438.88446 L428.82504,427.93973 C430.393,424.15436,431.2,420.09723,431.2,416 z" fill="none" stroke="#ffffff" stroke-width="0.6"/>
<path d="M448.04175,435.89954 C445.4285,442.20847,441.5982,447.94092,436.76956,452.76956 L418.38477,434.38477 C420.7991,431.97046,422.71423,429.10425,424.02087,425.94977 z" fill="#76b7b2" stroke="#000000" stroke-width="0"/>
<path d="M448.04175,435.89954 C445.4285,442.20847,441.5982,447.94092,436.76956,452.76956 L418.38477,434.38477 C420.7991,431.97046,422.71423,429.10425,424.02087,425.94977 z" fill="none" stroke="#ffffff" stroke-width="0.6"/>
<path d="M444.12347,460.12347 C438.3291,465.91785,431.45016,470.5142,423.87946,473.6501 L411.93973,444.82504 C415.72507,443.25708,419.16455,440.95892,422.06174,438.06174 z" fill="#76b7b2" stroke="#000000" stroke-width="0"/>
<path d="M444.12347,460.12347 C438.3291,465.91785,431.45016,470.5142,423.87946,473.6501 L411.93973,444.82504 C415.72507,443.25708,419.16455,440.95892,422.06174,438.06174 z" fill="none" stroke="#ffffff" stroke-width="0.6"/>
<path d="M427.85934,483.25842 C419.02686,486.917,409.56024,488.8,400,488.8 L400,452.4 C404.78012,452.4,409.51343,451.4585,413.9297,449.6292 z" fill="#76b7b2" stroke="#000000" stroke-width="0"/>
<path d="M427.85934,483.25842 C419.02686,486.917,409.56024,488.8,400,488.8 L400,452.4 C404.78012,452.4,409.51343,451.4585,413.9297,449.6292 z" fill="none" stroke="#ffffff" stroke-width="0.6"/>
<path d="M400,499.2 C389.07404,499.2,378.25504,497.04797,368.16074,492.86676 L384.08038,454.43338 C389.1275,456.524,394.53702,457.6,400,457.6 z" fill="#76b7b2" stroke="#000000" stroke-width="0"/>
<path d="M400,499.2 C389.07404,499.2,378.25504,497.04797,368.16074,492.86676 L384.08038,454.43338 C389.1275,456.524,394.53702,457.6,400,457.6 z" fill="none" stroke="#ffffff" stroke-width="0.6"/>
<path d="M364.18085,502.47513 C352.82477,497.77127,342.50638,490.87677,333.81482,482.18518 L366.9074,449.0926 C371.25317,453.4384,376.41238,456.88565,382.09042,459.23755 z" fill="#76b7b2" stroke="#000000" stroke-width="0"/>
<path d="M364.18085,502.47513 C352.82477,497.77127,342.50638,490.87677,333.81482,482.18518 L366.9074,449.0926 C371.25317,453.4384,376.41238,456.88565,382.09042,459.23755 z" fill="none" stroke="#ffffff" stroke-width="0.6"/>
<path d="M326.4609,489.5391 C316.8036,479.8818,309.143,468.41693,303.91653,455.79907 L351.95825,435.89954 C354.5715,442.20847,358.4018,447.94092,363.23044,452.76956 z" fill="#76b7b2" stroke="#000000" stroke-width="0"/>
<path d="M326.4609,489.5391 C316.8036,479.8818,309.143,468.41693,303.91653,455.79907 L351.95825,435.89954 C354.5715,442.20847,358.4018,447.94092,363.23044,452.76956 z" fill="none" stroke="#ffffff" stroke-width="0.6"/>
<path d="M207.83307,495.59814 C197.38007,470.36243,192,443.31494,192,416 L309,416 C309,427.9503,311.3538,439.78357,315.92697,450.8242 z" fill="#76b7b2" stroke="#000000" stroke-width="0"/>
<path d="M207.83307,495.59814 C197.38007,470.36243,192,443.31494,192,416 L309,416 C309,427.9503,311.3538,439.78357,315.92697,450.8242 z" fill="none" stroke="#ffffff" stroke-width="0.6"/>
<path d="M223.2,416 C223.2,392.7823,227.77306,369.79193,236.6581,348.34155 L327.9374,386.1507 C324.01752,395.61407,322,405.7569,322,416 z" fill="#76b7b2" stroke="#000000" stroke-width="0"/>
<path d="M223.2,416 C223.2,392.7823,227.77306,369.79193,236.6581,348.34155 L327.9374,386.1507 C324.01752,395.61407,322,405.7569,322,416 z" fill="none" stroke="#ffffff" stroke-width="0.6"/>
<path d="M267.88522,361.27628 C275.07166,343.9267,285.60495,328.1625,298.88373,314.88373 L354.03806,370.03806 C348.00226,376.07385,343.2144,383.2394,339.94785,391.12558 z" fill="#76b7b2" stroke="#000000" stroke-width="0"/>
<path d="M267.88522,361.27628 C275.07166,343.9267,285.60495,328.1625,298.88373,314.88373 L354.03806,370.03806 C348.00226,376.07385,343.2144,383.2394,339.94785,391.12558 z" fill="none" stroke="#ffffff" stroke-width="0.6"/>
<path d="M315.43002,331.43002 C326.53592,320.32416,339.72052,311.51447,354.23108,305.50403 L378.1105,363.15408 C371.1707,366.02866,364.865,370.24197,359.5535,375.5535 z" fill="#76b7b2" stroke="#000000" stroke-width="0"/>
<path d="M315.43002,331.43002 C326.53592,320.32416,339.72052,311.51447,354.23108,305.50403 L378.1105,363.15408 C371.1707,366.02866,364.865,370.24197,359.5535,375.5535 z" fill="none" stroke="#ffffff" stroke-width="0.6"/>
<path d="M362.1909,324.7207 C374.17786,319.75552,387.0254,317.2,400,317.2 L400,364 C393.17126,364,386.4094,365.34503,380.10046,367.95825 z" fill="#76b7b2" stroke="#000000" stroke-width="0"/>
<path d="M362.1909,324.7207 C374.17786,319.75552,387.0254,317.2,400,317.2 L400,364 C393.17126,364,386.4094,365.34503,380.10046,367.95825 z" fill="none" stroke="#ffffff" stroke-width="0.6"/>
<path d="M400,304.2 C414.6818,304.2,429.21982,307.0918,442.784,312.71027 L434.8242,331.92697 C423.78357,327.3538,411.9503,325,400,325 z" fill="#f28e2b" stroke="#000000" stroke-width="0"/>
<path d="M400,304.2 C414.6818,304.2,429.21982,307.0918,442.784,312.71027 L434.8242,331.92697 C423.78357,327.3538,411.9503,325,400,325 z" fill="none" stroke="#ffffff" stroke-width="0.6"/>
<path d="M438.8041,322.3186 C451.1065,327.41443,462.28476,334.8835,471.70062,344.29938 L458.83127,357.16873 C451.10544,349.44287,441.93353,343.31442,431.83926,339.13324 z" fill="#f28e2b" stroke="#000000" stroke-width="0"/>
<path d="M438.8041,322.3186 C451.1065,327.41443,462.28476,334.8835,471.70062,344.29938 L458.83127,357.16873 C451.10544,349.44287,441.93353,343.31442,431.83926,339.13324 z" fill="none" stroke="#ffffff" stroke-width="0.6"/>
<path d="M464.3467,351.6533 C472.79684,360.10342,479.49985,370.1352,484.07303,381.1758 L469.66052,387.14566 C465.8713,377.9977,460.31738,369.68567,453.31586,362.68414 z" fill="#f28e2b" stroke="#000000" stroke-width="0"/>
<path d="M464.3467,351.6533 C472.79684,360.10342,479.49985,370.1352,484.07303,381.1758 L469.66052,387.14566 C465.8713,377.9977,460.31738,369.68567,453.31586,362.68414 z" fill="none" stroke="#ffffff" stroke-width="0.6"/>
<path d="M474.4647,385.1557 C478.51523,394.93457,480.6,405.41547,480.6,416 L467.6,416 C467.6,407.12265,465.85147,398.3322,462.45425,390.1306 z" fill="#f28e2b" stroke="#000000" stroke-width="0"/>
<path d="M474.4647,385.1557 C478.51523,394.93457,480.6,405.41547,480.6,416 L467.6,416 C467.6,407.12265,465.85147,398.3322,462.45425,390.1306 z" fill="none" stroke="#ffffff" stroke-width="0.6"/>
<path d="M470.2,416 C470.2,425.2188,468.38422,434.34732,464.85632,442.86438 L455.248,438.88446 C458.25323,431.6292,459.8,423.85306,459.8,416 z" fill="#f28e2b" stroke="#000000" stroke-width="0"/>
<path d="M470.2,416 C470.2,425.2188,468.38422,434.34732,464.85632,442.86438 L455.248,438.88446 C458.25323,431.6292,459.8,423.85306,459.8,416 z" fill="none" stroke="#ffffff" stroke-width="0.6"/>
<path d="M457.6501,439.87946 C454.5142,447.45016,449.91785,454.3291,444.12347,460.12347 L436.76956,452.76956 C441.5982,447.94092,445.4285,442.20847,448.04175,435.89954 z" fill="#f28e2b" stroke="#000000" stroke-width="0"/>
<path d="M457.6501,439.87946 C454.5142,447.45016,449.91785,454.3291,444.12347,460.12347 L436.76956,452.76956 C441.5982,447.94092,445.4285,442.20847,448.04175,435.89954 z" fill="none" stroke="#ffffff" stroke-width="0.6"/>
<path d="M453.31586,469.31586 C446.31433,476.31738,438.0023,481.8713,428.85434,485.66052 L423.87946,473.6501 C431.45016,470.5142,438.3291,465.91785,444.12347,460.12347 z" fill="#f28e2b" stroke="#000000" stroke-width="0"/>
<path d="M453.31586,469.31586 C446.31433,476.31738,438.0023,481.8713,428.85434,485.66052 L423.87946,473.6501 C431.45016,470.5142,438.3291,465.91785,444.12347,460.12347 z" fill="none" stroke="#ffffff" stroke-width="0.6"/>
<path d="M433.82922,497.67096 C423.10403,502.11346,411.60886,504.4,400,504.4 L400,488.8 C409.56024,488.8,419.02686,486.917,427.85934,483.25842 z" fill="#f28e2b" stroke="#000000" stroke-width="0"/>
<path d="M433.82922,497.67096 C423.10403,502.11346,411.60886,504.4,400,504.4 L400,488.8 C409.56024,488.8,419.02686,486.917,427.85934,483.25842 z" fill="none" stroke="#ffffff" stroke-width="0.6"/>
<path d="M400,517.4 C386.68396,517.4,373.49832,514.7772,361.1959,509.6814 L368.16074,492.86676 C378.25504,497.04797,389.07404,499.2,400,499.2 z" fill="#f28e2b" stroke="#000000" stroke-width="0"/>
<path d="M400,517.4 C386.68396,517.4,373.49832,514.7772,361.1959,509.6814 L368.16074,492.86676 C378.25504,497.04797,389.07404,499.2,400,499.2 z" fill="none" stroke="#ffffff" stroke-width="0.6"/>
<path d="M355.22604,524.0939 C341.03094,518.2141,328.13297,509.59595,317.2685,498.7315 L333.81482,482.18518 C342.50638,490.87677,352.82477,497.77127,364.18085,502.47513 z" fill="#f28e2b" stroke="#000000" stroke-width="0"/>
<path d="M355.22604,524.0939 C341.03094,518.2141,328.13297,509.59595,317.2685,498.7315 L333.81482,482.18518 C342.50638,490.87677,352.82477,497.77127,364.18085,502.47513 z" fill="none" stroke="#ffffff" stroke-width="0.6"/>
<path d="M304.39917,511.60083 C291.84467,499.04636,281.88593,484.14203,275.0915,467.7388 L303.91653,455.79907 C309.143,468.41693,316.8036,479.8818,326.4609,489.5391 z" fill="#f28e2b" stroke="#000000" stroke-width="0"/>
<path d="M304.39917,511.60083 C291.84467,499.04636,281.88593,484.14203,275.0915,467.7388 L303.91653,455.79907 C309.143,468.41693,316.8036,479.8818,326.4609,489.5391 z" fill="none" stroke="#ffffff" stroke-width="0.6"/>
<path d="M123.76004,530.42236 C108.73386,494.146,101,455.26523,101,416 L192,416 C192,443.31494,197.38007,470.36243,207.83307,495.59814 z" fill="#f28e2b" stroke="#000000" stroke-width="0"/>
<path d="M123.76004,530.42236 C108.73386,494.146,101,455.26523,101,416 L192,416 C192,443.31494,197.38007,470.36243,207.83307,495.59814 z" fill="none" stroke="#ffffff" stroke-width="0.6"/>
<path d="M155.6,416 C155.6,383.90494,161.92159,352.12415,174.20386,322.47217 L236.6581,348.34155 C227.77306,369.79193,223.2,392.7823,223.2,416 z" fill="#f28e2b" stroke="#000000" stroke-width="0"/>
<path d="M155.6,416 C155.6,383.90494,161.92159,352.12415,174.20386,322.47217 L236.6581,348.34155 C227.77306,369.79193,223.2,392.7823,223.2,416 z" fill="none" stroke="#ffffff" stroke-width="0.6"/>
<path d="M224.64767,343.3667 C234.186,320.33908,248.16656,299.41568,265.79114,281.79114 L298.88373,314.88373 C285.60495,328.1625,275.07166,343.9267,267.88522,361.27628 z" fill="#f28e2b" stroke="#000000" stroke-width="0"/>
<path d="M224.64767,343.3667 C234.186,320.33908,248.16656,299.41568,265.79114,281.79114 L298.88373,314.88373 C285.60495,328.1625,275.07166,343.9267,267.88522,361.27628 z" fill="none" stroke="#ffffff" stroke-width="0.6"/>
<path d="M293.3683,309.3683 C307.37137,295.36523,323.99542,284.2574,342.29135,276.67896 L354.23108,305.50403 C339.72052,311.51447,326.53592,320.32416,315.43002,331.43002 z" fill="#f28e2b" stroke="#000000" stroke-width="0"/>
<path d="M293.3683,309.3683 C307.37137,295.36523,323.99542,284.2574,342.29135,276.67896 L354.23108,305.50403 C339.72052,311.51447,326.53592,320.32416,315.43002,331.43002 z" fill="none" stroke="#ffffff" stroke-width="0.6"/>
<path d="M353.23608,303.10193 C368.06207,296.9608,383.95245,293.8,400,293.8 L400,317.2 C387.0254,317.2,374.17786,319.75552,362.1909,324.7207 z" fill="#f28e2b" stroke="#000000" stroke-width="0"/>
<path d="M353.23608,303.10193 C368.06207,296.9608,383.95245,293.8,400,293.8 L400,317.2 C387.0254,317.2,374.17786,319.75552,362.1909,324.7207 z" fill="none" stroke="#ffffff" stroke-width="0.6"/>
<path d="M400,299 C415.36465,299,430.57886,302.0263,444.77396,307.9061 L442.784,312.71027 C429.21982,307.0918,414.6818,304.2,400,304.2 z" fill="#e15759" stroke="#000000" stroke-width="0"/>
<path d="M400,299 C415.36465,299,430.57886,302.0263,444.77396,307.9061 L442.784,312.71027 C429.21982,307.0918,414.6818,304.2,400,304.2 z" fill="none" stroke="#ffffff" stroke-width="0.6"/>
<path d="M440.79407,317.51447 C453.72736,322.87158,465.47885,330.7237,475.37756,340.62244 L471.70062,344.29938 C462.28476,334.8835,451.1065,327.41443,438.8041,322.3186 z" fill="#e15759" stroke="#000000" stroke-width="0"/>
<path d="M440.79407,317.51447 C453.72736,322.87158,465.47885,330.7237,475.37756,340.62244 L471.70062,344.29938 C462.28476,334.8835,451.1065,327.41443,438.8041,322.3186 z" fill="none" stroke="#ffffff" stroke-width="0.6"/>
<path d="M466.18518,349.81482 C474.87677,358.50638,481.77127,368.82477,486.47513,380.18085 L484.07303,381.1758 C479.49985,370.1352,472.79684,360.10342,464.3467,351.6533 z" fill="#e15759" stroke="#000000" stroke-width="0"/>
<path d="M466.18518,349.81482 C474.87677,358.50638,481.77127,368.82477,486.47513,380.18085 L484.07303,381.1758 C479.49985,370.1352,472.79684,360.10342,464.3467,351.6533 z" fill="none" stroke="#ffffff" stroke-width="0.6"/>
<path d="M476.86676,384.16074 C481.04797,394.25504,483.2,405.07404,483.2,416 L480.6,416 C480.6,405.41547,478.51523,394.93457,474.4647,385.1557 z" fill="#e15759" stroke="#000000" stroke-width="0"/>
<path d="M476.86676,384.16074 C481.04797,394.25504,483.2,405.07404,483.2,416 L480.6,416 C480.6,405.41547,478.51523,394.93457,474.4647,385.1557 z" fill="none" stroke="#ffffff" stroke-width="0.6"/>
<path d="M472.8,416 C472.8,425.56024,470.917,435.02686,467.25842,443.85934 L464.85632,442.86438 C468.38422,434.34732,470.2,425.2188,470.2,416 z" fill="#e15759" stroke="#000000" stroke-width="0"/>
<path d="M472.8,416 C472.8,425.56024,470.917,435.02686,467.25842,443.85934 L464.85632,442.86438 C468.38422,434.34732,470.2,425.2188,470.2,416 z" fill="none" stroke="#ffffff" stroke-width="0.6"/>
<path d="M460.05215,440.87442 C456.7856,448.7606,451.99774,455.92615,445.96194,461.96194 L444.12347,460.12347 C449.91785,454.3291,454.5142,447.45016,457.6501,439.87946 z" fill="#e15759" stroke="#000000" stroke-width="0"/>
<path d="M460.05215,440.87442 C456.7856,448.7606,451.99774,455.92615,445.96194,461.96194 L444.12347,460.12347 C449.91785,454.3291,454.5142,447.45016,457.6501,439.87946 z" fill="none" stroke="#ffffff" stroke-width="0.6"/>
<path d="M455.15433,471.15433 C447.91138,478.3973,439.3127,484.14273,429.8493,488.0626 L428.85434,485.66052 C438.0023,481.8713,446.31433,476.31738,453.31586,469.31586 z" fill="#e15759" stroke="#000000" stroke-width="0"/>
<path d="M455.15433,471.15433 C447.91138,478.3973,439.3127,484.14273,429.8493,488.0626 L428.85434,485.66052 C438.0023,481.8713,446.31433,476.31738,453.31586,469.31586 z" fill="none" stroke="#ffffff" stroke-width="0.6"/>
<path d="M434.8242,500.07303 C423.78357,504.6462,411.9503,507,400,507 L400,504.4 C411.60886,504.4,423.10403,502.11346,433.82922,497.67096 z" fill="#e15759" stroke="#000000" stroke-width="0"/>
<path d="M434.8242,500.07303 C423.78357,504.6462,411.9503,507,400,507 L400,504.4 C411.60886,504.4,423.10403,502.11346,433.82922,497.67096 z" fill="none" stroke="#ffffff" stroke-width="0.6"/>
<path d="M400,522.6 C386.0011,522.6,372.13925,519.8427,359.20593,514.48553 L361.1959,509.6814 C373.49832,514.7772,386.68396,517.4,400,517.4 z" fill="#e15759" stroke="#000000" stroke-width="0"/>
<path d="M400,522.6 C386.0011,522.6,372.13925,519.8427,359.20593,514.48553 L361.1959,509.6814 C373.49832,514.7772,386.68396,517.4,400,517.4 z" fill="none" stroke="#ffffff" stroke-width="0.6"/>
<path d="M352.24112,531.3002 C337.09967,525.0284,323.34183,515.8357,311.75308,504.24692 L317.2685,498.7315 C328.13297,509.59595,341.03094,518.2141,355.22604,524.0939 z" fill="#e15759" stroke="#000000" stroke-width="0"/>
<path d="M352.24112,531.3002 C337.09967,525.0284,323.34183,515.8357,311.75308,504.24692 L317.2685,498.7315 C328.13297,509.59595,341.03094,518.2141,355.22604,524.0939 z" fill="none" stroke="#ffffff" stroke-width="0.6"/>
<path d="M295.2068,520.7932 C281.44513,507.0316,270.5288,490.69412,263.08105,472.71368 L275.0915,467.7388 C281.88593,484.14203,291.84467,499.04636,304.39917,511.60083 z" fill="#e15759" stroke="#000000" stroke-width="0"/>
<path d="M295.2068,520.7932 C281.44513,507.0316,270.5288,490.69412,263.08105,472.71368 L275.0915,467.7388 C281.88593,484.14203,291.84467,499.04636,304.39917,511.60083 z" fill="none" stroke="#ffffff" stroke-width="0.6"/>
<path d="M87.72873,545.347 C70.742615,504.33896,62,460.38678,62,416 L101,416 C101,455.26523,108.73386,494.146,123.76004,530.42236 z" fill="#e15759" stroke="#000000" stroke-width="0"/>
<path d="M87.72873,545.347 C70.742615,504.33896,62,460.38678,62,416 L101,416 C101,455.26523,108.73386,494.146,123.76004,530.42236 z" fill="none" stroke="#ffffff" stroke-width="0.6"/>
<path d="M134.79999,416 C134.79999,381.17343,141.65958,346.6879,154.98714,314.51236 L174.20386,322.47217 C161.92159,352.12415,155.6,383.90494,155.6,416 z" fill="#e15759" stroke="#000000" stroke-width="0"/>
<path d="M134.79999,416 C134.79999,381.17343,141.65958,346.6879,154.98714,314.51236 L174.20386,322.47217 C161.92159,352.12415,155.6,383.90494,155.6,416 z" fill="none" stroke="#ffffff" stroke-width="0.6"/>
<path d="M215.03932,339.38678 C225.10031,315.0974,239.84694,293.02753,258.43723,274.43723 L265.79114,281.79114 C248.16656,299.41568,234.186,320.33908,224.64767,343.3667 z" fill="#e15759" stroke="#000000" stroke-width="0"/>
<path d="M215.03932,339.38678 C225.10031,315.0974,239.84694,293.02753,258.43723,274.43723 L265.79114,281.79114 C248.16656,299.41568,234.186,320.33908,224.64767,343.3667 z" fill="none" stroke="#ffffff" stroke-width="0.6"/>
<path d="M289.69135,305.69135 C304.17728,291.20538,321.3746,279.71454,340.3014,271.87482 L342.29135,276.67896 C323.99542,284.2574,307.37137,295.36523,293.3683,309.3683 z" fill="#e15759" stroke="#000000" stroke-width="0"/>
<path d="M289.69135,305.69135 C304.17728,291.20538,321.3746,279.71454,340.3014,271.87482 L342.29135,276.67896 C323.99542,284.2574,307.37137,295.36523,293.3683,309.3683 z" fill="none" stroke="#ffffff" stroke-width="0.6"/>
<path d="M351.24612,298.29776 C366.703,291.8953,383.2696,288.6,400,288.6 L400,293.8 C383.95245,293.8,368.06207,296.9608,353.23608,303.10193 z" fill="#e15759" stroke="#000000" stroke-width="0"/>
<path d="M351.24612,298.29776 C366.703,291.8953,383.2696,288.6,400,288.6 L400,293.8 C383.95245,293.8,368.06207,296.9608,353.23608,303.10193 z" fill="none" stroke="#ffffff" stroke-width="0.6"/>
<rect fill="#1e1e1e" height="96" shape-rendering="crispEdges" width="107" x="669" y="56"/>
<path d="M669,56 L776,56 L776,152 L669,152 z" fill="none" shape-rendering="crispEdges" stroke="#cccccc" stroke-width="1"/>
<rect fill="#b5d8e8" height="12" shape-rendering="crispEdges" width="12" x="677" y="64"/>
<text fill="#dddddd" font-family="sans-serif" font-size="12" x="695" y="74">
0–5 m/s
</text>
<rect fill="#76b7b2" height="12" shape-rendering="crispEdges" width="12" x="677" y="84"/>
<text fill="#dddddd" font-family="sans-serif" font-size="12" x="695" y="94">
5–10 m/s
</text>
<rect fill="#f28e2b" height="12" shape-rendering="crispEdges" width="12" x="677" y="104"/>
<text fill="#dddddd" font-family="sans-serif" font-size="12" x="695" y="114">
10–15 m/s
</text>
<rect fill="#e15759" height="12" shape-rendering="crispEdges" width="12" x="677" y="124"/>
<text fill="#dddddd" font-family="sans-serif" font-size="12" x="695" y="134">
15+ m/s
</text>
</svg>