<svg xmlns="http://www.w3.org/2000/svg" viewBox="0 0 1280 640" width="100%" height="auto" role="img" aria-label="starsight social card" preserveAspectRatio="xMidYMid meet">
  <title>starsight</title>
  <rect x="0.5" y="0.5" width="1279" height="639" rx="24" fill="#0e0e10" stroke="#2c2c33" stroke-width="1"/>
  <g transform="translate(96,180) scale(2.4)">
    <circle cx="50" cy="50" r="50" fill="none" stroke="#2c2c33" stroke-width="0.5" opacity="0.6"/>
    <g stroke="#6b6b75" stroke-width="0.4" stroke-linecap="round" opacity="0.55">
      <line x1="83.00" y1="50.00" x2="142.00" y2="50.00"/>
      <line x1="82.87" y1="52.88" x2="145.99" y2="58.40"/>
      <line x1="82.50" y1="55.73" x2="142.74" y2="66.35"/>
      <line x1="81.88" y1="58.54" x2="135.70" y2="72.96"/>
      <line x1="81.01" y1="61.29" x2="132.88" y2="80.16"/>
      <line x1="79.91" y1="63.95" x2="134.63" y2="89.46"/>
      <line x1="78.58" y1="66.50" x2="133.56" y2="98.25"/>
      <line x1="77.03" y1="68.93" x2="126.06" y2="103.26"/>
      <line x1="75.28" y1="71.21" x2="117.36" y2="106.52"/>
      <line x1="73.33" y1="73.33" x2="113.02" y2="113.02"/>
      <line x1="71.21" y1="75.28" x2="110.83" y2="122.49"/>
      <line x1="68.93" y1="77.03" x2="105.17" y2="128.80"/>
      <line x1="66.50" y1="78.58" x2="95.73" y2="129.21"/>
      <line x1="63.95" y1="79.91" x2="87.00" y2="129.34"/>
      <line x1="61.29" y1="81.01" x2="80.89" y2="134.87"/>
      <line x1="58.54" y1="81.88" x2="74.75" y2="142.36"/>
      <line x1="55.73" y1="82.50" x2="66.58" y2="144.04"/>
      <line x1="52.88" y1="82.87" x2="57.85" y2="139.77"/>
      <line x1="50.00" y1="83.00" x2="50.00" y2="137.57"/>
      <line x1="47.12" y1="82.87" x2="42.01" y2="141.33"/>
      <line x1="44.27" y1="82.50" x2="33.28" y2="144.80"/>
      <line x1="41.46" y1="81.88" x2="25.55" y2="141.23"/>
      <line x1="38.71" y1="81.01" x2="19.58" y2="133.59"/>
      <line x1="36.05" y1="79.91" x2="12.80" y2="129.79"/>
      <line x1="33.50" y1="78.58" x2="3.47" y2="130.60"/>
      <line x1="31.07" y1="77.03" x2="-5.35" y2="129.05"/>
      <line x1="28.79" y1="75.28" x2="-9.89" y2="121.37"/>
      <line x1="26.67" y1="73.33" x2="-12.29" y2="112.29"/>
      <line x1="24.72" y1="71.21" x2="-18.08" y2="107.13"/>
      <line x1="22.97" y1="68.93" x2="-27.29" y2="104.12"/>
      <line x1="21.42" y1="66.50" x2="-33.40" y2="98.15"/>
      <line x1="20.09" y1="63.95" x2="-33.18" y2="88.79"/>
      <line x1="18.99" y1="61.29" x2="-32.31" y2="79.96"/>
      <line x1="18.12" y1="58.54" x2="-36.95" y2="73.30"/>
      <line x1="17.50" y1="55.73" x2="-43.97" y2="66.57"/>
      <line x1="17.13" y1="52.88" x2="-45.32" y2="58.34"/>
      <line x1="17.00" y1="50.00" x2="-40.41" y2="50.00"/>
      <line x1="17.13" y1="47.12" x2="-37.19" y2="42.37"/>
      <line x1="17.50" y1="44.27" x2="-39.97" y2="34.14"/>
      <line x1="18.12" y1="41.46" x2="-42.88" y2="25.11"/>
      <line x1="18.99" y1="38.71" x2="-39.00" y2="17.61"/>
      <line x1="20.09" y1="36.05" x2="-30.84" y2="12.30"/>
      <line x1="21.42" y1="33.50" x2="-26.12" y2="6.05"/>
      <line x1="22.97" y1="31.07" x2="-25.98" y2="-3.20"/>
      <line x1="24.72" y1="28.79" x2="-23.91" y2="-12.02"/>
      <line x1="26.67" y1="26.67" x2="-16.10" y2="-16.10"/>
      <line x1="28.79" y1="24.72" x2="-6.73" y2="-17.61"/>
      <line x1="31.07" y1="22.97" x2="-0.85" y2="-22.62"/>
      <line x1="33.50" y1="21.42" x2="2.96" y2="-31.47"/>
      <line x1="36.05" y1="20.09" x2="9.27" y2="-37.35"/>
      <line x1="38.71" y1="18.99" x2="18.50" y2="-36.55"/>
      <line x1="41.46" y1="18.12" x2="27.31" y2="-34.68"/>
      <line x1="44.27" y1="17.50" x2="34.42" y2="-38.37"/>
      <line x1="47.12" y1="17.13" x2="41.70" y2="-44.84"/>
      <line x1="50.00" y1="17.00" x2="50.00" y2="-45.86"/>
      <line x1="52.88" y1="17.13" x2="57.91" y2="-40.38"/>
      <line x1="55.73" y1="17.50" x2="65.19" y2="-36.17"/>
      <line x1="58.54" y1="18.12" x2="73.56" y2="-37.94"/>
      <line x1="61.29" y1="18.99" x2="82.84" y2="-40.23"/>
      <line x1="63.95" y1="20.09" x2="90.13" y2="-36.07"/>
      <line x1="66.50" y1="21.42" x2="94.73" y2="-27.47"/>
      <line x1="68.93" y1="22.97" x2="100.34" y2="-21.90"/>
      <line x1="71.21" y1="24.72" x2="109.42" y2="-20.81"/>
      <line x1="73.33" y1="26.67" x2="118.20" y2="-18.20"/>
      <line x1="75.28" y1="28.79" x2="121.84" y2="-10.28"/>
      <line x1="77.03" y1="31.07" x2="122.45" y2="-0.73"/>
      <line x1="78.58" y1="33.50" x2="126.60" y2="5.78"/>
      <line x1="79.91" y1="36.05" x2="135.00" y2="10.36"/>
      <line x1="81.01" y1="38.71" x2="140.63" y2="17.01"/>
      <line x1="81.88" y1="41.46" x2="139.28" y2="26.08"/>
      <line x1="82.50" y1="44.27" x2="136.43" y2="34.76"/>
      <line x1="82.87" y1="47.12" x2="139.12" y2="42.20"/>
    </g>
    <circle cx="50" cy="50" r="18" fill="#f4f4f6"/>
  </g>
  <text x="392" y="336" font-family="-apple-system, BlinkMacSystemFont, &quot;Segoe UI&quot;, Roboto, Helvetica, Arial, sans-serif" font-weight="700" font-size="156" fill="#f4f4f6" letter-spacing="-4">starsight</text>
  <text x="392" y="396" font-family="-apple-system, BlinkMacSystemFont, &quot;Segoe UI&quot;, Roboto, Helvetica, Arial, sans-serif" font-size="26" fill="#a8a8b0">scientific visualization for Rust — typed, layered, eight backends</text>
  <text x="96" y="592" font-family="ui-monospace, SFMono-Regular, Menlo, Consolas, monospace" font-size="20" fill="#6b6b75">v0.3.0  ·  rust 1.89  ·  edition 2024  ·  GPL-3.0-only</text>
  <text x="1184" y="592" font-family="ui-monospace, SFMono-Regular, Menlo, Consolas, monospace" font-size="20" fill="#6b6b75" text-anchor="end">github.com/resonant-jovian/starsight</text>
</svg>
