<svg xmlns="http://www.w3.org/2000/svg" width="1100" height="850" viewBox="0 0 1100 850"><path fill="#1e1e1e" d="M0 0h1100v850H0z" shape-rendering="crispEdges"/><path fill="#1e1e1e" d="M63.4 64h457.8v308H63.4z" shape-rendering="crispEdges"/><text x="143.5" y="48" fill="#fff" font-family="sans-serif" font-size="16">
A — overall rating, histogram
</text><text x="267.1" y="407" fill="#ddd" font-family="sans-serif" font-size="12">
overall
</text><text x="38" y="236" fill="#ddd" font-family="sans-serif" font-size="12" transform="rotate(-90 38 236)">
count
</text><path fill="none" stroke="#3a3a3a" d="M63.4 372V64m91.56 308V64m91.56 308V64m91.56 308V64m91.56 308V64m91.56 308V64M63.4 372h457.8M63.4 295h457.8M63.4 218h457.8M63.4 141h457.8M63.4 64h457.8" shape-rendering="crispEdges"/><path fill="#37b" d="M63.4 367.781h22.89V372H63.4zm22.89 0h22.89V372H86.29zm22.89 0h22.89V372h-22.89zm22.89-42.192h22.89V372h-22.89zm22.89 16.877h22.89V372h-22.89zm22.89-75.945h22.89V372h-22.89zm22.89-29.535h22.89V372h-22.89zm22.89 0h22.89V372h-22.89zm22.89-12.657h22.89V372h-22.89zM269.41 64h22.89v308h-22.89zm22.89 42.192h22.89V372H292.3zm22.89 46.411h22.89V372h-22.89zm22.89-54.85h22.89V372h-22.89zm22.89 4.22h22.89V372h-22.89zm22.89 59.068h22.89V372h-22.89zm22.89 29.534h22.89V372h-22.89zm22.89 71.726h22.89V372h-22.89zm22.89 54.85h22.89V372h-22.89zm22.89 33.753h22.89V372h-22.89zm22.89 16.877h22.89V372h-22.89z" shape-rendering="crispEdges"/><path fill="none" stroke="#ccc" d="M63.4 372v5" shape-rendering="crispEdges"/><text x="56.2" y="389" fill="#ccc" font-family="sans-serif" font-size="12">
50
</text><path fill="none" stroke="#ccc" d="M154.96 372v5" shape-rendering="crispEdges"/><text x="147.76" y="389" fill="#ccc" font-family="sans-serif" font-size="12">
60
</text><path fill="none" stroke="#ccc" d="M246.52 372v5" shape-rendering="crispEdges"/><text x="239.32" y="389" fill="#ccc" font-family="sans-serif" font-size="12">
70
</text><path fill="none" stroke="#ccc" d="M338.08 372v5" shape-rendering="crispEdges"/><text x="330.88" y="389" fill="#ccc" font-family="sans-serif" font-size="12">
80
</text><path fill="none" stroke="#ccc" d="M429.64 372v5" shape-rendering="crispEdges"/><text x="422.44" y="389" fill="#ccc" font-family="sans-serif" font-size="12">
90
</text><path fill="none" stroke="#ccc" d="M521.2 372v5" shape-rendering="crispEdges"/><text x="510.4" y="389" fill="#ccc" font-family="sans-serif" font-size="12">
100
</text><path fill="none" stroke="#ccc" d="M63.4 372h-5" shape-rendering="crispEdges"/><text x="46" y="376.8" fill="#ccc" font-family="sans-serif" font-size="12">
0
</text><path fill="none" stroke="#ccc" d="M63.4 295h-5" shape-rendering="crispEdges"/><text x="39" y="299.8" fill="#ccc" font-family="sans-serif" font-size="12">
20
</text><path fill="none" stroke="#ccc" d="M63.4 218h-5" shape-rendering="crispEdges"/><text x="39" y="222.8" fill="#ccc" font-family="sans-serif" font-size="12">
40
</text><path fill="none" stroke="#ccc" d="M63.4 141h-5" shape-rendering="crispEdges"/><text x="39" y="145.8" fill="#ccc" font-family="sans-serif" font-size="12">
60
</text><path fill="none" stroke="#ccc" d="M63.4 64h-5" shape-rendering="crispEdges"/><text x="39" y="68.8" fill="#ccc" font-family="sans-serif" font-size="12">
80
</text><path fill="none" stroke="#000" d="M63.4 372h457.8M63.4 64v308" shape-rendering="crispEdges"/><path fill="#1e1e1e" d="M619.8 64h443.4v308H619.8z" shape-rendering="crispEdges"/><text x="721.5" y="48" fill="#fff" font-family="sans-serif" font-size="16">
B — overall rating, KDE
</text><text x="816.3" y="407" fill="#ddd" font-family="sans-serif" font-size="12">
overall
</text><text x="580" y="243.2" fill="#ddd" font-family="sans-serif" font-size="12" transform="rotate(-90 580 243.2)">
density
</text><path fill="none" stroke="#3a3a3a" d="M639.955 372V64m67.181 308V64m67.182 308V64M841.5 372V64m67.182 308V64m67.182 308V64m67.181 308V64M619.8 358h443.4m-443.4-56h443.4m-443.4-56h443.4m-443.4-56h443.4m-443.4-56h443.4M619.8 78h443.4" shape-rendering="crispEdges"/><path fill="#3a6" fill-opacity=".55" stroke="#000" stroke-opacity=".55" d="m696.24 356.827 1.63-.169 1.63-.173 1.63-.172 1.63-.169 1.63-.161 1.63-.152 1.63-.14 1.63-.13 1.63-.118 1.63-.11 1.63-.103 1.63-.103 1.63-.106 1.63-.116 1.63-.13 1.63-.152 1.63-.178 1.63-.214 1.63-.254 1.63-.305 1.63-.364 1.63-.434 1.63-.517 1.63-.613 1.63-.724 1.63-.847 1.63-.985 1.63-1.135 1.63-1.292 1.63-1.454 1.63-1.613 1.63-1.767 1.63-1.908 1.63-2.029 1.63-2.127 1.631-2.201 1.63-2.248 1.63-2.27 1.63-2.27 1.63-2.256 1.63-2.237 1.63-2.22 1.63-2.216 1.63-2.233 1.63-2.277 1.63-2.357 1.63-2.47 1.63-2.62 1.63-2.798 1.63-3 1.63-3.215 1.63-3.434 1.63-3.643 1.63-3.835 1.63-4 1.63-4.127 1.63-4.215 1.63-4.26 1.63-4.26 1.63-4.214 1.63-4.13 1.63-4.004 1.63-3.844 1.631-3.654 1.63-3.435 1.63-3.196 1.63-2.94 1.63-2.676 1.63-2.413 1.63-2.162 1.63-1.934 1.63-1.747 1.63-1.612 1.63-1.547 1.63-1.565 1.63-1.678 1.63-1.895 1.63-2.218 1.63-2.647 1.63-3.172 1.63-3.779 1.63-4.447 1.63-5.15 1.63-5.858 1.63-6.536 1.63-7.15 1.63-7.665 1.63-8.054 1.63-8.289 1.631-8.353 1.63-8.236 1.63-7.936 1.63-7.464 1.63-6.835 1.63-6.074 1.63-5.211 1.63-4.284 1.63-3.327 1.63-2.38 1.63-1.473 1.63-.642 1.63.09 1.63.705 1.63 1.189 1.63 1.536 1.63 1.746 1.63 1.83 1.63 1.794 1.63 1.66 1.63 1.445 1.63 1.169 1.63.858 1.63.533 1.63.216 1.631-.076 1.63-.326 1.63-.52 1.63-.654 1.63-.718 1.63-.715 1.63-.645 1.63-.515 1.63-.327 1.63-.091 1.63.185 1.63.497 1.63.835 1.63 1.193 1.63 1.565 1.63 1.945 1.63 2.326 1.63 2.7 1.63 3.062 1.63 3.403 1.63 3.718 1.63 4 1.63 4.244 1.63 4.447 1.63 4.606 1.63 4.727 1.63 4.809 1.631 4.86 1.63 4.89 1.63 4.903 1.63 4.912 1.63 4.925 1.63 4.946 1.63 4.984 1.63 5.036 1.63 5.108 1.63 5.192 1.63 5.287 1.63 5.386 1.63 5.483 1.63 5.572 1.63 5.65 1.63 5.71 1.63 5.752 1.63 5.772 1.63 5.774 1.63 5.756 1.63 5.719 1.63 5.665 1.63 5.597 1.63 5.513 1.63 5.414 1.63 5.301 1.631 5.173 1.63 5.03 1.63 4.87 1.63 4.696 1.63 4.506 1.63 4.302 1.63 4.085 1.63 3.856 1.63 3.618 1.63 3.373 1.63 3.122 1.63 2.87 1.63 2.618 1.63 2.368 1.63 2.126 1.63 1.892 1.63 1.67 1.63 1.462 1.63 1.27 1.63 1.095 1.63.941 1.63.806 1.63.689 1.63.59 1.63.51 1.63.443 1.631.389 1.63.344 1.63.307 1.63.277 1.63.25 1.63.225V358H696.24z" opacity=".55"/><path fill="none" stroke="#ccc" d="M639.955 372v5" shape-rendering="crispEdges"/><text x="632.755" y="389" fill="#ccc" font-family="sans-serif" font-size="12">
40
</text><path fill="none" stroke="#ccc" d="M707.136 372v5" shape-rendering="crispEdges"/><text x="699.936" y="389" fill="#ccc" font-family="sans-serif" font-size="12">
50
</text><path fill="none" stroke="#ccc" d="M774.318 372v5" shape-rendering="crispEdges"/><text x="767.118" y="389" fill="#ccc" font-family="sans-serif" font-size="12">
60
</text><path fill="none" stroke="#ccc" d="M841.5 372v5" shape-rendering="crispEdges"/><text x="834.3" y="389" fill="#ccc" font-family="sans-serif" font-size="12">
70
</text><path fill="none" stroke="#ccc" d="M908.682 372v5" shape-rendering="crispEdges"/><text x="901.482" y="389" fill="#ccc" font-family="sans-serif" font-size="12">
80
</text><path fill="none" stroke="#ccc" d="M975.864 372v5" shape-rendering="crispEdges"/><text x="968.664" y="389" fill="#ccc" font-family="sans-serif" font-size="12">
90
</text><path fill="none" stroke="#ccc" d="M1043.045 372v5" shape-rendering="crispEdges"/><text x="1032.245" y="389" fill="#ccc" font-family="sans-serif" font-size="12">
100
</text><path fill="none" stroke="#ccc" d="M619.8 358h-5" shape-rendering="crispEdges"/><text x="603" y="362.8" fill="#ccc" font-family="sans-serif" font-size="12">
0
</text><path fill="none" stroke="#ccc" d="M619.8 302h-5" shape-rendering="crispEdges"/><text x="582" y="306.8" fill="#ccc" font-family="sans-serif" font-size="12">
0.01
</text><path fill="none" stroke="#ccc" d="M619.8 246h-5" shape-rendering="crispEdges"/><text x="582" y="250.8" fill="#ccc" font-family="sans-serif" font-size="12">
0.02
</text><path fill="none" stroke="#ccc" d="M619.8 190h-5" shape-rendering="crispEdges"/><text x="582" y="194.8" fill="#ccc" font-family="sans-serif" font-size="12">
0.03
</text><path fill="none" stroke="#ccc" d="M619.8 134h-5" shape-rendering="crispEdges"/><text x="582" y="138.8" fill="#ccc" font-family="sans-serif" font-size="12">
0.04
</text><path fill="none" stroke="#ccc" d="M619.8 78h-5" shape-rendering="crispEdges"/><text x="582" y="82.8" fill="#ccc" font-family="sans-serif" font-size="12">
0.05
</text><path fill="none" stroke="#000" d="M619.8 372h443.4M619.8 64v308" shape-rendering="crispEdges"/><path fill="#1e1e1e" d="M70.6 481h450.6v308H70.6z" shape-rendering="crispEdges"/><text x="180.7" y="465" fill="#fff" font-family="sans-serif" font-size="16">
C — overall by country
</text><text x="270.7" y="824" fill="#ddd" font-family="sans-serif" font-size="12">
country
</text><text x="38" y="660.2" fill="#ddd" font-family="sans-serif" font-size="12" transform="rotate(-90 38 660.2)">
overall
</text><path fill="none" stroke="#3a3a3a" d="M70.6 789V481m75.1 308V481m75.1 308V481m75.1 308V481M371 789V481m75.1 308V481m75.1 308V481M70.6 775h450.6M70.6 719h450.6M70.6 663h450.6M70.6 607h450.6M70.6 551h450.6M70.6 495h450.6" shape-rendering="crispEdges"/><path fill="#37b" d="M81.865 584.141h52.57v58.387h-52.57z" shape-rendering="crispEdges"/><path fill="none" stroke="#000" d="M81.865 584.141h52.57v58.387h-52.57z" shape-rendering="crispEdges"/><path fill="none" stroke="#fff" stroke-width="2" d="M81.865 611.556h52.57" shape-rendering="crispEdges"/><path fill="none" stroke="#000" d="M108.15 584.141v-59.246m-13.143 0h26.285M108.15 642.528v64.979m-13.143 0h26.285" shape-rendering="crispEdges"/><path fill="#3a6" d="M156.965 604.745h52.57v54.189h-52.57z" shape-rendering="crispEdges"/><path fill="none" stroke="#000" d="M156.965 604.745h52.57v54.189h-52.57z" shape-rendering="crispEdges"/><path fill="none" stroke="#fff" stroke-width="2" d="M156.965 634.343h52.57" shape-rendering="crispEdges"/><path fill="none" stroke="#000" d="M183.25 604.745v-50.032m-13.142 0h26.285M183.25 658.934v44.043m-13.142 0h26.285" shape-rendering="crispEdges"/><path fill="#c80" d="M232.065 602.572h52.57v68.273h-52.57z" shape-rendering="crispEdges"/><path fill="none" stroke="#000" d="M232.065 602.572h52.57v68.274h-52.57z" shape-rendering="crispEdges"/><path fill="none" stroke="#fff" stroke-width="2" d="M232.065 633.829h52.57" shape-rendering="crispEdges"/><path fill="none" stroke="#000" d="M258.35 602.572V561.31m-13.142-.001h26.285M258.35 670.846v102.037m-13.142 0h26.285" shape-rendering="crispEdges"/><path fill="#c36" d="M307.165 598.497h52.57v54.99h-52.57z" shape-rendering="crispEdges"/><path fill="none" stroke="#000" d="M307.165 598.497h52.57v54.99h-52.57z" shape-rendering="crispEdges"/><path fill="none" stroke="#fff" stroke-width="2" d="M307.165 625.718h52.57" shape-rendering="crispEdges"/><path fill="none" stroke="#000" d="M333.45 598.497v-54.19m-13.142 0h26.284m-13.142 109.18v67.371m-13.142 0h26.284" shape-rendering="crispEdges"/><path fill="#839" d="M382.265 607.247h52.57v50.151h-52.57z" shape-rendering="crispEdges"/><path fill="none" stroke="#000" d="M382.265 607.247h52.57v50.151h-52.57z" shape-rendering="crispEdges"/><path fill="none" stroke="#fff" stroke-width="2" d="M382.265 632.094h52.57" shape-rendering="crispEdges"/><path fill="none" stroke="#000" d="M408.55 607.247V554.42m-13.142 0h26.284M408.55 657.398v72.822m-13.142 0h26.284" shape-rendering="crispEdges"/><path d="M411.55 744.336a3 3 0 1 1-6 0 3 3 0 0 1 6 0"/><path fill="#1ab" d="M457.365 626.359h52.57v52.911h-52.57z" shape-rendering="crispEdges"/><path fill="none" stroke="#000" d="M457.365 626.359h52.57v52.91h-52.57z" shape-rendering="crispEdges"/><path fill="none" stroke="#fff" stroke-width="2" d="M457.365 652.363h52.57" shape-rendering="crispEdges"/><path fill="none" stroke="#000" d="M483.65 626.359v-62.654m-13.142 0h26.284M483.65 679.27v75.376m-13.142 0h26.284" shape-rendering="crispEdges"/><text x="97.35" y="806" fill="#ccc" font-family="sans-serif" font-size="12">
BRA
</text><text x="172.45" y="806" fill="#ccc" font-family="sans-serif" font-size="12">
ARG
</text><text x="247.55" y="806" fill="#ccc" font-family="sans-serif" font-size="12">
ENG
</text><text x="322.65" y="806" fill="#ccc" font-family="sans-serif" font-size="12">
ESP
</text><text x="397.75" y="806" fill="#ccc" font-family="sans-serif" font-size="12">
GER
</text><text x="472.85" y="806" fill="#ccc" font-family="sans-serif" font-size="12">
FRA
</text><path fill="none" stroke="#ccc" d="M70.6 775h5" shape-rendering="crispEdges"/><text x="47" y="779.8" fill="#ccc" font-family="sans-serif" font-size="12">
50
</text><path fill="none" stroke="#ccc" d="M70.6 719h5" shape-rendering="crispEdges"/><text x="47" y="723.8" fill="#ccc" font-family="sans-serif" font-size="12">
60
</text><path fill="none" stroke="#ccc" d="M70.6 663h5" shape-rendering="crispEdges"/><text x="47" y="667.8" fill="#ccc" font-family="sans-serif" font-size="12">
70
</text><path fill="none" stroke="#ccc" d="M70.6 607h5" shape-rendering="crispEdges"/><text x="47" y="611.8" fill="#ccc" font-family="sans-serif" font-size="12">
80
</text><path fill="none" stroke="#ccc" d="M70.6 551h5" shape-rendering="crispEdges"/><text x="47" y="555.8" fill="#ccc" font-family="sans-serif" font-size="12">
90
</text><path fill="none" stroke="#ccc" d="M70.6 495h5" shape-rendering="crispEdges"/><text x="40" y="499.8" fill="#ccc" font-family="sans-serif" font-size="12">
100
</text><path fill="none" stroke="#000" d="M70.6 789h450.6M70.6 481v308" shape-rendering="crispEdges"/><path fill="#1e1e1e" d="M605.4 481h457.8v308H605.4z" shape-rendering="crispEdges"/><text x="709.5" y="465" fill="#fff" font-family="sans-serif" font-size="16">
D — overall vs potential
</text><text x="809.1" y="824" fill="#ddd" font-family="sans-serif" font-size="12">
overall
</text><text x="580" y="667.4" fill="#ddd" font-family="sans-serif" font-size="12" transform="rotate(-90 580 667.4)">
potential
</text><path fill="none" stroke="#3a3a3a" d="M626.21 789V481m83.235 308V481m83.237 308V481m83.236 308V481m83.237 308V481m83.235 308V481M605.4 775h457.8m-457.8-40h457.8m-457.8-40h457.8m-457.8-40h457.8m-457.8-40h457.8m-457.8-40h457.8m-457.8-40h457.8m-457.8-40h457.8" shape-rendering="crispEdges"/><path fill="#c80" fill-opacity=".45" d="M897.037 587.85a2 2 0 1 1-4 0 2 2 0 0 1 4 0m-92.275 64.904a2 2 0 1 1-4 0 2 2 0 0 1 4 0m31.056-67.567a2 2 0 1 1-4 0 2 2 0 0 1 4 0m137.3-16.244a2 2 0 1 1-4 0 2 2 0 0 1 4 0m-114.328-18.64a2 2 0 1 1-4 0 2 2 0 0 1 4 0m-77.693 98.108a2 2 0 1 1-4 0 2 2 0 0 1 4 0m17.445-23.3a2 2 0 1 1-4 0 2 2 0 0 1 4 0m12.873 31.004a2 2 0 1 1-4 0 2 2 0 0 1 4 0m59.928-71.913a2 2 0 1 1-4 0 2 2 0 0 1 4 0m81.597-53.496a2 2 0 1 1-4 0 2 2 0 0 1 4 0M821.982 640.957a2 2 0 1 1-4 0 2 2 0 0 1 4 0M700.409 759.306a2 2 0 1 1-4 0 2 2 0 0 1 4 0m174.289-156.75a2 2 0 1 1-4 0 2 2 0 0 1 4 0m18.219-48.755a2 2 0 1 1-4 0 2 2 0 0 1 4 0m-60.526 23.8a2 2 0 1 1-4 0 2 2 0 0 1 4 0m87.192-21.241a2 2 0 1 1-4 0 2 2 0 0 1 4 0m-105.46 83.548a2 2 0 1 1-4 0 2 2 0 0 1 4 0m-90.569 72.419a2 2 0 1 1-4 0 2 2 0 0 1 4 0m78.63-41.124a2 2 0 1 1-4 0 2 2 0 0 1 4 0m-4.937-19.864a2 2 0 1 1-4 0 2 2 0 0 1 4 0m57.729-55.98a2 2 0 1 1-4 0 2 2 0 0 1 4 0m103.8-61.832a2 2 0 1 1-4 0 2 2 0 0 1 4 0M858.604 568.7a2 2 0 1 1-4 0 2 2 0 0 1 4 0M728.175 725.79a2 2 0 1 1-4 0 2 2 0 0 1 4 0m149.608-135.977a2 2 0 1 1-4 0 2 2 0 0 1 4 0m-5.156 8.409a2 2 0 1 1-4 0 2 2 0 0 1 4 0m-43.048 41.305a2 2 0 1 1-4 0 2 2 0 0 1 4 0m19.924 2.61a2 2 0 1 1-4 0 2 2 0 0 1 4 0m106.133-107.706a2 2 0 1 1-4 0 2 2 0 0 1 4 0M808.788 647.69a2 2 0 1 1-4 0 2 2 0 0 1 4 0M903.5 542.64a2 2 0 1 1-4 0 2 2 0 0 1 4 0m-18.272 43.162a2 2 0 1 1-4 0 2 2 0 0 1 4 0m-10.687 19.812a2 2 0 1 1-4 0 2 2 0 0 1 4 0m-45.566 10.451a2 2 0 1 1-4 0 2 2 0 0 1 4 0m20.874-2.492a2 2 0 1 1-4 0 2 2 0 0 1 4 0m-77.705 7.365a2 2 0 1 1-4 0 2 2 0 0 1 4 0m171.459-92.61a2 2 0 1 1-4 0 2 2 0 0 1 4 0M804.154 653.354a2 2 0 1 1-4 0 2 2 0 0 1 4 0m-12.134 42.51a2 2 0 1 1-4 0 2 2 0 0 1 4 0m128.205-164.963a2 2 0 1 1-4 0 2 2 0 0 1 4 0m-107.703 86.53a2 2 0 1 1-4 0 2 2 0 0 1 4 0m-76.685 88.217a2 2 0 1 1-4 0 2 2 0 0 1 4 0m37.236-33.734a2 2 0 1 1-4 0 2 2 0 0 1 4 0m-75.817 75.932a2 2 0 1 1-4 0 2 2 0 0 1 4 0m150.58-166.592a2 2 0 1 1-4 0 2 2 0 0 1 4 0m79.54-7.485a2 2 0 1 1-4 0 2 2 0 0 1 4 0m6.58-33.354a2 2 0 1 1-4 0 2 2 0 0 1 4 0m-140.532 73.843a2 2 0 1 1-4 0 2 2 0 0 1 4 0m30.777 21.459a2 2 0 1 1-4 0 2 2 0 0 1 4 0m-7.164-22.549a2 2 0 1 1-4 0 2 2 0 0 1 4 0m-22.109 45.014a2 2 0 1 1-4 0 2 2 0 0 1 4 0M920.16 571.64a2 2 0 1 1-4 0 2 2 0 0 1 4 0M751.434 690.673a2 2 0 1 1-4 0 2 2 0 0 1 4 0m24.98-45.5a2 2 0 1 1-4 0 2 2 0 0 1 4 0m159.107-84.75a2 2 0 1 1-4 0 2 2 0 0 1 4 0M733.678 687.995a2 2 0 1 1-4 0 2 2 0 0 1 4 0m88.74-58.688a2 2 0 1 1-4 0 2 2 0 0 1 4 0m78.226-55.444a2 2 0 1 1-4 0 2 2 0 0 1 4 0m-21.617-12.565a2 2 0 1 1-4 0 2 2 0 0 1 4 0m-79.679 49.03a2 2 0 1 1-4 0 2 2 0 0 1 4 0m3.652 9.438a2 2 0 1 1-4 0 2 2 0 0 1 4 0m22.107 6.078a2 2 0 1 1-4 0 2 2 0 0 1 4 0m-92.901 71.449a2 2 0 1 1-4 0 2 2 0 0 1 4 0m107.538-83.716a2 2 0 1 1-4 0 2 2 0 0 1 4 0m15.547-10.293a2 2 0 1 1-4 0 2 2 0 0 1 4 0m6.451-2.592a2 2 0 1 1-4 0 2 2 0 0 1 4 0m-45.515 64.298a2 2 0 1 1-4 0 2 2 0 0 1 4 0m-51.583 42.774a2 2 0 1 1-4 0 2 2 0 0 1 4 0m28.71-33.85a2 2 0 1 1-4 0 2 2 0 0 1 4 0m20.323-72.874a2 2 0 1 1-4 0 2 2 0 0 1 4 0m71.863-70.258a2 2 0 1 1-4 0 2 2 0 0 1 4 0M759.137 652.286a2 2 0 1 1-4 0 2 2 0 0 1 4 0m49.382-33.803a2 2 0 1 1-4 0 2 2 0 0 1 4 0m-113.75 84.303a2 2 0 1 1-4 0 2 2 0 0 1 4 0m143.19-67.199a2 2 0 1 1-4 0 2 2 0 0 1 4 0m9.669 4.955a2 2 0 1 1-4 0 2 2 0 0 1 4 0m32.22-83.71a2 2 0 1 1-4 0 2 2 0 0 1 4 0m4.555 41.707a2 2 0 1 1-4 0 2 2 0 0 1 4 0m-105.34 56.574a2 2 0 1 1-4 0 2 2 0 0 1 4 0m162.801-96.45a2 2 0 1 1-4 0 2 2 0 0 1 4 0M820.856 647.07a2 2 0 1 1-4 0 2 2 0 0 1 4 0m-13.42 16.355a2 2 0 1 1-4 0 2 2 0 0 1 4 0m-70.218 60.111a2 2 0 1 1-4 0 2 2 0 0 1 4 0m121.873-161.192a2 2 0 1 1-4 0 2 2 0 0 1 4 0m-47.197 78.19a2 2 0 1 1-4 0 2 2 0 0 1 4 0m-16.832-4.801a2 2 0 1 1-4 0 2 2 0 0 1 4 0m-17.038 46.568a2 2 0 1 1-4 0 2 2 0 0 1 4 0m139.76-130.927a2 2 0 1 1-4 0 2 2 0 0 1 4 0m-57.642 13.309a2 2 0 1 1-4 0 2 2 0 0 1 4 0m25.373 35.074a2 2 0 1 1-4 0 2 2 0 0 1 4 0m-77.76 18.147a2 2 0 1 1-4 0 2 2 0 0 1 4 0m50.938-28.648a2 2 0 1 1-4 0 2 2 0 0 1 4 0m-3.435 18.363a2 2 0 1 1-4 0 2 2 0 0 1 4 0m14.623-30.477a2 2 0 1 1-4 0 2 2 0 0 1 4 0m-37.836 38.618a2 2 0 1 1-4 0 2 2 0 0 1 4 0m-22.294-2.498a2 2 0 1 1-4 0 2 2 0 0 1 4 0m56.357-25.694a2 2 0 1 1-4 0 2 2 0 0 1 4 0m-33.545 75.11a2 2 0 1 1-4 0 2 2 0 0 1 4 0M803.012 681a2 2 0 1 1-4 0 2 2 0 0 1 4 0m107.285-100.893a2 2 0 1 1-4 0 2 2 0 0 1 4 0m-125.22 60.103a2 2 0 1 1-4 0 2 2 0 0 1 4 0m37.903-17.33a2 2 0 1 1-4 0 2 2 0 0 1 4 0m-79.924 93.212a2 2 0 1 1-4 0 2 2 0 0 1 4 0M906.778 592.54a2 2 0 1 1-4 0 2 2 0 0 1 4 0m-18.782-37.826a2 2 0 1 1-4 0 2 2 0 0 1 4 0m-84.86 116.147a2 2 0 1 1-4 0 2 2 0 0 1 4 0m2.672-6.781a2 2 0 1 1-4 0 2 2 0 0 1 4 0m75.675-92.896a2 2 0 1 1-4 0 2 2 0 0 1 4 0m.778 18.06a2 2 0 1 1-4 0 2 2 0 0 1 4 0m-29.01 16.52a2 2 0 1 1-4 0 2 2 0 0 1 4 0m-44.213 18.514a2 2 0 1 1-4 0 2 2 0 0 1 4 0m13.361 1.4a2 2 0 1 1-4 0 2 2 0 0 1 4 0m48.893-29.473a2 2 0 1 1-4 0 2 2 0 0 1 4 0m42.429-38.006a2 2 0 1 1-4 0 2 2 0 0 1 4 0m-46.857 39.694a2 2 0 1 1-4 0 2 2 0 0 1 4 0m-37.183 47.587a2 2 0 1 1-4 0 2 2 0 0 1 4 0m42.872-69.858a2 2 0 1 1-4 0 2 2 0 0 1 4 0m127.403-42.567a2 2 0 1 1-4 0 2 2 0 0 1 4 0m-187.662 86.69a2 2 0 1 1-4 0 2 2 0 0 1 4 0m-54.565 66.277a2 2 0 1 1-4 0 2 2 0 0 1 4 0M902.63 562.931a2 2 0 1 1-4 0 2 2 0 0 1 4 0m-53.266 12.138a2 2 0 1 1-4 0 2 2 0 0 1 4 0m-62.221 92.51a2 2 0 1 1-4 0 2 2 0 0 1 4 0m83.029-55.303a2 2 0 1 1-4 0 2 2 0 0 1 4 0m-47.328 10.942a2 2 0 1 1-4 0 2 2 0 0 1 4 0m75.953-47.829a2 2 0 1 1-4 0 2 2 0 0 1 4 0m-127.45 83.579a2 2 0 1 1-4 0 2 2 0 0 1 4 0m109.756-97.642a2 2 0 1 1-4 0 2 2 0 0 1 4 0m-68.672 1.623a2 2 0 1 1-4 0 2 2 0 0 1 4 0m26.738 77.343a2 2 0 1 1-4 0 2 2 0 0 1 4 0m-81.977 41.56a2 2 0 1 1-4 0 2 2 0 0 1 4 0m127.598-100.55a2 2 0 1 1-4 0 2 2 0 0 1 4 0m-89.408 81.735a2 2 0 1 1-4 0 2 2 0 0 1 4 0m-44.905 46.444a2 2 0 1 1-4 0 2 2 0 0 1 4 0m7.554-50.129a2 2 0 1 1-4 0 2 2 0 0 1 4 0m156.58-92.946a2 2 0 1 1-4 0 2 2 0 0 1 4 0M872.012 577a2 2 0 1 1-4 0 2 2 0 0 1 4 0m20.297-13.926a2 2 0 1 1-4 0 2 2 0 0 1 4 0M708.684 701.26a2 2 0 1 1-4 0 2 2 0 0 1 4 0m105.024-30.198a2 2 0 1 1-4 0 2 2 0 0 1 4 0m70.904-65.484a2 2 0 1 1-4 0 2 2 0 0 1 4 0m-152.716 86.294a2 2 0 1 1-4 0 2 2 0 0 1 4 0m183.632-106.816a2 2 0 1 1-4 0 2 2 0 0 1 4 0m-20.07-14.761a2 2 0 1 1-4 0 2 2 0 0 1 4 0m-13.72 30.24a2 2 0 1 1-4.001 0 2 2 0 0 1 4 0m39.36-52.761a2 2 0 1 1-4 0 2 2 0 0 1 4 0M795.41 621.613a2 2 0 1 1-4 0 2 2 0 0 1 4 0m110.37-40.131a2 2 0 1 1-4 0 2 2 0 0 1 4 0m-169.898 107.59a2 2 0 1 1-4 0 2 2 0 0 1 4 0m111.249-60.64a2 2 0 1 1-4 0 2 2 0 0 1 4 0m3.495-65.905a2 2 0 1 1-4 0 2 2 0 0 1 4 0m26.97 23.274a2 2 0 1 1-4 0 2 2 0 0 1 4 0M711.693 753.44a2 2 0 1 1-4 0 2 2 0 0 1 4 0M816.77 639.541a2 2 0 1 1-4 0 2 2 0 0 1 4 0m-77.402-15.057a2 2 0 1 1-4 0 2 2 0 0 1 4 0M631.356 760.183a2 2 0 1 1-4 0 2 2 0 0 1 4 0m185.951-142.718a2 2 0 1 1-4 0 2 2 0 0 1 4 0m58.338-7.328a2 2 0 1 1-4 0 2 2 0 0 1 4 0M859.9 551.213a2 2 0 1 1-4 0 2 2 0 0 1 4 0m-3.398 43.68a2 2 0 1 1-4 0 2 2 0 0 1 4 0m39.042-42.435a2 2 0 1 1-4 0 2 2 0 0 1 4 0m-81.825 56.638a2 2 0 1 1-4 0 2 2 0 0 1 4 0m157.384-88.167a2 2 0 1 1-4 0 2 2 0 0 1 4 0M848.9 595.12a2 2 0 1 1-4 0 2 2 0 0 1 4 0m-135.047 1.05a2 2 0 1 1-4 0 2 2 0 0 1 4 0m212.191-32.674a2 2 0 1 1-4 0 2 2 0 0 1 4 0m21.562-28.886a2 2 0 1 1-4 0 2 2 0 0 1 4 0m-192.64 131.81a2 2 0 1 1-4 0 2 2 0 0 1 4 0m138.719-69.014a2 2 0 1 1-4 0 2 2 0 0 1 4 0M773.9 655.244a2 2 0 1 1-4 0 2 2 0 0 1 4 0m-27.492 44.212a2 2 0 1 1-4 0 2 2 0 0 1 4 0m77.844-67.285a2 2 0 1 1-4 0 2 2 0 0 1 4 0m46.826-45.643a2 2 0 1 1-4 0 2 2 0 0 1 4 0m47.07-30.942a2 2 0 1 1-4 0 2 2 0 0 1 4 0m-178.582 102.06a2 2 0 1 1-4 0 2 2 0 0 1 4 0m6.21-14.433a2 2 0 1 1-4 0 2 2 0 0 1 4 0m-21.133-7.28a2 2 0 1 1-4 0 2 2 0 0 1 4 0m60.56 24.485a2 2 0 1 1-4 0 2 2 0 0 1 4 0m49.712-56.736a2 2 0 1 1-4 0 2 2 0 0 1 4 0m6.219-14.346a2 2 0 1 1-4 0 2 2 0 0 1 4 0M731.256 676.96a2 2 0 1 1-4 0 2 2 0 0 1 4 0m77.042-6.405a2 2 0 1 1-4 0 2 2 0 0 1 4 0m-35.625-24.38a2 2 0 1 1-4 0 2 2 0 0 1 4 0m69.637-2.308a2 2 0 1 1-4 0 2 2 0 0 1 4 0m19.094-80.711a2 2 0 1 1-4 0 2 2 0 0 1 4 0m-141.14 150.788a2 2 0 1 1-4 0 2 2 0 0 1 4 0M889.8 576.834a2 2 0 1 1-4 0 2 2 0 0 1 4 0M761.42 720.883a2 2 0 1 1-4 0 2 2 0 0 1 4 0m80.392-102.963a2 2 0 1 1-4 0 2 2 0 0 1 4 0m19.11-3.556a2 2 0 1 1-4 0 2 2 0 0 1 4 0m51.581-78.955a2 2 0 1 1-4 0 2 2 0 0 1 4 0M751.931 641.92a2 2 0 1 1-4 0 2 2 0 0 1 4 0m130.75-23.705a2 2 0 1 1-4 0 2 2 0 0 1 4 0m22.925-86.043a2 2 0 1 1-4 0 2 2 0 0 1 4 0m-129.94 157.972a2 2 0 1 1-4 0 2 2 0 0 1 4 0m44.303-78.634a2 2 0 1 1-4 0 2 2 0 0 1 4 0m104.688-73.67a2 2 0 1 1-4 0 2 2 0 0 1 4 0m-99.445 78.077a2 2 0 1 1-4 0 2 2 0 0 1 4 0m79.279-59.198a2 2 0 1 1-4 0 2 2 0 0 1 4 0m-74.22 73.057a2 2 0 1 1-4 0 2 2 0 0 1 4 0m-41.44 60.527a2 2 0 1 1-4 0 2 2 0 0 1 4 0m-30.754-80.139a2 2 0 1 1-4 0 2 2 0 0 1 4 0m116.783 26.965a2 2 0 1 1-4 0 2 2 0 0 1 4 0m-91.198 27.205a2 2 0 1 1-4 0 2 2 0 0 1 4 0m-56.337 102.203a2 2 0 1 1-4 0 2 2 0 0 1 4 0m197.072-203.37a2 2 0 1 1-4 0 2 2 0 0 1 4 0m-78.179 42.828a2 2 0 1 1-4 0 2 2 0 0 1 4 0m-35.734 7.178a2 2 0 1 1-4 0 2 2 0 0 1 4 0m-75.223 30.173a2 2 0 1 1-4 0 2 2 0 0 1 4 0m78.745-33.996a2 2 0 1 1-4 0 2 2 0 0 1 4 0m14.315 54.05a2 2 0 1 1-4 0 2 2 0 0 1 4 0m-123.584-6.314a2 2 0 1 1-4 0 2 2 0 0 1 4 0m142.698-37.38a2 2 0 1 1-4 0 2 2 0 0 1 4 0m-6.117-32.592a2 2 0 1 1-4 0 2 2 0 0 1 4 0m-75.404 118.78a2 2 0 1 1-4 0 2 2 0 0 1 4 0m11.986-61.066a2 2 0 1 1-4 0 2 2 0 0 1 4 0m63.887-1.282a2 2 0 1 1-4 0 2 2 0 0 1 4 0m-60.8 75.132a2 2 0 1 1-4 0 2 2 0 0 1 4 0m-83.112-114.023a2 2 0 1 1-4 0 2 2 0 0 1 4 0m101.256 72.504a2 2 0 1 1-4 0 2 2 0 0 1 4 0m-37.473-27.26a2 2 0 1 1-4 0 2 2 0 0 1 4 0m80.966-49.541a2 2 0 1 1-4 0 2 2 0 0 1 4 0m22.676 27.638a2 2 0 1 1-4 0 2 2 0 0 1 4 0m-59.464 2.222a2 2 0 1 1-4 0 2 2 0 0 1 4 0m19.241-20.036a2 2 0 1 1-4 0 2 2 0 0 1 4 0m69.237-5.65a2 2 0 1 1-4 0 2 2 0 0 1 4 0m-28.662-13.535a2 2 0 1 1-4 0 2 2 0 0 1 4 0m-15.906 22.512a2 2 0 1 1-4 0 2 2 0 0 1 4 0m-106.773 17.998a2 2 0 1 1-4 0 2 2 0 0 1 4 0m192.933-96.486a2 2 0 1 1-4 0 2 2 0 0 1 4 0m-123.959 73.55a2 2 0 1 1-4 0 2 2 0 0 1 4 0m94.892-48.237a2 2 0 1 1-4 0 2 2 0 0 1 4 0m32.205-11.858a2 2 0 1 1-4 0 2 2 0 0 1 4 0m-69.41 75.869a2 2 0 1 1-4 0 2 2 0 0 1 4 0m51.757-71.52a2 2 0 1 1-4 0 2 2 0 0 1 4 0m-116.64 80.542a2 2 0 1 1-4 0 2 2 0 0 1 4 0m28.073-41.694a2 2 0 1 1-4 0 2 2 0 0 1 4 0m-20.709 109.419a2 2 0 1 1-4 0 2 2 0 0 1 4 0m60.306-106.206a2 2 0 1 1-4 0 2 2 0 0 1 4 0m54.782-44.983a2 2 0 1 1-4 0 2 2 0 0 1 4 0M728.312 760.447a2 2 0 1 1-4 0 2 2 0 0 1 4 0m81.872-101.916a2 2 0 1 1-4 0 2 2 0 0 1 4 0m-8.515-9.126a2 2 0 1 1-4 0 2 2 0 0 1 4 0m74.549-32.792a2 2 0 1 1-4 0 2 2 0 0 1 4 0m51.602-70.173a2 2 0 1 1-4 0 2 2 0 0 1 4 0M728.127 661.139a2 2 0 1 1-4 0 2 2 0 0 1 4 0m150.876-56.142a2 2 0 1 1-4 0 2 2 0 0 1 4 0m34.793-44.796a2 2 0 1 1-4 0 2 2 0 0 1 4 0m-152.547 70.013a2 2 0 1 1-4 0 2 2 0 0 1 4 0m139.635-34.408a2 2 0 1 1-4 0 2 2 0 0 1 4 0m-45.265-23.3a2 2 0 1 1-4 0 2 2 0 0 1 4 0m-1.672 28.359a2 2 0 1 1-4 0 2 2 0 0 1 4 0m38.88-16.19a2 2 0 1 1-4 0 2 2 0 0 1 4 0m-8.042 28.287a2 2 0 1 1-4 0 2 2 0 0 1 4 0m-58.571 30.168a2 2 0 1 1-4 0 2 2 0 0 1 4 0m-19.864-16.854a2 2 0 1 1-4 0 2 2 0 0 1 4 0m-55.177 44.596a2 2 0 1 1-4 0 2 2 0 0 1 4 0m170.028-118.093a2 2 0 1 1-4 0 2 2 0 0 1 4 0M846.249 664.99a2 2 0 1 1-4 0 2 2 0 0 1 4 0m-76.657-4.588a2 2 0 1 1-4 0 2 2 0 0 1 4 0m-12.418 32.57a2 2 0 1 1-4 0 2 2 0 0 1 4 0m23.406 7.844a2 2 0 1 1-4 0 2 2 0 0 1 4 0m50.036-79.934a2 2 0 1 1-4 0 2 2 0 0 1 4 0m99.637-77.405a2 2 0 1 1-4 0 2 2 0 0 1 4 0m-35.743 45.768a2 2 0 1 1-4 0 2 2 0 0 1 4 0m19.698-37.43a2 2 0 1 1-4 0 2 2 0 0 1 4 0m-210.656 71.317a2 2 0 1 1-4 0 2 2 0 0 1 4 0m121.844 27.54a2 2 0 1 1-4 0 2 2 0 0 1 4 0m-3.055-78.65a2 2 0 1 1-4 0 2 2 0 0 1 4 0M715.634 746.459a2 2 0 1 1-4 0 2 2 0 0 1 4 0m196.263-190.258a2 2 0 1 1-4 0 2 2 0 0 1 4 0M673.787 718.72a2 2 0 1 1-4 0 2 2 0 0 1 4 0m133.743-85.57a2 2 0 1 1-4 0 2 2 0 0 1 4 0m24.17-13.482a2 2 0 1 1-4 0 2 2 0 0 1 4 0m-10.19 62.347a2 2 0 1 1-4 0 2 2 0 0 1 4 0m-.371-69.834a2 2 0 1 1-4 0 2 2 0 0 1 4 0m113.675-68.6a2 2 0 1 1-4 0 2 2 0 0 1 4 0M740.98 719.437a2 2 0 1 1-4 0 2 2 0 0 1 4 0m24.279-15.636a2 2 0 1 1-4 0 2 2 0 0 1 4 0m95.261-100.845a2 2 0 1 1-4 0 2 2 0 0 1 4 0m4.037-29.539a2 2 0 1 1-4 0 2 2 0 0 1 4 0m37.214 12.416a2 2 0 1 1-4 0 2 2 0 0 1 4 0m-96.74-.197a2 2 0 1 1-4 0 2 2 0 0 1 4 0m-62.68 97.29a2 2 0 1 1-4 0 2 2 0 0 1 4 0m75.727-55.834a2 2 0 1 1-4 0 2 2 0 0 1 4 0m119.452-74.951a2 2 0 1 1-4 0 2 2 0 0 1 4 0m-6.077 20.01a2 2 0 1 1-4 0 2 2 0 0 1 4 0m-239.717 120.81a2 2 0 1 1-4 0 2 2 0 0 1 4 0m225.413-102.468a2 2 0 1 1-4 0 2 2 0 0 1 4 0m-46.77 29.484a2 2 0 1 1-4 0 2 2 0 0 1 4 0m-36.497 19.285a2 2 0 1 1-4 0 2 2 0 0 1 4 0m40.577-35.748a2 2 0 1 1-4 0 2 2 0 0 1 4 0m39.826-31.58a2 2 0 1 1-4 0 2 2 0 0 1 4 0m-31.555-15.08a2 2 0 1 1-4 0 2 2 0 0 1 4 0m.586 18.845a2 2 0 1 1-4 0 2 2 0 0 1 4 0m-55.793 42.05a2 2 0 1 1-4 0 2 2 0 0 1 4 0m-65.037 71.037a2 2 0 1 1-4 0 2 2 0 0 1 4 0M905.78 570.945a2 2 0 1 1-4 0 2 2 0 0 1 4 0M746.733 673.268a2 2 0 1 1-4 0 2 2 0 0 1 4 0m83.916-60.677a2 2 0 1 1-4 0 2 2 0 0 1 4 0m5.799-17.413a2 2 0 1 1-4 0 2 2 0 0 1 4 0M822.93 632.34a2 2 0 1 1-4 0 2 2 0 0 1 4 0M658.462 740.08a2 2 0 1 1-4 0 2 2 0 0 1 4 0m195.533-115.913a2 2 0 1 1-4 0 2 2 0 0 1 4 0m-115.186 33.038a2 2 0 1 1-4 0 2 2 0 0 1 4 0m143.756-51.023a2 2 0 1 1-4 0 2 2 0 0 1 4 0m3.872-34.642a2 2 0 1 1-4 0 2 2 0 0 1 4 0m-33.49 21.113a2 2 0 1 1-4 0 2 2 0 0 1 4 0m-28.562 30.149a2 2 0 1 1-4 0 2 2 0 0 1 4 0m62.36-49.204a2 2 0 1 1-4 0 2 2 0 0 1 4 0m66.62-41.897a2 2 0 1 1-4 0 2 2 0 0 1 4 0m-123.404 103.84a2 2 0 1 1-4 0 2 2 0 0 1 4 0m-20.39 37.192a2 2 0 1 1-4 0 2 2 0 0 1 4 0m27.225-47.059a2 2 0 1 1-4 0 2 2 0 0 1 4 0m-82.745 46.357a2 2 0 1 1-4 0 2 2 0 0 1 4 0M765.565 626a2 2 0 1 1-4 0 2 2 0 0 1 4 0m114.177-42.3a2 2 0 1 1-4 0 2 2 0 0 1 4 0m52.297-54.272a2 2 0 1 1-4 0 2 2 0 0 1 4 0m-31.537 45.917a2 2 0 1 1-4 0 2 2 0 0 1 4 0M787.757 689.313a2 2 0 1 1-4 0 2 2 0 0 1 4 0M741.98 614.47a2 2 0 1 1-4 0 2 2 0 0 1 4 0m168.44-21.02a2 2 0 1 1-4 0 2 2 0 0 1 4 0m-96.447 87.321a2 2 0 1 1-4 0 2 2 0 0 1 4 0m131.858-124.099a2 2 0 1 1-4 0 2 2 0 0 1 4 0m-71.921 24.103a2 2 0 1 1-4 0 2 2 0 0 1 4 0m-4.7 59.363a2 2 0 1 1-4 0 2 2 0 0 1 4 0m-78.9-51.664a2 2 0 1 1-4 0 2 2 0 0 1 4 0m67.259 13.423a2 2 0 1 1-4 0 2 2 0 0 1 4 0m-47.397 72.708a2 2 0 1 1-4 0 2 2 0 0 1 4 0m73.255-74.396a2 2 0 1 1-4 0 2 2 0 0 1 4 0m-72.437 15.743a2 2 0 1 1-4 0 2 2 0 0 1 4 0m49.26-5.026a2 2 0 1 1-4 0 2 2 0 0 1 4 0m-.21 14.938a2 2 0 1 1-4 0 2 2 0 0 1 4 0m68.215-88.353a2 2 0 1 1-4 0 2 2 0 0 1 4 0M764.54 700.454a2 2 0 1 1-4 0 2 2 0 0 1 4 0m5.372-32.68a2 2 0 1 1-4 0 2 2 0 0 1 4 0m137.703-81.1a2 2 0 1 1-4 0 2 2 0 0 1 4 0M697.65 713.347a2 2 0 1 1-4 0 2 2 0 0 1 4 0m27.473-1.182a2 2 0 1 1-4 0 2 2 0 0 1 4 0m169.978-97.337a2 2 0 1 1-4 0 2 2 0 0 1 4 0m-132.33 43.326a2 2 0 1 1-4 0 2 2 0 0 1 4 0m57.168 5.105a2 2 0 1 1-4 0 2 2 0 0 1 4 0m96.902-91.886a2 2 0 1 1-4 0 2 2 0 0 1 4 0M805.235 623.95a2 2 0 1 1-4 0 2 2 0 0 1 4 0m33.339 10.435a2 2 0 1 1-4 0 2 2 0 0 1 4 0m103.694-59.875a2 2 0 1 1-4 0 2 2 0 0 1 4 0m-111.712 25.24a2 2 0 1 1-4 0 2 2 0 0 1 4 0M724.55 659.354a2 2 0 1 1-4 0 2 2 0 0 1 4 0m142.682-73.055a2 2 0 1 1-4 0 2 2 0 0 1 4 0m51.414 7.577a2 2 0 1 1-4 0 2 2 0 0 1 4 0m-162.515 66.702a2 2 0 1 1-4 0 2 2 0 0 1 4 0m88.413-23.086a2 2 0 1 1-4 0 2 2 0 0 1 4 0m57.546-50.603a2 2 0 1 1-4 0 2 2 0 0 1 4 0M786.71 616.06a2 2 0 1 1-4 0 2 2 0 0 1 4 0m37.4-24.857a2 2 0 1 1-4 0 2 2 0 0 1 4 0m39.572 25.713a2 2 0 1 1-4 0 2 2 0 0 1 4 0m-40.771 3.133a2 2 0 1 1-4 0 2 2 0 0 1 4 0m-32.396-.55a2 2 0 1 1-4 0 2 2 0 0 1 4 0m11.534 32.033a2 2 0 1 1-4 0 2 2 0 0 1 4 0m-2.605-43.086a2 2 0 1 1-4 0 2 2 0 0 1 4 0m17.727 12.763a2 2 0 1 1-4 0 2 2 0 0 1 4 0m98.451-51.155a2 2 0 1 1-4 0 2 2 0 0 1 4 0M855.79 596.52a2 2 0 1 1-4 0 2 2 0 0 1 4 0m102.655-49.802a2 2 0 1 1-4 0 2 2 0 0 1 4 0m-144.073 56.827a2 2 0 1 1-4 0 2 2 0 0 1 4 0m9.91 39.545a2 2 0 1 1-4 0 2 2 0 0 1 4 0m-14.623 20.064a2 2 0 1 1-4 0 2 2 0 0 1 4 0m24.461-30.228a2 2 0 1 1-4 0 2 2 0 0 1 4 0m68.955-36.641a2 2 0 1 1-4 0 2 2 0 0 1 4 0m41.41-29.359a2 2 0 1 1-4 0 2 2 0 0 1 4 0m-101.264 36.42a2 2 0 1 1-4 0 2 2 0 0 1 4 0m50.36-40.528a2 2 0 1 1-4 0 2 2 0 0 1 4 0m-34.905 39.398a2 2 0 1 1-4 0 2 2 0 0 1 4 0m8.556-9.975a2 2 0 1 1-4 0 2 2 0 0 1 4 0m-127.94 87.245a2 2 0 1 1-4 0 2 2 0 0 1 4 0m131.356-35.29a2 2 0 1 1-4 0 2 2 0 0 1 4 0m-101.43 3.302a2 2 0 1 1-4 0 2 2 0 0 1 4 0m110.489-63.55a2 2 0 1 1-4 0 2 2 0 0 1 4 0m-48.168 38.917a2 2 0 1 1-4 0 2 2 0 0 1 4 0m12.904-62.301a2 2 0 1 1-4 0 2 2 0 0 1 4 0m62.324-1.953a2 2 0 1 1-4 0 2 2 0 0 1 4 0m-95.517 50.615a2 2 0 1 1-4 0 2 2 0 0 1 4 0m-37.375 19.316a2 2 0 1 1-4 0 2 2 0 0 1 4 0m35.609 83.259a2 2 0 1 1-4 0 2 2 0 0 1 4 0m42.788-158.368a2 2 0 1 1-4 0 2 2 0 0 1 4 0m42.945 3.21a2 2 0 1 1-4 0 2 2 0 0 1 4 0m21.875-8.598a2 2 0 1 1-4 0 2 2 0 0 1 4 0m-20.566 41.151a2 2 0 1 1-4 0 2 2 0 0 1 4 0m-83.913 28.371a2 2 0 1 1-4 0 2 2 0 0 1 4 0m6.656-35.827a2 2 0 1 1-4 0 2 2 0 0 1 4 0M738.08 733.914a2 2 0 1 1-4 0 2 2 0 0 1 4 0M915.465 584.75a2 2 0 1 1-4 0 2 2 0 0 1 4 0M746.678 722.404a2 2 0 1 1-4 0 2 2 0 0 1 4 0M953.212 520.14a2 2 0 1 1-4 0 2 2 0 0 1 4 0M828.195 626.416a2 2 0 1 1-4 0 2 2 0 0 1 4 0m52.012-19.1a2 2 0 1 1-4 0 2 2 0 0 1 4 0M849 593.085a2 2 0 1 1-4 0 2 2 0 0 1 4 0m11.482-1.578a2 2 0 1 1-4 0 2 2 0 0 1 4 0m20.803-5.554a2 2 0 1 1-4 0 2 2 0 0 1 4 0m22.349-18.756a2 2 0 1 1-4 0 2 2 0 0 1 4 0m-111.797 86.891a2 2 0 1 1-4 0 2 2 0 0 1 4 0m-1.929 13.09a2 2 0 1 1-4 0 2 2 0 0 1 4 0m179.57-151.854a2 2 0 1 1-4 0 2 2 0 0 1 4 0M856.766 645.136a2 2 0 1 1-4 0 2 2 0 0 1 4 0m-70.522 23.288a2 2 0 1 1-4 0 2 2 0 0 1 4 0m111.398-109.03a2 2 0 1 1-4 0 2 2 0 0 1 4 0m-58.004 34.926a2 2 0 1 1-4 0 2 2 0 0 1 4 0m-36.611-29.22a2 2 0 1 1-4 0 2 2 0 0 1 4 0m27.032 49.038a2 2 0 1 1-4 0 2 2 0 0 1 4 0m-30.487 33.23a2 2 0 1 1-4 0 2 2 0 0 1 4 0m28.143-95.01a2 2 0 1 1-4 0 2 2 0 0 1 4 0m-24.785 146.27a2 2 0 1 1-4-.001 2 2 0 0 1 4 0m-7.166-31.751a2 2 0 1 1-4 0 2 2 0 0 1 4 0m73.435-93.49a2 2 0 1 1-4 0 2 2 0 0 1 4 0m17.774 10.443a2 2 0 1 1-4 0 2 2 0 0 1 4 0m-13.654 18.034a2 2 0 1 1-4 0 2 2 0 0 1 4 0m-67.854 26.185a2 2 0 1 1-4 0 2 2 0 0 1 4 0m114.923-61.529a2 2 0 1 1-4 0 2 2 0 0 1 4 0M748.26 602.443a2 2 0 1 1-4 0 2 2 0 0 1 4 0m174.533-31.007a2 2 0 1 1-4 0 2 2 0 0 1 4 0M754.767 683.231a2 2 0 1 1-4 0 2 2 0 0 1 4 0m56.786-2.945a2 2 0 1 1-4 0 2 2 0 0 1 4 0M689.66 598.338a2 2 0 1 1-4 0 2 2 0 0 1 4 0m274.936-83.237a2 2 0 1 1-4 0 2 2 0 0 1 4 0m-136.42 135.463a2 2 0 1 1-4 0 2 2 0 0 1 4 0m-77.755 6.398a2 2 0 1 1-4 0 2 2 0 0 1 4 0m199.93-97.947a2 2 0 1 1-4 0 2 2 0 0 1 4 0m-73.882 7.939a2 2 0 1 1-4 0 2 2 0 0 1 4 0m-13.861 22.54a2 2 0 1 1-4 0 2 2 0 0 1 4 0m9.038 14.065a2 2 0 1 1-4 0 2 2 0 0 1 4 0m32.4-59.437a2 2 0 1 1-4 0 2 2 0 0 1 4 0M707.698 730.28a2 2 0 1 1-4 0 2 2 0 0 1 4 0M925.11 558.736a2 2 0 1 1-4 0 2 2 0 0 1 4 0m-30.192 10.788a2 2 0 1 1-4 0 2 2 0 0 1 4 0m-37.587 17.531a2 2 0 1 1-4 0 2 2 0 0 1 4 0m82.78-71.929a2 2 0 1 1-4 0 2 2 0 0 1 4 0M756.853 644.73a2 2 0 1 1-4 0 2 2 0 0 1 4 0m135.556-37.878a2 2 0 1 1-4 0 2 2 0 0 1 4 0m-32.73 14.155a2 2 0 1 1-4 0 2 2 0 0 1 4 0m-36.419-5.718a2 2 0 1 1-4 0 2 2 0 0 1 4 0m39.991-61.163a2 2 0 1 1-4 0 2 2 0 0 1 4 0m-134.724 82.762a2 2 0 1 1-4 0 2 2 0 0 1 4 0m196.21-78.114a2 2 0 1 1-4 0 2 2 0 0 1 4 0m-72.087 43.323a2 2 0 1 1-4 0 2 2 0 0 1 4 0m-26.943 16.076a2 2 0 1 1-4 0 2 2 0 0 1 4 0m38.8-37.019a2 2 0 1 1-4 0 2 2 0 0 1 4 0m77.762-44.59a2 2 0 1 1-4 0 2 2 0 0 1 4 0m-73.137 48.982a2 2 0 1 1-4 0 2 2 0 0 1 4 0m9.82-47.94a2 2 0 1 1-4 0 2 2 0 0 1 4 0M839.5 589.463a2 2 0 1 1-4 0 2 2 0 0 1 4 0m-130.736 81.646a2 2 0 1 1-4 0 2 2 0 0 1 4 0m127.532-44.828a2 2 0 1 1-4 0 2 2 0 0 1 4 0m2.233 6.47a2 2 0 1 1-4 0 2 2 0 0 1 4 0m12.52-67.108a2 2 0 1 1-4 0 2 2 0 0 1 4 0m-54.291 88.84a2 2 0 1 1-4 0 2 2 0 0 1 4 0m42.893-67.267a2 2 0 1 1-4 0 2 2 0 0 1 4 0m85.49-40.698a2 2 0 1 1-4 0 2 2 0 0 1 4 0m-176.347 94.416a2 2 0 1 1-4 0 2 2 0 0 1 4 0m15.344-28.844a2 2 0 1 1-4 0 2 2 0 0 1 4 0m135.771-65.031a2 2 0 1 1-4 0 2 2 0 0 1 4 0m55.49-15.387a2 2 0 1 1-4.001 0 2 2 0 0 1 4 0m-17.22 8.443a2 2 0 1 1-4 0 2 2 0 0 1 4 0m-130.28 136.492a2 2 0 1 1-4 0 2 2 0 0 1 4 0m42.428-103.704a2 2 0 1 1-4 0 2 2 0 0 1 4 0m-42.339 89.137a2 2 0 1 1-4 0 2 2 0 0 1 4 0m21.395-36.503a2 2 0 1 1-4 0 2 2 0 0 1 4 0m-17.13 22.43a2 2 0 1 1-4 0 2 2 0 0 1 4 0m75.733-76.618a2 2 0 1 1-4 0 2 2 0 0 1 4 0M914 580.915a2 2 0 1 1-4 0 2 2 0 0 1 4 0m-55.616 39.207a2 2 0 1 1-4 0 2 2 0 0 1 4 0m-65.672.857a2 2 0 1 1-4 0 2 2 0 0 1 4 0m144.312-86.634a2 2 0 1 1-4 0 2 2 0 0 1 4 0m-170.83 189.09a2 2 0 1 1-4 0 2 2 0 0 1 4 0m130.33-177.943a2 2 0 1 1-4.001 0 2 2 0 0 1 4 0m-25.984 48.22a2 2 0 1 1-4 0 2 2 0 0 1 4 0m-10.69-4.014a2 2 0 1 1-4 0 2 2 0 0 1 4 0M693.537 701.961a2 2 0 1 1-4 0 2 2 0 0 1 4 0m147.494-73.465a2 2 0 1 1-4 0 2 2 0 0 1 4 0m-33.848-11.237a2 2 0 1 1-4 0 2 2 0 0 1 4 0m17.404 29.184a2 2 0 1 1-4 0 2 2 0 0 1 4 0m-58.33-43.986a2 2 0 1 1-4 0 2 2 0 0 1 4 0m106.414 27.019a2 2 0 1 1-4 0 2 2 0 0 1 4 0m-71.234 27.538a2 2 0 1 1-4 0 2 2 0 0 1 4 0M910.99 544.951a2 2 0 1 1-4 0 2 2 0 0 1 4 0m-81.428 38.16a2 2 0 1 1-4 0 2 2 0 0 1 4 0m-18.568 20.39a2 2 0 1 1-4 0 2 2 0 0 1 4 0m19.682-17.885a2 2 0 1 1-4 0 2 2 0 0 1 4 0M748.18 712.562a2 2 0 1 1-4 0 2 2 0 0 1 4 0m11.69-45.658a2 2 0 1 1-4 0 2 2 0 0 1 4 0m213.584-143.283a2 2 0 1 1-4 0 2 2 0 0 1 4 0m-110.761 97.096a2 2 0 1 1-4 0 2 2 0 0 1 4 0m77.947-82.102a2 2 0 1 1-4 0 2 2 0 0 1 4 0m-8.697-11.697a2 2 0 1 1-4 0 2 2 0 0 1 4 0M794.52 684.516a2 2 0 1 1-4 0 2 2 0 0 1 4 0m-22.273-32.134a2 2 0 1 1-4 0 2 2 0 0 1 4 0m44.714-9.315a2 2 0 1 1-4 0 2 2 0 0 1 4 0m76.31-48.788a2 2 0 1 1-4 0 2 2 0 0 1 4 0m17.633-45.306a2 2 0 1 1-4 0 2 2 0 0 1 4 0m-53.848 38.236a2 2 0 1 1-4 0 2 2 0 0 1 4 0m-45.15 103.555a2 2 0 1 1-4 0 2 2 0 0 1 4 0m-78.02-41.23a2 2 0 1 1-4 0 2 2 0 0 1 4 0m129.32-61.621a2 2 0 1 1-4 0 2 2 0 0 1 4 0m29.241-3.223a2 2 0 1 1-4 0 2 2 0 0 1 4 0M759.102 701.32a2 2 0 1 1-4 0 2 2 0 0 1 4 0m36.443-51.277a2 2 0 1 1-4 0 2 2 0 0 1 4 0m81.99-46.503a2 2 0 1 1-4 0 2 2 0 0 1 4 0m15.733-47.665a2 2 0 1 1-4 0 2 2 0 0 1 4 0m-12.892-5.773a2 2 0 1 1-4 0 2 2 0 0 1 4 0m21.734 26.575a2 2 0 1 1-4 0 2 2 0 0 1 4 0m-13.615-30.043a2 2 0 1 1-4 0 2 2 0 0 1 4 0m-38.928 96.448a2 2 0 1 1-4 0 2 2 0 0 1 4 0m103.49-131.94a2 2 0 1 1-4 0 2 2 0 0 1 4 0M798.205 683.858a2 2 0 1 1-4 0 2 2 0 0 1 4 0m90.252-93.01a2 2 0 1 1-4 0 2 2 0 0 1 4 0m37.498-7.68a2 2 0 1 1-4 0 2 2 0 0 1 4 0m-89.373 19.728a2 2 0 1 1-4 0 2 2 0 0 1 4 0m6.962 13.728a2 2 0 1 1-4 0 2 2 0 0 1 4 0m76.69-58.087a2 2 0 1 1-4 0 2 2 0 0 1 4 0M735.779 690.58a2 2 0 1 1-4 0 2 2 0 0 1 4 0m56.772-63.692a2 2 0 1 1-4 0 2 2 0 0 1 4 0m-30.079 56.965a2 2 0 1 1-4 0 2 2 0 0 1 4 0m2.442-60.114a2 2 0 1 1-4 0 2 2 0 0 1 4 0m93.37-15.837a2 2 0 1 1-4 0 2 2 0 0 1 4 0m-37.115 40.674a2 2 0 1 1-4 0 2 2 0 0 1 4 0m-31.735 19.367a2 2 0 1 1-4 0 2 2 0 0 1 4 0M938.94 554.796a2 2 0 1 1-4 0 2 2 0 0 1 4 0M755.906 654.968a2 2 0 1 1-4 0 2 2 0 0 1 4 0m163.547-75.833a2 2 0 1 1-4 0 2 2 0 0 1 4 0M808.921 657.37a2 2 0 1 1-4 0 2 2 0 0 1 4 0m-30.331-51.065a2 2 0 1 1-4 0 2 2 0 0 1 4 0m18.318-62.652a2 2 0 1 1-4 0 2 2 0 0 1 4 0m77.576 47.89a2 2 0 1 1-4 0 2 2 0 0 1 4 0m-58.442 56.08a2 2 0 1 1-4 0 2 2 0 0 1 4 0m7.177-92.856a2 2 0 1 1-4 0 2 2 0 0 1 4 0m39.062 77.014a2 2 0 1 1-4 0 2 2 0 0 1 4 0m-2.253-40.4a2 2 0 1 1-4 0 2 2 0 0 1 4 0m-6.961 42.55a2 2 0 1 1-4 0 2 2 0 0 1 4 0m-7.385-8.063a2 2 0 1 1-4 0 2 2 0 0 1 4 0m41.389-62.807a2 2 0 1 1-4 0 2 2 0 0 1 4 0M773.638 699.496a2 2 0 1 1-4 0 2 2 0 0 1 4 0m73.05-80.242a2 2 0 1 1-4 0 2 2 0 0 1 4 0m42.678-35.983a2 2 0 1 1-4 0 2 2 0 0 1 4 0m-42.997 37.36a2 2 0 1 1-4 0 2 2 0 0 1 4 0m-64.13 63.683a2 2 0 1 1-4 0 2 2 0 0 1 4 0m20.525-43.908a2 2 0 1 1-4 0 2 2 0 0 1 4 0m64.505-11.076a2 2 0 1 1-4 0 2 2 0 0 1 4 0m41.956-65.858a2 2 0 1 1-4 0 2 2 0 0 1 4 0m-209.088 181.18a2 2 0 1 1-4 0 2 2 0 0 1 4 0m143.23-119.728a2 2 0 1 1-4 0 2 2 0 0 1 4 0m50.209-70.033a2 2 0 1 1-4 0 2 2 0 0 1 4 0m55.574.325a2 2 0 1 1-4 0 2 2 0 0 1 4 0m-55.931 26.342a2 2 0 1 1-4 0 2 2 0 0 1 4 0m-80.7 77.69a2 2 0 1 1-4 0 2 2 0 0 1 4 0m-.849-39.623a2 2 0 1 1-4 0 2 2 0 0 1 4 0m75.968-45.659a2 2 0 1 1-4 0 2 2 0 0 1 4 0M780.4 604.872a2 2 0 1 1-4 0 2 2 0 0 1 4 0m125.972-38.593a2 2 0 1 1-4 0 2 2 0 0 1 4 0m-36.954 23.122a2 2 0 1 1-4 0 2 2 0 0 1 4 0m-15.915-20.42a2 2 0 1 1-4 0 2 2 0 0 1 4 0m-74.401 70.361a2 2 0 1 1-4 0 2 2 0 0 1 4 0m134.292-43.429a2 2 0 1 1-4 0 2 2 0 0 1 4 0m-3.936-10.754a2 2 0 1 1-4 0 2 2 0 0 1 4 0m-33.847-16.833a2 2 0 1 1-4 0 2 2 0 0 1 4 0m-99.19 84.07a2 2 0 1 1-4 0 2 2 0 0 1 4 0m21.71 12.289a2 2 0 1 1-4 0 2 2 0 0 1 4 0m37.032-30.785a2 2 0 1 1-4 0 2 2 0 0 1 4 0m61.314-76.364a2 2 0 1 1-4 0 2 2 0 0 1 4 0m-3.504 1.504a2 2 0 1 1-4 0 2 2 0 0 1 4 0M754.129 670.62a2 2 0 1 1-4 0 2 2 0 0 1 4 0m124.259-79.202a2 2 0 1 1-4 0 2 2 0 0 1 4 0m-47.774 28.266a2 2 0 1 1-4 0 2 2 0 0 1 4 0m59.267-54.738a2 2 0 1 1-4 0 2 2 0 0 1 4 0m-64.852 73.16a2 2 0 1 1-4 0 2 2 0 0 1 4 0m117.21-79.522a2 2 0 1 1-4 0 2 2 0 0 1 4 0m-86.51-1.67a2 2 0 1 1-4 0 2 2 0 0 1 4 0m-15.185 37.268a2 2 0 1 1-4 0 2 2 0 0 1 4 0m-36.645 14.14a2 2 0 1 1-4 0 2 2 0 0 1 4 0m152.172-75.634a2 2 0 1 1-4 0 2 2 0 0 1 4 0m-159.02 77.556a2 2 0 1 1-4 0 2 2 0 0 1 4 0m-38.149 47.427a2 2 0 1 1-4 0 2 2 0 0 1 4 0m86.435-48.426a2 2 0 1 1-4 0 2 2 0 0 1 4 0m13.62-36.716a2 2 0 1 1-4 0 2 2 0 0 1 4 0m28.83-11.87a2 2 0 1 1-4 0 2 2 0 0 1 4 0m36.731-5.716a2 2 0 1 1-4 0 2 2 0 0 1 4 0m-62.946 12.951a2 2 0 1 1-4 0 2 2 0 0 1 4 0m4.76-1.966a2 2 0 1 1-4.001 0 2 2 0 0 1 4 0m12.17 46.459a2 2 0 1 1-4 0 2 2 0 0 1 4 0m18.394-67.662a2 2 0 1 1-4 0 2 2 0 0 1 4 0m-2.764 53.601a2 2 0 1 1-4 0 2 2 0 0 1 4 0m-13.967-13.583a2 2 0 1 1-4 0 2 2 0 0 1 4 0m3.04 10.291a2 2 0 1 1-4 0 2 2 0 0 1 4 0m-7.276-12.887a2 2 0 1 1-4 0 2 2 0 0 1 4 0m62.106-59.32a2 2 0 1 1-4 0 2 2 0 0 1 4 0m-134.997 64.62a2 2 0 1 1-4 0 2 2 0 0 1 4 0m7.806-8.846a2 2 0 1 1-4 0 2 2 0 0 1 4 0m35.406 19.522a2 2 0 1 1-4 0 2 2 0 0 1 4 0m-48.236 39.012a2 2 0 1 1-4 0 2 2 0 0 1 4 0m124.885-67.82a2 2 0 1 1-4 0 2 2 0 0 1 4 0M806.466 689.884a2 2 0 1 1-4 0 2 2 0 0 1 4 0m36.13-94.388a2 2 0 1 1-4 0 2 2 0 0 1 4 0" opacity=".45"/><path fill="none" stroke="#ccc" d="M626.21 789v5" shape-rendering="crispEdges"/><text x="619.009" y="806" fill="#ccc" font-family="sans-serif" font-size="12">
50
</text><path fill="none" stroke="#ccc" d="M709.445 789v5" shape-rendering="crispEdges"/><text x="702.245" y="806" fill="#ccc" font-family="sans-serif" font-size="12">
60
</text><path fill="none" stroke="#ccc" d="M792.682 789v5" shape-rendering="crispEdges"/><text x="785.482" y="806" fill="#ccc" font-family="sans-serif" font-size="12">
70
</text><path fill="none" stroke="#ccc" d="M875.918 789v5" shape-rendering="crispEdges"/><text x="868.718" y="806" fill="#ccc" font-family="sans-serif" font-size="12">
80
</text><path fill="none" stroke="#ccc" d="M959.155 789v5" shape-rendering="crispEdges"/><text x="951.955" y="806" fill="#ccc" font-family="sans-serif" font-size="12">
90
</text><path fill="none" stroke="#ccc" d="M1042.39 789v5" shape-rendering="crispEdges"/><text x="1031.591" y="806" fill="#ccc" font-family="sans-serif" font-size="12">
100
</text><path fill="none" stroke="#ccc" d="M605.4 775h-5" shape-rendering="crispEdges"/><text x="581" y="779.8" fill="#ccc" font-family="sans-serif" font-size="12">
60
</text><path fill="none" stroke="#ccc" d="M605.4 735h-5" shape-rendering="crispEdges"/><text x="581" y="739.8" fill="#ccc" font-family="sans-serif" font-size="12">
65
</text><path fill="none" stroke="#ccc" d="M605.4 695h-5" shape-rendering="crispEdges"/><text x="581" y="699.8" fill="#ccc" font-family="sans-serif" font-size="12">
70
</text><path fill="none" stroke="#ccc" d="M605.4 655h-5" shape-rendering="crispEdges"/><text x="581" y="659.8" fill="#ccc" font-family="sans-serif" font-size="12">
75
</text><path fill="none" stroke="#ccc" d="M605.4 615h-5" shape-rendering="crispEdges"/><text x="581" y="619.8" fill="#ccc" font-family="sans-serif" font-size="12">
80
</text><path fill="none" stroke="#ccc" d="M605.4 575h-5" shape-rendering="crispEdges"/><text x="581" y="579.8" fill="#ccc" font-family="sans-serif" font-size="12">
85
</text><path fill="none" stroke="#ccc" d="M605.4 535h-5" shape-rendering="crispEdges"/><text x="581" y="539.8" fill="#ccc" font-family="sans-serif" font-size="12">
90
</text><path fill="none" stroke="#ccc" d="M605.4 495h-5" shape-rendering="crispEdges"/><text x="581" y="499.8" fill="#ccc" font-family="sans-serif" font-size="12">
95
</text><path fill="none" stroke="#000" d="M605.4 789h457.8M605.4 481v308" shape-rendering="crispEdges"/></svg>