<svg xmlns="http://www.w3.org/2000/svg" width="1100" height="600" viewBox="0 0 1100 600"><path fill="#fff" d="M47.4 48h1031.8v507H47.4z" shape-rendering="crispEdges"/><text x="371.3" y="32" fill="#111" font-family="sans-serif" font-size="16">
Daily Measurement vs. 7-day Rolling Mean
</text><text x="552.5" y="590" fill="#333" font-family="sans-serif" font-size="12">
Day
</text><text x="22" y="326.7" fill="#333" font-family="sans-serif" font-size="12" transform="rotate(-90 22 326.7)">
Reading
</text><path fill="none" stroke="#ddd" d="M94.3 555V48m234.5 507V48m234.5 507V48m234.5 507V48m234.5 507V48M47.4 531.955h1031.8M47.4 416.727h1031.8M47.4 301.5h1031.8M47.4 186.273h1031.8M47.4 71.045h1031.8" shape-rendering="crispEdges"/><path fill="none" stroke="#cbd5e1" stroke-width="1.5" d="m94.3 509.89 7.817-9.834 7.816.401 7.817 6.765 7.817-17.843 7.816-49.85 7.817-1.76 7.817 1.675 7.816-3.53 7.817-40.439 7.817.262 7.816-.944 7.817-7.346 7.817 40.592 7.816 2.806 7.817-48.379 7.817 47.014 7.816 2.424 7.817 16.26 7.817-17.591 7.816-2.731 7.817 6.638 7.817 63.61 7.816-16.343 7.817-12.663 7.817 26.774 7.816 13.774 7.817 16.312 7.817-4.86 7.816-15.849 7.817 9.229 7.817-20.408 7.816-3.935 7.817 37.72 7.817.72 7.816-41.484 7.817-4.877 7.817-12.632 7.816-44.444 7.817 7.26 7.817-32.363 7.816-23.343 7.817 1.578 7.817-29.953 7.816-21.152 7.817 14.363 7.817-.533 7.816-58.804 7.817 3.869 7.817-17.702 7.816-5.204 7.817 7.11 7.817 6.324 7.816-46.837 7.817 5.178 7.817 44.428 7.816-30.367 7.817 8.2 7.817 17.46 7.816 2.73 7.817 35.563 7.817 11.74 7.816-24.987 7.817 5.324 7.817 40.421 7.816-27.566 7.817 53.689 7.817 4.926 7.816-13.948 7.817 7.838 7.817 27.009 7.816-1.424 7.817-12.921 7.817-33.864 7.816 35.788 7.817-37.325 7.817 21.985 7.816-31.118L704 346.07l7.817-5.66 7.816-11.303 7.817-29.905 7.817-16.142 7.816-6.808 7.817-10.667 7.817-58.389 7.816-16.533 7.817 3.771 7.817-37.733 7.816-9.935 7.817-10.598 7.817-23.382 7.816 26.503 7.817-1.153 7.817-45.076 7.816 10.405 7.817 22.53 7.817 1.402 7.816 12.516 7.817 5.65 7.817-40.037 7.816 14.617 7.817 32.161 7.817 22.495 7.816-29.033 7.817 19.775 7.817 37.365 7.816-15.337 7.817 39.213 7.817-28.108 7.816-8.58 7.817 22.01 7.817 4.542 7.816 6.402 7.817 1.527 7.817-21.311 7.816-1.967 7.817 32.882 7.817-27.917 7.816 13.377"/><path fill="none" stroke="#2e7cb8" stroke-width="2.5" d="m94.3 504.406 7.817-3.005 7.816-10.312 7.817-7.617 7.817-10.064 7.816-9.163 7.817-14.997 7.817-15.927 7.816-13.512 7.817-7.44 7.817-1.39 7.816-1.229 7.817-7.635 7.817 4.858 7.816 5.166 7.817 7.625 7.817 6.16 7.816-.028 7.817.52 7.817 16.517 7.816 7.467 7.817 5.311 7.817 6.814 7.816 11.294 7.817 14.014 7.817 12.372 7.816 1.021 7.817 4.674 7.817 3.568 7.816-.82 7.817 2.601 7.817.374 7.816-4.858 7.817-3.29 7.817-6.414 7.816-9.848 7.817-8.248 7.817-18.26 7.816-21.697 7.817-15.546 7.817-19.129 7.816-20.345 7.817-11.944 7.817-13.058 7.816-16.835 7.817-12.947 7.817-15.702 7.816-12.166 7.817-8.129 7.817-9.277 7.816-15.892 7.817-6.752 7.817-.957 7.816-2.767 7.817-.852 7.817.627 7.816.113 7.817 11.885 7.817 12.822 7.816 2.905 7.817 8.005 7.817 12.607 7.816 6.175 7.817 13.455 7.817 9.078 7.816 5.408 7.817 10.098 7.817 13.195 7.816 7.218 7.817 9.31 7.817-3.198 7.816 1.211 7.817-2.128 7.817-.107 7.816-8.412 7.817-7.126 7.817-6.088 7.816-2.866 7.817-12.25 7.817-9.224 7.816-13.338 7.817-10.415 7.817-19.84 7.816-21.392 7.817-19.24 7.817-20.356 7.816-19.471 7.817-20.012 7.817-21.828 7.816-9.701 7.817-7.504 7.817-14.482 7.816-7.606 7.817-2.967 7.817-1.253 7.816 3.876 7.817.896 7.817-4.659 7.816 3.87 7.817 6.976 7.817 6.972 7.816 2.624 7.817 3.662 7.817 8.192 7.816 11.72 7.817 15.234 7.817 6.624 7.816 2.185 7.817 9.477 7.817 7.3 7.816 2.878 7.817 5.287 7.817-3.36 7.816.375 7.817 6.298 7.817-.835 7.816.428 7.817-1.169 7.817-1.94 7.816 2.415"/><path fill="none" stroke="#444" d="M94.3 555v5" shape-rendering="crispEdges"/><text x="90.7" y="572" fill="#444" font-family="sans-serif" font-size="12">
0
</text><path fill="none" stroke="#444" d="M328.8 555v5" shape-rendering="crispEdges"/><text x="321.6" y="572" fill="#444" font-family="sans-serif" font-size="12">
30
</text><path fill="none" stroke="#444" d="M563.3 555v5" shape-rendering="crispEdges"/><text x="556.1" y="572" fill="#444" font-family="sans-serif" font-size="12">
60
</text><path fill="none" stroke="#444" d="M797.8 555v5" shape-rendering="crispEdges"/><text x="790.6" y="572" fill="#444" font-family="sans-serif" font-size="12">
90
</text><path fill="none" stroke="#444" d="M1032.3 555v5" shape-rendering="crispEdges"/><text x="1021.5" y="572" fill="#444" font-family="sans-serif" font-size="12">
120
</text><path fill="none" stroke="#444" d="M47.4 531.955h-5" shape-rendering="crispEdges"/><text x="23" y="536.755" fill="#444" font-family="sans-serif" font-size="12">
50
</text><path fill="none" stroke="#444" d="M47.4 416.727h-5" shape-rendering="crispEdges"/><text x="23" y="421.527" fill="#444" font-family="sans-serif" font-size="12">
60
</text><path fill="none" stroke="#444" d="M47.4 301.5h-5" shape-rendering="crispEdges"/><text x="23" y="306.3" fill="#444" font-family="sans-serif" font-size="12">
70
</text><path fill="none" stroke="#444" d="M47.4 186.273h-5" shape-rendering="crispEdges"/><text x="23" y="191.073" fill="#444" font-family="sans-serif" font-size="12">
80
</text><path fill="none" stroke="#444" d="M47.4 71.045h-5" shape-rendering="crispEdges"/><text x="23" y="75.845" fill="#444" font-family="sans-serif" font-size="12">
90
</text><path fill="none" stroke="#000" d="M47.4 555h1031.8M47.4 48v507" shape-rendering="crispEdges"/><path fill="#fff" d="M914.2 64h149v56h-149z" shape-rendering="crispEdges"/><path fill="none" stroke="#444" d="M914.2 64h149v56h-149z" shape-rendering="crispEdges"/><path fill="none" stroke="#cbd5e1" stroke-width="2" d="M922.2 78h12" shape-rendering="crispEdges"/><text x="940.2" y="82" fill="#333" font-family="sans-serif" font-size="12">
raw
</text><path fill="none" stroke="#2e7cb8" stroke-width="2" d="M922.2 98h12" shape-rendering="crispEdges"/><text x="940.2" y="102" fill="#333" font-family="sans-serif" font-size="12">
rolling mean (7d)
</text></svg>