<svg xmlns="http://www.w3.org/2000/svg" height="auto" aria-label="starsight wordmark" viewBox="0 0 720 220"><title>starsight</title><rect width="719" height="219" x=".5" y=".5" fill="#16161a" stroke="#2c2c33" rx="8"/><g transform="translate(24 60)"><circle cx="50" cy="50" r="50" fill="none" stroke="#2c2c33" stroke-width=".5" opacity=".6"/><path stroke="#c8c8cc" stroke-linecap="round" stroke-width=".4" d="M83 50h59m-59.13 2.88 63.12 5.52M82.5 55.73l60.24 10.62m-60.86-7.81 53.82 14.42M81.01 61.29l51.87 18.87M79.91 63.95l54.72 25.51M78.58 66.5l54.98 31.75M77.03 68.93l49.03 34.33M75.28 71.21l42.08 35.31M73.33 73.33l39.69 39.69M71.21 75.28l39.62 47.21m-41.9-45.46 36.24 51.77M66.5 78.58l29.23 50.63m-31.78-49.3L87 129.34M61.29 81.01l19.6 53.86M58.54 81.88l16.21 60.48M55.73 82.5l10.85 61.54m-13.7-61.17 4.97 56.9M50 83v54.57m-2.88-54.7-5.11 58.46m2.26-58.83-10.99 62.3m8.18-62.92-15.91 59.35m13.16-60.22-19.13 52.58m16.47-53.68L12.8 129.79m20.7-51.21L3.47 130.6m27.6-53.57-36.42 52.02m34.14-53.77-38.68 46.09m36.56-48.04-38.96 38.96m37.01-41.08-42.8 35.92m41.05-38.2-50.26 35.19M21.42 66.5-33.4 98.15m53.49-34.2-53.27 24.84m52.17-27.5-51.3 18.67m50.43-21.42L-36.95 73.3M17.5 55.73l-61.47 10.84m61.1-13.69-62.45 5.46M17 50h-57.41m57.54-2.88-54.32-4.75m54.69 1.9-57.47-10.13m58.09 7.32-61-16.35m61.87 13.6L-39 17.61m59.09 18.44L-30.84 12.3m52.26 21.2L-26.12 6.05m49.09 25.02L-25.98-3.2m50.7 31.99-48.63-40.81m50.58 38.69L-16.1-16.1m44.89 40.82L-6.73-17.61m37.8 40.58L-.85-22.62M33.5 21.42 2.96-31.47m33.09 51.56L9.27-37.35m29.44 56.34L18.5-36.55m22.96 54.67-14.15-52.8M44.27 17.5l-9.85-55.87m12.7 55.5L41.7-44.84M50 17v-62.86m2.88 62.99 5.03-57.51M55.73 17.5l9.46-53.67m-6.65 54.29 15.02-56.06M61.29 18.99l21.55-59.22M63.95 20.09l26.18-56.16M66.5 21.42l28.23-48.89m-25.8 50.44 31.41-44.87M71.21 24.72l38.21-45.53M73.33 26.67 118.2-18.2M75.28 28.79l46.56-39.07M77.03 31.07l45.42-31.8M78.58 33.5 126.6 5.78M79.91 36.05 135 10.36M81.01 38.71l59.62-21.7M81.88 41.46l57.4-15.38M82.5 44.27l53.93-9.51M82.87 47.12l56.25-4.92" opacity=".85"/><circle cx="50" cy="50" r="18" fill="#f4f4f6"/></g><text x="170" y="156" fill="#f4f4f6" font-family="&quot;DejaVu Sans&quot;, -apple-system, BlinkMacSystemFont, &quot;Segoe UI&quot;, Roboto, Helvetica, Arial, sans-serif" font-size="104" font-weight="700" letter-spacing="-3">starsight</text><text x="172" y="190" fill="#6b6b75" font-family="&quot;DejaVu Sans Mono&quot;, ui-monospace, SFMono-Regular, Menlo, Consolas, monospace" font-size="14">scientific visualization · rust crate</text></svg>