<svg xmlns="http://www.w3.org/2000/svg" viewBox="0 0 880 148" width="100%" height="auto" role="img" aria-label="starsight live status · v0.2.0 · rust 1.89 · GPL-3.0-only (light)" preserveAspectRatio="xMidYMid meet">
  <title>starsight status panel</title>
  <rect x="0.5" y="0.5" width="879" height="147" rx="8" fill="#ffffff" stroke="#cccccc" stroke-width="1"/>
  <text x="24" y="22" font-family="ui-monospace, SFMono-Regular, Menlo, Consolas, monospace" font-size="11" fill="#888888" letter-spacing="0.6">// status · live from crates.io api</text>
  <text x="36.0" y="50" font-family="ui-monospace, SFMono-Regular, Menlo, Consolas, monospace" font-size="10" fill="#888888" letter-spacing="0.4">CURRENT</text>
  <text x="36.0" y="70" font-family="-apple-system, BlinkMacSystemFont, &quot;Segoe UI&quot;, Roboto, Helvetica, Arial, sans-serif" font-weight="700" font-size="16" fill="#1a1a1a">v0.2.0</text>
  <text x="244.0" y="50" font-family="ui-monospace, SFMono-Regular, Menlo, Consolas, monospace" font-size="10" fill="#888888" letter-spacing="0.4">MSRV</text>
  <text x="244.0" y="70" font-family="-apple-system, BlinkMacSystemFont, &quot;Segoe UI&quot;, Roboto, Helvetica, Arial, sans-serif" font-weight="700" font-size="16" fill="#1a1a1a">rust 1.89</text>
  <text x="452.0" y="50" font-family="ui-monospace, SFMono-Regular, Menlo, Consolas, monospace" font-size="10" fill="#888888" letter-spacing="0.4">LICENSE</text>
  <text x="452.0" y="70" font-family="-apple-system, BlinkMacSystemFont, &quot;Segoe UI&quot;, Roboto, Helvetica, Arial, sans-serif" font-weight="700" font-size="16" fill="#1a1a1a">GPL-3.0-only</text>
  <text x="660.0" y="50" font-family="ui-monospace, SFMono-Regular, Menlo, Consolas, monospace" font-size="10" fill="#888888" letter-spacing="0.4">EDITION</text>
  <text x="660.0" y="70" font-family="-apple-system, BlinkMacSystemFont, &quot;Segoe UI&quot;, Roboto, Helvetica, Arial, sans-serif" font-weight="700" font-size="16" fill="#1a1a1a">2024</text>
  <line x1="24" y1="88" x2="856" y2="88" stroke="#e5e5e5" stroke-width="0.8"/>
  <line x1="24" y1="116.5" x2="224" y2="116.5" stroke="#e5e5e5" stroke-width="0.5"/>
  <line x1="24" y1="110.0" x2="224" y2="110.0" stroke="#e5e5e5" stroke-width="0.5"/>
  <line x1="24" y1="103.5" x2="224" y2="103.5" stroke="#e5e5e5" stroke-width="0.5"/>
  <polyline points="24.0,123.0 30.9,123.0 37.8,123.0 44.7,123.0 51.6,123.0 58.5,123.0 65.4,123.0 72.3,123.0 79.2,123.0 86.1,123.0 93.0,123.0 99.9,123.0 106.8,123.0 113.7,123.0 120.6,123.0 127.4,123.0 134.3,123.0 141.2,123.0 148.1,123.0 155.0,123.0 161.9,123.0 168.8,123.0 175.7,123.0 182.6,123.0 189.5,106.3 196.4,121.1 203.3,121.1 210.2,121.1 217.1,97.0 224.0,119.3" fill="none" stroke="#1a1a1a" stroke-width="1.6" stroke-linecap="round" stroke-linejoin="round"/>
  <text x="24" y="137.0" font-family="ui-monospace, SFMono-Regular, Menlo, Consolas, monospace" font-size="10" fill="#888888">last 30d downloads · 28 total</text>
  <text x="856" y="114.0" font-family="-apple-system, BlinkMacSystemFont, &quot;Segoe UI&quot;, Roboto, Helvetica, Arial, sans-serif" font-size="13" fill="#555555" text-anchor="end">28 downloads since 2026-04-07  ·  0 dependents  ·  updated 8d ago</text>
</svg>
