<svg height="700" viewBox="0 0 900 700" width="900" xmlns="http://www.w3.org/2000/svg">
<rect fill="#ffffff" height="607" shape-rendering="crispEdges" width="821" x="61.800003" y="48"/>
<text fill="#111111" font-family="sans-serif" font-size="16" x="169.89996" y="32">
Wine: alcohol × proline (size = √proline, color = intensity)
</text>
<text fill="#333333" font-family="sans-serif" font-size="12" x="418.3" y="690">
Alcohol (% vol)
</text>
<text fill="#333333" font-family="sans-serif" font-size="12" transform="rotate(-90 22, 401.9)" x="22" y="401.9">
Proline (mg/L)
</text>
<path d="M99.11819,655 L99.11819,48" fill="none" shape-rendering="crispEdges" stroke="#dddddd" stroke-width="1"/>
<path d="M285.7091,655 L285.7091,48" fill="none" shape-rendering="crispEdges" stroke="#dddddd" stroke-width="1"/>
<path d="M472.3,655 L472.3,48" fill="none" shape-rendering="crispEdges" stroke="#dddddd" stroke-width="1"/>
<path d="M658.8909,655 L658.8909,48" fill="none" shape-rendering="crispEdges" stroke="#dddddd" stroke-width="1"/>
<path d="M845.4818,655 L845.4818,48" fill="none" shape-rendering="crispEdges" stroke="#dddddd" stroke-width="1"/>
<path d="M61.800003,627.4091 L882.8,627.4091" fill="none" shape-rendering="crispEdges" stroke="#dddddd" stroke-width="1"/>
<path d="M61.800003,517.0455 L882.8,517.0455" fill="none" shape-rendering="crispEdges" stroke="#dddddd" stroke-width="1"/>
<path d="M61.800003,406.68182 L882.8,406.68182" fill="none" shape-rendering="crispEdges" stroke="#dddddd" stroke-width="1"/>
<path d="M61.800003,296.31818 L882.8,296.31818" fill="none" shape-rendering="crispEdges" stroke="#dddddd" stroke-width="1"/>
<path d="M61.800003,185.95454 L882.8,185.95454" fill="none" shape-rendering="crispEdges" stroke="#dddddd" stroke-width="1"/>
<path d="M61.800003,75.59091 L882.8,75.59091" fill="none" shape-rendering="crispEdges" stroke="#dddddd" stroke-width="1"/>
<path d="M304.88516,351.80893 C304.88516,359.54092,298.61716,365.80893,290.88516,365.80893 C283.15317,365.80893,276.88516,359.54092,276.88516,351.80893 C276.88516,344.07693,283.15317,337.80893,290.88516,337.80893 C298.61716,337.80893,304.88516,344.07693,304.88516,351.80893 z" fill="#fa98b2" fill-opacity="0.5" opacity="0.5" stroke="#fa98b2" stroke-opacity="0.5" stroke-width="0"/>
<path d="M551.8835,473.04147 C551.8835,480.77347,545.6155,487.04147,537.8835,487.04147 C530.1515,487.04147,523.8835,480.77347,523.8835,473.04147 C523.8835,465.30948,530.1515,459.04147,537.8835,459.04147 C545.6155,459.04147,551.8835,465.30948,551.8835,473.04147 z" fill="#f15c9f" fill-opacity="0.5" opacity="0.5" stroke="#f15c9f" stroke-opacity="0.5" stroke-width="0"/>
<path d="M228.30132,412.59842 C228.30132,420.3304,222.0333,426.59842,214.30132,426.59842 C206.56934,426.59842,200.30132,420.3304,200.30132,412.59842 C200.30132,404.86642,206.56934,398.59842,214.30132,398.59842 C222.0333,398.59842,228.30132,404.86642,228.30132,412.59842 z" fill="#f996b2" fill-opacity="0.5" opacity="0.5" stroke="#f996b2" stroke-opacity="0.5" stroke-width="0"/>
<path d="M685.7783,312.51477 C685.7783,320.24677,679.5103,326.51477,671.7783,326.51477 C664.0463,326.51477,657.7783,320.24677,657.7783,312.51477 C657.7783,304.78278,664.0463,298.51477,671.7783,298.51477 C679.5103,298.51477,685.7783,304.78278,685.7783,312.51477 z" fill="#f874a5" fill-opacity="0.5" opacity="0.5" stroke="#f874a5" stroke-opacity="0.5" stroke-width="0"/>
<path d="M839.9375,258.19025 C839.9375,265.92224,833.6695,272.19025,825.9375,272.19025 C818.2055,272.19025,811.9375,265.92224,811.9375,258.19025 C811.9375,250.45825,818.2055,244.19025,825.9375,244.19025 C833.6695,244.19025,839.9375,250.45825,839.9375,258.19025 z" fill="#ab017e" fill-opacity="0.5" opacity="0.5" stroke="#ab017e" stroke-opacity="0.5" stroke-width="0"/>
<path d="M550.38885,351.09805 C550.38885,358.83005,544.12085,365.09805,536.38885,365.09805 C528.65686,365.09805,522.38885,358.83005,522.38885,351.09805 C522.38885,343.36606,528.65686,337.09805,536.38885,337.09805 C544.12085,337.09805,550.38885,343.36606,550.38885,351.09805 z" fill="#b20580" fill-opacity="0.5" opacity="0.5" stroke="#b20580" stroke-opacity="0.5" stroke-width="0"/>
<path d="M748.3599,313.3445 C748.3599,321.0765,742.0919,327.3445,734.3599,327.3445 C726.6279,327.3445,720.3599,321.0765,720.3599,313.3445 C720.3599,305.61252,726.6279,299.3445,734.3599,299.3445 C742.0919,299.3445,748.3599,305.61252,748.3599,313.3445 z" fill="#cf258f" fill-opacity="0.5" opacity="0.5" stroke="#cf258f" stroke-opacity="0.5" stroke-width="0"/>
<path d="M570.7998,404.38065 C570.7998,412.11264,564.5318,418.38065,556.7998,418.38065 C549.0678,418.38065,542.7998,412.11264,542.7998,404.38065 C542.7998,396.64865,549.0678,390.38065,556.7998,390.38065 C564.5318,390.38065,570.7998,396.64865,570.7998,404.38065 z" fill="#d42a92" fill-opacity="0.5" opacity="0.5" stroke="#d42a92" stroke-opacity="0.5" stroke-width="0"/>
<path d="M670.9404,371.10876 C670.9404,378.84076,664.6724,385.10876,656.9404,385.10876 C649.20844,385.10876,642.9404,378.84076,642.9404,371.10876 C642.9404,363.37677,649.20844,357.10876,656.9404,357.10876 C664.6724,357.10876,670.9404,363.37677,670.9404,371.10876 z" fill="#e13c98" fill-opacity="0.5" opacity="0.5" stroke="#e13c98" stroke-opacity="0.5" stroke-width="0"/>
<path d="M159.66154,319.0105 C159.66154,326.7425,153.39352,333.0105,145.66154,333.0105 C137.92957,333.0105,131.66154,326.7425,131.66154,319.0105 C131.66154,311.2785,137.92957,305.0105,145.66154,305.0105 C153.39352,305.0105,159.66154,311.2785,159.66154,319.0105 z" fill="#fde6e2" fill-opacity="0.5" opacity="0.5" stroke="#fde6e2" stroke-opacity="0.5" stroke-width="0"/>
<path d="M144.35907,615.7844 C144.35907,623.4785,138.12178,629.7158,130.42769,629.7158 C122.733604,629.7158,116.496315,623.4785,116.496315,615.7844 C116.496315,608.09033,122.733604,601.853,130.42769,601.853 C138.12178,601.853,144.35907,608.09033,144.35907,615.7844 z" fill="#fef1ed" fill-opacity="0.5" opacity="0.5" stroke="#fef1ed" stroke-opacity="0.5" stroke-width="0"/>
<path d="M258.5274,404.635 C258.5274,412.367,252.2594,418.635,244.5274,418.635 C236.79541,418.635,230.5274,412.367,230.5274,404.635 C230.5274,396.903,236.79541,390.635,244.5274,390.635 C252.2594,390.635,258.5274,396.903,258.5274,404.635 z" fill="#d02690" fill-opacity="0.5" opacity="0.5" stroke="#d02690" stroke-opacity="0.5" stroke-width="0"/>
<path d="M216.5738,324.3106 C216.5738,332.0426,210.30579,338.3106,202.5738,338.3106 C194.84183,338.3106,188.5738,332.0426,188.5738,324.3106 C188.5738,316.5786,194.84183,310.3106,202.5738,310.3106 C210.30579,310.3106,216.5738,316.5786,216.5738,324.3106 z" fill="#f881aa" fill-opacity="0.5" opacity="0.5" stroke="#f881aa" stroke-opacity="0.5" stroke-width="0"/>
<path d="M623.6573,443.3975 C623.6573,451.1295,617.3893,457.3975,609.6573,457.3975 C601.9253,457.3975,595.6573,451.1295,595.6573,443.3975 C595.6573,435.6655,601.9253,429.3975,609.6573,429.3975 C617.3893,429.3975,623.6573,435.6655,623.6573,443.3975 z" fill="#f463a0" fill-opacity="0.5" opacity="0.5" stroke="#f463a0" stroke-opacity="0.5" stroke-width="0"/>
<path d="M480.11905,534.17096 C480.11905,541.90295,473.85104,548.17096,466.11905,548.17096 C458.38705,548.17096,452.11905,541.90295,452.11905,534.17096 C452.11905,526.43896,458.38705,520.17096,466.11905,520.17096 C473.85104,520.17096,480.11905,526.43896,480.11905,534.17096 z" fill="#e03a98" fill-opacity="0.5" opacity="0.5" stroke="#e03a98" stroke-opacity="0.5" stroke-width="0"/>
<path d="M686.10077,285.24002 C686.10077,292.97202,679.83276,299.24002,672.10077,299.24002 C664.3688,299.24002,658.10077,292.97202,658.10077,285.24002 C658.10077,277.50803,664.3688,271.24002,672.10077,271.24002 C679.83276,271.24002,686.10077,277.50803,686.10077,285.24002 z" fill="#e94c9c" fill-opacity="0.5" opacity="0.5" stroke="#e94c9c" stroke-opacity="0.5" stroke-width="0"/>
<path d="M772.0386,369.22495 C772.0386,376.95694,765.77057,383.22495,758.0386,383.22495 C750.3066,383.22495,744.0386,376.95694,744.0386,369.22495 C744.0386,361.49295,750.3066,355.22495,758.0386,355.22495 C765.77057,355.22495,772.0386,361.49295,772.0386,369.22495 z" fill="#c01588" fill-opacity="0.5" opacity="0.5" stroke="#c01588" stroke-opacity="0.5" stroke-width="0"/>
<path d="M727.552,272.33502 C727.552,280.06702,721.284,286.33502,713.552,286.33502 C705.82,286.33502,699.552,280.06702,699.552,272.33502 C699.552,264.60303,705.82,258.33502,713.552,258.33502 C721.284,258.33502,727.552,264.60303,727.552,272.33502 z" fill="#e4429a" fill-opacity="0.5" opacity="0.5" stroke="#e4429a" stroke-opacity="0.5" stroke-width="0"/>
<path d="M772.5823,446.94315 C772.5823,454.67514,766.3143,460.94315,758.5823,460.94315 C750.8503,460.94315,744.5823,454.67514,744.5823,446.94315 C744.5823,439.21115,750.8503,432.94315,758.5823,432.94315 C766.3143,432.94315,772.5823,439.21115,772.5823,446.94315 z" fill="#e6479b" fill-opacity="0.5" opacity="0.5" stroke="#e6479b" stroke-opacity="0.5" stroke-width="0"/>
<path d="M777.4702,383.6887 C777.4702,391.4207,771.2022,397.6887,763.4702,397.6887 C755.7382,397.6887,749.4702,391.4207,749.4702,383.6887 C749.4702,375.9567,755.7382,369.6887,763.4702,369.6887 C771.2022,369.6887,777.4702,375.9567,777.4702,383.6887 z" fill="#f35f9f" fill-opacity="0.5" opacity="0.5" stroke="#f35f9f" stroke-opacity="0.5" stroke-width="0"/>
<path d="M793.4105,400.16336 C793.4105,407.89536,787.1425,414.16336,779.4105,414.16336 C771.6785,414.16336,765.4105,407.89536,765.4105,400.16336 C765.4105,392.43137,771.6785,386.16336,779.4105,386.16336 C787.1425,386.16336,793.4105,392.43137,793.4105,400.16336 z" fill="#ee579e" fill-opacity="0.5" opacity="0.5" stroke="#ee579e" stroke-opacity="0.5" stroke-width="0"/>
<path d="M542.99835,420.24887 C542.99835,427.98087,536.73035,434.24887,528.99835,434.24887 C521.26636,434.24887,514.99835,427.98087,514.99835,420.24887 C514.99835,412.51688,521.26636,406.24887,528.99835,406.24887 C536.73035,406.24887,542.99835,412.51688,542.99835,420.24887 z" fill="#e94b9c" fill-opacity="0.5" opacity="0.5" stroke="#e94b9c" stroke-opacity="0.5" stroke-width="0"/>
<path d="M346.53473,397.06223 C346.53473,404.79422,340.26672,411.06223,332.53473,411.06223 C324.80273,411.06223,318.53473,404.79422,318.53473,397.06223 C318.53473,389.33023,324.80273,383.06223,332.53473,383.06223 C340.26672,383.06223,346.53473,389.33023,346.53473,397.06223 z" fill="#e13b98" fill-opacity="0.5" opacity="0.5" stroke="#e13b98" stroke-opacity="0.5" stroke-width="0"/>
<path d="M230.55284,522.1542 C230.55284,529.88617,224.28482,536.1542,216.55284,536.1542 C208.82086,536.1542,202.55284,529.88617,202.55284,522.1542 C202.55284,514.4222,208.82086,508.15417,216.55284,508.15417 C224.28482,508.15417,230.55284,514.4222,230.55284,522.1542 z" fill="#fcc2bf" fill-opacity="0.5" opacity="0.5" stroke="#fcc2bf" stroke-opacity="0.5" stroke-width="0"/>
<path d="M242.57536,580.4609 C242.57536,588.1929,236.30734,594.4609,228.57536,594.4609 C220.84338,594.4609,214.57536,588.1929,214.57536,580.4609 C214.57536,572.7289,220.84338,566.4609,228.57536,566.4609 C236.30734,566.4609,242.57536,572.7289,242.57536,580.4609 z" fill="#e6479b" fill-opacity="0.5" opacity="0.5" stroke="#e6479b" stroke-opacity="0.5" stroke-width="0"/>
<path d="M455.40222,312.07007 C455.40222,319.80206,449.13422,326.07007,441.40222,326.07007 C433.67023,326.07007,427.40222,319.80206,427.40222,312.07007 C427.40222,304.33807,433.67023,298.07007,441.40222,298.07007 C449.13422,298.07007,455.40222,304.33807,455.40222,312.07007 z" fill="#f87aa8" fill-opacity="0.5" opacity="0.5" stroke="#f87aa8" stroke-opacity="0.5" stroke-width="0"/>
<path d="M307.08313,318.76898 C307.08313,326.50098,300.81512,332.76898,293.08313,332.76898 C285.35114,332.76898,279.08313,326.50098,279.08313,318.76898 C279.08313,311.037,285.35114,304.76898,293.08313,304.76898 C300.81512,304.76898,307.08313,311.037,307.08313,318.76898 z" fill="#f98aad" fill-opacity="0.5" opacity="0.5" stroke="#f98aad" stroke-opacity="0.5" stroke-width="0"/>
<path d="M636.0035,389.1678 C636.0035,396.89978,629.7355,403.1678,622.0035,403.1678 C614.2715,403.1678,608.0035,396.89978,608.0035,389.1678 C608.0035,381.4358,614.2715,375.1678,622.0035,375.1678 C629.7355,375.1678,636.0035,381.4358,636.0035,389.1678 z" fill="#c81d8c" fill-opacity="0.5" opacity="0.5" stroke="#c81d8c" stroke-opacity="0.5" stroke-width="0"/>
<path d="M339.54938,472.41287 C339.54938,480.14487,333.28137,486.41287,325.54938,486.41287 C317.81738,486.41287,311.54938,480.14487,311.54938,472.41287 C311.54938,464.68088,317.81738,458.41287,325.54938,458.41287 C333.28137,458.41287,339.54938,464.68088,339.54938,472.41287 z" fill="#f98bae" fill-opacity="0.5" opacity="0.5" stroke="#f98bae" stroke-opacity="0.5" stroke-width="0"/>
<path d="M779.3978,484.1257 C779.3978,491.8577,773.1298,498.1257,765.3978,498.1257 C757.66583,498.1257,751.3978,491.8577,751.3978,484.1257 C751.3978,476.3937,757.66583,470.1257,765.3978,470.1257 C773.1298,470.1257,779.3978,476.3937,779.3978,484.1257 z" fill="#a5017d" fill-opacity="0.5" opacity="0.5" stroke="#a5017d" stroke-opacity="0.5" stroke-width="0"/>
<path d="M833.9274,316.29608 C833.9274,324.02808,827.6594,330.29608,819.9274,330.29608 C812.19543,330.29608,805.9274,324.02808,805.9274,316.29608 C805.9274,308.5641,812.19543,302.29608,819.9274,302.29608 C827.6594,302.29608,833.9274,308.5641,833.9274,316.29608 z" fill="#a4017d" fill-opacity="0.5" opacity="0.5" stroke="#a4017d" stroke-opacity="0.5" stroke-width="0"/>
<path d="M810.9387,368.48325 C810.9387,376.21524,804.6707,382.48325,796.9387,382.48325 C789.2067,382.48325,782.9387,376.21524,782.9387,368.48325 C782.9387,360.75125,789.2067,354.48325,796.9387,354.48325 C804.6707,354.48325,810.9387,360.75125,810.9387,368.48325 z" fill="#49006a" fill-opacity="0.5" opacity="0.5" stroke="#49006a" stroke-opacity="0.5" stroke-width="0"/>
<path d="M809.67126,293.19186 C809.67126,300.92386,803.40326,307.19186,795.67126,307.19186 C787.9393,307.19186,781.67126,300.92386,781.67126,293.19186 C781.67126,285.45987,787.9393,279.19186,795.67126,279.19186 C803.40326,279.19186,809.67126,285.45987,809.67126,293.19186 z" fill="#670172" fill-opacity="0.5" opacity="0.5" stroke="#670172" stroke-opacity="0.5" stroke-width="0"/>
<path d="M364.8369,324.31302 C364.8369,332.045,358.5689,338.31302,350.8369,338.31302 C343.10492,338.31302,336.8369,332.045,336.8369,324.31302 C336.8369,316.58102,343.10492,310.31302,350.8369,310.31302 C358.5689,310.31302,364.8369,316.58102,364.8369,324.31302 z" fill="#fbb8bc" fill-opacity="0.5" opacity="0.5" stroke="#fbb8bc" stroke-opacity="0.5" stroke-width="0"/>
<path d="M769.3209,264.82016 C769.3209,272.55215,763.0529,278.82016,755.3209,278.82016 C747.5889,278.82016,741.3209,272.55215,741.3209,264.82016 C741.3209,257.08817,747.5889,250.82016,755.3209,250.82016 C763.0529,250.82016,769.3209,257.08817,769.3209,264.82016 z" fill="#b90d84" fill-opacity="0.5" opacity="0.5" stroke="#b90d84" stroke-opacity="0.5" stroke-width="0"/>
<path d="M703.4521,334.55322 C703.4521,342.28522,697.1841,348.55322,689.4521,348.55322 C681.7201,348.55322,675.4521,342.28522,675.4521,334.55322 C675.4521,326.82123,681.7201,320.55322,689.4521,320.55322 C697.1841,320.55322,703.4521,326.82123,703.4521,334.55322 z" fill="#db3196" fill-opacity="0.5" opacity="0.5" stroke="#db3196" stroke-opacity="0.5" stroke-width="0"/>
<path d="M258.37836,436.0269 C258.37836,443.75888,252.11035,450.0269,244.37836,450.0269 C236.64636,450.0269,230.37836,443.75888,230.37836,436.0269 C230.37836,428.2949,236.64636,422.0269,244.37836,422.0269 C252.11035,422.0269,258.37836,428.2949,258.37836,436.0269 z" fill="#dc3397" fill-opacity="0.5" opacity="0.5" stroke="#dc3397" stroke-opacity="0.5" stroke-width="0"/>
<path d="M619.0164,292.29254 C619.0164,300.02454,612.7484,306.29254,605.0164,306.29254 C597.2844,306.29254,591.0164,300.02454,591.0164,292.29254 C591.0164,284.56055,597.2844,278.29254,605.0164,278.29254 C612.7484,278.29254,619.0164,284.56055,619.0164,292.29254 z" fill="#faa5b7" fill-opacity="0.5" opacity="0.5" stroke="#faa5b7" stroke-opacity="0.5" stroke-width="0"/>
<path d="M561.02295,281.759 C561.02295,289.491,554.75494,295.759,547.02295,295.759 C539.29095,295.759,533.02295,289.491,533.02295,281.759 C533.02295,274.027,539.29095,267.759,547.02295,267.759 C554.75494,267.759,561.02295,274.027,561.02295,281.759 z" fill="#f05b9e" fill-opacity="0.5" opacity="0.5" stroke="#f05b9e" stroke-opacity="0.5" stroke-width="0"/>
<path d="M421.71225,227.84421 C421.71225,235.5762,415.44424,241.84421,407.71225,241.84421 C399.98026,241.84421,393.71225,235.5762,393.71225,227.84421 C393.71225,220.11221,399.98026,213.84421,407.71225,213.84421 C415.44424,213.84421,421.71225,220.11221,421.71225,227.84421 z" fill="#e7499b" fill-opacity="0.5" opacity="0.5" stroke="#e7499b" stroke-opacity="0.5" stroke-width="0"/>
<path d="M641.50757,295.57935 C641.50757,303.31134,635.23956,309.57935,627.50757,309.57935 C619.7756,309.57935,613.50757,303.31134,613.50757,295.57935 C613.50757,287.84735,619.7756,281.57935,627.50757,281.57935 C635.23956,281.57935,641.50757,287.84735,641.50757,295.57935 z M286.09613,542.51996 C286.09613,550.25195,279.82813,556.51996,272.09613,556.51996 C264.36414,556.51996,258.09613,550.25195,258.09613,542.51996 C258.09613,534.78796,264.36414,528.51996,272.09613,528.51996 C279.82813,528.51996,286.09613,534.78796,286.09613,542.51996 z" fill="#f990af" fill-opacity="0.5" opacity="0.5" stroke="#f990af" stroke-opacity="0.5" stroke-width="0"/>
<path d="M478.52402,371.79987 C478.52402,379.53186,472.256,385.79987,464.52402,385.79987 C456.79202,385.79987,450.52402,379.53186,450.52402,371.79987 C450.52402,364.06787,456.79202,357.79987,464.52402,357.79987 C472.256,357.79987,478.52402,364.06787,478.52402,371.79987 z" fill="#aa017d" fill-opacity="0.5" opacity="0.5" stroke="#aa017d" stroke-opacity="0.5" stroke-width="0"/>
<path d="M160.30197,486.16846 C160.30197,493.90045,154.03397,500.16846,146.30197,500.16846 C138.56998,500.16846,132.30197,493.90045,132.30197,486.16846 C132.30197,478.43646,138.56998,472.16846,146.30197,472.16846 C154.03397,472.16846,160.30197,478.43646,160.30197,486.16846 z" fill="#faa5b7" fill-opacity="0.5" opacity="0.5" stroke="#faa5b7" stroke-opacity="0.5" stroke-width="0"/>
<path d="M192.47034,526.1938 C192.47034,533.9258,186.20233,540.1938,178.47034,540.1938 C170.73834,540.1938,164.47034,533.9258,164.47034,526.1938 C164.47034,518.4618,170.73834,512.1938,178.47034,512.1938 C186.20233,512.1938,192.47034,518.4618,192.47034,526.1938 z" fill="#f76ea3" fill-opacity="0.5" opacity="0.5" stroke="#f76ea3" stroke-opacity="0.5" stroke-width="0"/>
<path d="M470.7948,151.75061 C470.7948,159.4826,464.5268,165.75061,456.7948,165.75061 C449.0628,165.75061,442.7948,159.4826,442.7948,151.75061 C442.7948,144.01862,449.0628,137.75061,456.7948,137.75061 C464.5268,137.75061,470.7948,144.01862,470.7948,151.75061 z" fill="#faa7b7" fill-opacity="0.5" opacity="0.5" stroke="#faa7b7" stroke-opacity="0.5" stroke-width="0"/>
<path d="M761.50775,278.3068 C761.50775,286.0388,755.23975,292.3068,747.50775,292.3068 C739.77576,292.3068,733.50775,286.0388,733.50775,278.3068 C733.50775,270.5748,739.77576,264.3068,747.50775,264.3068 C755.23975,264.3068,761.50775,270.5748,761.50775,278.3068 z" fill="#c61c8b" fill-opacity="0.5" opacity="0.5" stroke="#c61c8b" stroke-opacity="0.5" stroke-width="0"/>
<path d="M638.95245,386.6208 C638.95245,394.35278,632.68445,400.6208,624.95245,400.6208 C617.22046,400.6208,610.95245,394.35278,610.95245,386.6208 C610.95245,378.8888,617.22046,372.6208,624.95245,372.6208 C632.68445,372.6208,638.95245,378.8888,638.95245,386.6208 z" fill="#fbaeb9" fill-opacity="0.5" opacity="0.5" stroke="#fbaeb9" stroke-opacity="0.5" stroke-width="0"/>
<path d="M777.424,328.78992 C777.424,336.5219,771.156,342.78992,763.424,342.78992 C755.692,342.78992,749.424,336.5219,749.424,328.78992 C749.424,321.05792,755.692,314.78992,763.424,314.78992 C771.156,314.78992,777.424,321.05792,777.424,328.78992 z" fill="#e13d99" fill-opacity="0.5" opacity="0.5" stroke="#e13d99" stroke-opacity="0.5" stroke-width="0"/>
<path d="M395.9524,347.20844 C395.9524,354.94043,389.6844,361.20844,381.9524,361.20844 C374.2204,361.20844,367.9524,354.94043,367.9524,347.20844 C367.9524,339.47644,374.2204,333.20844,381.9524,333.20844 C389.6844,333.20844,395.9524,339.47644,395.9524,347.20844 z" fill="#bc1085" fill-opacity="0.5" opacity="0.5" stroke="#bc1085" stroke-opacity="0.5" stroke-width="0"/>
<path d="M470.19415,499.19656 C470.19415,506.92856,463.92615,513.19653,456.19415,513.19653 C448.46216,513.19653,442.19415,506.92856,442.19415,499.19656 C442.19415,491.46457,448.46216,485.19656,456.19415,485.19656 C463.92615,485.19656,470.19415,491.46457,470.19415,499.19656 z" fill="#d72d93" fill-opacity="0.5" opacity="0.5" stroke="#d72d93" stroke-opacity="0.5" stroke-width="0"/>
<path d="M496.78494,206.38383 C496.78494,214.11581,490.51694,220.38383,482.78494,220.38383 C475.05295,220.38383,468.78494,214.11581,468.78494,206.38383 C468.78494,198.65186,475.05295,192.38383,482.78494,192.38383 C490.51694,192.38383,496.78494,198.65186,496.78494,206.38383 z" fill="#fbb8bc" fill-opacity="0.5" opacity="0.5" stroke="#fbb8bc" stroke-opacity="0.5" stroke-width="0"/>
<path d="M232.06151,360.8202 C232.06151,368.5522,225.79349,374.8202,218.06151,374.8202 C210.32953,374.8202,204.06151,368.5522,204.06151,360.8202 C204.06151,353.0882,210.32953,346.8202,218.06151,346.8202 C225.79349,346.8202,232.06151,353.0882,232.06151,360.8202 z" fill="#faa1b6" fill-opacity="0.5" opacity="0.5" stroke="#faa1b6" stroke-opacity="0.5" stroke-width="0"/>
<path d="M768.7741,324.78107 C768.7741,332.51306,762.5061,338.78107,754.7741,338.78107 C747.0421,338.78107,740.7741,332.51306,740.7741,324.78107 C740.7741,317.04907,747.0421,310.78107,754.7741,310.78107 C762.5061,310.78107,768.7741,317.04907,768.7741,324.78107 z" fill="#fba9b8" fill-opacity="0.5" opacity="0.5" stroke="#fba9b8" stroke-opacity="0.5" stroke-width="0"/>
<path d="M576.9813,443.64618 C576.9813,451.37817,570.7133,457.64618,562.9813,457.64618 C555.2493,457.64618,548.9813,451.37817,548.9813,443.64618 C548.9813,435.91418,555.2493,429.64618,562.9813,429.64618 C570.7133,429.64618,576.9813,435.91418,576.9813,443.64618 z" fill="#f883ab" fill-opacity="0.5" opacity="0.5" stroke="#f883ab" stroke-opacity="0.5" stroke-width="0"/>
<path d="M333.12463,417.8363 C333.12463,425.5683,326.85663,431.8363,319.12463,431.8363 C311.39264,431.8363,305.12463,425.5683,305.12463,417.8363 C305.12463,410.1043,311.39264,403.8363,319.12463,403.8363 C326.85663,403.8363,333.12463,410.1043,333.12463,417.8363 z" fill="#e5469a" fill-opacity="0.5" opacity="0.5" stroke="#e5469a" stroke-opacity="0.5" stroke-width="0"/>
<path d="M502.50522,398.74896 C502.50522,406.48096,496.2372,412.74896,488.50522,412.74896 C480.77322,412.74896,474.50522,406.48096,474.50522,398.74896 C474.50522,391.01697,480.77322,384.74896,488.50522,384.74896 C496.2372,384.74896,502.50522,391.01697,502.50522,398.74896 z" fill="#be1286" fill-opacity="0.5" opacity="0.5" stroke="#be1286" stroke-opacity="0.5" stroke-width="0"/>
<path d="M843.07117,293.32294 C843.07117,301.05493,836.80316,307.32294,829.07117,307.32294 C821.3392,307.32294,815.07117,301.05493,815.07117,293.32294 C815.07117,285.59094,821.3392,279.32294,829.07117,279.32294 C836.80316,279.32294,843.07117,285.59094,843.07117,293.32294 z" fill="#8a0179" fill-opacity="0.5" opacity="0.5" stroke="#8a0179" stroke-opacity="0.5" stroke-width="0"/>
<path d="M232.21286,395.11377 C232.21286,402.84576,225.94485,409.11377,218.21286,409.11377 C210.48087,409.11377,204.21286,402.84576,204.21286,395.11377 C204.21286,387.38177,210.48087,381.11377,218.21286,381.11377 C225.94485,381.11377,232.21286,387.38177,232.21286,395.11377 z" fill="#fa9db4" fill-opacity="0.5" opacity="0.5" stroke="#fa9db4" stroke-opacity="0.5" stroke-width="0"/>
<path d="M508.452,223.8736 C508.452,231.60559,502.184,237.8736,494.452,237.8736 C486.72,237.8736,480.452,231.60559,480.452,223.8736 C480.452,216.1416,486.72,209.8736,494.452,209.8736 C502.184,209.8736,508.452,216.1416,508.452,223.8736 z" fill="#c91f8c" fill-opacity="0.5" opacity="0.5" stroke="#c91f8c" stroke-opacity="0.5" stroke-width="0"/>
<path d="M278.0183,396.2622 C278.0183,403.9942,271.7503,410.2622,264.0183,410.2622 C256.28632,410.2622,250.01831,403.9942,250.01831,396.2622 C250.01831,388.5302,256.28632,382.2622,264.0183,382.2622 C271.7503,382.2622,278.0183,388.5302,278.0183,396.2622 z" fill="#f872a4" fill-opacity="0.5" opacity="0.5" stroke="#f872a4" stroke-opacity="0.5" stroke-width="0"/>
<path d="M454.58694,517.7563 C454.58694,525.4883,448.31894,531.7563,440.58694,531.7563 C432.85495,531.7563,426.58694,525.4883,426.58694,517.7563 C426.58694,510.0243,432.85495,503.7563,440.58694,503.7563 C448.31894,503.7563,454.58694,510.0243,454.58694,517.7563 z" fill="#f98aad" fill-opacity="0.5" opacity="0.5" stroke="#f98aad" stroke-opacity="0.5" stroke-width="0"/>
<path d="M326.6705,393.58093 C326.6705,401.31293,320.4025,407.58093,312.6705,407.58093 C304.9385,407.58093,298.6705,401.31293,298.6705,393.58093 C298.6705,385.84894,304.9385,379.58093,312.6705,379.58093 C320.4025,379.58093,326.6705,385.84894,326.6705,393.58093 z" fill="#f883ab" fill-opacity="0.5" opacity="0.5" stroke="#f883ab" stroke-opacity="0.5" stroke-width="0"/>
<path d="M530.6482,180.43971 C530.6482,188.17169,524.3802,194.43971,516.6482,194.43971 C508.9162,194.43971,502.6482,188.17169,502.6482,180.43971 C502.6482,172.70773,508.9162,166.43971,516.6482,166.43971 C524.3802,166.43971,530.6482,172.70773,530.6482,180.43971 z" fill="#e6479b" fill-opacity="0.5" opacity="0.5" stroke="#e6479b" stroke-opacity="0.5" stroke-width="0"/>
<path d="M325.74637,410.1577 C325.74637,417.8897,319.47836,424.1577,311.74637,424.1577 C304.01437,424.1577,297.74637,417.8897,297.74637,410.1577 C297.74637,402.42572,304.01437,396.1577,311.74637,396.1577 C319.47836,396.1577,325.74637,402.42572,325.74637,410.1577 z" fill="#fcd1cd" fill-opacity="0.5" opacity="0.5" stroke="#fcd1cd" stroke-opacity="0.5" stroke-width="0"/>
<path d="M207.17795,356.51483 C207.17795,364.24683,200.90994,370.51483,193.17795,370.51483 C185.44595,370.51483,179.17795,364.24683,179.17795,356.51483 C179.17795,348.78284,185.44595,342.51483,193.17795,342.51483 C200.90994,342.51483,207.17795,348.78284,207.17795,356.51483 z" fill="#f87ba8" fill-opacity="0.5" opacity="0.5" stroke="#f87ba8" stroke-opacity="0.5" stroke-width="0"/>
<path d="M671.34515,413.0679 C671.34515,420.7999,665.07715,427.0679,657.34515,427.0679 C649.61316,427.0679,643.34515,420.7999,643.34515,413.0679 C643.34515,405.3359,649.61316,399.0679,657.34515,399.0679 C665.07715,399.0679,671.34515,405.3359,671.34515,413.0679 z" fill="#c91e8c" fill-opacity="0.5" opacity="0.5" stroke="#c91e8c" stroke-opacity="0.5" stroke-width="0"/>
<path d="M201.46303,493.3802 C201.46303,501.11218,195.195,507.3802,187.46303,507.3802 C179.73105,507.3802,173.46303,501.11218,173.46303,493.3802 C173.46303,485.6482,179.73105,479.3802,187.46303,479.3802 C195.195,479.3802,201.46303,485.6482,201.46303,493.3802 z" fill="#f770a4" fill-opacity="0.5" opacity="0.5" stroke="#f770a4" stroke-opacity="0.5" stroke-width="0"/>
<path d="M291.11133,314.76996 C291.11133,322.50195,284.84332,328.76996,277.11133,328.76996 C269.37933,328.76996,263.11133,322.50195,263.11133,314.76996 C263.11133,307.03796,269.37933,300.76996,277.11133,300.76996 C284.84332,300.76996,291.11133,307.03796,291.11133,314.76996 z" fill="#f98dae" fill-opacity="0.5" opacity="0.5" stroke="#f98dae" stroke-opacity="0.5" stroke-width="0"/>
<path d="M264.66476,482.79373 C264.66476,490.52573,258.39676,496.79373,250.66476,496.79373 C242.93277,496.79373,236.66476,490.52573,236.66476,482.79373 C236.66476,475.06174,242.93277,468.79373,250.66476,468.79373 C258.39676,468.79373,264.66476,475.06174,264.66476,482.79373 z" fill="#f986ac" fill-opacity="0.5" opacity="0.5" stroke="#f986ac" stroke-opacity="0.5" stroke-width="0"/>
<path d="M812.08685,362.96222 C812.08685,370.6942,805.81885,376.96222,798.08685,376.96222 C790.35486,376.96222,784.08685,370.6942,784.08685,362.96222 C784.08685,355.23022,790.35486,348.96222,798.08685,348.96222 C805.81885,348.96222,812.08685,355.23022,812.08685,362.96222 z" fill="#b0037f" fill-opacity="0.5" opacity="0.5" stroke="#b0037f" stroke-opacity="0.5" stroke-width="0"/>
<path d="M272.45313,550.6329 C272.45313,558.36487,266.18512,564.6329,258.45313,564.6329 C250.72113,564.6329,244.45313,558.36487,244.45313,550.6329 C244.45313,542.9009,250.72113,536.6329,258.45313,536.6329 C266.18512,536.6329,272.45313,542.9009,272.45313,550.6329 z" fill="#f3609f" fill-opacity="0.5" opacity="0.5" stroke="#f3609f" stroke-opacity="0.5" stroke-width="0"/>
<path d="M619.98047,398.4934 C619.98047,406.2254,613.71246,412.4934,605.98047,412.4934 C598.2485,412.4934,591.98047,406.2254,591.98047,398.4934 C591.98047,390.7614,598.2485,384.4934,605.98047,384.4934 C613.71246,384.4934,619.98047,390.7614,619.98047,398.4934 z" fill="#f463a0" fill-opacity="0.5" opacity="0.5" stroke="#f463a0" stroke-opacity="0.5" stroke-width="0"/>
<path d="M255.66907,385.49182 C255.66907,393.22382,249.40106,399.49182,241.66907,399.49182 C233.93707,399.49182,227.66907,393.22382,227.66907,385.49182 C227.66907,377.75983,233.93707,371.49182,241.66907,371.49182 C249.40106,371.49182,255.66907,377.75983,255.66907,385.49182 z" fill="#f76ea3" fill-opacity="0.5" opacity="0.5" stroke="#f76ea3" stroke-opacity="0.5" stroke-width="0"/>
<path d="M129.23212,491.8765 C129.23212,499.6085,122.96411,505.8765,115.232124,505.8765 C107.50014,505.8765,101.232124,499.6085,101.232124,491.8765 C101.232124,484.1445,107.50014,477.8765,115.232124,477.8765 C122.96411,477.8765,129.23212,484.1445,129.23212,491.8765 z" fill="#eb519c" fill-opacity="0.5" opacity="0.5" stroke="#eb519c" stroke-opacity="0.5" stroke-width="0"/>
<path d="M173.04639,355.7083 C173.04639,363.4403,166.77838,369.7083,159.04639,369.7083 C151.31439,369.7083,145.04639,363.4403,145.04639,355.7083 C145.04639,347.97632,151.31439,341.7083,159.04639,341.7083 C166.77838,341.7083,173.04639,347.97632,173.04639,355.7083 z" fill="#faa8b8" fill-opacity="0.5" opacity="0.5" stroke="#faa8b8" stroke-opacity="0.5" stroke-width="0"/>
<path d="M681.23206,456.26886 C681.23206,464.00085,674.96405,470.26886,667.23206,470.26886 C659.50006,470.26886,653.23206,464.00085,653.23206,456.26886 C653.23206,448.53687,659.50006,442.26886,667.23206,442.26886 C674.96405,442.26886,681.23206,448.53687,681.23206,456.26886 z" fill="#faa1b6" fill-opacity="0.5" opacity="0.5" stroke="#faa1b6" stroke-opacity="0.5" stroke-width="0"/>
<path d="M373.06955,425.16043 C373.06955,432.89243,366.80154,439.16043,359.06955,439.16043 C351.33755,439.16043,345.06955,432.89243,345.06955,425.16043 C345.06955,417.42844,351.33755,411.16043,359.06955,411.16043 C366.80154,411.16043,373.06955,417.42844,373.06955,425.16043 z" fill="#dc3497" fill-opacity="0.5" opacity="0.5" stroke="#dc3497" stroke-opacity="0.5" stroke-width="0"/>
<path d="M149.35432,481.2188 C149.35432,488.9508,143.0863,495.2188,135.35432,495.2188 C127.62234,495.2188,121.354324,488.9508,121.354324,481.2188 C121.354324,473.48682,127.62234,467.2188,135.35432,467.2188 C143.0863,467.2188,149.35432,473.48682,149.35432,481.2188 z" fill="#f87ca8" fill-opacity="0.5" opacity="0.5" stroke="#f87ca8" stroke-opacity="0.5" stroke-width="0"/>
<path d="M635.8887,377.08163 C635.8887,384.81363,629.62067,391.08163,621.8887,391.08163 C614.1567,391.08163,607.8887,384.81363,607.8887,377.08163 C607.8887,369.34964,614.1567,363.08163,621.8887,363.08163 C629.62067,363.08163,635.8887,369.34964,635.8887,377.08163 z" fill="#f988ad" fill-opacity="0.5" opacity="0.5" stroke="#f988ad" stroke-opacity="0.5" stroke-width="0"/>
<path d="M401.74887,371.12628 C401.74887,378.85828,395.48087,385.12628,387.74887,385.12628 C380.01688,385.12628,373.74887,378.85828,373.74887,371.12628 C373.74887,363.3943,380.01688,357.12628,387.74887,357.12628 C395.48087,357.12628,401.74887,363.3943,401.74887,371.12628 z" fill="#fa9db4" fill-opacity="0.5" opacity="0.5" stroke="#fa9db4" stroke-opacity="0.5" stroke-width="0"/>
<path d="M577.665,213.69136 C577.665,221.42334,571.397,227.69136,563.665,227.69136 C555.933,227.69136,549.665,221.42334,549.665,213.69136 C549.665,205.95938,555.933,199.69136,563.665,199.69136 C571.397,199.69136,577.665,205.95938,577.665,213.69136 z" fill="#b30681" fill-opacity="0.5" opacity="0.5" stroke="#b30681" stroke-opacity="0.5" stroke-width="0"/>
<path d="M614.23584,545.51495 C614.23584,553.24695,607.96783,559.51495,600.23584,559.51495 C592.50385,559.51495,586.23584,553.24695,586.23584,545.51495 C586.23584,537.78296,592.50385,531.51495,600.23584,531.51495 C607.96783,531.51495,614.23584,537.78296,614.23584,545.51495 z" fill="#eb509c" fill-opacity="0.5" opacity="0.5" stroke="#eb509c" stroke-opacity="0.5" stroke-width="0"/>
<path d="M198.94768,415.90942 C198.94768,423.64142,192.67966,429.90942,184.94768,429.90942 C177.2157,429.90942,170.94768,423.64142,170.94768,415.90942 C170.94768,408.17743,177.2157,401.90942,184.94768,401.90942 C192.67966,401.90942,198.94768,408.17743,198.94768,415.90942 z" fill="#f76fa3" fill-opacity="0.5" opacity="0.5" stroke="#f76fa3" stroke-opacity="0.5" stroke-width="0"/>
<path d="M597.4624,280.45917 C597.4624,288.19116,591.1944,294.45917,583.4624,294.45917 C575.7304,294.45917,569.4624,288.19116,569.4624,280.45917 C569.4624,272.72717,575.7304,266.45917,583.4624,266.45917 C591.1944,266.45917,597.4624,272.72717,597.4624,280.45917 z" fill="#fa9db4" fill-opacity="0.5" opacity="0.5" stroke="#fa9db4" stroke-opacity="0.5" stroke-width="0"/>
<path d="M599.951,374.7374 C599.951,382.4694,593.683,388.7374,585.951,388.7374 C578.219,388.7374,571.951,382.4694,571.951,374.7374 C571.951,367.0054,578.219,360.7374,585.951,360.7374 C593.683,360.7374,599.951,367.0054,599.951,374.7374 z" fill="#840178" fill-opacity="0.5" opacity="0.5" stroke="#840178" stroke-opacity="0.5" stroke-width="0"/>
<path d="M817.38934,395.24457 C817.38934,402.97656,811.12134,409.24457,803.38934,409.24457 C795.65735,409.24457,789.38934,402.97656,789.38934,395.24457 C789.38934,387.51257,795.65735,381.24457,803.38934,381.24457 C811.12134,381.24457,817.38934,387.51257,817.38934,395.24457 z" fill="#a8017d" fill-opacity="0.5" opacity="0.5" stroke="#a8017d" stroke-opacity="0.5" stroke-width="0"/>
<path d="M499.98438,444.78265 C499.98438,452.51465,493.71637,458.78265,485.98438,458.78265 C478.25238,458.78265,471.98438,452.51465,471.98438,444.78265 C471.98438,437.05066,478.25238,430.78265,485.98438,430.78265 C493.71637,430.78265,499.98438,437.05066,499.98438,444.78265 z" fill="#f76da3" fill-opacity="0.5" opacity="0.5" stroke="#f76da3" stroke-opacity="0.5" stroke-width="0"/>
<path d="M729.2964,353.47284 C729.2964,361.20483,723.0284,367.47284,715.2964,367.47284 C707.5644,367.47284,701.2964,361.20483,701.2964,353.47284 C701.2964,345.74084,707.5644,339.47284,715.2964,339.47284 C723.0284,339.47284,729.2964,345.74084,729.2964,353.47284 z" fill="#b30681" fill-opacity="0.5" opacity="0.5" stroke="#b30681" stroke-opacity="0.5" stroke-width="0"/>
<path d="M261.87085,356.66824 C261.87085,364.40024,255.60281,370.66824,247.87083,370.66824 C240.13885,370.66824,233.87083,364.40024,233.87083,356.66824 C233.87083,348.93625,240.13885,342.66824,247.87083,342.66824 C255.60281,342.66824,261.87085,348.93625,261.87085,356.66824 z" fill="#c4198a" fill-opacity="0.5" opacity="0.5" stroke="#c4198a" stroke-opacity="0.5" stroke-width="0"/>
<path d="M365.46744,614.0065 C365.46744,621.72046,359.214,627.97394,351.49997,627.97394 C343.78595,627.97394,337.5325,621.72046,337.5325,614.0065 C337.5325,606.2925,343.78595,600.039,351.49997,600.039 C359.214,600.039,365.46744,606.2925,365.46744,614.0065 z" fill="#f87aa8" fill-opacity="0.5" opacity="0.5" stroke="#f87aa8" stroke-opacity="0.5" stroke-width="0"/>
<path d="M759.6849,371.41043 C759.6849,379.14243,753.4169,385.41043,745.6849,385.41043 C737.9529,385.41043,731.6849,379.14243,731.6849,371.41043 C731.6849,363.67844,737.9529,357.41043,745.6849,357.41043 C753.4169,357.41043,759.6849,363.67844,759.6849,371.41043 z" fill="#a0017c" fill-opacity="0.5" opacity="0.5" stroke="#a0017c" stroke-opacity="0.5" stroke-width="0"/>
<path d="M836.2687,295.14145 C836.2687,302.87344,830.0007,309.14145,822.2687,309.14145 C814.5367,309.14145,808.2687,302.87344,808.2687,295.14145 C808.2687,287.40945,814.5367,281.14145,822.2687,281.14145 C830.0007,281.14145,836.2687,287.40945,836.2687,295.14145 z" fill="#bb0f84" fill-opacity="0.5" opacity="0.5" stroke="#bb0f84" stroke-opacity="0.5" stroke-width="0"/>
<path d="M200.17404,304.66602 C200.17404,312.398,193.90604,318.66602,186.17404,318.66602 C178.44205,318.66602,172.17404,312.398,172.17404,304.66602 C172.17404,296.93402,178.44205,290.66602,186.17404,290.66602 C193.90604,290.66602,200.17404,296.93402,200.17404,304.66602 z" fill="#eb509c" fill-opacity="0.5" opacity="0.5" stroke="#eb509c" stroke-opacity="0.5" stroke-width="0"/>
<path d="M799.2059,213.57285 C799.2059,221.30484,792.93787,227.57285,785.2059,227.57285 C777.4739,227.57285,771.2059,221.30484,771.2059,213.57285 C771.2059,205.84085,777.4739,199.57285,785.2059,199.57285 C792.93787,199.57285,799.2059,205.84085,799.2059,213.57285 z" fill="#cf258f" fill-opacity="0.5" opacity="0.5" stroke="#cf258f" stroke-opacity="0.5" stroke-width="0"/>
<path d="M474.06332,322.99426 C474.06332,330.72626,467.79532,336.99426,460.06332,336.99426 C452.33133,336.99426,446.06332,330.72626,446.06332,322.99426 C446.06332,315.26227,452.33133,308.99426,460.06332,308.99426 C467.79532,308.99426,474.06332,315.26227,474.06332,322.99426 z" fill="#f769a1" fill-opacity="0.5" opacity="0.5" stroke="#f769a1" stroke-opacity="0.5" stroke-width="0"/>
<path d="M776.87366,509.46225 C776.87366,517.1942,770.60565,523.4623,762.87366,523.4623 C755.14166,523.4623,748.87366,517.1942,748.87366,509.46225 C748.87366,501.73026,755.14166,495.46225,762.87366,495.46225 C770.60565,495.46225,776.87366,501.73026,776.87366,509.46225 z" fill="#ed549d" fill-opacity="0.5" opacity="0.5" stroke="#ed549d" stroke-opacity="0.5" stroke-width="0"/>
<path d="M647.33466,334.01587 C647.33466,341.74786,641.06665,348.01587,633.33466,348.01587 C625.60266,348.01587,619.33466,341.74786,619.33466,334.01587 C619.33466,326.28387,625.60266,320.01587,633.33466,320.01587 C641.06665,320.01587,647.33466,326.28387,647.33466,334.01587 z" fill="#bc1085" fill-opacity="0.5" opacity="0.5" stroke="#bc1085" stroke-opacity="0.5" stroke-width="0"/>
<path d="M364.681,400.57706 C364.681,408.30905,358.413,414.57706,350.681,414.57706 C342.949,414.57706,336.681,408.30905,336.681,400.57706 C336.681,392.84506,342.949,386.57706,350.681,386.57706 C358.413,386.57706,364.681,392.84506,364.681,400.57706 z" fill="#ec529d" fill-opacity="0.5" opacity="0.5" stroke="#ec529d" stroke-opacity="0.5" stroke-width="0"/>
<path d="M788.3378,284.35312 C788.3378,292.0851,782.0698,298.35312,774.3378,298.35312 C766.60583,298.35312,760.3378,292.0851,760.3378,284.35312 C760.3378,276.62112,766.60583,270.35312,774.3378,270.35312 C782.0698,270.35312,788.3378,276.62112,788.3378,284.35312 z" fill="#c11588" fill-opacity="0.5" opacity="0.5" stroke="#c11588" stroke-opacity="0.5" stroke-width="0"/>
<path d="M172.36658,552.0282 C172.36658,559.7602,166.09857,566.0282,158.36658,566.0282 C150.63458,566.0282,144.36658,559.7602,144.36658,552.0282 C144.36658,544.2962,150.63458,538.0282,158.36658,538.0282 C166.09857,538.0282,172.36658,544.2962,172.36658,552.0282 z" fill="#de3697" fill-opacity="0.5" opacity="0.5" stroke="#de3697" stroke-opacity="0.5" stroke-width="0"/>
<path d="M217.57127,445.78925 C217.57127,453.52124,211.30325,459.78925,203.57127,459.78925 C195.8393,459.78925,189.57127,453.52124,189.57127,445.78925 C189.57127,438.05725,195.8393,431.78925,203.57127,431.78925 C211.30325,431.78925,217.57127,438.05725,217.57127,445.78925 z" fill="#dd3597" fill-opacity="0.5" opacity="0.5" stroke="#dd3597" stroke-opacity="0.5" stroke-width="0"/>
<path d="M163.61816,414.4065 C163.61816,422.1385,157.35016,428.4065,149.61816,428.4065 C141.88617,428.4065,135.61816,422.1385,135.61816,414.4065 C135.61816,406.6745,141.88617,400.4065,149.61816,400.4065 C157.35016,400.4065,163.61816,406.6745,163.61816,414.4065 z" fill="#f984ab" fill-opacity="0.5" opacity="0.5" stroke="#f984ab" stroke-opacity="0.5" stroke-width="0"/>
<path d="M808.79877,357.48798 C808.79877,365.21997,802.53076,371.48798,794.79877,371.48798 C787.0668,371.48798,780.79877,365.21997,780.79877,357.48798 C780.79877,349.75598,787.0668,343.48798,794.79877,343.48798 C802.53076,343.48798,808.79877,349.75598,808.79877,357.48798 z" fill="#aa017d" fill-opacity="0.5" opacity="0.5" stroke="#aa017d" stroke-opacity="0.5" stroke-width="0"/>
<path d="M766.25525,340.42654 C766.25525,348.15854,759.98724,354.42654,752.25525,354.42654 C744.52325,354.42654,738.25525,348.15854,738.25525,340.42654 C738.25525,332.69455,744.52325,326.42654,752.25525,326.42654 C759.98724,326.42654,766.25525,332.69455,766.25525,340.42654 z" fill="#51006c" fill-opacity="0.5" opacity="0.5" stroke="#51006c" stroke-opacity="0.5" stroke-width="0"/>
<path d="M190.73952,439.34848 C190.73952,447.08047,184.4715,453.34848,176.73952,453.34848 C169.00754,453.34848,162.73952,447.08047,162.73952,439.34848 C162.73952,431.6165,169.00754,425.34848,176.73952,425.34848 C184.4715,425.34848,190.73952,431.6165,190.73952,439.34848 z" fill="#f76da3" fill-opacity="0.5" opacity="0.5" stroke="#f76da3" stroke-opacity="0.5" stroke-width="0"/>
<path d="M165.34985,478.69153 C165.34985,486.42352,159.08185,492.69153,151.34985,492.69153 C143.61786,492.69153,137.34985,486.42352,137.34985,478.69153 C137.34985,470.95953,143.61786,464.69153,151.34985,464.69153 C159.08185,464.69153,165.34985,470.95953,165.34985,478.69153 z" fill="#faa5b7" fill-opacity="0.5" opacity="0.5" stroke="#faa5b7" stroke-opacity="0.5" stroke-width="0"/>
<path d="M596.2354,408.15103 C596.2354,415.88303,589.9674,422.15103,582.2354,422.15103 C574.5034,422.15103,568.2354,415.88303,568.2354,408.15103 C568.2354,400.41904,574.5034,394.15103,582.2354,394.15103 C589.9674,394.15103,596.2354,400.41904,596.2354,408.15103 z" fill="#a5017d" fill-opacity="0.5" opacity="0.5" stroke="#a5017d" stroke-opacity="0.5" stroke-width="0"/>
<path d="M785.8924,289.831 C785.8924,297.563,779.6244,303.831,771.8924,303.831 C764.1604,303.831,757.8924,297.563,757.8924,289.831 C757.8924,282.099,764.1604,275.831,771.8924,275.831 C779.6244,275.831,785.8924,282.099,785.8924,289.831 z" fill="#e4429a" fill-opacity="0.5" opacity="0.5" stroke="#e4429a" stroke-opacity="0.5" stroke-width="0"/>
<path d="M194.82042,456.61792 C194.82042,464.3499,188.5524,470.61792,180.82042,470.61792 C173.08844,470.61792,166.82042,464.3499,166.82042,456.61792 C166.82042,448.88593,173.08844,442.61792,180.82042,442.61792 C188.5524,442.61792,194.82042,448.88593,194.82042,456.61792 z" fill="#fff7f3" fill-opacity="0.5" opacity="0.5" stroke="#fff7f3" stroke-opacity="0.5" stroke-width="0"/>
<path d="M696.43207,368.62094 C696.43207,376.35294,690.16406,382.62094,682.43207,382.62094 C674.7001,382.62094,668.43207,376.35294,668.43207,368.62094 C668.43207,360.88895,674.7001,354.62094,682.43207,354.62094 C690.16406,354.62094,696.43207,360.88895,696.43207,368.62094 z" fill="#ad017e" fill-opacity="0.5" opacity="0.5" stroke="#ad017e" stroke-opacity="0.5" stroke-width="0"/>
<path d="M753.3498,344.48737 C753.3498,352.21936,747.0818,358.48737,739.3498,358.48737 C731.6178,358.48737,725.3498,352.21936,725.3498,344.48737 C725.3498,336.75537,731.6178,330.48737,739.3498,330.48737 C747.0818,330.48737,753.3498,336.75537,753.3498,344.48737 z" fill="#fbb5bb" fill-opacity="0.5" opacity="0.5" stroke="#fbb5bb" stroke-opacity="0.5" stroke-width="0"/>
<path d="M560.0192,427.43317 C560.0192,435.16516,553.7512,441.43317,546.0192,441.43317 C538.28723,441.43317,532.0192,435.16516,532.0192,427.43317 C532.0192,419.70117,538.28723,413.43317,546.0192,413.43317 C553.7512,413.43317,560.0192,419.70117,560.0192,427.43317 z" fill="#bd1186" fill-opacity="0.5" opacity="0.5" stroke="#bd1186" stroke-opacity="0.5" stroke-width="0"/>
<path d="M855.6846,406.68576 C855.6846,414.41776,849.41656,420.68576,841.6846,420.68576 C833.9526,420.68576,827.6846,414.41776,827.6846,406.68576 C827.6846,398.95377,833.9526,392.68576,841.6846,392.68576 C849.41656,392.68576,855.6846,398.95377,855.6846,406.68576 z" fill="#d42a92" fill-opacity="0.5" opacity="0.5" stroke="#d42a92" stroke-opacity="0.5" stroke-width="0"/>
<path d="M206.42769,464.8513 C206.42769,472.58328,200.15967,478.8513,192.42769,478.8513 C184.69571,478.8513,178.42769,472.58328,178.42769,464.8513 C178.42769,457.1193,184.69571,450.8513,192.42769,450.8513 C200.15967,450.8513,206.42769,457.1193,206.42769,464.8513 z" fill="#f769a1" fill-opacity="0.5" opacity="0.5" stroke="#f769a1" stroke-opacity="0.5" stroke-width="0"/>
<path d="M273.8132,503.7864 C273.8132,511.5184,267.5452,517.7864,259.8132,517.7864 C252.0812,517.7864,245.8132,511.5184,245.8132,503.7864 C245.8132,496.0544,252.0812,489.7864,259.8132,489.7864 C267.5452,489.7864,273.8132,496.0544,273.8132,503.7864 z" fill="#f990af" fill-opacity="0.5" opacity="0.5" stroke="#f990af" stroke-opacity="0.5" stroke-width="0"/>
<path d="M394.9726,464.83063 C394.9726,472.56262,388.7046,478.83063,380.9726,478.83063 C373.2406,478.83063,366.9726,472.56262,366.9726,464.83063 C366.9726,457.09863,373.2406,450.83063,380.9726,450.83063 C388.7046,450.83063,394.9726,457.09863,394.9726,464.83063 z" fill="#f361a0" fill-opacity="0.5" opacity="0.5" stroke="#f361a0" stroke-opacity="0.5" stroke-width="0"/>
<path d="M434.40143,361.62857 C434.40143,369.36057,428.13342,375.62857,420.40143,375.62857 C412.66943,375.62857,406.40143,369.36057,406.40143,361.62857 C406.40143,353.89658,412.66943,347.62857,420.40143,347.62857 C428.13342,347.62857,434.40143,353.89658,434.40143,361.62857 z" fill="#f881aa" fill-opacity="0.5" opacity="0.5" stroke="#f881aa" stroke-opacity="0.5" stroke-width="0"/>
<path d="M820.2161,199.89713 C820.2161,207.62912,813.9481,213.89713,806.2161,213.89713 C798.48413,213.89713,792.2161,207.62912,792.2161,199.89713 C792.2161,192.16513,798.48413,185.89713,806.2161,185.89713 C813.9481,185.89713,820.2161,192.16513,820.2161,199.89713 z" fill="#af027e" fill-opacity="0.5" opacity="0.5" stroke="#af027e" stroke-opacity="0.5" stroke-width="0"/>
<path d="M851.3046,370.75662 C851.3046,378.48862,845.0366,384.75662,837.3046,384.75662 C829.57263,384.75662,823.3046,378.48862,823.3046,370.75662 C823.3046,363.02463,829.57263,356.75662,837.3046,356.75662 C845.0366,356.75662,851.3046,363.02463,851.3046,370.75662 z" fill="#f15c9f" fill-opacity="0.5" opacity="0.5" stroke="#f15c9f" stroke-opacity="0.5" stroke-width="0"/>
<path d="M633.8604,415.7714 C633.8604,423.5034,627.5924,429.7714,619.8604,429.7714 C612.1284,429.7714,605.8604,423.5034,605.8604,415.7714 C605.8604,408.0394,612.1284,401.7714,619.8604,401.7714 C627.5924,401.7714,633.8604,408.0394,633.8604,415.7714 z" fill="#f874a5" fill-opacity="0.5" opacity="0.5" stroke="#f874a5" stroke-opacity="0.5" stroke-width="0"/>
<path d="M647.5909,272.1577 C647.5909,279.8897,641.3229,286.1577,633.5909,286.1577 C625.8589,286.1577,619.5909,279.8897,619.5909,272.1577 C619.5909,264.42572,625.8589,258.1577,633.5909,258.1577 C641.3229,258.1577,647.5909,264.42572,647.5909,272.1577 z" fill="#f991b0" fill-opacity="0.5" opacity="0.5" stroke="#f991b0" stroke-opacity="0.5" stroke-width="0"/>
<path d="M160.5647,302.48032 C160.5647,310.2123,154.29669,316.48032,146.5647,316.48032 C138.8327,316.48032,132.5647,310.2123,132.5647,302.48032 C132.5647,294.74832,138.8327,288.48032,146.5647,288.48032 C154.29669,288.48032,160.5647,294.74832,160.5647,302.48032 z" fill="#ee579e" fill-opacity="0.5" opacity="0.5" stroke="#ee579e" stroke-opacity="0.5" stroke-width="0"/>
<path d="M283.914,416.66302 C283.914,424.39502,277.646,430.66302,269.914,430.66302 C262.182,430.66302,255.914,424.39502,255.914,416.66302 C255.914,408.93103,262.182,402.66302,269.914,402.66302 C277.646,402.66302,283.914,408.93103,283.914,416.66302 z" fill="#f984ab" fill-opacity="0.5" opacity="0.5" stroke="#f984ab" stroke-opacity="0.5" stroke-width="0"/>
<path d="M201.79968,615.97925 C201.79968,623.67114,195.56416,629.9067,187.87227,629.9067 C180.18037,629.9067,173.94485,623.67114,173.94485,615.97925 C173.94485,608.28735,180.18037,602.0518,187.87227,602.0518 C195.56416,602.0518,201.79968,608.28735,201.79968,615.97925 z" fill="#f98cae" fill-opacity="0.5" opacity="0.5" stroke="#f98cae" stroke-opacity="0.5" stroke-width="0"/>
<path d="M854.26935,372.74194 C854.26935,380.47394,848.00134,386.74194,840.26935,386.74194 C832.53735,386.74194,826.26935,380.47394,826.26935,372.74194 C826.26935,365.00995,832.53735,358.74194,840.26935,358.74194 C848.00134,358.74194,854.26935,365.00995,854.26935,372.74194 z" fill="#c51a8a" fill-opacity="0.5" opacity="0.5" stroke="#c51a8a" stroke-opacity="0.5" stroke-width="0"/>
<path d="M729.92487,428.55203 C729.92487,436.28403,723.65686,442.55203,715.92487,442.55203 C708.1929,442.55203,701.92487,436.28403,701.92487,428.55203 C701.92487,420.82004,708.1929,414.55203,715.92487,414.55203 C723.65686,414.55203,729.92487,420.82004,729.92487,428.55203 z" fill="#df3998" fill-opacity="0.5" opacity="0.5" stroke="#df3998" stroke-opacity="0.5" stroke-width="0"/>
<path d="M711.79346,437.14346 C711.79346,444.87546,705.52545,451.14346,697.79346,451.14346 C690.06146,451.14346,683.79346,444.87546,683.79346,437.14346 C683.79346,429.41147,690.06146,423.14346,697.79346,423.14346 C705.52545,423.14346,711.79346,429.41147,711.79346,437.14346 z" fill="#f76ca3" fill-opacity="0.5" opacity="0.5" stroke="#f76ca3" stroke-opacity="0.5" stroke-width="0"/>
<path d="M203.39299,574.24133 C203.39299,581.9733,197.12497,588.24133,189.39299,588.24133 C181.66101,588.24133,175.39299,581.9733,175.39299,574.24133 C175.39299,566.50934,181.66101,560.24133,189.39299,560.24133 C197.12497,560.24133,203.39299,566.50934,203.39299,574.24133 z" fill="#fcbcbd" fill-opacity="0.5" opacity="0.5" stroke="#fcbcbd" stroke-opacity="0.5" stroke-width="0"/>
<path d="M656.0504,328.7986 C656.0504,336.5306,649.7824,342.7986,642.0504,342.7986 C634.3184,342.7986,628.0504,336.5306,628.0504,328.7986 C628.0504,321.06662,634.3184,314.7986,642.0504,314.7986 C649.7824,314.7986,656.0504,321.06662,656.0504,328.7986 z" fill="#f565a0" fill-opacity="0.5" opacity="0.5" stroke="#f565a0" stroke-opacity="0.5" stroke-width="0"/>
<path d="M781.0986,319.11032 C781.0986,326.84232,774.83057,333.11032,767.0986,333.11032 C759.3666,333.11032,753.0986,326.84232,753.0986,319.11032 C753.0986,311.37833,759.3666,305.11032,767.0986,305.11032 C774.83057,305.11032,781.0986,311.37833,781.0986,319.11032 z" fill="#830178" fill-opacity="0.5" opacity="0.5" stroke="#830178" stroke-opacity="0.5" stroke-width="0"/>
<path d="M515.71387,312.65082 C515.71387,320.3828,509.44586,326.65082,501.71387,326.65082 C493.98187,326.65082,487.71387,320.3828,487.71387,312.65082 C487.71387,304.91882,493.98187,298.65082,501.71387,298.65082 C509.44586,298.65082,515.71387,304.91882,515.71387,312.65082 z" fill="#fa9ab3" fill-opacity="0.5" opacity="0.5" stroke="#fa9ab3" stroke-opacity="0.5" stroke-width="0"/>
<path d="M290.90555,518.4096 C290.90555,526.1416,284.63754,532.4096,276.90555,532.4096 C269.17355,532.4096,262.90555,526.1416,262.90555,518.4096 C262.90555,510.6776,269.17355,504.4096,276.90555,504.4096 C284.63754,504.4096,290.90555,510.6776,290.90555,518.4096 z" fill="#f98dae" fill-opacity="0.5" opacity="0.5" stroke="#f98dae" stroke-opacity="0.5" stroke-width="0"/>
<path d="M170.06139,368.41794 C170.06139,376.14993,163.79337,382.41794,156.06139,382.41794 C148.3294,382.41794,142.06139,376.14993,142.06139,368.41794 C142.06139,360.68594,148.3294,354.41794,156.06139,354.41794 C163.79337,354.41794,170.06139,360.68594,170.06139,368.41794 z" fill="#fcc6c2" fill-opacity="0.5" opacity="0.5" stroke="#fcc6c2" stroke-opacity="0.5" stroke-width="0"/>
<path d="M578.01025,494.7154 C578.01025,502.4474,571.74225,508.7154,564.01025,508.7154 C556.27826,508.7154,550.01025,502.4474,550.01025,494.7154 C550.01025,486.9834,556.27826,480.7154,564.01025,480.7154 C571.74225,480.7154,578.01025,486.9834,578.01025,494.7154 z" fill="#f877a6" fill-opacity="0.5" opacity="0.5" stroke="#f877a6" stroke-opacity="0.5" stroke-width="0"/>
<path d="M465.77246,259.836 C465.77246,267.568,459.50446,273.836,451.77246,273.836 C444.04047,273.836,437.77246,267.568,437.77246,259.836 C437.77246,252.104,444.04047,245.836,451.77246,245.836 C459.50446,245.836,465.77246,252.104,465.77246,259.836 z" fill="#e84a9b" fill-opacity="0.5" opacity="0.5" stroke="#e84a9b" stroke-opacity="0.5" stroke-width="0"/>
<path d="M715.441,259.15384 C715.441,266.88583,709.173,273.15384,701.441,273.15384 C693.709,273.15384,687.441,266.88583,687.441,259.15384 C687.441,251.42184,693.709,245.15384,701.441,245.15384 C709.173,245.15384,715.441,251.42184,715.441,259.15384 z" fill="#90017a" fill-opacity="0.5" opacity="0.5" stroke="#90017a" stroke-opacity="0.5" stroke-width="0"/>
<path d="M481.89108,224.97827 C481.89108,232.71027,475.62308,238.97827,467.89108,238.97827 C460.1591,238.97827,453.89108,232.71027,453.89108,224.97827 C453.89108,217.24628,460.1591,210.97827,467.89108,210.97827 C475.62308,210.97827,481.89108,217.24628,481.89108,224.97827 z" fill="#e13c98" fill-opacity="0.5" opacity="0.5" stroke="#e13c98" stroke-opacity="0.5" stroke-width="0"/>
<path d="M291.229,526.1139 C291.229,533.8459,284.961,540.1139,277.229,540.1139 C269.497,540.1139,263.229,533.8459,263.229,526.1139 C263.229,518.3819,269.497,512.1139,277.229,512.1139 C284.961,512.1139,291.229,518.3819,291.229,526.1139 z" fill="#df3898" fill-opacity="0.5" opacity="0.5" stroke="#df3898" stroke-opacity="0.5" stroke-width="0"/>
<path d="M784.7274,309.96933 C784.7274,317.70132,778.4594,323.96933,770.7274,323.96933 C762.9954,323.96933,756.7274,317.70132,756.7274,309.96933 C756.7274,302.23734,762.9954,295.96933,770.7274,295.96933 C778.4594,295.96933,784.7274,302.23734,784.7274,309.96933 z" fill="#de3797" fill-opacity="0.5" opacity="0.5" stroke="#de3797" stroke-opacity="0.5" stroke-width="0"/>
<path d="M390.83432,334.56345 C390.83432,342.29544,384.5663,348.56345,376.83432,348.56345 C369.10233,348.56345,362.83432,342.29544,362.83432,334.56345 C362.83432,326.83145,369.10233,320.56345,376.83432,320.56345 C384.5663,320.56345,390.83432,326.83145,390.83432,334.56345 z" fill="#e13d99" fill-opacity="0.5" opacity="0.5" stroke="#e13d99" stroke-opacity="0.5" stroke-width="0"/>
<path d="M628.38354,419.45343 C628.38354,427.18542,622.11554,433.45343,614.38354,433.45343 C606.65155,433.45343,600.38354,427.18542,600.38354,419.45343 C600.38354,411.72144,606.65155,405.45343,614.38354,405.45343 C622.11554,405.45343,628.38354,411.72144,628.38354,419.45343 z" fill="#d82f94" fill-opacity="0.5" opacity="0.5" stroke="#d82f94" stroke-opacity="0.5" stroke-width="0"/>
<path d="M665.3865,138.65955 C665.3865,146.39154,659.11847,152.65955,651.3865,152.65955 C643.6545,152.65955,637.3865,146.39154,637.3865,138.65955 C637.3865,130.92755,643.6545,124.659546,651.3865,124.659546 C659.11847,124.659546,665.3865,130.92755,665.3865,138.65955 z" fill="#d52c93" fill-opacity="0.5" opacity="0.5" stroke="#d52c93" stroke-opacity="0.5" stroke-width="0"/>
<path d="M682.93243,378.53955 C682.93243,386.27155,676.6644,392.53955,668.93243,392.53955 C661.20044,392.53955,654.93243,386.27155,654.93243,378.53955 C654.93243,370.80756,661.20044,364.53955,668.93243,364.53955 C676.6644,364.53955,682.93243,370.80756,682.93243,378.53955 z" fill="#f361a0" fill-opacity="0.5" opacity="0.5" stroke="#f361a0" stroke-opacity="0.5" stroke-width="0"/>
<path d="M522.9088,368.84326 C522.9088,376.57526,516.6408,382.84326,508.9088,382.84326 C501.17682,382.84326,494.9088,376.57526,494.9088,368.84326 C494.9088,361.11127,501.17682,354.84326,508.9088,354.84326 C516.6408,354.84326,522.9088,361.11127,522.9088,368.84326 z" fill="#a7017d" fill-opacity="0.5" opacity="0.5" stroke="#a7017d" stroke-opacity="0.5" stroke-width="0"/>
<path d="M708.04865,215.57529 C708.04865,223.30728,701.78064,229.57529,694.04865,229.57529 C686.31665,229.57529,680.04865,223.30728,680.04865,215.57529 C680.04865,207.84329,686.31665,201.57529,694.04865,201.57529 C701.78064,201.57529,708.04865,207.84329,708.04865,215.57529 z" fill="#ea4f9c" fill-opacity="0.5" opacity="0.5" stroke="#ea4f9c" stroke-opacity="0.5" stroke-width="0"/>
<path d="M242.68048,431.602 C242.68048,439.33398,236.41248,445.602,228.68048,445.602 C220.94849,445.602,214.68048,439.33398,214.68048,431.602 C214.68048,423.87,220.94849,417.602,228.68048,417.602 C236.41248,417.602,242.68048,423.87,242.68048,431.602 z" fill="#f995b1" fill-opacity="0.5" opacity="0.5" stroke="#f995b1" stroke-opacity="0.5" stroke-width="0"/>
<path d="M539.8016,276.01996 C539.8016,283.75195,533.53357,290.01996,525.8016,290.01996 C518.0696,290.01996,511.80157,283.75195,511.80157,276.01996 C511.80157,268.28796,518.0696,262.01996,525.8016,262.01996 C533.53357,262.01996,539.8016,268.28796,539.8016,276.01996 z" fill="#e23f99" fill-opacity="0.5" opacity="0.5" stroke="#e23f99" stroke-opacity="0.5" stroke-width="0"/>
<path d="M777.2101,390.93655 C777.2101,398.66855,770.9421,404.93655,763.2101,404.93655 C755.4781,404.93655,749.2101,398.66855,749.2101,390.93655 C749.2101,383.20456,755.4781,376.93655,763.2101,376.93655 C770.9421,376.93655,777.2101,383.20456,777.2101,390.93655 z" fill="#d22891" fill-opacity="0.5" opacity="0.5" stroke="#d22891" stroke-opacity="0.5" stroke-width="0"/>
<path d="M378.44937,309.6557 C378.44937,317.3877,372.18137,323.6557,364.44937,323.6557 C356.71738,323.6557,350.44937,317.3877,350.44937,309.6557 C350.44937,301.9237,356.71738,295.6557,364.44937,295.6557 C372.18137,295.6557,378.44937,301.9237,378.44937,309.6557 z" fill="#f882aa" fill-opacity="0.5" opacity="0.5" stroke="#f882aa" stroke-opacity="0.5" stroke-width="0"/>
<path d="M652.79114,179.2178 C652.79114,186.9498,646.52313,193.2178,638.79114,193.2178 C631.05914,193.2178,624.79114,186.9498,624.79114,179.2178 C624.79114,171.48581,631.05914,165.2178,638.79114,165.2178 C646.52313,165.2178,652.79114,171.48581,652.79114,179.2178 z" fill="#ef599e" fill-opacity="0.5" opacity="0.5" stroke="#ef599e" stroke-opacity="0.5" stroke-width="0"/>
<path d="M749.2324,351.5125 C749.2324,359.2445,742.9644,365.5125,735.2324,365.5125 C727.5004,365.5125,721.2324,359.2445,721.2324,351.5125 C721.2324,343.78052,727.5004,337.5125,735.2324,337.5125 C742.9644,337.5125,749.2324,343.78052,749.2324,351.5125 z" fill="#ea4d9c" fill-opacity="0.5" opacity="0.5" stroke="#ea4d9c" stroke-opacity="0.5" stroke-width="0"/>
<path d="M148.6858,394.95978 C148.6858,402.69177,142.41779,408.95978,134.6858,408.95978 C126.95382,408.95978,120.68581,402.69177,120.68581,394.95978 C120.68581,387.22778,126.95382,380.95978,134.6858,380.95978 C142.41779,380.95978,148.6858,387.22778,148.6858,394.95978 z" fill="#f565a0" fill-opacity="0.5" opacity="0.5" stroke="#f565a0" stroke-opacity="0.5" stroke-width="0"/>
<path d="M472.4271,350.08823 C472.4271,357.82022,466.1591,364.08823,458.4271,364.08823 C450.6951,364.08823,444.4271,357.82022,444.4271,350.08823 C444.4271,342.35623,450.6951,336.08823,458.4271,336.08823 C466.1591,336.08823,472.4271,342.35623,472.4271,350.08823 z" fill="#fdd6d2" fill-opacity="0.5" opacity="0.5" stroke="#fdd6d2" stroke-opacity="0.5" stroke-width="0"/>
<path d="M692.0359,386.97357 C692.0359,394.70557,685.7679,400.97357,678.0359,400.97357 C670.3039,400.97357,664.0359,394.70557,664.0359,386.97357 C664.0359,379.24158,670.3039,372.97357,678.0359,372.97357 C685.7679,372.97357,692.0359,379.24158,692.0359,386.97357 z" fill="#a0017c" fill-opacity="0.5" opacity="0.5" stroke="#a0017c" stroke-opacity="0.5" stroke-width="0"/>
<path d="M762.5531,306.34274 C762.5531,314.07474,756.2851,320.34274,748.5531,320.34274 C740.8211,320.34274,734.5531,314.07474,734.5531,306.34274 C734.5531,298.61075,740.8211,292.34274,748.5531,292.34274 C756.2851,292.34274,762.5531,298.61075,762.5531,306.34274 z" fill="#e34099" fill-opacity="0.5" opacity="0.5" stroke="#e34099" stroke-opacity="0.5" stroke-width="0"/>
<path d="M329.20486,386.56824 C329.20486,394.30023,322.93686,400.56824,315.20486,400.56824 C307.47287,400.56824,301.20486,394.30023,301.20486,386.56824 C301.20486,378.83624,307.47287,372.56824,315.20486,372.56824 C322.93686,372.56824,329.20486,378.83624,329.20486,386.56824 z" fill="#f985ab" fill-opacity="0.5" opacity="0.5" stroke="#f985ab" stroke-opacity="0.5" stroke-width="0"/>
<path d="M351.16202,396.40604 C351.16202,404.13803,344.894,410.40604,337.16202,410.40604 C329.43002,410.40604,323.16202,404.13803,323.16202,396.40604 C323.16202,388.67404,329.43002,382.40604,337.16202,382.40604 C344.894,382.40604,351.16202,388.67404,351.16202,396.40604 z" fill="#e84a9b" fill-opacity="0.5" opacity="0.5" stroke="#e84a9b" stroke-opacity="0.5" stroke-width="0"/>
<path d="M777.9998,195.80846 C777.9998,203.54044,771.7318,209.80846,763.9998,209.80846 C756.2678,209.80846,749.9998,203.54044,749.9998,195.80846 C749.9998,188.07648,756.2678,181.80846,763.9998,181.80846 C771.7318,181.80846,777.9998,188.07648,777.9998,195.80846 z" fill="#b80c83" fill-opacity="0.5" opacity="0.5" stroke="#b80c83" stroke-opacity="0.5" stroke-width="0"/>
<path d="M183.2406,424.10397 C183.2406,431.83597,176.9726,438.10397,169.2406,438.10397 C161.5086,438.10397,155.2406,431.83597,155.2406,424.10397 C155.2406,416.37198,161.5086,410.10397,169.2406,410.10397 C176.9726,410.10397,183.2406,416.37198,183.2406,424.10397 z" fill="#df3998" fill-opacity="0.5" opacity="0.5" stroke="#df3998" stroke-opacity="0.5" stroke-width="0"/>
<path d="M225.85744,611.31415 C225.85744,619.04614,219.58942,625.31415,211.85744,625.31415 C204.12546,625.31415,197.85744,619.04614,197.85744,611.31415 C197.85744,603.58215,204.12546,597.31415,211.85744,597.31415 C219.58942,597.31415,225.85744,603.58215,225.85744,611.31415 z" fill="#ee559d" fill-opacity="0.5" opacity="0.5" stroke="#ee559d" stroke-opacity="0.5" stroke-width="0"/>
<path d="M591.8385,301.83615 C591.8385,309.56815,585.5705,315.83615,577.8385,315.83615 C570.1065,315.83615,563.8385,309.56815,563.8385,301.83615 C563.8385,294.10416,570.1065,287.83615,577.8385,287.83615 C585.5705,287.83615,591.8385,294.10416,591.8385,301.83615 z" fill="#e13d99" fill-opacity="0.5" opacity="0.5" stroke="#e13d99" stroke-opacity="0.5" stroke-width="0"/>
<path d="M368.37662,399.71063 C368.37662,407.44263,362.1086,413.71063,354.37662,413.71063 C346.64462,413.71063,340.37662,407.44263,340.37662,399.71063 C340.37662,391.97864,346.64462,385.71063,354.37662,385.71063 C362.1086,385.71063,368.37662,391.97864,368.37662,399.71063 z" fill="#f879a7" fill-opacity="0.5" opacity="0.5" stroke="#f879a7" stroke-opacity="0.5" stroke-width="0"/>
<path d="M595.61206,442.69034 C595.61206,450.42233,589.34406,456.69034,581.61206,456.69034 C573.88007,456.69034,567.61206,450.42233,567.61206,442.69034 C567.61206,434.95834,573.88007,428.69034,581.61206,428.69034 C589.34406,428.69034,595.61206,434.95834,595.61206,442.69034 z" fill="#d82e94" fill-opacity="0.5" opacity="0.5" stroke="#d82e94" stroke-opacity="0.5" stroke-width="0"/>
<path d="M697.2937,143.37599 C697.2937,151.10797,691.0257,157.37599,683.2937,157.37599 C675.5617,157.37599,669.2937,151.10797,669.2937,143.37599 C669.2937,135.64401,675.5617,129.37599,683.2937,129.37599 C691.0257,129.37599,697.2937,135.64401,697.2937,143.37599 z" fill="#de3697" fill-opacity="0.5" opacity="0.5" stroke="#de3697" stroke-opacity="0.5" stroke-width="0"/>
<path d="M269.27588,338.1078 C269.27588,345.83978,263.00787,352.1078,255.2759,352.1078 C247.54391,352.1078,241.2759,345.83978,241.2759,338.1078 C241.2759,330.3758,247.54391,324.1078,255.2759,324.1078 C263.00787,324.1078,269.27588,330.3758,269.27588,338.1078 z" fill="#f994b1" fill-opacity="0.5" opacity="0.5" stroke="#f994b1" stroke-opacity="0.5" stroke-width="0"/>
<path d="M600.7106,294.84518 C600.7106,302.57718,594.44257,308.84518,586.7106,308.84518 C578.9786,308.84518,572.7106,302.57718,572.7106,294.84518 C572.7106,287.1132,578.9786,280.84518,586.7106,280.84518 C594.44257,280.84518,600.7106,287.1132,600.7106,294.84518 z" fill="#8a0179" fill-opacity="0.5" opacity="0.5" stroke="#8a0179" stroke-opacity="0.5" stroke-width="0"/>
<path d="M652.19037,311.90833 C652.19037,319.64032,645.92236,325.90833,638.19037,325.90833 C630.4584,325.90833,624.19037,319.64032,624.19037,311.90833 C624.19037,304.17633,630.4584,297.90833,638.19037,297.90833 C645.92236,297.90833,652.19037,304.17633,652.19037,311.90833 z" fill="#dd3597" fill-opacity="0.5" opacity="0.5" stroke="#dd3597" stroke-opacity="0.5" stroke-width="0"/>
<path d="M324.2234,355.6579 C324.2234,363.3899,317.95538,369.6579,310.2234,369.6579 C302.4914,369.6579,296.2234,363.3899,296.2234,355.6579 C296.2234,347.9259,302.4914,341.6579,310.2234,341.6579 C317.95538,341.6579,324.2234,347.9259,324.2234,355.6579 z" fill="#e94b9c" fill-opacity="0.5" opacity="0.5" stroke="#e94b9c" stroke-opacity="0.5" stroke-width="0"/>
<path d="M295.2045,448.023 C295.2045,455.755,288.9365,462.023,281.2045,462.023 C273.4725,462.023,267.2045,455.755,267.2045,448.023 C267.2045,440.29102,273.4725,434.023,281.2045,434.023 C288.9365,434.023,295.2045,440.29102,295.2045,448.023 z" fill="#faa0b5" fill-opacity="0.5" opacity="0.5" stroke="#faa0b5" stroke-opacity="0.5" stroke-width="0"/>
<path d="M339.50266,496.34686 C339.50266,504.07886,333.23465,510.34686,325.50266,510.34686 C317.77066,510.34686,311.50266,504.07886,311.50266,496.34686 C311.50266,488.61487,317.77066,482.34686,325.50266,482.34686 C333.23465,482.34686,339.50266,488.61487,339.50266,496.34686 z" fill="#fcc7c3" fill-opacity="0.5" opacity="0.5" stroke="#fcc7c3" stroke-opacity="0.5" stroke-width="0"/>
<path d="M641.49133,245.4792 C641.49133,253.21118,635.2233,259.4792,627.49133,259.4792 C619.75934,259.4792,613.49133,253.21118,613.49133,245.4792 C613.49133,237.74722,619.75934,231.4792,627.49133,231.4792 C635.2233,231.4792,641.49133,237.74722,641.49133,245.4792 z" fill="#e23e99" fill-opacity="0.5" opacity="0.5" stroke="#e23e99" stroke-opacity="0.5" stroke-width="0"/>
<path d="M161.79004,335.85825 C161.79004,343.59024,155.52203,349.85825,147.79004,349.85825 C140.05804,349.85825,133.79004,343.59024,133.79004,335.85825 C133.79004,328.12625,140.05804,321.85825,147.79004,321.85825 C155.52203,321.85825,161.79004,328.12625,161.79004,335.85825 z" fill="#ad017e" fill-opacity="0.5" opacity="0.5" stroke="#ad017e" stroke-opacity="0.5" stroke-width="0"/>
<path d="M208.63763,168.04185 C208.63763,175.77383,202.36963,182.04185,194.63763,182.04185 C186.90564,182.04185,180.63763,175.77383,180.63763,168.04185 C180.63763,160.30988,186.90564,154.04185,194.63763,154.04185 C202.36963,154.04185,208.63763,160.30988,208.63763,168.04185 z" fill="#faa7b7" fill-opacity="0.5" opacity="0.5" stroke="#faa7b7" stroke-opacity="0.5" stroke-width="0"/>
<path d="M499.6443,416.44376 C499.6443,424.17575,493.37628,430.44376,485.6443,430.44376 C477.9123,430.44376,471.6443,424.17575,471.6443,416.44376 C471.6443,408.71176,477.9123,402.44376,485.6443,402.44376 C493.37628,402.44376,499.6443,408.71176,499.6443,416.44376 z" fill="#c61b8b" fill-opacity="0.5" opacity="0.5" stroke="#c61b8b" stroke-opacity="0.5" stroke-width="0"/>
<path d="M477.75293,554.4902 C477.75293,562.22217,471.48492,568.4902,463.75293,568.4902 C456.02094,568.4902,449.75293,562.22217,449.75293,554.4902 C449.75293,546.7582,456.02094,540.4902,463.75293,540.4902 C471.48492,540.4902,477.75293,546.7582,477.75293,554.4902 z" fill="#b40881" fill-opacity="0.5" opacity="0.5" stroke="#b40881" stroke-opacity="0.5" stroke-width="0"/>
<path d="M155.84984,348.1036 C155.84984,355.8356,149.58182,362.1036,141.84984,362.1036 C134.11786,362.1036,127.84984,355.8356,127.84984,348.1036 C127.84984,340.3716,134.11786,334.1036,141.84984,334.1036 C149.58182,334.1036,155.84984,340.3716,155.84984,348.1036 z" fill="#fa9bb4" fill-opacity="0.5" opacity="0.5" stroke="#fa9bb4" stroke-opacity="0.5" stroke-width="0"/>
<path d="M254.2009,495.9187 C254.2009,503.6507,247.93289,509.9187,240.2009,509.9187 C232.4689,509.9187,226.2009,503.6507,226.2009,495.9187 C226.2009,488.1867,232.4689,481.9187,240.2009,481.9187 C247.93289,481.9187,254.2009,488.1867,254.2009,495.9187 z" fill="#de3697" fill-opacity="0.5" opacity="0.5" stroke="#de3697" stroke-opacity="0.5" stroke-width="0"/>
<path d="M99.11819,655 L99.11819,660" fill="none" shape-rendering="crispEdges" stroke="#444444" stroke-width="1"/>
<text fill="#444444" font-family="sans-serif" font-size="12" x="91.91819" y="672">
11
</text>
<path d="M285.7091,655 L285.7091,660" fill="none" shape-rendering="crispEdges" stroke="#444444" stroke-width="1"/>
<text fill="#444444" font-family="sans-serif" font-size="12" x="278.5091" y="672">
12
</text>
<path d="M472.3,655 L472.3,660" fill="none" shape-rendering="crispEdges" stroke="#444444" stroke-width="1"/>
<text fill="#444444" font-family="sans-serif" font-size="12" x="465.09998" y="672">
13
</text>
<path d="M658.8909,655 L658.8909,660" fill="none" shape-rendering="crispEdges" stroke="#444444" stroke-width="1"/>
<text fill="#444444" font-family="sans-serif" font-size="12" x="651.6909" y="672">
14
</text>
<path d="M845.4818,655 L845.4818,660" fill="none" shape-rendering="crispEdges" stroke="#444444" stroke-width="1"/>
<text fill="#444444" font-family="sans-serif" font-size="12" x="838.2818" y="672">
15
</text>
<path d="M61.800003,627.4091 L56.800003,627.4091" fill="none" shape-rendering="crispEdges" stroke="#444444" stroke-width="1"/>
<text fill="#444444" font-family="sans-serif" font-size="12" x="31" y="632.2091">
750
</text>
<path d="M61.800003,517.0455 L56.800003,517.0455" fill="none" shape-rendering="crispEdges" stroke="#444444" stroke-width="1"/>
<text fill="#444444" font-family="sans-serif" font-size="12" x="24" y="521.84546">
1000
</text>
<path d="M61.800003,406.68182 L56.800003,406.68182" fill="none" shape-rendering="crispEdges" stroke="#444444" stroke-width="1"/>
<text fill="#444444" font-family="sans-serif" font-size="12" x="24" y="411.4818">
1250
</text>
<path d="M61.800003,296.31818 L56.800003,296.31818" fill="none" shape-rendering="crispEdges" stroke="#444444" stroke-width="1"/>
<text fill="#444444" font-family="sans-serif" font-size="12" x="24" y="301.11816">
1500
</text>
<path d="M61.800003,185.95454 L56.800003,185.95454" fill="none" shape-rendering="crispEdges" stroke="#444444" stroke-width="1"/>
<text fill="#444444" font-family="sans-serif" font-size="12" x="24" y="190.75455">
1750
</text>
<path d="M61.800003,75.59091 L56.800003,75.59091" fill="none" shape-rendering="crispEdges" stroke="#444444" stroke-width="1"/>
<text fill="#444444" font-family="sans-serif" font-size="12" x="24" y="80.390915">
2000
</text>
<path d="M61.800003,655 L882.8,655" fill="none" shape-rendering="crispEdges" stroke="#000000" stroke-width="1"/>
<path d="M61.800003,48 L61.800003,655" fill="none" shape-rendering="crispEdges" stroke="#000000" stroke-width="1"/>
<rect fill="#ffffff" height="36" shape-rendering="crispEdges" width="114" x="752.8" y="64"/>
<path d="M752.8,64 L866.8,64 L866.8,100 L752.8,100 z" fill="none" shape-rendering="crispEdges" stroke="#444444" stroke-width="1"/>
<path d="M771.6,78 C771.6,80.65097,769.4509,82.8,766.8,82.8 C764.14905,82.8,762,80.65097,762,78 C762,75.34903,764.14905,73.2,766.8,73.2 C769.4509,73.2,771.6,75.34903,771.6,78" fill="#fa98b2" stroke="#000000" stroke-width="0"/>
<text fill="#333333" font-family="sans-serif" font-size="12" x="778.8" y="82">
Wine samples
</text>
</svg>