<svg xmlns="http://www.w3.org/2000/svg" width="900" height="700" viewBox="0 0 900 700"><path fill="#fff" d="M61.8 48h821v607h-821z" shape-rendering="crispEdges"/><text x="169.9" y="32" fill="#111" font-family="sans-serif" font-size="16">
Wine: alcohol × proline (size = √proline, color = intensity)
</text><text x="418.3" y="690" fill="#333" font-family="sans-serif" font-size="12">
Alcohol (% vol)
</text><text x="22" y="401.9" fill="#333" font-family="sans-serif" font-size="12" transform="rotate(-90 22 401.9)">
Proline (mg/L)
</text><path fill="none" stroke="#ddd" d="M99.118 655V48M285.71 655V48M472.3 655V48m186.59 607V48m186.592 607V48M61.8 627.41h821m-821-110.365h821m-821-110.363h821m-821-110.364h821m-821-110.363h821M61.8 75.59h821" shape-rendering="crispEdges"/><path fill="#fa98b2" fill-opacity=".5" d="M304.885 351.809c0 7.732-6.268 14-14 14s-14-6.268-14-14 6.268-14 14-14 14 6.268 14 14"/><path fill="#f15c9f" fill-opacity=".5" d="M551.884 473.041c0 7.732-6.269 14-14 14-7.732 0-14-6.268-14-14s6.268-14 14-14c7.731 0 14 6.268 14 14"/><path fill="#f996b2" fill-opacity=".5" d="M228.301 412.598c0 7.732-6.268 14-14 14s-14-6.268-14-14 6.268-14 14-14 14 6.268 14 14"/><path fill="#f874a5" fill-opacity=".5" d="M685.778 312.515c0 7.732-6.268 14-14 14s-14-6.268-14-14 6.268-14 14-14 14 6.268 14 14"/><path fill="#ab017e" fill-opacity=".5" d="M839.938 258.19c0 7.732-6.269 14-14 14-7.732 0-14-6.268-14-14s6.268-14 14-14c7.731 0 14 6.268 14 14"/><path fill="#b20580" fill-opacity=".5" d="M550.389 351.098c0 7.732-6.268 14-14 14s-14-6.268-14-14 6.268-14 14-14 14 6.268 14 14"/><path fill="#cf258f" fill-opacity=".5" d="M748.36 313.345c0 7.731-6.268 14-14 14s-14-6.269-14-14c0-7.732 6.268-14 14-14s14 6.268 14 14"/><path fill="#d42a92" fill-opacity=".5" d="M570.8 404.38c0 7.733-6.268 14-14 14s-14-6.267-14-14c0-7.731 6.268-14 14-14s14 6.269 14 14"/><path fill="#e13c98" fill-opacity=".5" d="M670.94 371.109c0 7.732-6.268 14-14 14s-14-6.268-14-14 6.268-14 14-14 14 6.268 14 14"/><path fill="#fde6e2" fill-opacity=".5" d="M159.662 319.01c0 7.733-6.268 14-14 14s-14-6.267-14-14c0-7.731 6.268-14 14-14s14 6.269 14 14"/><path fill="#fef1ed" fill-opacity=".5" d="M144.36 615.784c0 7.695-6.238 13.932-13.932 13.932s-13.932-6.237-13.932-13.932c0-7.694 6.238-13.931 13.932-13.931s13.931 6.237 13.931 13.931"/><path fill="#d02690" fill-opacity=".5" d="M258.527 404.635c0 7.732-6.268 14-14 14s-14-6.268-14-14 6.268-14 14-14 14 6.268 14 14"/><path fill="#f881aa" fill-opacity=".5" d="M216.574 324.31c0 7.733-6.268 14-14 14s-14-6.267-14-14c0-7.731 6.268-14 14-14s14 6.269 14 14"/><path fill="#f463a0" fill-opacity=".5" d="M623.657 443.398c0 7.731-6.268 14-14 14s-14-6.269-14-14c0-7.733 6.268-14 14-14s14 6.267 14 14"/><path fill="#e03a98" fill-opacity=".5" d="M480.12 534.171c0 7.732-6.269 14-14 14-7.733 0-14-6.268-14-14s6.267-14 14-14c7.731 0 14 6.268 14 14"/><path fill="#e94c9c" fill-opacity=".5" d="M686.1 285.24c0 7.732-6.267 14-14 14-7.731 0-14-6.268-14-14s6.269-14 14-14c7.733 0 14 6.268 14 14"/><path fill="#c01588" fill-opacity=".5" d="M772.039 369.225c0 7.732-6.268 14-14 14s-14-6.268-14-14 6.268-14 14-14 14 6.268 14 14"/><path fill="#e4429a" fill-opacity=".5" d="M727.552 272.335c0 7.732-6.268 14-14 14s-14-6.268-14-14 6.268-14 14-14 14 6.268 14 14"/><path fill="#e6479b" fill-opacity=".5" d="M772.582 446.943c0 7.732-6.268 14-14 14s-14-6.268-14-14 6.268-14 14-14 14 6.268 14 14"/><path fill="#f35f9f" fill-opacity=".5" d="M777.47 383.689c0 7.732-6.268 14-14 14s-14-6.268-14-14 6.268-14 14-14 14 6.268 14 14"/><path fill="#ee579e" fill-opacity=".5" d="M793.41 400.163c0 7.732-6.267 14-14 14-7.731 0-14-6.268-14-14s6.269-14 14-14c7.733 0 14 6.268 14 14"/><path fill="#e94b9c" fill-opacity=".5" d="M542.998 420.249c0 7.732-6.268 14-14 14s-14-6.268-14-14 6.268-14 14-14 14 6.268 14 14"/><path fill="#e13b98" fill-opacity=".5" d="M346.535 397.062c0 7.732-6.268 14-14 14s-14-6.268-14-14 6.268-14 14-14 14 6.268 14 14"/><path fill="#fcc2bf" fill-opacity=".5" d="M230.553 522.154c0 7.732-6.268 14-14 14s-14-6.268-14-14 6.268-14 14-14 14 6.268 14 14"/><path fill="#e6479b" fill-opacity=".5" d="M242.575 580.46c0 7.733-6.268 14-14 14s-14-6.267-14-14c0-7.731 6.268-14 14-14s14 6.269 14 14"/><path fill="#f87aa8" fill-opacity=".5" d="M455.402 312.07c0 7.732-6.268 14-14 14s-14-6.268-14-14 6.268-14 14-14 14 6.268 14 14"/><path fill="#f98aad" fill-opacity=".5" d="M307.083 318.769c0 7.732-6.268 14-14 14s-14-6.268-14-14 6.268-14 14-14 14 6.268 14 14"/><path fill="#c81d8c" fill-opacity=".5" d="M636.004 389.168c0 7.732-6.269 14-14 14-7.733 0-14-6.268-14-14s6.267-14 14-14c7.731 0 14 6.268 14 14"/><path fill="#f98bae" fill-opacity=".5" d="M339.55 472.413c0 7.732-6.269 14-14 14-7.733 0-14-6.268-14-14s6.267-14 14-14c7.731 0 14 6.268 14 14"/><path fill="#a5017d" fill-opacity=".5" d="M779.398 484.126c0 7.732-6.268 14-14 14s-14-6.268-14-14 6.268-14 14-14 14 6.268 14 14"/><path fill="#a4017d" fill-opacity=".5" d="M833.927 316.296c0 7.732-6.268 14-14 14s-14-6.268-14-14 6.268-14 14-14 14 6.268 14 14"/><path fill="#49006a" fill-opacity=".5" d="M810.939 368.483c0 7.732-6.268 14-14 14s-14-6.268-14-14 6.268-14 14-14 14 6.268 14 14"/><path fill="#670172" fill-opacity=".5" d="M809.671 293.192c0 7.732-6.268 14-14 14s-14-6.268-14-14 6.268-14 14-14 14 6.268 14 14"/><path fill="#fbb8bc" fill-opacity=".5" d="M364.837 324.313c0 7.732-6.268 14-14 14s-14-6.268-14-14 6.268-14 14-14 14 6.268 14 14"/><path fill="#b90d84" fill-opacity=".5" d="M769.32 264.82c0 7.732-6.267 14-14 14-7.731 0-14-6.268-14-14s6.269-14 14-14c7.733 0 14 6.268 14 14"/><path fill="#db3196" fill-opacity=".5" d="M703.452 334.553c0 7.732-6.268 14-14 14s-14-6.268-14-14 6.268-14 14-14 14 6.268 14 14"/><path fill="#dc3397" fill-opacity=".5" d="M258.378 436.027c0 7.732-6.268 14-14 14s-14-6.268-14-14 6.268-14 14-14 14 6.268 14 14"/><path fill="#faa5b7" fill-opacity=".5" d="M619.016 292.293c0 7.732-6.268 14-14 14s-14-6.268-14-14 6.268-14 14-14 14 6.268 14 14"/><path fill="#f05b9e" fill-opacity=".5" d="M561.023 281.759c0 7.732-6.268 14-14 14s-14-6.268-14-14 6.268-14 14-14 14 6.268 14 14"/><path fill="#e7499b" fill-opacity=".5" d="M421.712 227.844c0 7.732-6.268 14-14 14s-14-6.268-14-14 6.268-14 14-14 14 6.268 14 14"/><path fill="#f990af" fill-opacity=".5" d="M641.508 295.58c0 7.731-6.268 14-14 14s-14-6.269-14-14c0-7.733 6.268-14 14-14s14 6.267 14 14M286.096 542.52c0 7.732-6.268 14-14 14s-14-6.268-14-14 6.268-14 14-14 14 6.268 14 14"/><path fill="#aa017d" fill-opacity=".5" d="M478.524 371.8c0 7.732-6.268 14-14 14s-14-6.268-14-14 6.268-14 14-14 14 6.268 14 14"/><path fill="#faa5b7" fill-opacity=".5" d="M160.302 486.168c0 7.732-6.268 14-14 14s-14-6.268-14-14 6.268-14 14-14 14 6.268 14 14"/><path fill="#f76ea3" fill-opacity=".5" d="M192.47 526.194c0 7.732-6.268 14-14 14s-14-6.268-14-14 6.268-14 14-14 14 6.268 14 14"/><path fill="#faa7b7" fill-opacity=".5" d="M470.795 151.75c0 7.733-6.268 14-14 14s-14-6.267-14-14c0-7.731 6.268-14 14-14s14 6.269 14 14"/><path fill="#c61c8b" fill-opacity=".5" d="M761.508 278.307c0 7.732-6.268 14-14 14s-14-6.268-14-14 6.268-14 14-14 14 6.268 14 14"/><path fill="#fbaeb9" fill-opacity=".5" d="M638.952 386.62c0 7.733-6.268 14-14 14s-14-6.267-14-14c0-7.731 6.268-14 14-14s14 6.269 14 14"/><path fill="#e13d99" fill-opacity=".5" d="M777.424 328.79c0 7.732-6.268 14-14 14s-14-6.268-14-14 6.268-14 14-14 14 6.268 14 14"/><path fill="#bc1085" fill-opacity=".5" d="M395.952 347.208c0 7.732-6.268 14-14 14s-14-6.268-14-14 6.268-14 14-14 14 6.268 14 14"/><path fill="#d72d93" fill-opacity=".5" d="M470.194 499.197c0 7.732-6.268 14-14 14s-14-6.268-14-14 6.268-14 14-14 14 6.268 14 14"/><path fill="#fbb8bc" fill-opacity=".5" d="M496.785 206.384c0 7.732-6.268 14-14 14s-14-6.268-14-14 6.268-14 14-14 14 6.268 14 14"/><path fill="#faa1b6" fill-opacity=".5" d="M232.062 360.82c0 7.732-6.269 14-14 14-7.732 0-14-6.268-14-14s6.268-14 14-14c7.731 0 14 6.268 14 14"/><path fill="#fba9b8" fill-opacity=".5" d="M768.774 324.781c0 7.732-6.268 14-14 14s-14-6.268-14-14 6.268-14 14-14 14 6.268 14 14"/><path fill="#f883ab" fill-opacity=".5" d="M576.981 443.646c0 7.732-6.268 14-14 14s-14-6.268-14-14 6.268-14 14-14 14 6.268 14 14"/><path fill="#e5469a" fill-opacity=".5" d="M333.125 417.836c0 7.732-6.268 14-14 14s-14-6.268-14-14 6.268-14 14-14 14 6.268 14 14"/><path fill="#be1286" fill-opacity=".5" d="M502.505 398.749c0 7.732-6.268 14-14 14s-14-6.268-14-14 6.268-14 14-14 14 6.268 14 14"/><path fill="#8a0179" fill-opacity=".5" d="M843.071 293.323c0 7.732-6.268 14-14 14s-14-6.268-14-14 6.268-14 14-14 14 6.268 14 14"/><path fill="#fa9db4" fill-opacity=".5" d="M232.213 395.114c0 7.732-6.268 14-14 14s-14-6.268-14-14 6.268-14 14-14 14 6.268 14 14"/><path fill="#c91f8c" fill-opacity=".5" d="M508.452 223.874c0 7.732-6.268 14-14 14s-14-6.268-14-14 6.268-14 14-14 14 6.268 14 14"/><path fill="#f872a4" fill-opacity=".5" d="M278.018 396.262c0 7.732-6.268 14-14 14s-14-6.268-14-14 6.268-14 14-14 14 6.268 14 14"/><path fill="#f98aad" fill-opacity=".5" d="M454.587 517.756c0 7.732-6.268 14-14 14s-14-6.268-14-14 6.268-14 14-14 14 6.268 14 14"/><path fill="#f883ab" fill-opacity=".5" d="M326.67 393.58c0 7.733-6.268 14-14 14s-14-6.267-14-14c0-7.731 6.268-14 14-14s14 6.269 14 14"/><path fill="#e6479b" fill-opacity=".5" d="M530.648 180.44c0 7.732-6.268 14-14 14s-14-6.268-14-14 6.268-14 14-14 14 6.268 14 14"/><path fill="#fcd1cd" fill-opacity=".5" d="M325.746 410.158c0 7.732-6.268 14-14 14s-14-6.268-14-14 6.268-14 14-14 14 6.268 14 14"/><path fill="#f87ba8" fill-opacity=".5" d="M207.178 356.515c0 7.732-6.268 14-14 14s-14-6.268-14-14 6.268-14 14-14 14 6.268 14 14"/><path fill="#c91e8c" fill-opacity=".5" d="M671.345 413.068c0 7.732-6.268 14-14 14s-14-6.268-14-14 6.268-14 14-14 14 6.268 14 14"/><path fill="#f770a4" fill-opacity=".5" d="M201.463 493.38c0 7.732-6.268 14-14 14s-14-6.268-14-14 6.268-14 14-14 14 6.268 14 14"/><path fill="#f98dae" fill-opacity=".5" d="M291.111 314.77c0 7.732-6.268 14-14 14s-14-6.268-14-14 6.268-14 14-14 14 6.268 14 14"/><path fill="#f986ac" fill-opacity=".5" d="M264.665 482.794c0 7.732-6.268 14-14 14s-14-6.268-14-14 6.268-14 14-14 14 6.268 14 14"/><path fill="#b0037f" fill-opacity=".5" d="M812.087 362.962c0 7.732-6.268 14-14 14s-14-6.268-14-14 6.268-14 14-14 14 6.268 14 14"/><path fill="#f3609f" fill-opacity=".5" d="M272.453 550.633c0 7.732-6.268 14-14 14s-14-6.268-14-14 6.268-14 14-14 14 6.268 14 14"/><path fill="#f463a0" fill-opacity=".5" d="M619.98 398.493c0 7.732-6.268 14-14 14-7.731 0-14-6.268-14-14s6.269-14 14-14c7.732 0 14 6.268 14 14"/><path fill="#f76ea3" fill-opacity=".5" d="M255.67 385.492c0 7.732-6.269 14-14 14-7.733 0-14-6.268-14-14s6.267-14 14-14c7.731 0 14 6.268 14 14"/><path fill="#eb519c" fill-opacity=".5" d="M129.232 491.877c0 7.731-6.268 14-14 14s-14-6.269-14-14c0-7.733 6.268-14 14-14s14 6.267 14 14"/><path fill="#faa8b8" fill-opacity=".5" d="M173.046 355.708c0 7.732-6.268 14-14 14s-14-6.268-14-14 6.268-14 14-14 14 6.268 14 14"/><path fill="#faa1b6" fill-opacity=".5" d="M681.232 456.269c0 7.732-6.268 14-14 14s-14-6.268-14-14 6.268-14 14-14 14 6.268 14 14"/><path fill="#dc3497" fill-opacity=".5" d="M373.07 425.16c0 7.732-6.268 14-14 14s-14-6.268-14-14 6.268-14 14-14 14 6.268 14 14"/><path fill="#f87ca8" fill-opacity=".5" d="M149.354 481.219c0 7.732-6.268 14-14 14s-14-6.268-14-14 6.268-14 14-14 14 6.268 14 14"/><path fill="#f988ad" fill-opacity=".5" d="M635.889 377.082c0 7.732-6.268 14-14 14s-14-6.268-14-14 6.268-14 14-14 14 6.268 14 14"/><path fill="#fa9db4" fill-opacity=".5" d="M401.749 371.126c0 7.732-6.268 14-14 14s-14-6.268-14-14 6.268-14 14-14 14 6.268 14 14"/><path fill="#b30681" fill-opacity=".5" d="M577.665 213.691c0 7.732-6.268 14-14 14s-14-6.268-14-14 6.268-14 14-14 14 6.268 14 14"/><path fill="#eb509c" fill-opacity=".5" d="M614.236 545.515c0 7.732-6.268 14-14 14s-14-6.268-14-14 6.268-14 14-14 14 6.268 14 14"/><path fill="#f76fa3" fill-opacity=".5" d="M198.948 415.91c0 7.731-6.268 14-14 14s-14-6.269-14-14c0-7.733 6.268-14 14-14s14 6.267 14 14"/><path fill="#fa9db4" fill-opacity=".5" d="M597.462 280.46c0 7.731-6.268 14-14 14s-14-6.269-14-14c0-7.733 6.268-14 14-14s14 6.267 14 14"/><path fill="#840178" fill-opacity=".5" d="M599.951 374.737c0 7.732-6.268 14-14 14s-14-6.268-14-14 6.268-14 14-14 14 6.268 14 14"/><path fill="#a8017d" fill-opacity=".5" d="M817.39 395.245c0 7.732-6.269 14-14 14-7.733 0-14-6.268-14-14s6.267-14 14-14c7.731 0 14 6.268 14 14"/><path fill="#f76da3" fill-opacity=".5" d="M499.984 444.783c0 7.732-6.268 14-14 14s-14-6.268-14-14 6.268-14 14-14 14 6.268 14 14"/><path fill="#b30681" fill-opacity=".5" d="M729.296 353.473c0 7.732-6.268 14-14 14s-14-6.268-14-14 6.268-14 14-14 14 6.268 14 14"/><path fill="#c4198a" fill-opacity=".5" d="M261.87 356.668c0 7.732-6.267 14-14 14-7.731 0-14-6.268-14-14s6.269-14 14-14c7.733 0 14 6.268 14 14"/><path fill="#f87aa8" fill-opacity=".5" d="M365.467 614.007c0 7.713-6.253 13.967-13.967 13.967s-13.967-6.254-13.967-13.968c0-7.713 6.253-13.967 13.967-13.967s13.967 6.254 13.967 13.967"/><path fill="#a0017c" fill-opacity=".5" d="M759.685 371.41c0 7.732-6.268 14-14 14s-14-6.268-14-14 6.268-14 14-14 14 6.268 14 14"/><path fill="#bb0f84" fill-opacity=".5" d="M836.269 295.141c0 7.732-6.268 14-14 14s-14-6.268-14-14 6.268-14 14-14 14 6.268 14 14"/><path fill="#eb509c" fill-opacity=".5" d="M200.174 304.666c0 7.732-6.268 14-14 14s-14-6.268-14-14 6.268-14 14-14 14 6.268 14 14"/><path fill="#cf258f" fill-opacity=".5" d="M799.206 213.573c0 7.732-6.268 14-14 14s-14-6.268-14-14 6.268-14 14-14 14 6.268 14 14"/><path fill="#f769a1" fill-opacity=".5" d="M474.063 322.994c0 7.732-6.268 14-14 14s-14-6.268-14-14 6.268-14 14-14 14 6.268 14 14"/><path fill="#ed549d" fill-opacity=".5" d="M776.874 509.462c0 7.732-6.268 14-14 14s-14-6.268-14-14 6.268-14 14-14 14 6.268 14 14"/><path fill="#bc1085" fill-opacity=".5" d="M647.335 334.016c0 7.732-6.268 14-14 14s-14-6.268-14-14 6.268-14 14-14 14 6.268 14 14"/><path fill="#ec529d" fill-opacity=".5" d="M364.681 400.577c0 7.732-6.268 14-14 14s-14-6.268-14-14 6.268-14 14-14 14 6.268 14 14"/><path fill="#c11588" fill-opacity=".5" d="M788.338 284.353c0 7.732-6.268 14-14 14s-14-6.268-14-14 6.268-14 14-14 14 6.268 14 14"/><path fill="#de3697" fill-opacity=".5" d="M172.367 552.028c0 7.732-6.268 14-14 14s-14-6.268-14-14 6.268-14 14-14 14 6.268 14 14"/><path fill="#dd3597" fill-opacity=".5" d="M217.571 445.79c0 7.731-6.268 14-14 14s-14-6.269-14-14c0-7.733 6.268-14 14-14s14 6.267 14 14"/><path fill="#f984ab" fill-opacity=".5" d="M163.618 414.407c0 7.732-6.268 14-14 14s-14-6.268-14-14 6.268-14 14-14 14 6.268 14 14"/><path fill="#aa017d" fill-opacity=".5" d="M808.799 357.488c0 7.732-6.268 14-14 14s-14-6.268-14-14 6.268-14 14-14 14 6.268 14 14"/><path fill="#51006c" fill-opacity=".5" d="M766.255 340.427c0 7.732-6.268 14-14 14s-14-6.268-14-14 6.268-14 14-14 14 6.268 14 14"/><path fill="#f76da3" fill-opacity=".5" d="M190.74 439.348c0 7.732-6.269 14-14 14-7.732 0-14-6.268-14-14s6.268-14 14-14c7.731 0 14 6.268 14 14"/><path fill="#faa5b7" fill-opacity=".5" d="M165.35 478.692c0 7.732-6.268 14-14 14s-14-6.268-14-14 6.268-14 14-14 14 6.268 14 14"/><path fill="#a5017d" fill-opacity=".5" d="M596.235 408.151c0 7.732-6.268 14-14 14s-14-6.268-14-14 6.268-14 14-14 14 6.268 14 14"/><path fill="#e4429a" fill-opacity=".5" d="M785.892 289.831c0 7.732-6.268 14-14 14s-14-6.268-14-14 6.268-14 14-14 14 6.268 14 14"/><path fill="#fff7f3" fill-opacity=".5" d="M194.82 456.618c0 7.732-6.268 14-14 14s-14-6.268-14-14 6.268-14 14-14 14 6.268 14 14"/><path fill="#ad017e" fill-opacity=".5" d="M696.432 368.62c0 7.733-6.268 14-14 14s-14-6.267-14-14c0-7.731 6.268-14 14-14s14 6.269 14 14"/><path fill="#fbb5bb" fill-opacity=".5" d="M753.35 344.487c0 7.732-6.268 14-14 14s-14-6.268-14-14 6.268-14 14-14 14 6.268 14 14"/><path fill="#bd1186" fill-opacity=".5" d="M560.02 427.433c0 7.732-6.269 14-14 14-7.733 0-14-6.268-14-14s6.267-14 14-14c7.731 0 14 6.268 14 14"/><path fill="#d42a92" fill-opacity=".5" d="M855.685 406.686c0 7.732-6.268 14-14 14s-14-6.268-14-14 6.268-14 14-14 14 6.268 14 14"/><path fill="#f769a1" fill-opacity=".5" d="M206.428 464.851c0 7.732-6.268 14-14 14s-14-6.268-14-14 6.268-14 14-14 14 6.268 14 14"/><path fill="#f990af" fill-opacity=".5" d="M273.813 503.786c0 7.732-6.268 14-14 14s-14-6.268-14-14 6.268-14 14-14 14 6.268 14 14"/><path fill="#f361a0" fill-opacity=".5" d="M394.973 464.83c0 7.733-6.268 14-14 14s-14-6.267-14-14c0-7.731 6.268-14 14-14s14 6.269 14 14"/><path fill="#f881aa" fill-opacity=".5" d="M434.401 361.629c0 7.732-6.268 14-14 14s-14-6.268-14-14 6.268-14 14-14 14 6.268 14 14"/><path fill="#af027e" fill-opacity=".5" d="M820.216 199.897c0 7.732-6.268 14-14 14s-14-6.268-14-14 6.268-14 14-14 14 6.268 14 14"/><path fill="#f15c9f" fill-opacity=".5" d="M851.305 370.757c0 7.732-6.268 14-14 14s-14-6.268-14-14 6.268-14 14-14 14 6.268 14 14"/><path fill="#f874a5" fill-opacity=".5" d="M633.86 415.771c0 7.732-6.268 14-14 14s-14-6.268-14-14 6.268-14 14-14 14 6.268 14 14"/><path fill="#f991b0" fill-opacity=".5" d="M647.59 272.158c0 7.732-6.267 14-14 14-7.731 0-14-6.268-14-14s6.269-14 14-14c7.733 0 14 6.268 14 14"/><path fill="#ee579e" fill-opacity=".5" d="M160.565 302.48c0 7.732-6.268 14-14 14s-14-6.268-14-14 6.268-14 14-14 14 6.268 14 14"/><path fill="#f984ab" fill-opacity=".5" d="M283.914 416.663c0 7.732-6.268 14-14 14s-14-6.268-14-14 6.268-14 14-14 14 6.268 14 14"/><path fill="#f98cae" fill-opacity=".5" d="M201.8 615.98c0 7.691-6.236 13.927-13.928 13.927s-13.927-6.236-13.927-13.928 6.235-13.927 13.927-13.927 13.928 6.235 13.928 13.927"/><path fill="#c51a8a" fill-opacity=".5" d="M854.27 372.742c0 7.732-6.269 14-14 14-7.733 0-14-6.268-14-14s6.267-14 14-14c7.731 0 14 6.268 14 14"/><path fill="#df3998" fill-opacity=".5" d="M729.925 428.552c0 7.732-6.268 14-14 14s-14-6.268-14-14 6.268-14 14-14 14 6.268 14 14"/><path fill="#f76ca3" fill-opacity=".5" d="M711.793 437.143c0 7.732-6.268 14-14 14s-14-6.268-14-14 6.268-14 14-14 14 6.268 14 14"/><path fill="#fcbcbd" fill-opacity=".5" d="M203.393 574.241c0 7.732-6.268 14-14 14s-14-6.268-14-14 6.268-14 14-14 14 6.268 14 14"/><path fill="#f565a0" fill-opacity=".5" d="M656.05 328.799c0 7.732-6.268 14-14 14s-14-6.268-14-14 6.268-14 14-14 14 6.268 14 14"/><path fill="#830178" fill-opacity=".5" d="M781.099 319.11c0 7.732-6.268 14-14 14s-14-6.268-14-14 6.268-14 14-14 14 6.268 14 14"/><path fill="#fa9ab3" fill-opacity=".5" d="M515.714 312.65c0 7.733-6.268 14-14 14s-14-6.267-14-14c0-7.731 6.268-14 14-14s14 6.269 14 14"/><path fill="#f98dae" fill-opacity=".5" d="M290.906 518.41c0 7.732-6.268 14-14 14s-14-6.268-14-14 6.268-14 14-14 14 6.268 14 14"/><path fill="#fcc6c2" fill-opacity=".5" d="M170.061 368.418c0 7.732-6.268 14-14 14s-14-6.268-14-14 6.268-14 14-14 14 6.268 14 14"/><path fill="#f877a6" fill-opacity=".5" d="M578.01 494.715c0 7.732-6.268 14-14 14s-14-6.268-14-14 6.268-14 14-14 14 6.268 14 14"/><path fill="#e84a9b" fill-opacity=".5" d="M465.772 259.836c0 7.732-6.268 14-14 14s-14-6.268-14-14 6.268-14 14-14 14 6.268 14 14"/><path fill="#90017a" fill-opacity=".5" d="M715.441 259.154c0 7.732-6.268 14-14 14s-14-6.268-14-14 6.268-14 14-14 14 6.268 14 14"/><path fill="#e13c98" fill-opacity=".5" d="M481.891 224.978c0 7.732-6.268 14-14 14s-14-6.268-14-14 6.268-14 14-14 14 6.268 14 14"/><path fill="#df3898" fill-opacity=".5" d="M291.229 526.114c0 7.732-6.268 14-14 14s-14-6.268-14-14 6.268-14 14-14 14 6.268 14 14"/><path fill="#de3797" fill-opacity=".5" d="M784.727 309.97c0 7.731-6.268 14-14 14s-14-6.269-14-14c0-7.733 6.268-14 14-14s14 6.267 14 14"/><path fill="#e13d99" fill-opacity=".5" d="M390.834 334.563c0 7.732-6.268 14-14 14s-14-6.268-14-14 6.268-14 14-14 14 6.268 14 14"/><path fill="#d82f94" fill-opacity=".5" d="M628.384 419.453c0 7.732-6.268 14-14 14s-14-6.268-14-14 6.268-14 14-14 14 6.268 14 14"/><path fill="#d52c93" fill-opacity=".5" d="M665.387 138.66c0 7.732-6.269 14-14 14-7.732 0-14-6.268-14-14s6.268-14 14-14c7.731 0 14 6.268 14 14"/><path fill="#f361a0" fill-opacity=".5" d="M682.932 378.54c0 7.732-6.268 14-14 14s-14-6.268-14-14 6.268-14 14-14 14 6.268 14 14"/><path fill="#a7017d" fill-opacity=".5" d="M522.909 368.843c0 7.732-6.268 14-14 14s-14-6.268-14-14 6.268-14 14-14 14 6.268 14 14"/><path fill="#ea4f9c" fill-opacity=".5" d="M708.049 215.575c0 7.732-6.268 14-14 14s-14-6.268-14-14 6.268-14 14-14 14 6.268 14 14"/><path fill="#f995b1" fill-opacity=".5" d="M242.68 431.602c0 7.732-6.268 14-14 14s-14-6.268-14-14 6.268-14 14-14 14 6.268 14 14"/><path fill="#e23f99" fill-opacity=".5" d="M539.802 276.02c0 7.732-6.268 14-14 14s-14-6.268-14-14 6.268-14 14-14 14 6.268 14 14"/><path fill="#d22891" fill-opacity=".5" d="M777.21 390.937c0 7.732-6.268 14-14 14s-14-6.268-14-14 6.268-14 14-14 14 6.268 14 14"/><path fill="#f882aa" fill-opacity=".5" d="M378.45 309.656c0 7.732-6.269 14-14 14-7.733 0-14-6.268-14-14s6.267-14 14-14c7.731 0 14 6.268 14 14"/><path fill="#ef599e" fill-opacity=".5" d="M652.791 179.218c0 7.732-6.268 14-14 14s-14-6.268-14-14 6.268-14 14-14 14 6.268 14 14"/><path fill="#ea4d9c" fill-opacity=".5" d="M749.232 351.513c0 7.732-6.268 14-14 14s-14-6.268-14-14 6.268-14 14-14 14 6.268 14 14"/><path fill="#f565a0" fill-opacity=".5" d="M148.686 394.96c0 7.732-6.268 14-14 14s-14-6.268-14-14 6.268-14 14-14 14 6.268 14 14"/><path fill="#fdd6d2" fill-opacity=".5" d="M472.427 350.088c0 7.732-6.268 14-14 14s-14-6.268-14-14 6.268-14 14-14 14 6.268 14 14"/><path fill="#a0017c" fill-opacity=".5" d="M692.036 386.974c0 7.732-6.268 14-14 14s-14-6.268-14-14 6.268-14 14-14 14 6.268 14 14"/><path fill="#e34099" fill-opacity=".5" d="M762.553 306.343c0 7.732-6.268 14-14 14s-14-6.268-14-14 6.268-14 14-14 14 6.268 14 14"/><path fill="#f985ab" fill-opacity=".5" d="M329.205 386.568c0 7.732-6.268 14-14 14s-14-6.268-14-14 6.268-14 14-14 14 6.268 14 14"/><path fill="#e84a9b" fill-opacity=".5" d="M351.162 396.406c0 7.732-6.268 14-14 14s-14-6.268-14-14 6.268-14 14-14 14 6.268 14 14"/><path fill="#b80c83" fill-opacity=".5" d="M778 195.808c0 7.732-6.268 14-14 14s-14-6.268-14-14 6.268-14 14-14 14 6.268 14 14"/><path fill="#df3998" fill-opacity=".5" d="M183.24 424.104c0 7.732-6.267 14-14 14-7.731 0-14-6.268-14-14s6.269-14 14-14c7.733 0 14 6.268 14 14"/><path fill="#ee559d" fill-opacity=".5" d="M225.857 611.314c0 7.732-6.268 14-14 14s-14-6.268-14-14 6.268-14 14-14 14 6.268 14 14"/><path fill="#e13d99" fill-opacity=".5" d="M591.839 301.836c0 7.732-6.269 14-14 14-7.733 0-14-6.268-14-14s6.267-14 14-14c7.731 0 14 6.268 14 14"/><path fill="#f879a7" fill-opacity=".5" d="M368.377 399.71c0 7.733-6.268 14-14 14s-14-6.267-14-14c0-7.731 6.268-14 14-14s14 6.269 14 14"/><path fill="#d82e94" fill-opacity=".5" d="M595.612 442.69c0 7.732-6.268 14-14 14s-14-6.268-14-14 6.268-14 14-14 14 6.268 14 14"/><path fill="#de3697" fill-opacity=".5" d="M697.294 143.376c0 7.732-6.268 14-14 14s-14-6.268-14-14 6.268-14 14-14 14 6.268 14 14"/><path fill="#f994b1" fill-opacity=".5" d="M269.276 338.108c0 7.732-6.268 14-14 14s-14-6.268-14-14 6.268-14 14-14 14 6.268 14 14"/><path fill="#8a0179" fill-opacity=".5" d="M600.71 294.845c0 7.732-6.267 14-14 14-7.731 0-14-6.268-14-14s6.269-14 14-14c7.733 0 14 6.268 14 14"/><path fill="#dd3597" fill-opacity=".5" d="M652.19 311.908c0 7.732-6.268 14-14 14s-14-6.268-14-14 6.268-14 14-14 14 6.268 14 14"/><path fill="#e94b9c" fill-opacity=".5" d="M324.223 355.658c0 7.732-6.268 14-14 14s-14-6.268-14-14 6.268-14 14-14 14 6.268 14 14"/><path fill="#faa0b5" fill-opacity=".5" d="M295.205 448.023c0 7.732-6.268 14-14 14s-14-6.268-14-14 6.268-14 14-14 14 6.268 14 14"/><path fill="#fcc7c3" fill-opacity=".5" d="M339.503 496.347c0 7.732-6.268 14-14 14s-14-6.268-14-14 6.268-14 14-14 14 6.268 14 14"/><path fill="#e23e99" fill-opacity=".5" d="M641.491 245.48c0 7.731-6.268 14-14 14s-14-6.269-14-14c0-7.733 6.268-14 14-14s14 6.267 14 14"/><path fill="#ad017e" fill-opacity=".5" d="M161.79 335.858c0 7.732-6.268 14-14 14s-14-6.268-14-14 6.268-14 14-14 14 6.268 14 14"/><path fill="#faa7b7" fill-opacity=".5" d="M208.638 168.042c0 7.732-6.268 14-14 14s-14-6.268-14-14 6.268-14 14-14 14 6.268 14 14"/><path fill="#c61b8b" fill-opacity=".5" d="M499.644 416.444c0 7.732-6.268 14-14 14s-14-6.268-14-14 6.268-14 14-14 14 6.268 14 14"/><path fill="#b40881" fill-opacity=".5" d="M477.753 554.49c0 7.732-6.268 14-14 14s-14-6.268-14-14 6.268-14 14-14 14 6.268 14 14"/><path fill="#fa9bb4" fill-opacity=".5" d="M155.85 348.104c0 7.732-6.268 14-14 14s-14-6.268-14-14 6.268-14 14-14 14 6.268 14 14"/><path fill="#de3697" fill-opacity=".5" d="M254.2 495.919c0 7.732-6.267 14-14 14-7.731 0-14-6.268-14-14s6.269-14 14-14c7.733 0 14 6.268 14 14"/><path fill="none" stroke="#444" d="M99.118 655v5" shape-rendering="crispEdges"/><text x="91.918" y="672" fill="#444" font-family="sans-serif" font-size="12">
11
</text><path fill="none" stroke="#444" d="M285.71 655v5" shape-rendering="crispEdges"/><text x="278.509" y="672" fill="#444" font-family="sans-serif" font-size="12">
12
</text><path fill="none" stroke="#444" d="M472.3 655v5" shape-rendering="crispEdges"/><text x="465.1" y="672" fill="#444" font-family="sans-serif" font-size="12">
13
</text><path fill="none" stroke="#444" d="M658.89 655v5" shape-rendering="crispEdges"/><text x="651.691" y="672" fill="#444" font-family="sans-serif" font-size="12">
14
</text><path fill="none" stroke="#444" d="M845.482 655v5" shape-rendering="crispEdges"/><text x="838.282" y="672" fill="#444" font-family="sans-serif" font-size="12">
15
</text><path fill="none" stroke="#444" d="M61.8 627.41h-5" shape-rendering="crispEdges"/><text x="31" y="632.209" fill="#444" font-family="sans-serif" font-size="12">
750
</text><path fill="none" stroke="#444" d="M61.8 517.045h-5" shape-rendering="crispEdges"/><text x="24" y="521.845" fill="#444" font-family="sans-serif" font-size="12">
1000
</text><path fill="none" stroke="#444" d="M61.8 406.682h-5" shape-rendering="crispEdges"/><text x="24" y="411.482" fill="#444" font-family="sans-serif" font-size="12">
1250
</text><path fill="none" stroke="#444" d="M61.8 296.318h-5" shape-rendering="crispEdges"/><text x="24" y="301.118" fill="#444" font-family="sans-serif" font-size="12">
1500
</text><path fill="none" stroke="#444" d="M61.8 185.955h-5" shape-rendering="crispEdges"/><text x="24" y="190.755" fill="#444" font-family="sans-serif" font-size="12">
1750
</text><path fill="none" stroke="#444" d="M61.8 75.59h-5" shape-rendering="crispEdges"/><text x="24" y="80.391" fill="#444" font-family="sans-serif" font-size="12">
2000
</text><path fill="none" stroke="#000" d="M61.8 655h821M61.8 48v607" shape-rendering="crispEdges"/><path fill="#fff" d="M752.8 64h114v36h-114z" shape-rendering="crispEdges"/><path fill="none" stroke="#444" d="M752.8 64h114v36h-114z" shape-rendering="crispEdges"/><path fill="#fa98b2" d="M771.6 78a4.8 4.8 0 1 1-9.6 0 4.8 4.8 0 0 1 9.6 0"/><text x="778.8" y="82" fill="#333" font-family="sans-serif" font-size="12">
Wine samples
</text></svg>