<svg height="600" viewBox="0 0 1000 600" width="1000" xmlns="http://www.w3.org/2000/svg">
<rect fill="#1e1e1e" height="507" shape-rendering="crispEdges" width="917.4" x="61.800003" y="48"/>
<text fill="#ffffff" font-family="sans-serif" font-size="16" x="338.09998" y="32">
Distribution of Synthetic Measurements
</text>
<text fill="#dddddd" font-family="sans-serif" font-size="12" x="502.5" y="590">
Value
</text>
<text fill="#dddddd" font-family="sans-serif" font-size="12" transform="rotate(-90 22, 333.9)" x="22" y="333.9">
Frequency
</text>
<path d="M61.800003,555 L61.800003,48" fill="none" shape-rendering="crispEdges" stroke="#3a3a3a" stroke-width="1"/>
<path d="M291.15002,555 L291.15002,48" fill="none" shape-rendering="crispEdges" stroke="#3a3a3a" stroke-width="1"/>
<path d="M520.5,555 L520.5,48" fill="none" shape-rendering="crispEdges" stroke="#3a3a3a" stroke-width="1"/>
<path d="M749.85004,555 L749.85004,48" fill="none" shape-rendering="crispEdges" stroke="#3a3a3a" stroke-width="1"/>
<path d="M979.2,555 L979.2,48" fill="none" shape-rendering="crispEdges" stroke="#3a3a3a" stroke-width="1"/>
<path d="M61.800003,555 L979.2,555" fill="none" shape-rendering="crispEdges" stroke="#3a3a3a" stroke-width="1"/>
<path d="M61.800003,428.25 L979.2,428.25" fill="none" shape-rendering="crispEdges" stroke="#3a3a3a" stroke-width="1"/>
<path d="M61.800003,301.5 L979.2,301.5" fill="none" shape-rendering="crispEdges" stroke="#3a3a3a" stroke-width="1"/>
<path d="M61.800003,174.75 L979.2,174.75" fill="none" shape-rendering="crispEdges" stroke="#3a3a3a" stroke-width="1"/>
<path d="M61.800003,48 L979.2,48" fill="none" shape-rendering="crispEdges" stroke="#3a3a3a" stroke-width="1"/>
<rect fill="#4f8ab8" height="3.0359497" shape-rendering="crispEdges" width="65.528564" x="61.8" y="551.96405"/>
<rect fill="#4f8ab8" height="9.107788" shape-rendering="crispEdges" width="65.528564" x="127.32858" y="545.8922"/>
<rect fill="#4f8ab8" height="47.056885" shape-rendering="crispEdges" width="65.528564" x="192.85715" y="507.9431"/>
<rect fill="#4f8ab8" height="144.2066" shape-rendering="crispEdges" width="65.528564" x="258.38574" y="410.7934"/>
<rect fill="#4f8ab8" height="262.10178" shape-rendering="crispEdges" width="65.528564" x="323.9143" y="292.89822"/>
<rect fill="#4f8ab8" height="459.9431" shape-rendering="crispEdges" width="65.528564" x="389.44287" y="95.056885"/>
<rect fill="#4f8ab8" height="507" shape-rendering="crispEdges" width="65.528564" x="454.97144" y="48"/>
<rect fill="#4f8ab8" height="467.53293" shape-rendering="crispEdges" width="65.528564" x="520.5" y="87.46707"/>
<rect fill="#4f8ab8" height="332.43414" shape-rendering="crispEdges" width="65.528564" x="586.02856" y="222.56586"/>
<rect fill="#4f8ab8" height="180.13174" shape-rendering="crispEdges" width="65.528564" x="651.5571" y="374.86826"/>
<rect fill="#4f8ab8" height="87.02994" shape-rendering="crispEdges" width="65.528564" x="717.0857" y="467.97006"/>
<rect fill="#4f8ab8" height="21.757507" shape-rendering="crispEdges" width="65.528564" x="782.61426" y="533.2425"/>
<rect fill="#4f8ab8" height="5.565857" shape-rendering="crispEdges" width="65.528564" x="848.1429" y="549.43414"/>
<rect fill="#4f8ab8" height="3.0359497" shape-rendering="crispEdges" width="65.528564" x="913.67145" y="551.96405"/>
<path d="M61.800003,555 L61.800003,560" fill="none" shape-rendering="crispEdges" stroke="#cccccc" stroke-width="1"/>
<text fill="#cccccc" font-family="sans-serif" font-size="12" x="58.200005" y="572">
0
</text>
<path d="M291.15002,555 L291.15002,560" fill="none" shape-rendering="crispEdges" stroke="#cccccc" stroke-width="1"/>
<text fill="#cccccc" font-family="sans-serif" font-size="12" x="283.95" y="572">
25
</text>
<path d="M520.5,555 L520.5,560" fill="none" shape-rendering="crispEdges" stroke="#cccccc" stroke-width="1"/>
<text fill="#cccccc" font-family="sans-serif" font-size="12" x="513.3" y="572">
50
</text>
<path d="M749.85004,555 L749.85004,560" fill="none" shape-rendering="crispEdges" stroke="#cccccc" stroke-width="1"/>
<text fill="#cccccc" font-family="sans-serif" font-size="12" x="742.65" y="572">
75
</text>
<path d="M979.2,555 L979.2,560" fill="none" shape-rendering="crispEdges" stroke="#cccccc" stroke-width="1"/>
<text fill="#cccccc" font-family="sans-serif" font-size="12" x="968.4" y="572">
100
</text>
<path d="M61.800003,555 L56.800003,555" fill="none" shape-rendering="crispEdges" stroke="#cccccc" stroke-width="1"/>
<text fill="#cccccc" font-family="sans-serif" font-size="12" x="45" y="559.8">
0
</text>
<path d="M61.800003,428.25 L56.800003,428.25" fill="none" shape-rendering="crispEdges" stroke="#cccccc" stroke-width="1"/>
<text fill="#cccccc" font-family="sans-serif" font-size="12" x="31" y="433.05">
300
</text>
<path d="M61.800003,301.5 L56.800003,301.5" fill="none" shape-rendering="crispEdges" stroke="#cccccc" stroke-width="1"/>
<text fill="#cccccc" font-family="sans-serif" font-size="12" x="31" y="306.3">
600
</text>
<path d="M61.800003,174.75 L56.800003,174.75" fill="none" shape-rendering="crispEdges" stroke="#cccccc" stroke-width="1"/>
<text fill="#cccccc" font-family="sans-serif" font-size="12" x="31" y="179.55">
900
</text>
<path d="M61.800003,48 L56.800003,48" fill="none" shape-rendering="crispEdges" stroke="#cccccc" stroke-width="1"/>
<text fill="#cccccc" font-family="sans-serif" font-size="12" x="24" y="52.8">
1200
</text>
<path d="M61.800003,555 L979.2,555" fill="none" shape-rendering="crispEdges" stroke="#000000" stroke-width="1"/>
<path d="M61.800003,48 L61.800003,555" fill="none" shape-rendering="crispEdges" stroke="#000000" stroke-width="1"/>
</svg>