<svg height="700" viewBox="0 0 900 700" width="900" xmlns="http://www.w3.org/2000/svg">
<rect fill="#ffffff" height="607" shape-rendering="crispEdges" width="842.6" x="40.2" y="48"/>
<text fill="#111111" font-family="sans-serif" font-size="16" x="307.9" y="32">
Two Clusters in 2D Feature Space
</text>
<text fill="#333333" font-family="sans-serif" font-size="12" x="429.1" y="690">
Feature A
</text>
<text fill="#333333" font-family="sans-serif" font-size="12" transform="rotate(-90 22, 383.9)" x="22" y="383.9">
Feature B
</text>
<path d="M78.5,655 L78.5,48" fill="none" shape-rendering="crispEdges" stroke="#dddddd" stroke-width="1"/>
<path d="M231.7,655 L231.7,48" fill="none" shape-rendering="crispEdges" stroke="#dddddd" stroke-width="1"/>
<path d="M384.9,655 L384.9,48" fill="none" shape-rendering="crispEdges" stroke="#dddddd" stroke-width="1"/>
<path d="M538.1,655 L538.1,48" fill="none" shape-rendering="crispEdges" stroke="#dddddd" stroke-width="1"/>
<path d="M691.3,655 L691.3,48" fill="none" shape-rendering="crispEdges" stroke="#dddddd" stroke-width="1"/>
<path d="M844.5,655 L844.5,48" fill="none" shape-rendering="crispEdges" stroke="#dddddd" stroke-width="1"/>
<path d="M40.2,627.4091 L882.8,627.4091" fill="none" shape-rendering="crispEdges" stroke="#dddddd" stroke-width="1"/>
<path d="M40.2,489.45456 L882.8,489.45456" fill="none" shape-rendering="crispEdges" stroke="#dddddd" stroke-width="1"/>
<path d="M40.2,351.5 L882.8,351.5" fill="none" shape-rendering="crispEdges" stroke="#dddddd" stroke-width="1"/>
<path d="M40.2,213.54546 L882.8,213.54546" fill="none" shape-rendering="crispEdges" stroke="#dddddd" stroke-width="1"/>
<path d="M40.2,75.59091 L882.8,75.59091" fill="none" shape-rendering="crispEdges" stroke="#dddddd" stroke-width="1"/>
<path d="M353.86243,467.6 C353.86243,469.80914,352.07156,471.6,349.86243,471.6 C347.6533,471.6,345.86243,469.80914,345.86243,467.6 C345.86243,465.39087,347.6533,463.6,349.86243,463.6 C352.07156,463.6,353.86243,465.39087,353.86243,467.6 z M396.76007,455.52084 C396.76007,457.72998,394.9692,459.52084,392.76007,459.52084 C390.55093,459.52084,388.76007,457.72998,388.76007,455.52084 C388.76007,453.3117,390.55093,451.52084,392.76007,451.52084 C394.9692,451.52084,396.76007,453.3117,396.76007,455.52084 z M287.73703,426.43396 C287.73703,428.6431,285.94617,430.43396,283.73703,430.43396 C281.5279,430.43396,279.73703,428.6431,279.73703,426.43396 C279.73703,424.22482,281.5279,422.43396,283.73703,422.43396 C285.94617,422.43396,287.73703,424.22482,287.73703,426.43396 z M403.03186,452.84045 C403.03186,455.0496,401.241,456.84045,399.03186,456.84045 C396.82272,456.84045,395.03186,455.0496,395.03186,452.84045 C395.03186,450.63132,396.82272,448.84045,399.03186,448.84045 C401.241,448.84045,403.03186,450.63132,403.03186,452.84045 z M276.93958,337.63245 C276.93958,339.84158,275.1487,341.63245,272.93958,341.63245 C270.73044,341.63245,268.93958,339.84158,268.93958,337.63245 C268.93958,335.4233,270.73044,333.63245,272.93958,333.63245 C275.1487,333.63245,276.93958,335.4233,276.93958,337.63245 z M346.60556,349.84082 C346.60556,352.04996,344.8147,353.84082,342.60556,353.84082 C340.39642,353.84082,338.60556,352.04996,338.60556,349.84082 C338.60556,347.63168,340.39642,345.84082,342.60556,345.84082 C344.8147,345.84082,346.60556,347.63168,346.60556,349.84082 z M312.35788,454.63028 C312.35788,456.83942,310.56702,458.63028,308.35788,458.63028 C306.14874,458.63028,304.35788,456.83942,304.35788,454.63028 C304.35788,452.42114,306.14874,450.63028,308.35788,450.63028 C310.56702,450.63028,312.35788,452.42114,312.35788,454.63028 z M440.35345,391.13168 C440.35345,393.34082,438.5626,395.13168,436.35345,395.13168 C434.14432,395.13168,432.35345,393.34082,432.35345,391.13168 C432.35345,388.92255,434.14432,387.13168,436.35345,387.13168 C438.5626,387.13168,440.35345,388.92255,440.35345,391.13168 z M326.54016,456.71225 C326.54016,458.9214,324.7493,460.71225,322.54016,460.71225 C320.33102,460.71225,318.54016,458.9214,318.54016,456.71225 C318.54016,454.5031,320.33102,452.71225,322.54016,452.71225 C324.7493,452.71225,326.54016,454.5031,326.54016,456.71225 z M265.0922,291.214 C265.0922,293.42313,263.30133,295.214,261.0922,295.214 C258.88306,295.214,257.0922,293.42313,257.0922,291.214 C257.0922,289.00485,258.88306,287.214,261.0922,287.214 C263.30133,287.214,265.0922,289.00485,265.0922,291.214 z M330.39417,428.45215 C330.39417,430.6613,328.6033,432.45215,326.39417,432.45215 C324.18503,432.45215,322.39417,430.6613,322.39417,428.45215 C322.39417,426.243,324.18503,424.45215,326.39417,424.45215 C328.6033,424.45215,330.39417,426.243,330.39417,428.45215 z M407.55222,446.78384 C407.55222,448.99298,405.76135,450.78384,403.55222,450.78384 C401.34308,450.78384,399.55222,448.99298,399.55222,446.78384 C399.55222,444.5747,401.34308,442.78384,403.55222,442.78384 C405.76135,442.78384,407.55222,444.5747,407.55222,446.78384 z M486.2917,407.88107 C486.2917,410.0902,484.50082,411.88107,482.2917,411.88107 C480.08255,411.88107,478.2917,410.0902,478.2917,407.88107 C478.2917,405.67194,480.08255,403.88107,482.2917,403.88107 C484.50082,403.88107,486.2917,405.67194,486.2917,407.88107 z M251.25139,357.18692 C251.25139,359.39606,249.46053,361.18692,247.25139,361.18692 C245.04225,361.18692,243.25139,359.39606,243.25139,357.18692 C243.25139,354.97778,245.04225,353.18692,247.25139,353.18692 C249.46053,353.18692,251.25139,354.97778,251.25139,357.18692 z M273.61795,398.66995 C273.61795,400.8791,271.8271,402.66995,269.61795,402.66995 C267.4088,402.66995,265.61795,400.8791,265.61795,398.66995 C265.61795,396.46082,267.4088,394.66995,269.61795,394.66995 C271.8271,394.66995,273.61795,396.46082,273.61795,398.66995 z M370.43622,305.3243 C370.43622,307.53345,368.64536,309.3243,366.43622,309.3243 C364.22708,309.3243,362.43622,307.53345,362.43622,305.3243 C362.43622,303.11517,364.22708,301.3243,366.43622,301.3243 C368.64536,301.3243,370.43622,303.11517,370.43622,305.3243 z M254.46631,371.14282 C254.46631,373.35196,252.67545,375.14282,250.46631,375.14282 C248.25717,375.14282,246.46631,373.35196,246.46631,371.14282 C246.46631,368.9337,248.25717,367.14282,250.46631,367.14282 C252.67545,367.14282,254.46631,368.9337,254.46631,371.14282 z M364.7369,451.31787 C364.7369,453.527,362.94604,455.31787,360.7369,455.31787 C358.52777,455.31787,356.7369,453.527,356.7369,451.31787 C356.7369,449.10873,358.52777,447.31787,360.7369,447.31787 C362.94604,447.31787,364.7369,449.10873,364.7369,451.31787 z M419.3588,550.78845 C419.3588,552.9976,417.56793,554.78845,415.3588,554.78845 C413.14966,554.78845,411.3588,552.9976,411.3588,550.78845 C411.3588,548.5793,413.14966,546.78845,415.3588,546.78845 C417.56793,546.78845,419.3588,548.5793,419.3588,550.78845 z M365.98907,406.90543 C365.98907,409.11456,364.1982,410.90543,361.98907,410.90543 C359.77994,410.90543,357.98907,409.11456,357.98907,406.90543 C357.98907,404.6963,359.77994,402.90543,361.98907,402.90543 C364.1982,402.90543,365.98907,404.6963,365.98907,406.90543 z M160.84018,401.77 C160.84018,403.97913,159.04932,405.77,156.84018,405.77 C154.63104,405.77,152.84018,403.97913,152.84018,401.77 C152.84018,399.56085,154.63104,397.77,156.84018,397.77 C159.04932,397.77,160.84018,399.56085,160.84018,401.77 z M494.00967,380.96982 C494.00967,383.17896,492.2188,384.96982,490.00967,384.96982 C487.80054,384.96982,486.00967,383.17896,486.00967,380.96982 C486.00967,378.76068,487.80054,376.96982,490.00967,376.96982 C492.2188,376.96982,494.00967,378.76068,494.00967,380.96982 z M359.12003,404.7977 C359.12003,407.00684,357.32916,408.7977,355.12003,408.7977 C352.9109,408.7977,351.12003,407.00684,351.12003,404.7977 C351.12003,402.58856,352.9109,400.7977,355.12003,400.7977 C357.32916,400.7977,359.12003,402.58856,359.12003,404.7977 z M281.39398,487.6818 C281.39398,489.89093,279.60312,491.6818,277.39398,491.6818 C275.18484,491.6818,273.39398,489.89093,273.39398,487.6818 C273.39398,485.47266,275.18484,483.6818,277.39398,483.6818 C279.60312,483.6818,281.39398,485.47266,281.39398,487.6818 z M492.30203,362.11658 C492.30203,364.3257,490.51117,366.11658,488.30203,366.11658 C486.0929,366.11658,484.30203,364.3257,484.30203,362.11658 C484.30203,359.90744,486.0929,358.11658,488.30203,358.11658 C490.51117,358.11658,492.30203,359.90744,492.30203,362.11658 z M429.44415,441.54083 C429.44415,443.74997,427.6533,445.54083,425.44415,445.54083 C423.23502,445.54083,421.44415,443.74997,421.44415,441.54083 C421.44415,439.3317,423.23502,437.54083,425.44415,437.54083 C427.6533,437.54083,429.44415,439.3317,429.44415,441.54083 z M365.7009,355.67975 C365.7009,357.8889,363.91003,359.67975,361.7009,359.67975 C359.49176,359.67975,357.7009,357.8889,357.7009,355.67975 C357.7009,353.4706,359.49176,351.67975,361.7009,351.67975 C363.91003,351.67975,365.7009,353.4706,365.7009,355.67975 z M393.77133,316.13873 C393.77133,318.34787,391.98047,320.13873,389.77133,320.13873 C387.5622,320.13873,385.77133,318.34787,385.77133,316.13873 C385.77133,313.9296,387.5622,312.13873,389.77133,312.13873 C391.98047,312.13873,393.77133,313.9296,393.77133,316.13873 z M228.64384,491.48108 C228.64384,493.69022,226.85298,495.48108,224.64384,495.48108 C222.43471,495.48108,220.64384,493.69022,220.64384,491.48108 C220.64384,489.27194,222.43471,487.48108,224.64384,487.48108 C226.85298,487.48108,228.64384,489.27194,228.64384,491.48108 z M385.33167,359.82816 C385.33167,362.0373,383.5408,363.82816,381.33167,363.82816 C379.12253,363.82816,377.33167,362.0373,377.33167,359.82816 C377.33167,357.61902,379.12253,355.82816,381.33167,355.82816 C383.5408,355.82816,385.33167,357.61902,385.33167,359.82816 z M340.19742,526.5803 C340.19742,528.7895,338.40656,530.5803,336.19742,530.5803 C333.98828,530.5803,332.19742,528.7895,332.19742,526.5803 C332.19742,524.37115,333.98828,522.5803,336.19742,522.5803 C338.40656,522.5803,340.19742,524.37115,340.19742,526.5803 z M295.78055,407.17694 C295.78055,409.38608,293.9897,411.17694,291.78055,411.17694 C289.5714,411.17694,287.78055,409.38608,287.78055,407.17694 C287.78055,404.9678,289.5714,403.17694,291.78055,403.17694 C293.9897,403.17694,295.78055,404.9678,295.78055,407.17694 z M432.48773,404.0555 C432.48773,406.26465,430.69687,408.0555,428.48773,408.0555 C426.2786,408.0555,424.48773,406.26465,424.48773,404.0555 C424.48773,401.84637,426.2786,400.0555,428.48773,400.0555 C430.69687,400.0555,432.48773,401.84637,432.48773,404.0555 z M356.12143,514.93304 C356.12143,517.1422,354.33057,518.93304,352.12143,518.93304 C349.9123,518.93304,348.12143,517.1422,348.12143,514.93304 C348.12143,512.7239,349.9123,510.93304,352.12143,510.93304 C354.33057,510.93304,356.12143,512.7239,356.12143,514.93304 z M352.69806,402.83563 C352.69806,405.04477,350.9072,406.83563,348.69806,406.83563 C346.48892,406.83563,344.69806,405.04477,344.69806,402.83563 C344.69806,400.6265,346.48892,398.83563,348.69806,398.83563 C350.9072,398.83563,352.69806,400.6265,352.69806,402.83563 z M371.21353,210.25249 C371.21353,212.46162,369.42267,214.25249,367.21353,214.25249 C365.0044,214.25249,363.21353,212.46162,363.21353,210.25249 C363.21353,208.04335,365.0044,206.25249,367.21353,206.25249 C369.42267,206.25249,371.21353,208.04335,371.21353,210.25249 z M200.0393,587.17194 C200.0393,589.3811,198.24844,591.17194,196.0393,591.17194 C193.83017,591.17194,192.0393,589.3811,192.0393,587.17194 C192.0393,584.96277,193.83017,583.17194,196.0393,583.17194 C198.24844,583.17194,200.0393,584.96277,200.0393,587.17194 z M491.63702,445.22296 C491.63702,447.4321,489.84616,449.22296,487.63702,449.22296 C485.4279,449.22296,483.63702,447.4321,483.63702,445.22296 C483.63702,443.01382,485.4279,441.22296,487.63702,441.22296 C489.84616,441.22296,491.63702,443.01382,491.63702,445.22296 z M363.6087,387.3795 C363.6087,389.58862,361.81784,391.3795,359.6087,391.3795 C357.39957,391.3795,355.6087,389.58862,355.6087,387.3795 C355.6087,385.17035,357.39957,383.3795,359.6087,383.3795 C361.81784,383.3795,363.6087,385.17035,363.6087,387.3795 z M283.4429,499.438 C283.4429,501.64713,281.65204,503.438,279.4429,503.438 C277.23376,503.438,275.4429,501.64713,275.4429,499.438 C275.4429,497.22885,277.23376,495.438,279.4429,495.438 C281.65204,495.438,283.4429,497.22885,283.4429,499.438 z M329.27063,351.94342 C329.27063,354.15256,327.47977,355.94342,325.27063,355.94342 C323.0615,355.94342,321.27063,354.15256,321.27063,351.94342 C321.27063,349.73428,323.0615,347.94342,325.27063,347.94342 C327.47977,347.94342,329.27063,349.73428,329.27063,351.94342 z M346.70895,395.75153 C346.70895,397.96066,344.9181,399.75153,342.70895,399.75153 C340.49982,399.75153,338.70895,397.96066,338.70895,395.75153 C338.70895,393.5424,340.49982,391.75153,342.70895,391.75153 C344.9181,391.75153,346.70895,393.5424,346.70895,395.75153 z M430.43756,383.42175 C430.43756,385.6309,428.6467,387.42175,426.43756,387.42175 C424.22842,387.42175,422.43756,385.6309,422.43756,383.42175 C422.43756,381.21262,424.22842,379.42175,426.43756,379.42175 C428.6467,379.42175,430.43756,381.21262,430.43756,383.42175 z M272.25674,397.55106 C272.25674,399.7602,270.46588,401.55106,268.25674,401.55106 C266.0476,401.55106,264.25674,399.7602,264.25674,397.55106 C264.25674,395.34192,266.0476,393.55106,268.25674,393.55106 C270.46588,393.55106,272.25674,395.34192,272.25674,397.55106 z M187.50972,504.64526 C187.50972,506.8544,185.71886,508.64526,183.50972,508.64526 C181.30058,508.64526,179.50972,506.8544,179.50972,504.64526 C179.50972,502.43613,181.30058,500.64526,183.50972,500.64526 C185.71886,500.64526,187.50972,502.43613,187.50972,504.64526 z M301.7331,423.99588 C301.7331,426.20502,299.94223,427.99588,297.7331,427.99588 C295.52396,427.99588,293.7331,426.20502,293.7331,423.99588 C293.7331,421.78674,295.52396,419.99588,297.7331,419.99588 C299.94223,419.99588,301.7331,421.78674,301.7331,423.99588 z M385.71063,430.84225 C385.71063,433.0514,383.91977,434.84225,381.71063,434.84225 C379.5015,434.84225,377.71063,433.0514,377.71063,430.84225 C377.71063,428.63312,379.5015,426.84225,381.71063,426.84225 C383.91977,426.84225,385.71063,428.63312,385.71063,430.84225 z M120.431366,524.7088 C120.431366,526.91797,118.6405,528.7088,116.431366,528.7088 C114.22223,528.7088,112.431366,526.91797,112.431366,524.7088 C112.431366,522.49963,114.22223,520.7088,116.431366,520.7088 C118.6405,520.7088,120.431366,522.49963,120.431366,524.7088 z M293.0694,443.03027 C293.0694,445.2394,291.27853,447.03027,289.0694,447.03027 C286.86026,447.03027,285.0694,445.2394,285.0694,443.03027 C285.0694,440.82114,286.86026,439.03027,289.0694,439.03027 C291.27853,439.03027,293.0694,440.82114,293.0694,443.03027 z M332.72714,338.33597 C332.72714,340.5451,330.93628,342.33597,328.72714,342.33597 C326.518,342.33597,324.72714,340.5451,324.72714,338.33597 C324.72714,336.12683,326.518,334.33597,328.72714,334.33597 C330.93628,334.33597,332.72714,336.12683,332.72714,338.33597 z M413.57706,481.20135 C413.57706,483.4105,411.7862,485.20135,409.57706,485.20135 C407.36792,485.20135,405.57706,483.4105,405.57706,481.20135 C405.57706,478.99222,407.36792,477.20135,409.57706,477.20135 C411.7862,477.20135,413.57706,478.99222,413.57706,481.20135 z M373.74133,466.3592 C373.74133,468.56833,371.95047,470.3592,369.74133,470.3592 C367.5322,470.3592,365.74133,468.56833,365.74133,466.3592 C365.74133,464.15005,367.5322,462.3592,369.74133,462.3592 C371.95047,462.3592,373.74133,464.15005,373.74133,466.3592 z M367.05527,369.52692 C367.05527,371.73605,365.2644,373.52692,363.05527,373.52692 C360.84613,373.52692,359.05527,371.73605,359.05527,369.52692 C359.05527,367.31778,360.84613,365.52692,363.05527,365.52692 C365.2644,365.52692,367.05527,367.31778,367.05527,369.52692 z M258.4319,402.06714 C258.4319,404.27628,256.64105,406.06714,254.4319,406.06714 C252.22276,406.06714,250.4319,404.27628,250.4319,402.06714 C250.4319,399.858,252.22276,398.06714,254.4319,398.06714 C256.64105,398.06714,258.4319,399.858,258.4319,402.06714 z M438.0619,477.49606 C438.0619,479.7052,436.27103,481.49606,434.0619,481.49606 C431.85275,481.49606,430.0619,479.7052,430.0619,477.49606 C430.0619,475.28693,431.85275,473.49606,434.0619,473.49606 C436.27103,473.49606,438.0619,475.28693,438.0619,477.49606 z M350.66147,480.0379 C350.66147,482.24704,348.8706,484.0379,346.66147,484.0379 C344.45233,484.0379,342.66147,482.24704,342.66147,480.0379 C342.66147,477.82877,344.45233,476.0379,346.66147,476.0379 C348.8706,476.0379,350.66147,477.82877,350.66147,480.0379 z M307.016,421.5404 C307.016,423.74954,305.22513,425.5404,303.016,425.5404 C300.80685,425.5404,299.016,423.74954,299.016,421.5404 C299.016,419.33127,300.80685,417.5404,303.016,417.5404 C305.22513,417.5404,307.016,419.33127,307.016,421.5404 z M447.07373,424.3365 C447.07373,426.54562,445.28287,428.3365,443.07373,428.3365 C440.8646,428.3365,439.07373,426.54562,439.07373,424.3365 C439.07373,422.12735,440.8646,420.3365,443.07373,420.3365 C445.28287,420.3365,447.07373,422.12735,447.07373,424.3365 z M362.40146,436.48398 C362.40146,438.6931,360.6106,440.48398,358.40146,440.48398 C356.19232,440.48398,354.40146,438.6931,354.40146,436.48398 C354.40146,434.27484,356.19232,432.48398,358.40146,432.48398 C360.6106,432.48398,362.40146,434.27484,362.40146,436.48398 z M380.6664,516.28864 C380.6664,518.4978,378.87555,520.28864,376.6664,520.28864 C374.45728,520.28864,372.6664,518.4978,372.6664,516.28864 C372.6664,514.07947,374.45728,512.28864,376.6664,512.28864 C378.87555,512.28864,380.6664,514.07947,380.6664,516.28864 z M308.15277,343.30145 C308.15277,345.5106,306.3619,347.30145,304.15277,347.30145 C301.94363,347.30145,300.15277,345.5106,300.15277,343.30145 C300.15277,341.09232,301.94363,339.30145,304.15277,339.30145 C306.3619,339.30145,308.15277,341.09232,308.15277,343.30145 z M354.75253,509.73462 C354.75253,511.94376,352.96167,513.7346,350.75253,513.7346 C348.5434,513.7346,346.75253,511.94376,346.75253,509.73462 C346.75253,507.52548,348.5434,505.73462,350.75253,505.73462 C352.96167,505.73462,354.75253,507.52548,354.75253,509.73462 z M257.8534,534.35126 C257.8534,536.5604,256.06256,538.35126,253.85341,538.35126 C251.64427,538.35126,249.85341,536.5604,249.85341,534.35126 C249.85341,532.1421,251.64427,530.35126,253.85341,530.35126 C256.06256,530.35126,257.8534,532.1421,257.8534,534.35126 z M344.9611,420.37726 C344.9611,422.5864,343.17023,424.37726,340.9611,424.37726 C338.75195,424.37726,336.9611,422.5864,336.9611,420.37726 C336.9611,418.16812,338.75195,416.37726,340.9611,416.37726 C343.17023,416.37726,344.9611,418.16812,344.9611,420.37726 z M440.22394,492.22058 C440.22394,494.42972,438.43307,496.22058,436.22394,496.22058 C434.0148,496.22058,432.22394,494.42972,432.22394,492.22058 C432.22394,490.01144,434.0148,488.22058,436.22394,488.22058 C438.43307,488.22058,440.22394,490.01144,440.22394,492.22058 z M345.91595,454.77945 C345.91595,456.9886,344.1251,458.77945,341.91595,458.77945 C339.70682,458.77945,337.91595,456.9886,337.91595,454.77945 C337.91595,452.5703,339.70682,450.77945,341.91595,450.77945 C344.1251,450.77945,345.91595,452.5703,345.91595,454.77945 z M289.99307,426.57025 C289.99307,428.7794,288.2022,430.57025,285.99307,430.57025 C283.78394,430.57025,281.99307,428.7794,281.99307,426.57025 C281.99307,424.3611,283.78394,422.57025,285.99307,422.57025 C288.2022,422.57025,289.99307,424.3611,289.99307,426.57025 z M457.2795,425.68457 C457.2795,427.8937,455.48865,429.68457,453.2795,429.68457 C451.07037,429.68457,449.2795,427.8937,449.2795,425.68457 C449.2795,423.47543,451.07037,421.68457,453.2795,421.68457 C455.48865,421.68457,457.2795,423.47543,457.2795,425.68457 z M450.53214,439.4854 C450.53214,441.69455,448.74127,443.4854,446.53214,443.4854 C444.323,443.4854,442.53214,441.69455,442.53214,439.4854 C442.53214,437.27628,444.323,435.4854,446.53214,435.4854 C448.74127,435.4854,450.53214,437.27628,450.53214,439.4854 z M343.78403,377.50528 C343.78403,379.71442,341.99316,381.50528,339.78403,381.50528 C337.5749,381.50528,335.78403,379.71442,335.78403,377.50528 C335.78403,375.29614,337.5749,373.50528,339.78403,373.50528 C341.99316,373.50528,343.78403,375.29614,343.78403,377.50528 z M322.4874,477.73077 C322.4874,479.9399,320.69653,481.73077,318.4874,481.73077 C316.27826,481.73077,314.4874,479.9399,314.4874,477.73077 C314.4874,475.52164,316.27826,473.73077,318.4874,473.73077 C320.69653,473.73077,322.4874,475.52164,322.4874,477.73077 z M298.29706,477.5278 C298.29706,479.73694,296.5062,481.5278,294.29706,481.5278 C292.08792,481.5278,290.29706,479.73694,290.29706,477.5278 C290.29706,475.31866,292.08792,473.5278,294.29706,473.5278 C296.5062,473.5278,298.29706,475.31866,298.29706,477.5278 z M366.5903,481.2226 C366.5903,483.43173,364.79944,485.2226,362.5903,485.2226 C360.38116,485.2226,358.5903,483.43173,358.5903,481.2226 C358.5903,479.01346,360.38116,477.2226,362.5903,477.2226 C364.79944,477.2226,366.5903,479.01346,366.5903,481.2226 z M315.20575,448.6043 C315.20575,450.81345,313.4149,452.6043,311.20575,452.6043 C308.9966,452.6043,307.20575,450.81345,307.20575,448.6043 C307.20575,446.39517,308.9966,444.6043,311.20575,444.6043 C313.4149,444.6043,315.20575,446.39517,315.20575,448.6043 z M449.85034,491.52905 C449.85034,493.7382,448.05948,495.52905,445.85034,495.52905 C443.6412,495.52905,441.85034,493.7382,441.85034,491.52905 C441.85034,489.31992,443.6412,487.52905,445.85034,487.52905 C448.05948,487.52905,449.85034,489.31992,449.85034,491.52905 z M398.41226,465.96347 C398.41226,468.1726,396.6214,469.96347,394.41226,469.96347 C392.20313,469.96347,390.41226,468.1726,390.41226,465.96347 C390.41226,463.75433,392.20313,461.96347,394.41226,461.96347 C396.6214,461.96347,398.41226,463.75433,398.41226,465.96347 z M280.6573,448.53696 C280.6573,450.7461,278.86642,452.53696,276.6573,452.53696 C274.44815,452.53696,272.6573,450.7461,272.6573,448.53696 C272.6573,446.32782,274.44815,444.53696,276.6573,444.53696 C278.86642,444.53696,280.6573,446.32782,280.6573,448.53696 z M342.21494,422.52896 C342.21494,424.7381,340.42407,426.52896,338.21494,426.52896 C336.0058,426.52896,334.21494,424.7381,334.21494,422.52896 C334.21494,420.31982,336.0058,418.52896,338.21494,418.52896 C340.42407,418.52896,342.21494,420.31982,342.21494,422.52896 z M213.35045,473.0252 C213.35045,475.23434,211.55959,477.0252,209.35045,477.0252 C207.14131,477.0252,205.35045,475.23434,205.35045,473.0252 C205.35045,470.81607,207.14131,469.0252,209.35045,469.0252 C211.55959,469.0252,213.35045,470.81607,213.35045,473.0252 z M380.3659,344.0406 C380.3659,346.24973,378.57504,348.0406,376.3659,348.0406 C374.15677,348.0406,372.3659,346.24973,372.3659,344.0406 C372.3659,341.83145,374.15677,340.0406,376.3659,340.0406 C378.57504,340.0406,380.3659,341.83145,380.3659,344.0406 z" fill="#1f77b4" stroke="#1f77b4" stroke-width="0"/>
<path d="M526.05695,287.8396 C526.05695,290.04874,524.2661,291.8396,522.05695,291.8396 C519.8478,291.8396,518.05695,290.04874,518.05695,287.8396 C518.05695,285.63046,519.8478,283.8396,522.05695,283.8396 C524.2661,283.8396,526.05695,285.63046,526.05695,287.8396 z M747.56366,200.15855 C747.56366,202.36769,745.7728,204.15855,743.56366,204.15855 C741.3545,204.15855,739.56366,202.36769,739.56366,200.15855 C739.56366,197.94942,741.3545,196.15855,743.56366,196.15855 C745.7728,196.15855,747.56366,197.94942,747.56366,200.15855 z M480.97116,241.8222 C480.97116,244.03134,479.1803,245.8222,476.97116,245.8222 C474.76202,245.8222,472.97116,244.03134,472.97116,241.8222 C472.97116,239.61307,474.76202,237.8222,476.97116,237.8222 C479.1803,237.8222,480.97116,239.61307,480.97116,241.8222 z M714.2601,228.5469 C714.2601,230.75604,712.46924,232.5469,710.2601,232.5469 C708.0509,232.5469,706.2601,230.75604,706.2601,228.5469 C706.2601,226.33777,708.0509,224.5469,710.2601,224.5469 C712.46924,224.5469,714.2601,226.33777,714.2601,228.5469 z M588.0424,196.1241 C588.0424,198.33324,586.2516,200.1241,584.0424,200.1241 C581.83325,200.1241,580.0424,198.33324,580.0424,196.1241 C580.0424,193.91496,581.83325,192.1241,584.0424,192.1241 C586.2516,192.1241,588.0424,193.91496,588.0424,196.1241 z M525.74414,281.88715 C525.74414,284.09628,523.9533,285.88715,521.74414,285.88715 C519.535,285.88715,517.74414,284.09628,517.74414,281.88715 C517.74414,279.678,519.535,277.88715,521.74414,277.88715 C523.9533,277.88715,525.74414,279.678,525.74414,281.88715 z M697.71967,157.86823 C697.71967,160.07736,695.92883,161.86823,693.71967,161.86823 C691.5105,161.86823,689.71967,160.07736,689.71967,157.86823 C689.71967,155.65909,691.5105,153.86823,693.71967,153.86823 C695.92883,153.86823,697.71967,155.65909,697.71967,157.86823 z M637.0681,248.80154 C637.0681,251.01068,635.2773,252.80154,633.0681,252.80154 C630.85895,252.80154,629.0681,251.01068,629.0681,248.80154 C629.0681,246.5924,630.85895,244.80154,633.0681,244.80154 C635.2773,244.80154,637.0681,246.5924,637.0681,248.80154 z M667.97015,271.30673 C667.97015,273.51587,666.1793,275.30673,663.97015,275.30673 C661.761,275.30673,659.97015,273.51587,659.97015,271.30673 C659.97015,269.0976,661.761,267.30673,663.97015,267.30673 C666.1793,267.30673,667.97015,269.0976,667.97015,271.30673 z M762.78973,242.93283 C762.78973,245.14197,760.9989,246.93283,758.78973,246.93283 C756.58057,246.93283,754.78973,245.14197,754.78973,242.93283 C754.78973,240.7237,756.58057,238.93283,758.78973,238.93283 C760.9989,238.93283,762.78973,240.7237,762.78973,242.93283 z M600.3858,269.44543 C600.3858,271.65457,598.595,273.44543,596.3858,273.44543 C594.17664,273.44543,592.3858,271.65457,592.3858,269.44543 C592.3858,267.2363,594.17664,265.44543,596.3858,265.44543 C598.595,265.44543,600.3858,267.2363,600.3858,269.44543 z M563.68787,208.21825 C563.68787,210.42738,561.89703,212.21825,559.68787,212.21825 C557.4787,212.21825,555.68787,210.42738,555.68787,208.21825 C555.68787,206.00911,557.4787,204.21825,559.68787,204.21825 C561.89703,204.21825,563.68787,206.00911,563.68787,208.21825 z M543.4384,319.34824 C543.4384,321.55737,541.6476,323.34824,539.4384,323.34824 C537.22925,323.34824,535.4384,321.55737,535.4384,319.34824 C535.4384,317.1391,537.22925,315.34824,539.4384,315.34824 C541.6476,315.34824,543.4384,317.1391,543.4384,319.34824 z M705.19806,161.81172 C705.19806,164.02086,703.4072,165.81172,701.19806,165.81172 C698.9889,165.81172,697.19806,164.02086,697.19806,161.81172 C697.19806,159.60258,698.9889,157.81172,701.19806,157.81172 C703.4072,157.81172,705.19806,159.60258,705.19806,161.81172 z M578.59686,282.87735 C578.59686,285.0865,576.806,286.87735,574.59686,286.87735 C572.3877,286.87735,570.59686,285.0865,570.59686,282.87735 C570.59686,280.6682,572.3877,278.87735,574.59686,278.87735 C576.806,278.87735,578.59686,280.6682,578.59686,282.87735 z M575.6895,289.01816 C575.6895,291.2273,573.8987,293.01816,571.6895,293.01816 C569.48035,293.01816,567.6895,291.2273,567.6895,289.01816 C567.6895,286.80902,569.48035,285.01816,571.6895,285.01816 C573.8987,285.01816,575.6895,286.80902,575.6895,289.01816 z M678.608,299.39307 C678.608,301.6022,676.81714,303.39307,674.608,303.39307 C672.3988,303.39307,670.608,301.6022,670.608,299.39307 C670.608,297.18393,672.3988,295.39307,674.608,295.39307 C676.81714,295.39307,678.608,297.18393,678.608,299.39307 z M569.97687,346.76202 C569.97687,348.97116,568.18604,350.76202,565.97687,350.76202 C563.7677,350.76202,561.97687,348.97116,561.97687,346.76202 C561.97687,344.5529,563.7677,342.76202,565.97687,342.76202 C568.18604,342.76202,569.97687,344.5529,569.97687,346.76202 z M644.3524,174.03976 C644.3524,176.2489,642.5616,178.03976,640.3524,178.03976 C638.14325,178.03976,636.3524,176.2489,636.3524,174.03976 C636.3524,171.83063,638.14325,170.03976,640.3524,170.03976 C642.5616,170.03976,644.3524,171.83063,644.3524,174.03976 z M479.13577,335.81696 C479.13577,338.0261,477.3449,339.81696,475.13577,339.81696 C472.92664,339.81696,471.13577,338.0261,471.13577,335.81696 C471.13577,333.60782,472.92664,331.81696,475.13577,331.81696 C477.3449,331.81696,479.13577,333.60782,479.13577,335.81696 z M593.68164,301.92557 C593.68164,304.1347,591.8908,305.92557,589.68164,305.92557 C587.4725,305.92557,585.68164,304.1347,585.68164,301.92557 C585.68164,299.71643,587.4725,297.92557,589.68164,297.92557 C591.8908,297.92557,593.68164,299.71643,593.68164,301.92557 z M539.5404,246.8103 C539.5404,249.01944,537.7496,250.8103,535.5404,250.8103 C533.33124,250.8103,531.5404,249.01944,531.5404,246.8103 C531.5404,244.60117,533.33124,242.8103,535.5404,242.8103 C537.7496,242.8103,539.5404,244.60117,539.5404,246.8103 z M541.68317,350.7207 C541.68317,352.92984,539.89233,354.7207,537.68317,354.7207 C535.474,354.7207,533.68317,352.92984,533.68317,350.7207 C533.68317,348.51157,535.474,346.7207,537.68317,346.7207 C539.89233,346.7207,541.68317,348.51157,541.68317,350.7207 z M611.5014,481.39893 C611.5014,483.60806,609.7106,485.39893,607.5014,485.39893 C605.29224,485.39893,603.5014,483.60806,603.5014,481.39893 C603.5014,479.1898,605.29224,477.39893,607.5014,477.39893 C609.7106,477.39893,611.5014,479.1898,611.5014,481.39893 z M633.28595,247.54053 C633.28595,249.74966,631.4951,251.54053,629.28595,251.54053 C627.0768,251.54053,625.28595,249.74966,625.28595,247.54053 C625.28595,245.33139,627.0768,243.54053,629.28595,243.54053 C631.4951,243.54053,633.28595,245.33139,633.28595,247.54053 z M642.0129,242.38606 C642.0129,244.5952,640.22205,246.38606,638.0129,246.38606 C635.8037,246.38606,634.0129,244.5952,634.0129,242.38606 C634.0129,240.17693,635.8037,238.38606,638.0129,238.38606 C640.22205,238.38606,642.0129,240.17693,642.0129,242.38606 z M686.8223,258.71707 C686.8223,260.9262,685.0315,262.71707,682.8223,262.71707 C680.61316,262.71707,678.8223,260.9262,678.8223,258.71707 C678.8223,256.50793,680.61316,254.71707,682.8223,254.71707 C685.0315,254.71707,686.8223,256.50793,686.8223,258.71707 z M578.4382,268.5413 C578.4382,270.75043,576.64734,272.5413,574.4382,272.5413 C572.229,272.5413,570.4382,270.75043,570.4382,268.5413 C570.4382,266.33215,572.229,264.5413,574.4382,264.5413 C576.64734,264.5413,578.4382,266.33215,578.4382,268.5413 z M675.94714,240.87962 C675.94714,243.08876,674.1563,244.87962,671.94714,244.87962 C669.738,244.87962,667.94714,243.08876,667.94714,240.87962 C667.94714,238.67049,669.738,236.87962,671.94714,236.87962 C674.1563,236.87962,675.94714,238.67049,675.94714,240.87962 z M598.44403,230.59837 C598.44403,232.80751,596.6532,234.59837,594.44403,234.59837 C592.23486,234.59837,590.44403,232.80751,590.44403,230.59837 C590.44403,228.38924,592.23486,226.59837,594.44403,226.59837 C596.6532,226.59837,598.44403,228.38924,598.44403,230.59837 z M507.7193,148.14978 C507.7193,150.35892,505.92844,152.14978,503.7193,152.14978 C501.51016,152.14978,499.7193,150.35892,499.7193,148.14978 C499.7193,145.94064,501.51016,144.14978,503.7193,144.14978 C505.92844,144.14978,507.7193,145.94064,507.7193,148.14978 z M467.55402,352.9555 C467.55402,355.16464,465.76315,356.9555,463.55402,356.9555 C461.34488,356.9555,459.55402,355.16464,459.55402,352.9555 C459.55402,350.74637,461.34488,348.9555,463.55402,348.9555 C465.76315,348.9555,467.55402,350.74637,467.55402,352.9555 z M547.7767,192.9304 C547.7767,195.13954,545.98584,196.9304,543.7767,196.9304 C541.5675,196.9304,539.7767,195.13954,539.7767,192.9304 C539.7767,190.72127,541.5675,188.9304,543.7767,188.9304 C545.98584,188.9304,547.7767,190.72127,547.7767,192.9304 z M478.26758,305.1122 C478.26758,307.32135,476.4767,309.1122,474.26758,309.1122 C472.05844,309.1122,470.26758,307.32135,470.26758,305.1122 C470.26758,302.90308,472.05844,301.1122,474.26758,301.1122 C476.4767,301.1122,478.26758,302.90308,478.26758,305.1122 z M636.55054,386.83395 C636.55054,389.0431,634.7597,390.83395,632.55054,390.83395 C630.3414,390.83395,628.55054,389.0431,628.55054,386.83395 C628.55054,384.62482,630.3414,382.83395,632.55054,382.83395 C634.7597,382.83395,636.55054,384.62482,636.55054,386.83395 z M572.1307,332.27866 C572.1307,334.4878,570.33984,336.27866,568.1307,336.27866 C565.9215,336.27866,564.1307,334.4878,564.1307,332.27866 C564.1307,330.06952,565.9215,328.27866,568.1307,328.27866 C570.33984,328.27866,572.1307,330.06952,572.1307,332.27866 z M538.81775,186.77148 C538.81775,188.98062,537.0269,190.77148,534.81775,190.77148 C532.6086,190.77148,530.81775,188.98062,530.81775,186.77148 C530.81775,184.56235,532.6086,182.77148,534.81775,182.77148 C537.0269,182.77148,538.81775,184.56235,538.81775,186.77148 z M555.1275,251.1696 C555.1275,253.37874,553.3367,255.1696,551.1275,255.1696 C548.91833,255.1696,547.1275,253.37874,547.1275,251.1696 C547.1275,248.96046,548.91833,247.1696,551.1275,247.1696 C553.3367,247.1696,555.1275,248.96046,555.1275,251.1696 z M693.5035,176.18921 C693.5035,178.39835,691.71265,180.18921,689.5035,180.18921 C687.2943,180.18921,685.5035,178.39835,685.5035,176.18921 C685.5035,173.98007,687.2943,172.18921,689.5035,172.18921 C691.71265,172.18921,693.5035,173.98007,693.5035,176.18921 z M680.8728,341.10153 C680.8728,343.31067,679.082,345.10153,676.8728,345.10153 C674.66364,345.10153,672.8728,343.31067,672.8728,341.10153 C672.8728,338.8924,674.66364,337.10153,676.8728,337.10153 C679.082,337.10153,680.8728,338.8924,680.8728,341.10153 z M654.5433,236.27449 C654.5433,238.48363,652.75244,240.27449,650.5433,240.27449 C648.3341,240.27449,646.5433,238.48363,646.5433,236.27449 C646.5433,234.06535,648.3341,232.27449,650.5433,232.27449 C652.75244,232.27449,654.5433,234.06535,654.5433,236.27449 z M646.98926,104.47645 C646.98926,106.685585,645.1984,108.47645,642.98926,108.47645 C640.7801,108.47645,638.98926,106.685585,638.98926,104.47645 C638.98926,102.26731,640.7801,100.47645,642.98926,100.47645 C645.1984,100.47645,646.98926,102.26731,646.98926,104.47645 z M712.0166,387.32648 C712.0166,389.5356,710.22577,391.32648,708.0166,391.32648 C705.80743,391.32648,704.0166,389.5356,704.0166,387.32648 C704.0166,385.11734,705.80743,383.32648,708.0166,383.32648 C710.22577,383.32648,712.0166,385.11734,712.0166,387.32648 z M511.0943,276.36035 C511.0943,278.5695,509.30344,280.36035,507.0943,280.36035 C504.88516,280.36035,503.0943,278.5695,503.0943,276.36035 C503.0943,274.1512,504.88516,272.36035,507.0943,272.36035 C509.30344,272.36035,511.0943,274.1512,511.0943,276.36035 z M641.84076,168.99902 C641.84076,171.20816,640.0499,172.99902,637.84076,172.99902 C635.6316,172.99902,633.84076,171.20816,633.84076,168.99902 C633.84076,166.78989,635.6316,164.99902,637.84076,164.99902 C640.0499,164.99902,641.84076,166.78989,641.84076,168.99902 z M596.2546,256.57608 C596.2546,258.78522,594.46375,260.57608,592.2546,260.57608 C590.0454,260.57608,588.2546,258.78522,588.2546,256.57608 C588.2546,254.36694,590.0454,252.57608,592.2546,252.57608 C594.46375,252.57608,596.2546,254.36694,596.2546,256.57608 z M747.4697,306.91858 C747.4697,309.12772,745.6789,310.91858,743.4697,310.91858 C741.26056,310.91858,739.4697,309.12772,739.4697,306.91858 C739.4697,304.70944,741.26056,302.91858,743.4697,302.91858 C745.6789,302.91858,747.4697,304.70944,747.4697,306.91858 z M505.61423,145.13428 C505.61423,147.34341,503.82336,149.13428,501.61423,149.13428 C499.4051,149.13428,497.61423,147.34341,497.61423,145.13428 C497.61423,142.92514,499.4051,141.13428,501.61423,141.13428 C503.82336,141.13428,505.61423,142.92514,505.61423,145.13428 z M555.1341,224.06227 C555.1341,226.27141,553.34326,228.06227,551.1341,228.06227 C548.9249,228.06227,547.1341,226.27141,547.1341,224.06227 C547.1341,221.85313,548.9249,220.06227,551.1341,220.06227 C553.34326,220.06227,555.1341,221.85313,555.1341,224.06227 z M503.38354,150.8626 C503.38354,153.07173,501.59268,154.8626,499.38354,154.8626 C497.1744,154.8626,495.38354,153.07173,495.38354,150.8626 C495.38354,148.65346,497.1744,146.8626,499.38354,146.8626 C501.59268,146.8626,503.38354,148.65346,503.38354,150.8626 z M573.0821,115.649956 C573.0821,117.85909,571.29126,119.649956,569.0821,119.649956 C566.8729,119.649956,565.0821,117.85909,565.0821,115.649956 C565.0821,113.44082,566.8729,111.649956,569.0821,111.649956 C571.29126,111.649956,573.0821,113.44082,573.0821,115.649956 z M768.05225,113.1306 C768.05225,115.33974,766.2614,117.1306,764.05225,117.1306 C761.8431,117.1306,760.05225,115.33974,760.05225,113.1306 C760.05225,110.92146,761.8431,109.1306,764.05225,109.1306 C766.2614,109.1306,768.05225,110.92146,768.05225,113.1306 z M768.76654,232.0304 C768.76654,234.23953,766.9757,236.0304,764.76654,236.0304 C762.5574,236.0304,760.76654,234.23953,760.76654,232.0304 C760.76654,229.82126,762.5574,228.0304,764.76654,228.0304 C766.9757,228.0304,768.76654,229.82126,768.76654,232.0304 z M785.64465,137.03265 C785.64465,139.24179,783.8538,141.03265,781.64465,141.03265 C779.4355,141.03265,777.64465,139.24179,777.64465,137.03265 C777.64465,134.82352,779.4355,133.03265,781.64465,133.03265 C783.8538,133.03265,785.64465,134.82352,785.64465,137.03265 z M681.5768,318.63055 C681.5768,320.8397,679.78595,322.63055,677.5768,322.63055 C675.3676,322.63055,673.5768,320.8397,673.5768,318.63055 C673.5768,316.42142,675.3676,314.63055,677.5768,314.63055 C679.78595,314.63055,681.5768,316.42142,681.5768,318.63055 z M547.41376,197.09665 C547.41376,199.30579,545.6229,201.09665,543.41376,201.09665 C541.2046,201.09665,539.41376,199.30579,539.41376,197.09665 C539.41376,194.88751,541.2046,193.09665,543.41376,193.09665 C545.6229,193.09665,547.41376,194.88751,547.41376,197.09665 z M653.60223,403.02505 C653.60223,405.2342,651.8114,407.02505,649.60223,407.02505 C647.39307,407.02505,645.60223,405.2342,645.60223,403.02505 C645.60223,400.81592,647.39307,399.02505,649.60223,399.02505 C651.8114,399.02505,653.60223,400.81592,653.60223,403.02505 z M637.99634,405.47238 C637.99634,407.68152,636.2055,409.47238,633.99634,409.47238 C631.7872,409.47238,629.99634,407.68152,629.99634,405.47238 C629.99634,403.26324,631.7872,401.47238,633.99634,401.47238 C636.2055,401.47238,637.99634,403.26324,637.99634,405.47238 z M565.574,276.55188 C565.574,278.76102,563.78314,280.55188,561.574,280.55188 C559.3648,280.55188,557.574,278.76102,557.574,276.55188 C557.574,274.34274,559.3648,272.55188,561.574,272.55188 C563.78314,272.55188,565.574,274.34274,565.574,276.55188 z M498.0577,293.7444 C498.0577,295.95352,496.26685,297.7444,494.0577,297.7444 C491.84857,297.7444,490.0577,295.95352,490.0577,293.7444 C490.0577,291.53525,491.84857,289.7444,494.0577,289.7444 C496.26685,289.7444,498.0577,291.53525,498.0577,293.7444 z M659.6931,276.2773 C659.6931,278.48645,657.9023,280.2773,655.6931,280.2773 C653.48395,280.2773,651.6931,278.48645,651.6931,276.2773 C651.6931,274.06818,653.48395,272.2773,655.6931,272.2773 C657.9023,272.2773,659.6931,274.06818,659.6931,276.2773 z M499.39404,247.12349 C499.39404,249.33263,497.60318,251.12349,495.39404,251.12349 C493.1849,251.12349,491.39404,249.33263,491.39404,247.12349 C491.39404,244.91435,493.1849,243.12349,495.39404,243.12349 C497.60318,243.12349,499.39404,244.91435,499.39404,247.12349 z M571.266,263.3453 C571.266,265.55444,569.47516,267.3453,567.266,267.3453 C565.0568,267.3453,563.266,265.55444,563.266,263.3453 C563.266,261.13617,565.0568,259.3453,567.266,259.3453 C569.47516,259.3453,571.266,261.13617,571.266,263.3453 z M619.8922,192.69759 C619.8922,194.90672,618.1014,196.69759,615.8922,196.69759 C613.68304,196.69759,611.8922,194.90672,611.8922,192.69759 C611.8922,190.48845,613.68304,188.69759,615.8922,188.69759 C618.1014,188.69759,619.8922,190.48845,619.8922,192.69759 z M528.64813,312.1441 C528.64813,314.35324,526.8573,316.1441,524.64813,316.1441 C522.43896,316.1441,520.64813,314.35324,520.64813,312.1441 C520.64813,309.93497,522.43896,308.1441,524.64813,308.1441 C526.8573,308.1441,528.64813,309.93497,528.64813,312.1441 z M511.16656,174.95839 C511.16656,177.16753,509.3757,178.95839,507.16656,178.95839 C504.95743,178.95839,503.16656,177.16753,503.16656,174.95839 C503.16656,172.74925,504.95743,170.95839,507.16656,170.95839 C509.3757,170.95839,511.16656,172.74925,511.16656,174.95839 z M736.4771,346.19885 C736.4771,348.408,734.6863,350.19885,732.4771,350.19885 C730.26794,350.19885,728.4771,348.408,728.4771,346.19885 C728.4771,343.98972,730.26794,342.19885,732.4771,342.19885 C734.6863,342.19885,736.4771,343.98972,736.4771,346.19885 z M636.8221,224.30743 C636.8221,226.51657,635.03125,228.30743,632.8221,228.30743 C630.6129,228.30743,628.8221,226.51657,628.8221,224.30743 C628.8221,222.0983,630.6129,220.30743,632.8221,220.30743 C635.03125,220.30743,636.8221,222.0983,636.8221,224.30743 z M693.2977,294.79446 C693.2977,297.0036,691.5069,298.79446,689.2977,298.79446 C687.08856,298.79446,685.2977,297.0036,685.2977,294.79446 C685.2977,292.58533,687.08856,290.79446,689.2977,290.79446 C691.5069,290.79446,693.2977,292.58533,693.2977,294.79446 z M655.7041,275.6241 C655.7041,277.83325,653.91327,279.6241,651.7041,279.6241 C649.49493,279.6241,647.7041,277.83325,647.7041,275.6241 C647.7041,273.41498,649.49493,271.6241,651.7041,271.6241 C653.91327,271.6241,655.7041,273.41498,655.7041,275.6241 z M612.8554,252.50768 C612.8554,254.71681,611.0646,256.5077,608.8554,256.5077 C606.64624,256.5077,604.8554,254.71681,604.8554,252.50768 C604.8554,250.29854,606.64624,248.50768,608.8554,248.50768 C611.0646,248.50768,612.8554,250.29854,612.8554,252.50768 z M475.0805,160.01225 C475.0805,162.22139,473.28964,164.01225,471.0805,164.01225 C468.87137,164.01225,467.0805,162.22139,467.0805,160.01225 C467.0805,157.80312,468.87137,156.01225,471.0805,156.01225 C473.28964,156.01225,475.0805,157.80312,475.0805,160.01225 z M651.9422,216.59819 C651.9422,218.80733,650.15137,220.59819,647.9422,220.59819 C645.73303,220.59819,643.9422,218.80733,643.9422,216.59819 C643.9422,214.38905,645.73303,212.59819,647.9422,212.59819 C650.15137,212.59819,651.9422,214.38905,651.9422,216.59819 z M571.52875,250.20375 C571.52875,252.41289,569.7379,254.20375,567.52875,254.20375 C565.3196,254.20375,563.52875,252.41289,563.52875,250.20375 C563.52875,247.99461,565.3196,246.20375,567.52875,246.20375 C569.7379,246.20375,571.52875,247.99461,571.52875,250.20375 z M554.2181,268.09097 C554.2181,270.3001,552.42725,272.09097,550.2181,272.09097 C548.0089,272.09097,546.2181,270.3001,546.2181,268.09097 C546.2181,265.88184,548.0089,264.09097,550.2181,264.09097 C552.42725,264.09097,554.2181,265.88184,554.2181,268.09097 z M611.3605,209.15529 C611.3605,211.36443,609.56964,213.15529,607.3605,213.15529 C605.1513,213.15529,603.3605,211.36443,603.3605,209.15529 C603.3605,206.94615,605.1513,205.15529,607.3605,205.15529 C609.56964,205.15529,611.3605,206.94615,611.3605,209.15529 z M421.35455,274.4732 C421.35455,276.68234,419.5637,278.4732,417.35455,278.4732 C415.14542,278.4732,413.35455,276.68234,413.35455,274.4732 C413.35455,272.26407,415.14542,270.4732,417.35455,270.4732 C419.5637,270.4732,421.35455,272.26407,421.35455,274.4732 z M779.2876,138.14209 C779.2876,140.35123,777.49677,142.14209,775.2876,142.14209 C773.0784,142.14209,771.2876,140.35123,771.2876,138.14209 C771.2876,135.93295,773.0784,134.14209,775.2876,134.14209 C777.49677,134.14209,779.2876,135.93295,779.2876,138.14209 z M661.2047,240.67926 C661.2047,242.8884,659.4139,244.67926,657.2047,244.67926 C654.99554,244.67926,653.2047,242.8884,653.2047,240.67926 C653.2047,238.47012,654.99554,236.67926,657.2047,236.67926 C659.4139,236.67926,661.2047,238.47012,661.2047,240.67926 z M548.62396,196.22852 C548.62396,198.43765,546.8331,200.22852,544.62396,200.22852 C542.4148,200.22852,540.62396,198.43765,540.62396,196.22852 C540.62396,194.01938,542.4148,192.22852,544.62396,192.22852 C546.8331,192.22852,548.62396,194.01938,548.62396,196.22852 z" fill="#d62728" stroke="#d62728" stroke-width="0"/>
<path d="M78.5,655 L78.5,660" fill="none" shape-rendering="crispEdges" stroke="#444444" stroke-width="1"/>
<text fill="#444444" font-family="sans-serif" font-size="12" x="71.3" y="672">
-1
</text>
<path d="M231.7,655 L231.7,660" fill="none" shape-rendering="crispEdges" stroke="#444444" stroke-width="1"/>
<text fill="#444444" font-family="sans-serif" font-size="12" x="228.09999" y="672">
1
</text>
<path d="M384.9,655 L384.9,660" fill="none" shape-rendering="crispEdges" stroke="#444444" stroke-width="1"/>
<text fill="#444444" font-family="sans-serif" font-size="12" x="381.3" y="672">
3
</text>
<path d="M538.1,655 L538.1,660" fill="none" shape-rendering="crispEdges" stroke="#444444" stroke-width="1"/>
<text fill="#444444" font-family="sans-serif" font-size="12" x="534.5" y="672">
5
</text>
<path d="M691.3,655 L691.3,660" fill="none" shape-rendering="crispEdges" stroke="#444444" stroke-width="1"/>
<text fill="#444444" font-family="sans-serif" font-size="12" x="687.7" y="672">
7
</text>
<path d="M844.5,655 L844.5,660" fill="none" shape-rendering="crispEdges" stroke="#444444" stroke-width="1"/>
<text fill="#444444" font-family="sans-serif" font-size="12" x="840.9" y="672">
9
</text>
<path d="M40.2,627.4091 L35.2,627.4091" fill="none" shape-rendering="crispEdges" stroke="#444444" stroke-width="1"/>
<text fill="#444444" font-family="sans-serif" font-size="12" x="23" y="632.2091">
0
</text>
<path d="M40.2,489.45456 L35.2,489.45456" fill="none" shape-rendering="crispEdges" stroke="#444444" stroke-width="1"/>
<text fill="#444444" font-family="sans-serif" font-size="12" x="23" y="494.25455">
2
</text>
<path d="M40.2,351.5 L35.2,351.5" fill="none" shape-rendering="crispEdges" stroke="#444444" stroke-width="1"/>
<text fill="#444444" font-family="sans-serif" font-size="12" x="23" y="356.3">
4
</text>
<path d="M40.2,213.54546 L35.2,213.54546" fill="none" shape-rendering="crispEdges" stroke="#444444" stroke-width="1"/>
<text fill="#444444" font-family="sans-serif" font-size="12" x="23" y="218.34546">
6
</text>
<path d="M40.2,75.59091 L35.2,75.59091" fill="none" shape-rendering="crispEdges" stroke="#444444" stroke-width="1"/>
<text fill="#444444" font-family="sans-serif" font-size="12" x="23" y="80.390915">
8
</text>
<path d="M40.2,655 L882.8,655" fill="none" shape-rendering="crispEdges" stroke="#000000" stroke-width="1"/>
<path d="M40.2,48 L40.2,655" fill="none" shape-rendering="crispEdges" stroke="#000000" stroke-width="1"/>
<rect fill="#ffffff" height="56" shape-rendering="crispEdges" width="86" x="56.2" y="64"/>
<path d="M56.2,64 L142.2,64 L142.2,120 L56.2,120 z" fill="none" shape-rendering="crispEdges" stroke="#444444" stroke-width="1"/>
<path d="M75,78 C75,80.65097,72.85097,82.8,70.2,82.8 C67.54903,82.8,65.399994,80.65097,65.399994,78 C65.399994,75.34903,67.54903,73.2,70.2,73.2 C72.85097,73.2,75,75.34903,75,78" fill="#1f77b4" stroke="#000000" stroke-width="0"/>
<text fill="#333333" font-family="sans-serif" font-size="12" x="82.2" y="82">
Group α
</text>
<path d="M75,98 C75,100.65097,72.85097,102.8,70.2,102.8 C67.54903,102.8,65.399994,100.65097,65.399994,98 C65.399994,95.34903,67.54903,93.2,70.2,93.2 C72.85097,93.2,75,95.34903,75,98" fill="#d62728" stroke="#000000" stroke-width="0"/>
<text fill="#333333" font-family="sans-serif" font-size="12" x="82.2" y="102">
Group β
</text>
</svg>