<svg xmlns="http://www.w3.org/2000/svg" width="900" height="700" viewBox="0 0 900 700"><path fill="#fff" d="M40.2 48h842.6v607H40.2z" shape-rendering="crispEdges"/><text x="307.9" y="32" fill="#111" font-family="sans-serif" font-size="16">
Two Clusters in 2D Feature Space
</text><text x="429.1" y="690" fill="#333" font-family="sans-serif" font-size="12">
Feature A
</text><text x="22" y="383.9" fill="#333" font-family="sans-serif" font-size="12" transform="rotate(-90 22 383.9)">
Feature B
</text><path fill="none" stroke="#ddd" d="M78.5 655V48m153.2 607V48m153.2 607V48m153.2 607V48m153.2 607V48m153.2 607V48M40.2 627.41h842.6M40.2 489.455h842.6M40.2 351.5h842.6M40.2 213.545h842.6M40.2 75.59h842.6" shape-rendering="crispEdges"/><path fill="#1f77b4" d="M353.862 467.6a4 4 0 1 1-8 0 4 4 0 0 1 8 0m42.898-12.08a4 4 0 1 1-8 0 4 4 0 0 1 8 0m-109.023-29.086a4 4 0 1 1-8 0 4 4 0 0 1 8 0m115.295 26.406a4 4 0 1 1-8 0 4 4 0 0 1 8 0M276.94 337.632a4 4 0 1 1-8 0 4 4 0 0 1 8 0m69.666 12.209a4 4 0 1 1-8 0 4 4 0 0 1 8 0m-34.248 104.79a4 4 0 1 1-8 0 4 4 0 0 1 8 0m127.995-63.5a4 4 0 1 1-8 0 4 4 0 0 1 8 0M326.54 456.713a4 4 0 1 1-8 0 4 4 0 0 1 8 0m-61.448-165.498a4 4 0 1 1-8 0 4 4 0 0 1 8 0m65.302 137.238a4 4 0 1 1-8 0 4 4 0 0 1 8 0m77.158 18.332a4 4 0 1 1-8 0 4 4 0 0 1 8 0m78.74-38.903a4 4 0 1 1-8 0 4 4 0 0 1 8 0m-235.04-50.694a4 4 0 1 1-8 0 4 4 0 0 1 8 0m22.366 41.483a4 4 0 1 1-8 0 4 4 0 0 1 8 0m96.818-93.346a4 4 0 1 1-8 0 4 4 0 0 1 8 0m-115.97 65.819a4 4 0 1 1-8 0 4 4 0 0 1 8 0m110.27 80.175a4 4 0 1 1-8 0 4 4 0 0 1 8 0m54.623 99.47a4 4 0 1 1-8 0 4 4 0 0 1 8 0m-53.37-143.883a4 4 0 1 1-8 0 4 4 0 0 1 8 0M160.84 401.77a4 4 0 1 1-8 0 4 4 0 0 1 8 0m333.17-20.8a4 4 0 1 1-8 0 4 4 0 0 1 8 0m-134.89 23.828a4 4 0 1 1-8 0 4 4 0 0 1 8 0m-77.726 82.884a4 4 0 1 1-8 0 4 4 0 0 1 8 0m210.908-125.565a4 4 0 1 1-8 0 4 4 0 0 1 8 0m-62.858 79.424a4 4 0 1 1-8 0 4 4 0 0 1 8 0m-63.743-85.861a4 4 0 1 1-8 0 4 4 0 0 1 8 0m28.07-39.541a4 4 0 1 1-8 0 4 4 0 0 1 8 0M228.644 491.48a4 4 0 1 1-8 0 4 4 0 0 1 8 0m156.688-131.653a4 4 0 1 1-8 0 4 4 0 0 1 8 0M340.197 526.58a4 4 0 1 1-8 0 4 4 0 0 1 8 0m-44.416-119.403a4 4 0 1 1-8 0 4 4 0 0 1 8 0m136.707-3.122a4 4 0 1 1-8 0 4 4 0 0 1 8 0M356.12 514.934a4 4 0 1 1-8 0 4 4 0 0 1 8 0m-3.423-112.097a4 4 0 1 1-8 0 4 4 0 0 1 8 0m18.516-192.584a4 4 0 1 1-8 0 4 4 0 0 1 8 0m-171.175 376.92a4 4 0 1 1-8 0 4 4 0 0 1 8 0m291.598-141.949a4 4 0 1 1-8 0 4 4 0 0 1 8 0M363.608 387.38a4 4 0 1 1-8 0 4 4 0 0 1 8 0m-80.166 112.059a4 4 0 1 1-8 0 4 4 0 0 1 8 0m45.828-147.495a4 4 0 1 1-8 0 4 4 0 0 1 8 0m17.438 43.809a4 4 0 1 1-8 0 4 4 0 0 1 8 0m83.729-12.33a4 4 0 1 1-8 0 4 4 0 0 1 8 0m-158.181 14.13a4 4 0 1 1-8 0 4 4 0 0 1 8 0M187.51 504.644a4 4 0 1 1-8 0 4 4 0 0 1 8 0m114.223-80.65a4 4 0 1 1-8 0 4 4 0 0 1 8 0m83.978 6.847a4 4 0 1 1-8 0 4 4 0 0 1 8 0M120.43 524.71a4 4 0 1 1-8 0 4 4 0 0 1 8 0m172.64-81.68a4 4 0 1 1-8 0 4 4 0 0 1 8 0m39.658-104.694a4 4 0 1 1-8 0 4 4 0 0 1 8 0m80.85 142.865a4 4 0 1 1-8 0 4 4 0 0 1 8 0m-39.836-14.842a4 4 0 1 1-8 0 4 4 0 0 1 8 0m-6.686-96.832a4 4 0 1 1-8 0 4 4 0 0 1 8 0m-108.623 32.54a4 4 0 1 1-8 0 4 4 0 0 1 8 0m179.63 75.43a4 4 0 1 1-8-.001 4 4 0 0 1 8 0m-87.4 2.54a4 4 0 1 1-8 0 4 4 0 0 1 8 0m-43.646-58.497a4 4 0 1 1-8 0 4 4 0 0 1 8 0m140.058 2.796a4 4 0 1 1-8 0 4 4 0 0 1 8 0m-84.675 12.15a4 4 0 1 1-8 0 4 4 0 0 1 8 0m18.265 79.805a4 4 0 1 1-8 0 4 4 0 0 1 8 0M308.153 343.3a4 4 0 1 1-8 0 4 4 0 0 1 8 0m46.6 166.434a4 4 0 1 1-8 0 4 4 0 0 1 8 0m-96.9 24.616a4 4 0 1 1-8 0 4 4 0 0 1 8 0m87.108-113.974a4 4 0 1 1-8 0 4 4 0 0 1 8 0m95.263 71.844a4 4 0 1 1-8 0 4 4 0 0 1 8 0m-94.308-37.442a4 4 0 1 1-8 0 4 4 0 0 1 8 0m-55.923-28.209a4 4 0 1 1-8 0 4 4 0 0 1 8 0m167.287-.885a4 4 0 1 1-8 0 4 4 0 0 1 8 0m-6.748 13.8a4 4 0 1 1-8 0 4 4 0 0 1 8 0m-106.748-61.98a4 4 0 1 1-8 0 4 4 0 0 1 8 0M322.487 477.73a4 4 0 1 1-8 0 4 4 0 0 1 8 0m-24.19-.203a4 4 0 1 1-8 0 4 4 0 0 1 8 0m68.293 3.695a4 4 0 1 1-8 0 4 4 0 0 1 8 0m-51.384-32.619a4 4 0 1 1-8 0 4 4 0 0 1 8 0M449.85 491.53a4 4 0 1 1-8 0 4 4 0 0 1 8 0m-51.438-25.566a4 4 0 1 1-8 0 4 4 0 0 1 8 0m-117.755-17.426a4 4 0 1 1-8 0 4 4 0 0 1 8 0m61.558-26.008a4 4 0 1 1-8 0 4 4 0 0 1 8 0M213.35 473.025a4 4 0 1 1-8 0 4 4 0 0 1 8 0m167.016-128.984a4 4 0 1 1-8 0 4 4 0 0 1 8 0"/><path fill="#d62728" d="M526.057 287.84a4 4 0 1 1-8 0 4 4 0 0 1 8 0m221.507-87.681a4 4 0 1 1-8 0 4 4 0 0 1 8 0M480.97 241.822a4 4 0 1 1-8 0 4 4 0 0 1 8 0m233.29-13.275a4 4 0 1 1-8 0 4 4 0 0 1 8 0m-126.219-32.423a4 4 0 1 1-8 0 4 4 0 0 1 8 0m-62.298 85.763a4 4 0 1 1-8 0 4 4 0 0 1 8 0M697.72 157.868a4 4 0 1 1-8 0 4 4 0 0 1 8 0m-60.652 90.934a4 4 0 1 1-8 0 4 4 0 0 1 8 0m30.902 22.505a4 4 0 1 1-8 0 4 4 0 0 1 8 0m94.82-28.374a4 4 0 1 1-8 0 4 4 0 0 1 8 0m-162.404 26.512a4 4 0 1 1-8 0 4 4 0 0 1 8 0m-36.698-61.227a4 4 0 1 1-8 0 4 4 0 0 1 8 0m-20.25 111.13a4 4 0 1 1-8 0 4 4 0 0 1 8 0m161.76-157.536a4 4 0 1 1-8 0 4 4 0 0 1 8 0M578.597 282.877a4 4 0 1 1-8 0 4 4 0 0 1 8 0m-2.908 6.141a4 4 0 1 1-8 0 4 4 0 0 1 8 0m102.919 10.375a4 4 0 1 1-8 0 4 4 0 0 1 8 0m-108.631 47.369a4 4 0 1 1-8 0 4 4 0 0 1 8 0m74.375-172.722a4 4 0 1 1-8 0 4 4 0 0 1 8 0M479.136 335.817a4 4 0 1 1-8 0 4 4 0 0 1 8 0m114.546-33.891a4 4 0 1 1-8 0 4 4 0 0 1 8 0M539.54 246.81a4 4 0 1 1-8 0 4 4 0 0 1 8 0m2.143 103.91a4 4 0 1 1-8 0 4 4 0 0 1 8 0m69.818 130.68a4 4 0 1 1-8 0 4 4 0 0 1 8 0m21.785-233.858a4 4 0 1 1-8 0 4 4 0 0 1 8 0m8.727-5.155a4 4 0 1 1-8 0 4 4 0 0 1 8 0m44.81 16.331a4 4 0 1 1-8 0 4 4 0 0 1 8 0m-108.385 9.824a4 4 0 1 1-8 0 4 4 0 0 1 8 0m97.51-27.661a4 4 0 1 1-8 0 4 4 0 0 1 8 0m-77.504-10.282a4 4 0 1 1-8 0 4 4 0 0 1 8 0m-90.725-82.448a4 4 0 1 1-8 0 4 4 0 0 1 8 0m-40.165 204.805a4 4 0 1 1-8 0 4 4 0 0 1 8 0m80.223-160.025a4 4 0 1 1-8 0 4 4 0 0 1 8 0m-69.51 112.182a4 4 0 1 1-8 0 4 4 0 0 1 8 0m158.284 81.722a4 4 0 1 1-8 0 4 4 0 0 1 8 0m-64.42-54.555a4 4 0 1 1-8 0 4 4 0 0 1 8 0m-33.313-145.51a4 4 0 1 1-8 0 4 4 0 0 1 8 0m16.31 64.399a4 4 0 1 1-8 0 4 4 0 0 1 8 0m138.376-74.98a4 4 0 1 1-8 0 4 4 0 0 1 8 0m-12.631 164.912a4 4 0 1 1-8 0 4 4 0 0 1 8 0m-26.33-104.828a4 4 0 1 1-8 0 4 4 0 0 1 8 0m-7.554-131.798a4 4 0 1 1-8 0 4 4 0 0 1 8 0m65.028 282.85a4 4 0 1 1-8 0 4 4 0 0 1 8 0M511.094 276.36a4 4 0 1 1-8 0 4 4 0 0 1 8 0M641.841 169a4 4 0 1 1-8 0 4 4 0 0 1 8 0m-45.586 87.577a4 4 0 1 1-8 0 4 4 0 0 1 8 0M747.47 306.92a4 4 0 1 1-8 0 4 4 0 0 1 8 0M505.614 145.134a4 4 0 1 1-8 0 4 4 0 0 1 8 0m49.52 78.928a4 4 0 1 1-8 0 4 4 0 0 1 8 0m-51.75-73.2a4 4 0 1 1-8 0 4 4 0 0 1 8 0m69.698-35.212a4 4 0 1 1-8 0 4 4 0 0 1 8 0m194.97-2.52a4 4 0 1 1-8 0 4 4 0 0 1 8 0m.715 118.9a4 4 0 1 1-8 0 4 4 0 0 1 8 0m16.878-94.997a4 4 0 1 1-8 0 4 4 0 0 1 8 0M681.577 318.63a4 4 0 1 1-8 0 4 4 0 0 1 8 0M547.414 197.097a4 4 0 1 1-8 0 4 4 0 0 1 8 0m106.188 205.928a4 4 0 1 1-8 0 4 4 0 0 1 8 0m-15.606 2.447a4 4 0 1 1-8 0 4 4 0 0 1 8 0m-72.422-128.92a4 4 0 1 1-8 0 4 4 0 0 1 8 0m-67.516 17.192a4 4 0 1 1-8 0 4 4 0 0 1 8 0m161.635-17.467a4 4 0 1 1-8 0 4 4 0 0 1 8 0m-160.299-29.154a4 4 0 1 1-8 0 4 4 0 0 1 8 0m71.872 16.222a4 4 0 1 1-8 0 4 4 0 0 1 8 0m48.626-70.647a4 4 0 1 1-8 0 4 4 0 0 1 8 0m-91.244 119.446a4 4 0 1 1-8 0 4 4 0 0 1 8 0m-17.481-137.186a4 4 0 1 1-8 0 4 4 0 0 1 8 0m225.31 171.24a4 4 0 1 1-8 0 4 4 0 0 1 8 0m-99.655-121.89a4 4 0 1 1-8 0 4 4 0 0 1 8 0m56.476 70.486a4 4 0 1 1-8 0 4 4 0 0 1 8 0m-37.594-19.17a4 4 0 1 1-8 0 4 4 0 0 1 8 0m-42.849-23.116a4 4 0 1 1-8 0 4 4 0 0 1 8 0M475.08 160.012a4 4 0 1 1-8 0 4 4 0 0 1 8 0m176.862 56.586a4 4 0 1 1-8 0 4 4 0 0 1 8 0m-80.413 33.606a4 4 0 1 1-8 0 4 4 0 0 1 8 0m-17.31 17.887a4 4 0 1 1-8 0 4 4 0 0 1 8 0m57.141-58.936a4 4 0 1 1-8 0 4 4 0 0 1 8 0m-190.005 65.318a4 4 0 1 1-8 0 4 4 0 0 1 8 0m357.933-136.33a4 4 0 1 1-8 0 4 4 0 0 1 8 0M661.205 240.678a4 4 0 1 1-8 0 4 4 0 0 1 8 0m-112.581-44.45a4 4 0 1 1-8 0 4 4 0 0 1 8 0"/><path fill="none" stroke="#444" d="M78.5 655v5" shape-rendering="crispEdges"/><text x="71.3" y="672" fill="#444" font-family="sans-serif" font-size="12">
-1
</text><path fill="none" stroke="#444" d="M231.7 655v5" shape-rendering="crispEdges"/><text x="228.1" y="672" fill="#444" font-family="sans-serif" font-size="12">
1
</text><path fill="none" stroke="#444" d="M384.9 655v5" shape-rendering="crispEdges"/><text x="381.3" y="672" fill="#444" font-family="sans-serif" font-size="12">
3
</text><path fill="none" stroke="#444" d="M538.1 655v5" shape-rendering="crispEdges"/><text x="534.5" y="672" fill="#444" font-family="sans-serif" font-size="12">
5
</text><path fill="none" stroke="#444" d="M691.3 655v5" shape-rendering="crispEdges"/><text x="687.7" y="672" fill="#444" font-family="sans-serif" font-size="12">
7
</text><path fill="none" stroke="#444" d="M844.5 655v5" shape-rendering="crispEdges"/><text x="840.9" y="672" fill="#444" font-family="sans-serif" font-size="12">
9
</text><path fill="none" stroke="#444" d="M40.2 627.41h-5" shape-rendering="crispEdges"/><text x="23" y="632.209" fill="#444" font-family="sans-serif" font-size="12">
0
</text><path fill="none" stroke="#444" d="M40.2 489.455h-5" shape-rendering="crispEdges"/><text x="23" y="494.255" fill="#444" font-family="sans-serif" font-size="12">
2
</text><path fill="none" stroke="#444" d="M40.2 351.5h-5" shape-rendering="crispEdges"/><text x="23" y="356.3" fill="#444" font-family="sans-serif" font-size="12">
4
</text><path fill="none" stroke="#444" d="M40.2 213.545h-5" shape-rendering="crispEdges"/><text x="23" y="218.345" fill="#444" font-family="sans-serif" font-size="12">
6
</text><path fill="none" stroke="#444" d="M40.2 75.59h-5" shape-rendering="crispEdges"/><text x="23" y="80.391" fill="#444" font-family="sans-serif" font-size="12">
8
</text><path fill="none" stroke="#000" d="M40.2 655h842.6M40.2 48v607" shape-rendering="crispEdges"/><path fill="#fff" d="M56.2 64h86v56h-86z" shape-rendering="crispEdges"/><path fill="none" stroke="#444" d="M56.2 64h86v56h-86z" shape-rendering="crispEdges"/><path fill="#1f77b4" d="M75 78a4.8 4.8 0 1 1-9.6 0 4.8 4.8 0 0 1 9.6 0"/><text x="82.2" y="82" fill="#333" font-family="sans-serif" font-size="12">
Group α
</text><path fill="#d62728" d="M75 98a4.8 4.8 0 1 1-9.6 0 4.8 4.8 0 0 1 9.6 0"/><text x="82.2" y="102" fill="#333" font-family="sans-serif" font-size="12">
Group β
</text></svg>